<svg xmlns="http://www.w3.org/2000/svg" xmlns:dc="http://purl.org/dc/elements/1.1/" xmlns:ns2="http://creativecommons.org/ns#" xmlns:rdf="http://www.w3.org/1999/02/22-rdf-syntax-ns#" xmlns:xlink="http://www.w3.org/1999/xlink" width="137.0" height="68.0" viewBox="0.0 0.0 137.0 68.0">
<g id="graph0" class="graph" transform="scale(1.0 1.0) rotate(0) translate(4 64)">
<title>G</title>
<polygon fill="white" stroke="transparent" points="-4,4 -4,-64 133,-64 133,4 -4,4" />

<g id="node1" class="node">
<title>leaf0</title>
<polygon fill="none" stroke="#444443" stroke-width="0" points="129,-60 0,-60 0,0 129,0 129,-60" />
<svg width="121px" height="52px" viewBox="0 0 161.761875 69.768625" version="1.1" preserveAspectRatio="xMinYMin meet" x="4.5" y="-56">
 <metadata>
  <rdf:RDF>
   <ns2:Work>
    <dc:type rdf:resource="http://purl.org/dc/dcmitype/StillImage" />
    <dc:date>2022-01-18T17:04:12.583334</dc:date>
    <dc:format>image/svg+xml</dc:format>
    <dc:creator>
     <ns2:Agent>
      <dc:title>Matplotlib v3.5.1, https://matplotlib.org/</dc:title>
     </ns2:Agent>
    </dc:creator>
   </ns2:Work>
  </rdf:RDF>
 </metadata>
 <defs>
  <style type="text/css">*{stroke-linejoin: round; stroke-linecap: butt}</style>
 </defs>
 <g id="figure_1">
  <g id="patch_1">
   <path d="M 0 69.768625  L 161.761875 69.768625  L 161.761875 0  L 0 0  z " style="fill: #ffffff" />
  </g>
  <g id="axes_1">
   <g id="patch_2">
    <path d="M 59.455938 44.352  L 101.305937 44.352  L 101.305937 0  L 59.455938 0  z " style="fill: #ffffff" />
   </g>
   <g id="PathCollection_1">
    <defs>
     <path id="m3f6569f434" d="M 0 1.118034  C 0.296506 1.118034 0.580908 1.000231 0.790569 0.790569  C 1.000231 0.580908 1.118034 0.296506 1.118034 0  C 1.118034 -0.296506 1.000231 -0.580908 0.790569 -0.790569  C 0.580908 -1.000231 0.296506 -1.118034 0 -1.118034  C -0.296506 -1.118034 -0.580908 -1.000231 -0.790569 -0.790569  C -1.000231 -0.580908 -1.118034 -0.296506 -1.118034 0  C -1.118034 0.296506 -1.000231 0.580908 -0.790569 0.790569  C -0.580908 1.000231 -0.296506 1.118034 0 1.118034  z " style="stroke: #4575b4; stroke-opacity: 0.7; stroke-width: 0.3" />
    </defs>
    <g clip-path="url(#p0b30b2cefb)">
     <use xlink:href="#m3f6569f434" x="83.304085" y="35.094058" style="fill: #4575b4; fill-opacity: 0.7; stroke: #4575b4; stroke-opacity: 0.7; stroke-width: 0.3" />
     <use xlink:href="#m3f6569f434" x="87.588968" y="35.094058" style="fill: #4575b4; fill-opacity: 0.7; stroke: #4575b4; stroke-opacity: 0.7; stroke-width: 0.3" />
     <use xlink:href="#m3f6569f434" x="80.312052" y="35.094058" style="fill: #4575b4; fill-opacity: 0.7; stroke: #4575b4; stroke-opacity: 0.7; stroke-width: 0.3" />
     <use xlink:href="#m3f6569f434" x="80.882266" y="35.094058" style="fill: #4575b4; fill-opacity: 0.7; stroke: #4575b4; stroke-opacity: 0.7; stroke-width: 0.3" />
     <use xlink:href="#m3f6569f434" x="82.434953" y="35.094058" style="fill: #4575b4; fill-opacity: 0.7; stroke: #4575b4; stroke-opacity: 0.7; stroke-width: 0.3" />
     <use xlink:href="#m3f6569f434" x="84.827194" y="35.094058" style="fill: #4575b4; fill-opacity: 0.7; stroke: #4575b4; stroke-opacity: 0.7; stroke-width: 0.3" />
     <use xlink:href="#m3f6569f434" x="80.227865" y="35.094058" style="fill: #4575b4; fill-opacity: 0.7; stroke: #4575b4; stroke-opacity: 0.7; stroke-width: 0.3" />
     <use xlink:href="#m3f6569f434" x="75.375008" y="35.094058" style="fill: #4575b4; fill-opacity: 0.7; stroke: #4575b4; stroke-opacity: 0.7; stroke-width: 0.3" />
     <use xlink:href="#m3f6569f434" x="78.519428" y="35.094058" style="fill: #4575b4; fill-opacity: 0.7; stroke: #4575b4; stroke-opacity: 0.7; stroke-width: 0.3" />
     <use xlink:href="#m3f6569f434" x="81.060926" y="35.094058" style="fill: #4575b4; fill-opacity: 0.7; stroke: #4575b4; stroke-opacity: 0.7; stroke-width: 0.3" />
    </g>
   </g>
   <g id="matplotlib.axis_1" />
   <g id="matplotlib.axis_2">
    <g id="ytick_1">
     <g id="line2d_1">
      <defs>
       <path id="mb0299a9b9f" d="M 0 0  L -3.5 0  " style="stroke: #444443; stroke-width: 0.3" />
      </defs>
      <g>
       <use xlink:href="#mb0299a9b9f" x="59.455938" y="35.094058" style="fill: #444443; stroke: #444443; stroke-width: 0.3" />
      </g>
     </g>
     <g id="text_1">
      
      <g style="fill: #444443" transform="translate(34.643438 38.133433)scale(0.08 -0.08)">
       <defs>
        <path id="DejaVuSans-31" d="M 794 531  L 1825 531  L 1825 4091  L 703 3866  L 703 4441  L 1819 4666  L 2450 4666  L 2450 531  L 3481 531  L 3481 0  L 794 0  L 794 531  z " transform="scale(0.015625)" />
        <path id="DejaVuSans-2e" d="M 684 794  L 1344 794  L 1344 0  L 684 0  L 684 794  z " transform="scale(0.015625)" />
        <path id="DejaVuSans-30" d="M 2034 4250  Q 1547 4250 1301 3770  Q 1056 3291 1056 2328  Q 1056 1369 1301 889  Q 1547 409 2034 409  Q 2525 409 2770 889  Q 3016 1369 3016 2328  Q 3016 3291 2770 3770  Q 2525 4250 2034 4250  z M 2034 4750  Q 2819 4750 3233 4129  Q 3647 3509 3647 2328  Q 3647 1150 3233 529  Q 2819 -91 2034 -91  Q 1250 -91 836 529  Q 422 1150 422 2328  Q 422 3509 836 4129  Q 1250 4750 2034 4750  z " transform="scale(0.015625)" />
       </defs>
       <use xlink:href="#DejaVuSans-31" />
       <use xlink:href="#DejaVuSans-2e" x="63.623047" />
       <use xlink:href="#DejaVuSans-30" x="95.410156" />
       <use xlink:href="#DejaVuSans-30" x="159.033203" />
      </g>
     </g>
    </g>
    <g id="ytick_2">
     <g id="line2d_2">
      <g>
       <use xlink:href="#mb0299a9b9f" x="59.455938" y="13.563961" style="fill: #444443; stroke: #444443; stroke-width: 0.3" />
      </g>
     </g>
     <g id="text_2">
      
      <g style="fill: #444443" transform="translate(34.643438 16.603336)scale(0.08 -0.08)">
       <defs>
        <path id="DejaVuSans-35" d="M 691 4666  L 3169 4666  L 3169 4134  L 1269 4134  L 1269 2991  Q 1406 3038 1543 3061  Q 1681 3084 1819 3084  Q 2600 3084 3056 2656  Q 3513 2228 3513 1497  Q 3513 744 3044 326  Q 2575 -91 1722 -91  Q 1428 -91 1123 -41  Q 819 9 494 109  L 494 744  Q 775 591 1075 516  Q 1375 441 1709 441  Q 2250 441 2565 725  Q 2881 1009 2881 1497  Q 2881 1984 2565 2268  Q 2250 2553 1709 2553  Q 1456 2553 1204 2497  Q 953 2441 691 2322  L 691 4666  z " transform="scale(0.015625)" />
       </defs>
       <use xlink:href="#DejaVuSans-31" />
       <use xlink:href="#DejaVuSans-2e" x="63.623047" />
       <use xlink:href="#DejaVuSans-30" x="95.410156" />
       <use xlink:href="#DejaVuSans-35" x="159.033203" />
      </g>
     </g>
    </g>
   </g>
   <g id="line2d_3">
    <path d="M 59.455938 35.094058  L 162.761875 35.094058  " clip-path="url(#p0b30b2cefb)" style="fill: none; stroke-dasharray: 3.7,1.6; stroke-dashoffset: 0; stroke: #444443" />
   </g>
   <g id="patch_3">
    <path d="M 59.455938 44.352  L 59.455938 0  " style="fill: none; stroke: #000000; stroke-width: 0.3; stroke-linejoin: miter; stroke-linecap: square" />
   </g>
   <g id="text_3">
    
    <g style="fill: #444443" transform="translate(0 54.691375)scale(0.12 -0.12)">
     <defs>
      <path id="ArialMT-43" d="M 3763 1606  L 4369 1453  Q 4178 706 3683 314  Q 3188 -78 2472 -78  Q 1731 -78 1267 223  Q 803 525 561 1097  Q 319 1669 319 2325  Q 319 3041 592 3573  Q 866 4106 1370 4382  Q 1875 4659 2481 4659  Q 3169 4659 3637 4309  Q 4106 3959 4291 3325  L 3694 3184  Q 3534 3684 3231 3912  Q 2928 4141 2469 4141  Q 1941 4141 1586 3887  Q 1231 3634 1087 3207  Q 944 2781 944 2328  Q 944 1744 1114 1308  Q 1284 872 1643 656  Q 2003 441 2422 441  Q 2931 441 3284 734  Q 3638 1028 3763 1606  z " transform="scale(0.015625)" />
      <path id="ArialMT-61" d="M 2588 409  Q 2275 144 1986 34  Q 1697 -75 1366 -75  Q 819 -75 525 192  Q 231 459 231 875  Q 231 1119 342 1320  Q 453 1522 633 1644  Q 813 1766 1038 1828  Q 1203 1872 1538 1913  Q 2219 1994 2541 2106  Q 2544 2222 2544 2253  Q 2544 2597 2384 2738  Q 2169 2928 1744 2928  Q 1347 2928 1158 2789  Q 969 2650 878 2297  L 328 2372  Q 403 2725 575 2942  Q 747 3159 1072 3276  Q 1397 3394 1825 3394  Q 2250 3394 2515 3294  Q 2781 3194 2906 3042  Q 3031 2891 3081 2659  Q 3109 2516 3109 2141  L 3109 1391  Q 3109 606 3145 398  Q 3181 191 3288 0  L 2700 0  Q 2613 175 2588 409  z M 2541 1666  Q 2234 1541 1622 1453  Q 1275 1403 1131 1340  Q 988 1278 909 1158  Q 831 1038 831 891  Q 831 666 1001 516  Q 1172 366 1500 366  Q 1825 366 2078 508  Q 2331 650 2450 897  Q 2541 1088 2541 1459  L 2541 1666  z " transform="scale(0.015625)" />
      <path id="ArialMT-72" d="M 416 0  L 416 3319  L 922 3319  L 922 2816  Q 1116 3169 1280 3281  Q 1444 3394 1641 3394  Q 1925 3394 2219 3213  L 2025 2691  Q 1819 2813 1613 2813  Q 1428 2813 1281 2702  Q 1134 2591 1072 2394  Q 978 2094 978 1738  L 978 0  L 416 0  z " transform="scale(0.015625)" />
      <path id="ArialMT-74" d="M 1650 503  L 1731 6  Q 1494 -44 1306 -44  Q 1000 -44 831 53  Q 663 150 594 308  Q 525 466 525 972  L 525 2881  L 113 2881  L 113 3319  L 525 3319  L 525 4141  L 1084 4478  L 1084 3319  L 1650 3319  L 1650 2881  L 1084 2881  L 1084 941  Q 1084 700 1114 631  Q 1144 563 1211 522  Q 1278 481 1403 481  Q 1497 481 1650 503  z " transform="scale(0.015625)" />
      <path id="ArialMT-50" d="M 494 0  L 494 4581  L 2222 4581  Q 2678 4581 2919 4538  Q 3256 4481 3484 4323  Q 3713 4166 3852 3881  Q 3991 3597 3991 3256  Q 3991 2672 3619 2267  Q 3247 1863 2275 1863  L 1100 1863  L 1100 0  L 494 0  z M 1100 2403  L 2284 2403  Q 2872 2403 3119 2622  Q 3366 2841 3366 3238  Q 3366 3525 3220 3729  Q 3075 3934 2838 4000  Q 2684 4041 2272 4041  L 1100 4041  L 1100 2403  z " transform="scale(0.015625)" />
      <path id="ArialMT-6f" d="M 213 1659  Q 213 2581 725 3025  Q 1153 3394 1769 3394  Q 2453 3394 2887 2945  Q 3322 2497 3322 1706  Q 3322 1066 3130 698  Q 2938 331 2570 128  Q 2203 -75 1769 -75  Q 1072 -75 642 372  Q 213 819 213 1659  z M 791 1659  Q 791 1022 1069 705  Q 1347 388 1769 388  Q 2188 388 2466 706  Q 2744 1025 2744 1678  Q 2744 2294 2464 2611  Q 2184 2928 1769 2928  Q 1347 2928 1069 2612  Q 791 2297 791 1659  z " transform="scale(0.015625)" />
      <path id="ArialMT-6c" d="M 409 0  L 409 4581  L 972 4581  L 972 0  L 409 0  z " transform="scale(0.015625)" />
      <path id="ArialMT-65" d="M 2694 1069  L 3275 997  Q 3138 488 2766 206  Q 2394 -75 1816 -75  Q 1088 -75 661 373  Q 234 822 234 1631  Q 234 2469 665 2931  Q 1097 3394 1784 3394  Q 2450 3394 2872 2941  Q 3294 2488 3294 1666  Q 3294 1616 3291 1516  L 816 1516  Q 847 969 1125 678  Q 1403 388 1819 388  Q 2128 388 2347 550  Q 2566 713 2694 1069  z M 847 1978  L 2700 1978  Q 2663 2397 2488 2606  Q 2219 2931 1791 2931  Q 1403 2931 1139 2672  Q 875 2413 847 1978  z " transform="scale(0.015625)" />
      <path id="ArialMT-2d" d="M 203 1375  L 203 1941  L 1931 1941  L 1931 1375  L 203 1375  z " transform="scale(0.015625)" />
      <path id="ArialMT-76" d="M 1344 0  L 81 3319  L 675 3319  L 1388 1331  Q 1503 1009 1600 663  Q 1675 925 1809 1294  L 2547 3319  L 3125 3319  L 1869 0  L 1344 0  z " transform="scale(0.015625)" />
      <path id="ArialMT-31" d="M 2384 0  L 1822 0  L 1822 3584  Q 1619 3391 1289 3197  Q 959 3003 697 2906  L 697 3450  Q 1169 3672 1522 3987  Q 1875 4303 2022 4600  L 2384 4600  L 2384 0  z " transform="scale(0.015625)" />
      <path id="ArialMT-3a" d="M 578 2678  L 578 3319  L 1219 3319  L 1219 2678  L 578 2678  z M 578 0  L 578 641  L 1219 641  L 1219 0  L 578 0  z " transform="scale(0.015625)" />
      <path id="ArialMT-20" transform="scale(0.015625)" />
      <path id="ArialMT-39" d="M 350 1059  L 891 1109  Q 959 728 1153 556  Q 1347 384 1650 384  Q 1909 384 2104 503  Q 2300 622 2425 820  Q 2550 1019 2634 1356  Q 2719 1694 2719 2044  Q 2719 2081 2716 2156  Q 2547 1888 2255 1720  Q 1963 1553 1622 1553  Q 1053 1553 659 1965  Q 266 2378 266 3053  Q 266 3750 677 4175  Q 1088 4600 1706 4600  Q 2153 4600 2523 4359  Q 2894 4119 3086 3673  Q 3278 3228 3278 2384  Q 3278 1506 3087 986  Q 2897 466 2520 194  Q 2144 -78 1638 -78  Q 1100 -78 759 220  Q 419 519 350 1059  z M 2653 3081  Q 2653 3566 2395 3850  Q 2138 4134 1775 4134  Q 1400 4134 1122 3828  Q 844 3522 844 3034  Q 844 2597 1108 2323  Q 1372 2050 1759 2050  Q 2150 2050 2401 2323  Q 2653 2597 2653 3081  z " transform="scale(0.015625)" />
      <path id="ArialMT-2e" d="M 581 0  L 581 641  L 1222 641  L 1222 0  L 581 0  z " transform="scale(0.015625)" />
      <path id="ArialMT-34" d="M 2069 0  L 2069 1097  L 81 1097  L 81 1613  L 2172 4581  L 2631 4581  L 2631 1613  L 3250 1613  L 3250 1097  L 2631 1097  L 2631 0  L 2069 0  z M 2069 1613  L 2069 3678  L 634 1613  L 2069 1613  z " transform="scale(0.015625)" />
      <path id="ArialMT-37" d="M 303 3981  L 303 4522  L 3269 4522  L 3269 4084  Q 2831 3619 2401 2847  Q 1972 2075 1738 1259  Q 1569 684 1522 0  L 944 0  Q 953 541 1156 1306  Q 1359 2072 1739 2783  Q 2119 3494 2547 3981  L 303 3981  z " transform="scale(0.015625)" />
      <path id="ArialMT-26" d="M 3041 541  Q 2763 231 2434 76  Q 2106 -78 1725 -78  Q 1022 -78 609 397  Q 275 784 275 1263  Q 275 1688 548 2030  Q 822 2372 1366 2631  Q 1056 2988 953 3209  Q 850 3431 850 3638  Q 850 4050 1173 4354  Q 1497 4659 1988 4659  Q 2456 4659 2754 4371  Q 3053 4084 3053 3681  Q 3053 3028 2188 2566  L 3009 1519  Q 3150 1794 3228 2156  L 3813 2031  Q 3663 1431 3406 1044  Q 3722 625 4122 341  L 3744 -106  Q 3403 113 3041 541  z M 1897 2928  Q 2263 3144 2370 3306  Q 2478 3469 2478 3666  Q 2478 3900 2329 4048  Q 2181 4197 1959 4197  Q 1731 4197 1579 4050  Q 1428 3903 1428 3691  Q 1428 3584 1483 3467  Q 1538 3350 1647 3219  L 1897 2928  z M 2688 984  L 1656 2263  Q 1200 1991 1040 1758  Q 881 1525 881 1297  Q 881 1019 1103 719  Q 1325 419 1731 419  Q 1984 419 2254 576  Q 2525 734 2688 984  z " transform="scale(0.015625)" />
      <path id="ArialMT-30" d="M 266 2259  Q 266 3072 433 3567  Q 600 4063 929 4331  Q 1259 4600 1759 4600  Q 2128 4600 2406 4451  Q 2684 4303 2865 4023  Q 3047 3744 3150 3342  Q 3253 2941 3253 2259  Q 3253 1453 3087 958  Q 2922 463 2592 192  Q 2263 -78 1759 -78  Q 1097 -78 719 397  Q 266 969 266 2259  z M 844 2259  Q 844 1131 1108 757  Q 1372 384 1759 384  Q 2147 384 2411 759  Q 2675 1134 2675 2259  Q 2675 3391 2411 3762  Q 2147 4134 1753 4134  Q 1366 4134 1134 3806  Q 844 3388 844 2259  z " transform="scale(0.015625)" />
      <path id="ArialMT-3d" d="M 3381 2694  L 356 2694  L 356 3219  L 3381 3219  L 3381 2694  z M 3381 1303  L 356 1303  L 356 1828  L 3381 1828  L 3381 1303  z " transform="scale(0.015625)" />
     </defs>
     <use xlink:href="#ArialMT-43" />
     <use xlink:href="#ArialMT-61" x="72.216797" />
     <use xlink:href="#ArialMT-72" x="127.832031" />
     <use xlink:href="#ArialMT-74" x="161.132812" />
     <use xlink:href="#ArialMT-50" x="188.916016" />
     <use xlink:href="#ArialMT-6f" x="255.615234" />
     <use xlink:href="#ArialMT-6c" x="311.230469" />
     <use xlink:href="#ArialMT-65" x="333.447266" />
     <use xlink:href="#ArialMT-2d" x="389.0625" />
     <use xlink:href="#ArialMT-76" x="422.363281" />
     <use xlink:href="#ArialMT-31" x="472.363281" />
     <use xlink:href="#ArialMT-3a" x="527.978516" />
     <use xlink:href="#ArialMT-20" x="555.761719" />
     <use xlink:href="#ArialMT-39" x="583.544922" />
     <use xlink:href="#ArialMT-2e" x="639.160156" />
     <use xlink:href="#ArialMT-34" x="666.943359" />
     <use xlink:href="#ArialMT-37" x="722.558594" />
     <use xlink:href="#ArialMT-20" x="778.173828" />
     <use xlink:href="#ArialMT-26" x="805.957031" />
     <use xlink:href="#ArialMT-20" x="872.65625" />
     <use xlink:href="#ArialMT-30" x="900.439453" />
     <use xlink:href="#ArialMT-2e" x="956.054688" />
     <use xlink:href="#ArialMT-37" x="983.837891" />
     <use xlink:href="#ArialMT-37" x="1039.453125" />
     <use xlink:href="#ArialMT-3d" x="1095.068359" />
     <use xlink:href="#ArialMT-31" x="1153.466797" />
     <use xlink:href="#ArialMT-2e" x="1209.082031" />
     <use xlink:href="#ArialMT-30" x="1236.865234" />
     <use xlink:href="#ArialMT-30" x="1292.480469" />
    </g>
    
    <g style="fill: #444443" transform="translate(67.366875 67.383625)scale(0.12 -0.12)">
     <defs>
      <path id="ArialMT-6e" d="M 422 0  L 422 3319  L 928 3319  L 928 2847  Q 1294 3394 1984 3394  Q 2284 3394 2536 3286  Q 2788 3178 2913 3003  Q 3038 2828 3088 2588  Q 3119 2431 3119 2041  L 3119 0  L 2556 0  L 2556 2019  Q 2556 2363 2490 2533  Q 2425 2703 2258 2804  Q 2091 2906 1866 2906  Q 1506 2906 1245 2678  Q 984 2450 984 1813  L 984 0  L 422 0  z " transform="scale(0.015625)" />
     </defs>
     <use xlink:href="#ArialMT-6e" />
     <use xlink:href="#ArialMT-3d" x="55.615234" />
     <use xlink:href="#ArialMT-31" x="114.013672" />
     <use xlink:href="#ArialMT-30" x="169.628906" />
    </g>
   </g>
  </g>
 </g>
 <defs>
  <clipPath id="p0b30b2cefb">
   <rect x="59.455938" y="0" width="41.85" height="44.352" />
  </clipPath>
 </defs>
</svg></g>
</g>
</svg>