<svg xmlns="http://www.w3.org/2000/svg" xmlns:dc="http://purl.org/dc/elements/1.1/" xmlns:ns2="http://creativecommons.org/ns#" xmlns:rdf="http://www.w3.org/1999/02/22-rdf-syntax-ns#" xmlns:xlink="http://www.w3.org/1999/xlink" width="283.0" height="185.0" viewBox="0.0 0.0 283.0 185.0">
<g id="graph0" class="graph" transform="scale(1.0 1.0) rotate(0) translate(4 181)">
<title>G</title>
<polygon fill="white" stroke="transparent" points="-4,4 -4,-181 279,-181 279,4 -4,4" />
<g id="clust2" class="cluster">
<title>cluster_legend</title>
</g>

<g id="node1" class="node">
<title>node0</title>
<svg width="168px" height="44px" viewBox="0 0 223.848025 59.443125" version="1.1" preserveAspectRatio="xMinYMin meet" x="4" y="-163.5">
 <metadata>
  <rdf:RDF>
   <ns2:Work>
    <dc:type rdf:resource="http://purl.org/dc/dcmitype/StillImage" />
    <dc:date>2021-12-16T22:06:23.470572</dc:date>
    <dc:format>image/svg+xml</dc:format>
    <dc:creator>
     <ns2:Agent>
      <dc:title>Matplotlib v3.5.1, https://matplotlib.org/</dc:title>
     </ns2:Agent>
    </dc:creator>
   </ns2:Work>
  </rdf:RDF>
 </metadata>
 <defs>
  <style type="text/css">*{stroke-linejoin: round; stroke-linecap: butt}</style>
 </defs>
 <g id="figure_1">
  <g id="patch_1">
   <path d="M 0 59.443125  L 223.848025 59.443125  L 223.848025 0  L 0 0  z " style="fill: #ffffff" />
  </g>
  <g id="axes_1">
   <g id="patch_2">
    <path d="M 32.45 29.439375  L 216.59 29.439375  L 216.59 1.719375  L 32.45 1.719375  z " style="fill: #ffffff" />
   </g>
   <g id="patch_3">
    <path d="M 32.45 29.439375  L 43.035104 29.439375  L 43.035104 29.380723  L 32.45 29.380723  z " clip-path="url(#pda89037011)" style="fill: #fefebb; stroke: #444443; stroke-width: 0.5; stroke-linejoin: miter" />
   </g>
   <g id="patch_4">
    <path d="M 43.035104 29.439375  L 53.620209 29.439375  L 53.620209 29.418915  L 43.035104 29.418915  z " clip-path="url(#pda89037011)" style="fill: #fefebb; stroke: #444443; stroke-width: 0.5; stroke-linejoin: miter" />
   </g>
   <g id="patch_5">
    <path d="M 53.620209 29.439375  L 64.205313 29.439375  L 64.205313 29.427099  L 53.620209 29.427099  z " clip-path="url(#pda89037011)" style="fill: #fefebb; stroke: #444443; stroke-width: 0.5; stroke-linejoin: miter" />
   </g>
   <g id="patch_6">
    <path d="M 64.205313 29.439375  L 74.790418 29.439375  L 74.790418 29.427099  L 64.205313 29.427099  z " clip-path="url(#pda89037011)" style="fill: #fefebb; stroke: #444443; stroke-width: 0.5; stroke-linejoin: miter" />
   </g>
   <g id="patch_7">
    <path d="M 74.790418 29.439375  L 85.375522 29.439375  L 85.375522 29.425735  L 74.790418 29.425735  z " clip-path="url(#pda89037011)" style="fill: #fefebb; stroke: #444443; stroke-width: 0.5; stroke-linejoin: miter" />
   </g>
   <g id="patch_8">
    <path d="M 85.375522 29.439375  L 95.960627 29.439375  L 95.960627 21.730111  L 85.375522 21.730111  z " clip-path="url(#pda89037011)" style="fill: #fefebb; stroke: #444443; stroke-width: 0.5; stroke-linejoin: miter" />
   </g>
   <g id="patch_9">
    <path d="M 95.960627 29.439375  L 106.545731 29.439375  L 106.545731 17.123922  L 95.960627 17.123922  z " clip-path="url(#pda89037011)" style="fill: #fefebb; stroke: #444443; stroke-width: 0.5; stroke-linejoin: miter" />
   </g>
   <g id="patch_10">
    <path d="M 106.545731 29.439375  L 117.130835 29.439375  L 117.130835 16.484211  L 106.545731 16.484211  z " clip-path="url(#pda89037011)" style="fill: #fefebb; stroke: #444443; stroke-width: 0.5; stroke-linejoin: miter" />
   </g>
   <g id="patch_11">
    <path d="M 117.130835 29.439375  L 127.71594 29.439375  L 127.71594 22.191139  L 117.130835 22.191139  z " clip-path="url(#pda89037011)" style="fill: #fefebb; stroke: #444443; stroke-width: 0.5; stroke-linejoin: miter" />
   </g>
   <g id="patch_12">
    <path d="M 127.71594 29.439375  L 138.301044 29.439375  L 138.301044 25.075975  L 127.71594 25.075975  z " clip-path="url(#pda89037011)" style="fill: #fefebb; stroke: #444443; stroke-width: 0.5; stroke-linejoin: miter" />
   </g>
   <g id="patch_13">
    <path d="M 138.301044 29.439375  L 148.886149 29.439375  L 148.886149 28.271801  L 138.301044 28.271801  z " clip-path="url(#pda89037011)" style="fill: #fefebb; stroke: #444443; stroke-width: 0.5; stroke-linejoin: miter" />
   </g>
   <g id="patch_14">
    <path d="M 148.886149 29.439375  L 159.471253 29.439375  L 159.471253 29.425735  L 148.886149 29.425735  z " clip-path="url(#pda89037011)" style="fill: #fefebb; stroke: #444443; stroke-width: 0.5; stroke-linejoin: miter" />
   </g>
   <g id="patch_15">
    <path d="M 159.471253 29.439375  L 170.056358 29.439375  L 170.056358 29.439375  L 159.471253 29.439375  z " clip-path="url(#pda89037011)" style="fill: #fefebb; stroke: #444443; stroke-width: 0.5; stroke-linejoin: miter" />
   </g>
   <g id="patch_16">
    <path d="M 170.056358 29.439375  L 180.641462 29.439375  L 180.641462 29.300248  L 170.056358 29.300248  z " clip-path="url(#pda89037011)" style="fill: #fefebb; stroke: #444443; stroke-width: 0.5; stroke-linejoin: miter" />
   </g>
   <g id="patch_17">
    <path d="M 180.641462 29.439375  L 191.226566 29.439375  L 191.226566 28.734193  L 180.641462 28.734193  z " clip-path="url(#pda89037011)" style="fill: #fefebb; stroke: #444443; stroke-width: 0.5; stroke-linejoin: miter" />
   </g>
   <g id="patch_18">
    <path d="M 191.226566 29.439375  L 201.811671 29.439375  L 201.811671 29.433919  L 191.226566 29.433919  z " clip-path="url(#pda89037011)" style="fill: #fefebb; stroke: #444443; stroke-width: 0.5; stroke-linejoin: miter" />
   </g>
   <g id="patch_19">
    <path d="M 201.811671 29.439375  L 212.396775 29.439375  L 212.396775 29.433919  L 201.811671 29.433919  z " clip-path="url(#pda89037011)" style="fill: #fefebb; stroke: #444443; stroke-width: 0.5; stroke-linejoin: miter" />
   </g>
   <g id="patch_20">
    <path d="M 32.45 29.380723  L 43.035104 29.380723  L 43.035104 29.380723  L 32.45 29.380723  z " clip-path="url(#pda89037011)" style="fill: #d9e6f5; stroke: #444443; stroke-width: 0.5; stroke-linejoin: miter" />
   </g>
   <g id="patch_21">
    <path d="M 43.035104 29.418915  L 53.620209 29.418915  L 53.620209 29.416187  L 43.035104 29.416187  z " clip-path="url(#pda89037011)" style="fill: #d9e6f5; stroke: #444443; stroke-width: 0.5; stroke-linejoin: miter" />
   </g>
   <g id="patch_22">
    <path d="M 53.620209 29.427099  L 64.205313 29.427099  L 64.205313 29.427099  L 53.620209 29.427099  z " clip-path="url(#pda89037011)" style="fill: #d9e6f5; stroke: #444443; stroke-width: 0.5; stroke-linejoin: miter" />
   </g>
   <g id="patch_23">
    <path d="M 64.205313 29.427099  L 74.790418 29.427099  L 74.790418 29.427099  L 64.205313 29.427099  z " clip-path="url(#pda89037011)" style="fill: #d9e6f5; stroke: #444443; stroke-width: 0.5; stroke-linejoin: miter" />
   </g>
   <g id="patch_24">
    <path d="M 74.790418 29.425735  L 85.375522 29.425735  L 85.375522 29.425735  L 74.790418 29.425735  z " clip-path="url(#pda89037011)" style="fill: #d9e6f5; stroke: #444443; stroke-width: 0.5; stroke-linejoin: miter" />
   </g>
   <g id="patch_25">
    <path d="M 85.375522 21.730111  L 95.960627 21.730111  L 95.960627 21.075397  L 85.375522 21.075397  z " clip-path="url(#pda89037011)" style="fill: #d9e6f5; stroke: #444443; stroke-width: 0.5; stroke-linejoin: miter" />
   </g>
   <g id="patch_26">
    <path d="M 95.960627 17.123922  L 106.545731 17.123922  L 106.545731 14.904712  L 95.960627 14.904712  z " clip-path="url(#pda89037011)" style="fill: #d9e6f5; stroke: #444443; stroke-width: 0.5; stroke-linejoin: miter" />
   </g>
   <g id="patch_27">
    <path d="M 106.545731 16.484211  L 117.130835 16.484211  L 117.130835 15.188422  L 106.545731 15.188422  z " clip-path="url(#pda89037011)" style="fill: #d9e6f5; stroke: #444443; stroke-width: 0.5; stroke-linejoin: miter" />
   </g>
   <g id="patch_28">
    <path d="M 117.130835 22.191139  L 127.71594 22.191139  L 127.71594 19.536818  L 117.130835 19.536818  z " clip-path="url(#pda89037011)" style="fill: #d9e6f5; stroke: #444443; stroke-width: 0.5; stroke-linejoin: miter" />
   </g>
   <g id="patch_29">
    <path d="M 127.71594 25.075975  L 138.301044 25.075975  L 138.301044 23.027264  L 127.71594 23.027264  z " clip-path="url(#pda89037011)" style="fill: #d9e6f5; stroke: #444443; stroke-width: 0.5; stroke-linejoin: miter" />
   </g>
   <g id="patch_30">
    <path d="M 138.301044 28.271801  L 148.886149 28.271801  L 148.886149 25.112803  L 138.301044 25.112803  z " clip-path="url(#pda89037011)" style="fill: #d9e6f5; stroke: #444443; stroke-width: 0.5; stroke-linejoin: miter" />
   </g>
   <g id="patch_31">
    <path d="M 148.886149 29.425735  L 159.471253 29.425735  L 159.471253 28.023555  L 148.886149 28.023555  z " clip-path="url(#pda89037011)" style="fill: #d9e6f5; stroke: #444443; stroke-width: 0.5; stroke-linejoin: miter" />
   </g>
   <g id="patch_32">
    <path d="M 159.471253 29.439375  L 170.056358 29.439375  L 170.056358 27.567983  L 159.471253 27.567983  z " clip-path="url(#pda89037011)" style="fill: #d9e6f5; stroke: #444443; stroke-width: 0.5; stroke-linejoin: miter" />
   </g>
   <g id="patch_33">
    <path d="M 170.056358 29.300248  L 180.641462 29.300248  L 180.641462 28.483219  L 170.056358 28.483219  z " clip-path="url(#pda89037011)" style="fill: #d9e6f5; stroke: #444443; stroke-width: 0.5; stroke-linejoin: miter" />
   </g>
   <g id="patch_34">
    <path d="M 180.641462 28.734193  L 191.226566 28.734193  L 191.226566 28.513227  L 180.641462 28.513227  z " clip-path="url(#pda89037011)" style="fill: #d9e6f5; stroke: #444443; stroke-width: 0.5; stroke-linejoin: miter" />
   </g>
   <g id="patch_35">
    <path d="M 191.226566 29.433919  L 201.811671 29.433919  L 201.811671 29.417551  L 191.226566 29.417551  z " clip-path="url(#pda89037011)" style="fill: #d9e6f5; stroke: #444443; stroke-width: 0.5; stroke-linejoin: miter" />
   </g>
   <g id="patch_36">
    <path d="M 201.811671 29.433919  L 212.396775 29.433919  L 212.396775 29.428463  L 201.811671 29.428463  z " clip-path="url(#pda89037011)" style="fill: #d9e6f5; stroke: #444443; stroke-width: 0.5; stroke-linejoin: miter" />
   </g>
   <g id="patch_37">
    <path d="M 32.45 29.380723  L 43.035104 29.380723  L 43.035104 29.375268  L 32.45 29.375268  z " clip-path="url(#pda89037011)" style="fill: #a1dab4; stroke: #444443; stroke-width: 0.5; stroke-linejoin: miter" />
   </g>
   <g id="patch_38">
    <path d="M 43.035104 29.416187  L 53.620209 29.416187  L 53.620209 29.416187  L 43.035104 29.416187  z " clip-path="url(#pda89037011)" style="fill: #a1dab4; stroke: #444443; stroke-width: 0.5; stroke-linejoin: miter" />
   </g>
   <g id="patch_39">
    <path d="M 53.620209 29.427099  L 64.205313 29.427099  L 64.205313 29.427099  L 53.620209 29.427099  z " clip-path="url(#pda89037011)" style="fill: #a1dab4; stroke: #444443; stroke-width: 0.5; stroke-linejoin: miter" />
   </g>
   <g id="patch_40">
    <path d="M 64.205313 29.427099  L 74.790418 29.427099  L 74.790418 29.427099  L 64.205313 29.427099  z " clip-path="url(#pda89037011)" style="fill: #a1dab4; stroke: #444443; stroke-width: 0.5; stroke-linejoin: miter" />
   </g>
   <g id="patch_41">
    <path d="M 74.790418 29.425735  L 85.375522 29.425735  L 85.375522 29.423007  L 74.790418 29.423007  z " clip-path="url(#pda89037011)" style="fill: #a1dab4; stroke: #444443; stroke-width: 0.5; stroke-linejoin: miter" />
   </g>
   <g id="patch_42">
    <path d="M 85.375522 21.075397  L 95.960627 21.075397  L 95.960627 20.285647  L 85.375522 20.285647  z " clip-path="url(#pda89037011)" style="fill: #a1dab4; stroke: #444443; stroke-width: 0.5; stroke-linejoin: miter" />
   </g>
   <g id="patch_43">
    <path d="M 95.960627 14.904712  L 106.545731 14.904712  L 106.545731 14.479148  L 95.960627 14.479148  z " clip-path="url(#pda89037011)" style="fill: #a1dab4; stroke: #444443; stroke-width: 0.5; stroke-linejoin: miter" />
   </g>
   <g id="patch_44">
    <path d="M 106.545731 15.188422  L 117.130835 15.188422  L 117.130835 14.479148  L 106.545731 14.479148  z " clip-path="url(#pda89037011)" style="fill: #a1dab4; stroke: #444443; stroke-width: 0.5; stroke-linejoin: miter" />
   </g>
   <g id="patch_45">
    <path d="M 117.130835 19.536818  L 127.71594 19.536818  L 127.71594 18.684325  L 117.130835 18.684325  z " clip-path="url(#pda89037011)" style="fill: #a1dab4; stroke: #444443; stroke-width: 0.5; stroke-linejoin: miter" />
   </g>
   <g id="patch_46">
    <path d="M 127.71594 23.027264  L 138.301044 23.027264  L 138.301044 14.269093  L 127.71594 14.269093  z " clip-path="url(#pda89037011)" style="fill: #a1dab4; stroke: #444443; stroke-width: 0.5; stroke-linejoin: miter" />
   </g>
   <g id="patch_47">
    <path d="M 138.301044 25.112803  L 148.886149 25.112803  L 148.886149 9.193692  L 138.301044 9.193692  z " clip-path="url(#pda89037011)" style="fill: #a1dab4; stroke: #444443; stroke-width: 0.5; stroke-linejoin: miter" />
   </g>
   <g id="patch_48">
    <path d="M 148.886149 28.023555  L 159.471253 28.023555  L 159.471253 3.039375  L 148.886149 3.039375  z " clip-path="url(#pda89037011)" style="fill: #a1dab4; stroke: #444443; stroke-width: 0.5; stroke-linejoin: miter" />
   </g>
   <g id="patch_49">
    <path d="M 159.471253 27.567983  L 170.056358 27.567983  L 170.056358 18.640677  L 159.471253 18.640677  z " clip-path="url(#pda89037011)" style="fill: #a1dab4; stroke: #444443; stroke-width: 0.5; stroke-linejoin: miter" />
   </g>
   <g id="patch_50">
    <path d="M 170.056358 28.483219  L 180.641462 28.483219  L 180.641462 16.994343  L 170.056358 16.994343  z " clip-path="url(#pda89037011)" style="fill: #a1dab4; stroke: #444443; stroke-width: 0.5; stroke-linejoin: miter" />
   </g>
   <g id="patch_51">
    <path d="M 180.641462 28.513227  L 191.226566 28.513227  L 191.226566 13.091971  L 180.641462 13.091971  z " clip-path="url(#pda89037011)" style="fill: #a1dab4; stroke: #444443; stroke-width: 0.5; stroke-linejoin: miter" />
   </g>
   <g id="patch_52">
    <path d="M 191.226566 29.417551  L 201.811671 29.417551  L 201.811671 29.401183  L 191.226566 29.401183  z " clip-path="url(#pda89037011)" style="fill: #a1dab4; stroke: #444443; stroke-width: 0.5; stroke-linejoin: miter" />
   </g>
   <g id="patch_53">
    <path d="M 201.811671 29.428463  L 212.396775 29.428463  L 212.396775 29.373904  L 201.811671 29.373904  z " clip-path="url(#pda89037011)" style="fill: #a1dab4; stroke: #444443; stroke-width: 0.5; stroke-linejoin: miter" />
   </g>
   <g id="patch_54">
    <path d="M 127.991045 30.270975  L 124.676525 37.755375  L 131.305565 37.755375  z " style="fill: #444443" />
   </g>
   <g id="matplotlib.axis_1">
    <g id="xtick_1">
     <g id="line2d_1">
      <defs>
       <path id="mb6bd032b68" d="M 0 0  L 0 3.5  " style="stroke: #000000; stroke-width: 0.3" />
      </defs>
      <g>
       <use xlink:href="#mb6bd032b68" x="32.45" y="29.439375" style="stroke: #000000; stroke-width: 0.3" />
      </g>
     </g>
     <g id="text_1">
      
      <g style="fill: #444443" transform="translate(17.646875 42.518125)scale(0.08 -0.08)">
       <defs>
        <path id="DejaVuSans-2212" d="M 678 2272  L 4684 2272  L 4684 1741  L 678 1741  L 678 2272  z " transform="scale(0.015625)" />
        <path id="DejaVuSans-30" d="M 2034 4250  Q 1547 4250 1301 3770  Q 1056 3291 1056 2328  Q 1056 1369 1301 889  Q 1547 409 2034 409  Q 2525 409 2770 889  Q 3016 1369 3016 2328  Q 3016 3291 2770 3770  Q 2525 4250 2034 4250  z M 2034 4750  Q 2819 4750 3233 4129  Q 3647 3509 3647 2328  Q 3647 1150 3233 529  Q 2819 -91 2034 -91  Q 1250 -91 836 529  Q 422 1150 422 2328  Q 422 3509 836 4129  Q 1250 4750 2034 4750  z " transform="scale(0.015625)" />
        <path id="DejaVuSans-2e" d="M 684 794  L 1344 794  L 1344 0  L 684 0  L 684 794  z " transform="scale(0.015625)" />
        <path id="DejaVuSans-37" d="M 525 4666  L 3525 4666  L 3525 4397  L 1831 0  L 1172 0  L 2766 4134  L 525 4134  L 525 4666  z " transform="scale(0.015625)" />
       </defs>
       <use xlink:href="#DejaVuSans-2212" />
       <use xlink:href="#DejaVuSans-30" x="83.789062" />
       <use xlink:href="#DejaVuSans-2e" x="147.412109" />
       <use xlink:href="#DejaVuSans-30" x="179.199219" />
       <use xlink:href="#DejaVuSans-37" x="242.822266" />
       <use xlink:href="#DejaVuSans-30" x="306.445312" />
      </g>
     </g>
    </g>
    <g id="xtick_2">
     <g id="line2d_2">
      <g>
       <use xlink:href="#mb6bd032b68" x="212.396775" y="29.439375" style="stroke: #000000; stroke-width: 0.3" />
      </g>
     </g>
     <g id="text_2">
      
      <g style="fill: #444443" transform="translate(200.945525 42.518125)scale(0.08 -0.08)">
       <defs>
        <path id="DejaVuSans-36" d="M 2113 2584  Q 1688 2584 1439 2293  Q 1191 2003 1191 1497  Q 1191 994 1439 701  Q 1688 409 2113 409  Q 2538 409 2786 701  Q 3034 994 3034 1497  Q 3034 2003 2786 2293  Q 2538 2584 2113 2584  z M 3366 4563  L 3366 3988  Q 3128 4100 2886 4159  Q 2644 4219 2406 4219  Q 1781 4219 1451 3797  Q 1122 3375 1075 2522  Q 1259 2794 1537 2939  Q 1816 3084 2150 3084  Q 2853 3084 3261 2657  Q 3669 2231 3669 1497  Q 3669 778 3244 343  Q 2819 -91 2113 -91  Q 1303 -91 875 529  Q 447 1150 447 2328  Q 447 3434 972 4092  Q 1497 4750 2381 4750  Q 2619 4750 2861 4703  Q 3103 4656 3366 4563  z " transform="scale(0.015625)" />
        <path id="DejaVuSans-31" d="M 794 531  L 1825 531  L 1825 4091  L 703 3866  L 703 4441  L 1819 4666  L 2450 4666  L 2450 531  L 3481 531  L 3481 0  L 794 0  L 794 531  z " transform="scale(0.015625)" />
       </defs>
       <use xlink:href="#DejaVuSans-30" />
       <use xlink:href="#DejaVuSans-2e" x="63.623047" />
       <use xlink:href="#DejaVuSans-30" x="95.410156" />
       <use xlink:href="#DejaVuSans-36" x="159.033203" />
       <use xlink:href="#DejaVuSans-31" x="222.65625" />
      </g>
     </g>
    </g>
    <g id="text_3">
     
     <g style="fill: #444443" transform="translate(90.840313 56.9175)scale(0.12 -0.12)">
      <defs>
       <path id="ArialMT-43" d="M 3763 1606  L 4369 1453  Q 4178 706 3683 314  Q 3188 -78 2472 -78  Q 1731 -78 1267 223  Q 803 525 561 1097  Q 319 1669 319 2325  Q 319 3041 592 3573  Q 866 4106 1370 4382  Q 1875 4659 2481 4659  Q 3169 4659 3637 4309  Q 4106 3959 4291 3325  L 3694 3184  Q 3534 3684 3231 3912  Q 2928 4141 2469 4141  Q 1941 4141 1586 3887  Q 1231 3634 1087 3207  Q 944 2781 944 2328  Q 944 1744 1114 1308  Q 1284 872 1643 656  Q 2003 441 2422 441  Q 2931 441 3284 734  Q 3638 1028 3763 1606  z " transform="scale(0.015625)" />
       <path id="ArialMT-61" d="M 2588 409  Q 2275 144 1986 34  Q 1697 -75 1366 -75  Q 819 -75 525 192  Q 231 459 231 875  Q 231 1119 342 1320  Q 453 1522 633 1644  Q 813 1766 1038 1828  Q 1203 1872 1538 1913  Q 2219 1994 2541 2106  Q 2544 2222 2544 2253  Q 2544 2597 2384 2738  Q 2169 2928 1744 2928  Q 1347 2928 1158 2789  Q 969 2650 878 2297  L 328 2372  Q 403 2725 575 2942  Q 747 3159 1072 3276  Q 1397 3394 1825 3394  Q 2250 3394 2515 3294  Q 2781 3194 2906 3042  Q 3031 2891 3081 2659  Q 3109 2516 3109 2141  L 3109 1391  Q 3109 606 3145 398  Q 3181 191 3288 0  L 2700 0  Q 2613 175 2588 409  z M 2541 1666  Q 2234 1541 1622 1453  Q 1275 1403 1131 1340  Q 988 1278 909 1158  Q 831 1038 831 891  Q 831 666 1001 516  Q 1172 366 1500 366  Q 1825 366 2078 508  Q 2331 650 2450 897  Q 2541 1088 2541 1459  L 2541 1666  z " transform="scale(0.015625)" />
       <path id="ArialMT-72" d="M 416 0  L 416 3319  L 922 3319  L 922 2816  Q 1116 3169 1280 3281  Q 1444 3394 1641 3394  Q 1925 3394 2219 3213  L 2025 2691  Q 1819 2813 1613 2813  Q 1428 2813 1281 2702  Q 1134 2591 1072 2394  Q 978 2094 978 1738  L 978 0  L 416 0  z " transform="scale(0.015625)" />
       <path id="ArialMT-74" d="M 1650 503  L 1731 6  Q 1494 -44 1306 -44  Q 1000 -44 831 53  Q 663 150 594 308  Q 525 466 525 972  L 525 2881  L 113 2881  L 113 3319  L 525 3319  L 525 4141  L 1084 4478  L 1084 3319  L 1650 3319  L 1650 2881  L 1084 2881  L 1084 941  Q 1084 700 1114 631  Q 1144 563 1211 522  Q 1278 481 1403 481  Q 1497 481 1650 503  z " transform="scale(0.015625)" />
       <path id="ArialMT-20" transform="scale(0.015625)" />
       <path id="ArialMT-56" d="M 1803 0  L 28 4581  L 684 4581  L 1875 1253  Q 2019 853 2116 503  Q 2222 878 2363 1253  L 3600 4581  L 4219 4581  L 2425 0  L 1803 0  z " transform="scale(0.015625)" />
       <path id="ArialMT-65" d="M 2694 1069  L 3275 997  Q 3138 488 2766 206  Q 2394 -75 1816 -75  Q 1088 -75 661 373  Q 234 822 234 1631  Q 234 2469 665 2931  Q 1097 3394 1784 3394  Q 2450 3394 2872 2941  Q 3294 2488 3294 1666  Q 3294 1616 3291 1516  L 816 1516  Q 847 969 1125 678  Q 1403 388 1819 388  Q 2128 388 2347 550  Q 2566 713 2694 1069  z M 847 1978  L 2700 1978  Q 2663 2397 2488 2606  Q 2219 2931 1791 2931  Q 1403 2931 1139 2672  Q 875 2413 847 1978  z " transform="scale(0.015625)" />
       <path id="ArialMT-6c" d="M 409 0  L 409 4581  L 972 4581  L 972 0  L 409 0  z " transform="scale(0.015625)" />
       <path id="ArialMT-6f" d="M 213 1659  Q 213 2581 725 3025  Q 1153 3394 1769 3394  Q 2453 3394 2887 2945  Q 3322 2497 3322 1706  Q 3322 1066 3130 698  Q 2938 331 2570 128  Q 2203 -75 1769 -75  Q 1072 -75 642 372  Q 213 819 213 1659  z M 791 1659  Q 791 1022 1069 705  Q 1347 388 1769 388  Q 2188 388 2466 706  Q 2744 1025 2744 1678  Q 2744 2294 2464 2611  Q 2184 2928 1769 2928  Q 1347 2928 1069 2612  Q 791 2297 791 1659  z " transform="scale(0.015625)" />
       <path id="ArialMT-63" d="M 2588 1216  L 3141 1144  Q 3050 572 2676 248  Q 2303 -75 1759 -75  Q 1078 -75 664 370  Q 250 816 250 1647  Q 250 2184 428 2587  Q 606 2991 970 3192  Q 1334 3394 1763 3394  Q 2303 3394 2647 3120  Q 2991 2847 3088 2344  L 2541 2259  Q 2463 2594 2264 2762  Q 2066 2931 1784 2931  Q 1359 2931 1093 2626  Q 828 2322 828 1663  Q 828 994 1084 691  Q 1341 388 1753 388  Q 2084 388 2306 591  Q 2528 794 2588 1216  z " transform="scale(0.015625)" />
       <path id="ArialMT-69" d="M 425 3934  L 425 4581  L 988 4581  L 988 3934  L 425 3934  z M 425 0  L 425 3319  L 988 3319  L 988 0  L 425 0  z " transform="scale(0.015625)" />
       <path id="ArialMT-79" d="M 397 -1278  L 334 -750  Q 519 -800 656 -800  Q 844 -800 956 -737  Q 1069 -675 1141 -563  Q 1194 -478 1313 -144  Q 1328 -97 1363 -6  L 103 3319  L 709 3319  L 1400 1397  Q 1534 1031 1641 628  Q 1738 1016 1872 1384  L 2581 3319  L 3144 3319  L 1881 -56  Q 1678 -603 1566 -809  Q 1416 -1088 1222 -1217  Q 1028 -1347 759 -1347  Q 597 -1347 397 -1278  z " transform="scale(0.015625)" />
      </defs>
      <use xlink:href="#ArialMT-43" />
      <use xlink:href="#ArialMT-61" x="72.216797" />
      <use xlink:href="#ArialMT-72" x="127.832031" />
      <use xlink:href="#ArialMT-74" x="161.132812" />
      <use xlink:href="#ArialMT-20" x="188.916016" />
      <use xlink:href="#ArialMT-56" x="216.699219" />
      <use xlink:href="#ArialMT-65" x="277.898438" />
      <use xlink:href="#ArialMT-6c" x="333.513672" />
      <use xlink:href="#ArialMT-6f" x="355.730469" />
      <use xlink:href="#ArialMT-63" x="411.345703" />
      <use xlink:href="#ArialMT-69" x="461.345703" />
      <use xlink:href="#ArialMT-74" x="483.5625" />
      <use xlink:href="#ArialMT-79" x="511.345703" />
     </g>
    </g>
   </g>
   <g id="matplotlib.axis_2">
    <g id="ytick_1">
     <g id="line2d_3">
      <defs>
       <path id="mb65685ae57" d="M 0 0  L -3.5 0  " style="stroke: #000000; stroke-width: 0.3" />
      </defs>
      <g>
       <use xlink:href="#mb65685ae57" x="32.45" y="29.439375" style="stroke: #000000; stroke-width: 0.3" />
      </g>
     </g>
     <g id="text_4">
      
      <g style="fill: #444443" transform="translate(20.36 32.47875)scale(0.08 -0.08)">
       <use xlink:href="#DejaVuSans-30" />
      </g>
     </g>
    </g>
    <g id="ytick_2">
     <g id="line2d_4">
      <g>
       <use xlink:href="#mb65685ae57" x="32.45" y="3.039375" style="stroke: #000000; stroke-width: 0.3" />
      </g>
     </g>
     <g id="text_5">
      
      <g style="fill: #444443" transform="translate(-0 6.07875)scale(0.08 -0.08)">
       <defs>
        <path id="DejaVuSans-39" d="M 703 97  L 703 672  Q 941 559 1184 500  Q 1428 441 1663 441  Q 2288 441 2617 861  Q 2947 1281 2994 2138  Q 2813 1869 2534 1725  Q 2256 1581 1919 1581  Q 1219 1581 811 2004  Q 403 2428 403 3163  Q 403 3881 828 4315  Q 1253 4750 1959 4750  Q 2769 4750 3195 4129  Q 3622 3509 3622 2328  Q 3622 1225 3098 567  Q 2575 -91 1691 -91  Q 1453 -91 1209 -44  Q 966 3 703 97  z M 1959 2075  Q 2384 2075 2632 2365  Q 2881 2656 2881 3163  Q 2881 3666 2632 3958  Q 2384 4250 1959 4250  Q 1534 4250 1286 3958  Q 1038 3666 1038 3163  Q 1038 2656 1286 2365  Q 1534 2075 1959 2075  z " transform="scale(0.015625)" />
        <path id="DejaVuSans-33" d="M 2597 2516  Q 3050 2419 3304 2112  Q 3559 1806 3559 1356  Q 3559 666 3084 287  Q 2609 -91 1734 -91  Q 1441 -91 1130 -33  Q 819 25 488 141  L 488 750  Q 750 597 1062 519  Q 1375 441 1716 441  Q 2309 441 2620 675  Q 2931 909 2931 1356  Q 2931 1769 2642 2001  Q 2353 2234 1838 2234  L 1294 2234  L 1294 2753  L 1863 2753  Q 2328 2753 2575 2939  Q 2822 3125 2822 3475  Q 2822 3834 2567 4026  Q 2313 4219 1838 4219  Q 1578 4219 1281 4162  Q 984 4106 628 3988  L 628 4550  Q 988 4650 1302 4700  Q 1616 4750 1894 4750  Q 2613 4750 3031 4423  Q 3450 4097 3450 3541  Q 3450 3153 3228 2886  Q 3006 2619 2597 2516  z " transform="scale(0.015625)" />
        <path id="DejaVuSans-35" d="M 691 4666  L 3169 4666  L 3169 4134  L 1269 4134  L 1269 2991  Q 1406 3038 1543 3061  Q 1681 3084 1819 3084  Q 2600 3084 3056 2656  Q 3513 2228 3513 1497  Q 3513 744 3044 326  Q 2575 -91 1722 -91  Q 1428 -91 1123 -41  Q 819 9 494 109  L 494 744  Q 775 591 1075 516  Q 1375 441 1709 441  Q 2250 441 2565 725  Q 2881 1009 2881 1497  Q 2881 1984 2565 2268  Q 2250 2553 1709 2553  Q 1456 2553 1204 2497  Q 953 2441 691 2322  L 691 4666  z " transform="scale(0.015625)" />
       </defs>
       <use xlink:href="#DejaVuSans-31" />
       <use xlink:href="#DejaVuSans-39" x="63.623047" />
       <use xlink:href="#DejaVuSans-33" x="127.246094" />
       <use xlink:href="#DejaVuSans-35" x="190.869141" />
       <use xlink:href="#DejaVuSans-35" x="254.492188" />
      </g>
     </g>
    </g>
   </g>
   <g id="patch_55">
    <path d="M 32.45 29.439375  L 32.45 1.719375  " style="fill: none; stroke: #000000; stroke-width: 0.3; stroke-linejoin: miter; stroke-linecap: square" />
   </g>
   <g id="patch_56">
    <path d="M 32.45 29.439375  L 216.59 29.439375  " style="fill: none; stroke: #000000; stroke-width: 0.3; stroke-linejoin: miter; stroke-linecap: square" />
   </g>
   <g id="text_6">
    
    <g style="fill: #444443" transform="translate(118.874795 46.071375)scale(0.08 -0.08)">
     <defs>
      <path id="ArialMT-2d" d="M 203 1375  L 203 1941  L 1931 1941  L 1931 1375  L 203 1375  z " transform="scale(0.015625)" />
      <path id="ArialMT-30" d="M 266 2259  Q 266 3072 433 3567  Q 600 4063 929 4331  Q 1259 4600 1759 4600  Q 2128 4600 2406 4451  Q 2684 4303 2865 4023  Q 3047 3744 3150 3342  Q 3253 2941 3253 2259  Q 3253 1453 3087 958  Q 2922 463 2592 192  Q 2263 -78 1759 -78  Q 1097 -78 719 397  Q 266 969 266 2259  z M 844 2259  Q 844 1131 1108 757  Q 1372 384 1759 384  Q 2147 384 2411 759  Q 2675 1134 2675 2259  Q 2675 3391 2411 3762  Q 2147 4134 1753 4134  Q 1366 4134 1134 3806  Q 844 3388 844 2259  z " transform="scale(0.015625)" />
      <path id="ArialMT-2e" d="M 581 0  L 581 641  L 1222 641  L 1222 0  L 581 0  z " transform="scale(0.015625)" />
     </defs>
     <use xlink:href="#ArialMT-2d" />
     <use xlink:href="#ArialMT-30" x="33.300781" />
     <use xlink:href="#ArialMT-2e" x="88.916016" />
     <use xlink:href="#ArialMT-30" x="116.699219" />
     <use xlink:href="#ArialMT-30" x="172.314453" />
    </g>
   </g>
  </g>
 </g>
 <defs>
  <clipPath id="pda89037011">
   <rect x="32.45" y="1.719375" width="184.14" height="27.72" />
  </clipPath>
 </defs>
</svg></g>

<g id="node2" class="node">
<title>leaf1</title>
<polygon fill="none" stroke="#444443" stroke-width="0" points="81,-83 13,-83 13,0 81,0 81,-83" />
<svg width="60px" height="75px" viewBox="0 0 80.079994 101.033164" version="1.1" preserveAspectRatio="xMinYMin meet" x="17" y="-78.5">
 <metadata>
  <rdf:RDF>
   <ns2:Work>
    <dc:type rdf:resource="http://purl.org/dc/dcmitype/StillImage" />
    <dc:date>2021-12-16T22:06:23.638127</dc:date>
    <dc:format>image/svg+xml</dc:format>
    <dc:creator>
     <ns2:Agent>
      <dc:title>Matplotlib v3.5.1, https://matplotlib.org/</dc:title>
     </ns2:Agent>
    </dc:creator>
   </ns2:Work>
  </rdf:RDF>
 </metadata>
 <defs>
  <style type="text/css">*{stroke-linejoin: round; stroke-linecap: butt}</style>
 </defs>
 <g id="figure_1">
  <g id="patch_1">
   <path d="M -0 101.033164  L 80.079994 101.033164  L 80.079994 0  L -0 0  z " style="fill: #ffffff" />
  </g>
  <g id="axes_1">
   <g id="patch_2">
    <path d="M 80.079994 40.039996  C 80.079994 35.560573 79.3283 31.112741 77.856276 26.882093  C 76.384253 22.651446 74.212664 18.697656 71.432122 15.185703  C 68.651581 11.673749 65.301306 8.653168 61.521094 6.249998  C 57.740882 3.846828 53.584052 2.094965 49.224056 1.06751  C 44.86406 0.040055 40.362395 -0.2485 35.9069 0.213884  C 31.451406 0.676269 27.104927 1.883072 23.048827 3.783936  C 18.992728 5.684801 15.284219 8.252916 12.078045 11.381123  C 8.871871 14.50933 6.213254 18.153505 4.213131 22.161588  C 2.213007 26.169672 0.899588 30.485131 0.327678 34.927895  C -0.244231 39.370658 -0.066565 43.878062 0.853264 48.262026  C 1.773093 52.645991 3.422111 56.84468 5.731508 60.682898  C 8.040906 64.521115 10.97811 67.944722 14.420561 70.810863  C 17.863012 73.677003 21.762153 75.945251 25.955288 77.520959  C 30.148422 79.096668 34.576404 79.957611 39.05447 80.067865  C 43.532536 80.178119 47.997522 79.536129 52.26312 78.168683  C 56.528717 76.801237 60.534759 74.727622 64.114088 72.034364  L 40.039994 40.039996  L 80.079994 40.039996  z " style="fill: #fefebb; stroke: #444443; stroke-width: 0.5; stroke-linejoin: miter" />
   </g>
   <g id="patch_3">
    <path d="M 64.114088 72.034364  C 68.210238 68.952225 71.676637 65.111941 74.324571 60.722582  C 76.972505 56.333223 78.753033 51.475916 79.56922 46.415099  L 40.039994 40.039996  L 64.114088 72.034364  z " style="fill: #d9e6f5; stroke: #444443; stroke-width: 0.5; stroke-linejoin: miter" />
   </g>
   <g id="patch_4">
    <path d="M 79.56922 46.415099  C 79.739138 45.361512 79.866865 44.301553 79.952096 43.237761  C 80.037328 42.173969 80.079994 41.107195 80.079994 40.039994  L 40.039994 40.039996  L 79.56922 46.415099  z " style="fill: #a1dab4; stroke: #444443; stroke-width: 0.5; stroke-linejoin: miter" />
   </g>
   <g id="text_1">
    
    <g style="fill: #444443" transform="translate(22.397182 89.725227)scale(0.09 -0.09)">
     <defs>
      <path id="ArialMT-6e" d="M 422 0  L 422 3319  L 928 3319  L 928 2847  Q 1294 3394 1984 3394  Q 2284 3394 2536 3286  Q 2788 3178 2913 3003  Q 3038 2828 3088 2588  Q 3119 2431 3119 2041  L 3119 0  L 2556 0  L 2556 2019  Q 2556 2363 2490 2533  Q 2425 2703 2258 2804  Q 2091 2906 1866 2906  Q 1506 2906 1245 2678  Q 984 2450 984 1813  L 984 0  L 422 0  z " transform="scale(0.015625)" />
      <path id="ArialMT-3d" d="M 3381 2694  L 356 2694  L 356 3219  L 3381 3219  L 3381 2694  z M 3381 1303  L 356 1303  L 356 1828  L 3381 1828  L 3381 1303  z " transform="scale(0.015625)" />
      <path id="ArialMT-33" d="M 269 1209  L 831 1284  Q 928 806 1161 595  Q 1394 384 1728 384  Q 2125 384 2398 659  Q 2672 934 2672 1341  Q 2672 1728 2419 1979  Q 2166 2231 1775 2231  Q 1616 2231 1378 2169  L 1441 2663  Q 1497 2656 1531 2656  Q 1891 2656 2178 2843  Q 2466 3031 2466 3422  Q 2466 3731 2256 3934  Q 2047 4138 1716 4138  Q 1388 4138 1169 3931  Q 950 3725 888 3313  L 325 3413  Q 428 3978 793 4289  Q 1159 4600 1703 4600  Q 2078 4600 2393 4439  Q 2709 4278 2876 4000  Q 3044 3722 3044 3409  Q 3044 3113 2884 2869  Q 2725 2625 2413 2481  Q 2819 2388 3044 2092  Q 3269 1797 3269 1353  Q 3269 753 2831 336  Q 2394 -81 1725 -81  Q 1122 -81 723 278  Q 325 638 269 1209  z " transform="scale(0.015625)" />
      <path id="ArialMT-36" d="M 3184 3459  L 2625 3416  Q 2550 3747 2413 3897  Q 2184 4138 1850 4138  Q 1581 4138 1378 3988  Q 1113 3794 959 3422  Q 806 3050 800 2363  Q 1003 2672 1297 2822  Q 1591 2972 1913 2972  Q 2475 2972 2870 2558  Q 3266 2144 3266 1488  Q 3266 1056 3080 686  Q 2894 316 2569 119  Q 2244 -78 1831 -78  Q 1128 -78 684 439  Q 241 956 241 2144  Q 241 3472 731 4075  Q 1159 4600 1884 4600  Q 2425 4600 2770 4297  Q 3116 3994 3184 3459  z M 888 1484  Q 888 1194 1011 928  Q 1134 663 1356 523  Q 1578 384 1822 384  Q 2178 384 2434 671  Q 2691 959 2691 1453  Q 2691 1928 2437 2201  Q 2184 2475 1800 2475  Q 1419 2475 1153 2201  Q 888 1928 888 1484  z " transform="scale(0.015625)" />
      <path id="ArialMT-37" d="M 303 3981  L 303 4522  L 3269 4522  L 3269 4084  Q 2831 3619 2401 2847  Q 1972 2075 1738 1259  Q 1569 684 1522 0  L 944 0  Q 953 541 1156 1306  Q 1359 2072 1739 2783  Q 2119 3494 2547 3981  L 303 3981  z " transform="scale(0.015625)" />
     </defs>
     <use xlink:href="#ArialMT-6e" />
     <use xlink:href="#ArialMT-3d" x="55.615234" />
     <use xlink:href="#ArialMT-33" x="114.013672" />
     <use xlink:href="#ArialMT-36" x="169.628906" />
     <use xlink:href="#ArialMT-37" x="225.244141" />
     <use xlink:href="#ArialMT-37" x="280.859375" />
     <use xlink:href="#ArialMT-37" x="336.474609" />
    </g>
    
    <g style="fill: #444443" transform="translate(27.278275 99.244414)scale(0.09 -0.09)">
     <defs>
      <path id="ArialMT-4c" d="M 469 0  L 469 4581  L 1075 4581  L 1075 541  L 3331 541  L 3331 0  L 469 0  z " transform="scale(0.015625)" />
      <path id="ArialMT-65" d="M 2694 1069  L 3275 997  Q 3138 488 2766 206  Q 2394 -75 1816 -75  Q 1088 -75 661 373  Q 234 822 234 1631  Q 234 2469 665 2931  Q 1097 3394 1784 3394  Q 2450 3394 2872 2941  Q 3294 2488 3294 1666  Q 3294 1616 3291 1516  L 816 1516  Q 847 969 1125 678  Q 1403 388 1819 388  Q 2128 388 2347 550  Q 2566 713 2694 1069  z M 847 1978  L 2700 1978  Q 2663 2397 2488 2606  Q 2219 2931 1791 2931  Q 1403 2931 1139 2672  Q 875 2413 847 1978  z " transform="scale(0.015625)" />
      <path id="ArialMT-66" d="M 556 0  L 556 2881  L 59 2881  L 59 3319  L 556 3319  L 556 3672  Q 556 4006 616 4169  Q 697 4388 901 4523  Q 1106 4659 1475 4659  Q 1713 4659 2000 4603  L 1916 4113  Q 1741 4144 1584 4144  Q 1328 4144 1222 4034  Q 1116 3925 1116 3625  L 1116 3319  L 1763 3319  L 1763 2881  L 1116 2881  L 1116 0  L 556 0  z " transform="scale(0.015625)" />
      <path id="ArialMT-74" d="M 1650 503  L 1731 6  Q 1494 -44 1306 -44  Q 1000 -44 831 53  Q 663 150 594 308  Q 525 466 525 972  L 525 2881  L 113 2881  L 113 3319  L 525 3319  L 525 4141  L 1084 4478  L 1084 3319  L 1650 3319  L 1650 2881  L 1084 2881  L 1084 941  Q 1084 700 1114 631  Q 1144 563 1211 522  Q 1278 481 1403 481  Q 1497 481 1650 503  z " transform="scale(0.015625)" />
      <path id="ArialMT-2b" d="M 1603 741  L 1603 1997  L 356 1997  L 356 2522  L 1603 2522  L 1603 3769  L 2134 3769  L 2134 2522  L 3381 2522  L 3381 1997  L 2134 1997  L 2134 741  L 1603 741  z " transform="scale(0.015625)" />
     </defs>
     <use xlink:href="#ArialMT-4c" />
     <use xlink:href="#ArialMT-65" x="55.615234" />
     <use xlink:href="#ArialMT-66" x="111.230469" />
     <use xlink:href="#ArialMT-74" x="139.013672" />
     <use xlink:href="#ArialMT-2b" x="166.796875" />
     <use xlink:href="#ArialMT-2b" x="225.195312" />
    </g>
   </g>
  </g>
 </g>
</svg></g>

<g id="edge1" class="edge">
<title>node0-&gt;leaf1</title>
<path fill="none" stroke="#444443" stroke-width="0.3" d="M77.44,-115.26C73.84,-106.65 69.7,-96.75 65.65,-87.08" />
<polygon fill="#444443" stroke="#444443" stroke-width="0.3" points="66.88,-86.39 64.04,-83.24 64.3,-87.47 66.88,-86.39" />
<text text-anchor="start" x="73" y="-94.8" font-family="Times New Roman,serif" font-size="14.00">&#8804;</text>
</g>

<g id="node3" class="node">
<title>leaf2</title>
<polygon fill="none" stroke="#444443" stroke-width="0" points="163,-83 95,-83 95,0 163,0 163,-83" />
<svg width="60px" height="75px" viewBox="0 0 80.079999 101.138632" version="1.1" preserveAspectRatio="xMinYMin meet" x="99" y="-78.5">
 <metadata>
  <rdf:RDF>
   <ns2:Work>
    <dc:type rdf:resource="http://purl.org/dc/dcmitype/StillImage" />
    <dc:date>2021-12-16T22:06:23.729247</dc:date>
    <dc:format>image/svg+xml</dc:format>
    <dc:creator>
     <ns2:Agent>
      <dc:title>Matplotlib v3.5.1, https://matplotlib.org/</dc:title>
     </ns2:Agent>
    </dc:creator>
   </ns2:Work>
  </rdf:RDF>
 </metadata>
 <defs>
  <style type="text/css">*{stroke-linejoin: round; stroke-linecap: butt}</style>
 </defs>
 <g id="figure_1">
  <g id="patch_1">
   <path d="M 0 101.138632  L 80.079999 101.138632  L 80.079999 0  L 0 0  z " style="fill: #ffffff" />
  </g>
  <g id="axes_1">
   <g id="patch_2">
    <path d="M 80.079999 40.039995  C 80.079999 38.482838 79.989163 36.927007 79.807952 35.38043  C 79.626741 33.833854 79.355465 32.299164 78.995507 30.784184  L 40.039999 40.039995  L 80.079999 40.039995  z " style="fill: #fefebb; stroke: #444443; stroke-width: 0.5; stroke-linejoin: miter" />
   </g>
   <g id="patch_3">
    <path d="M 78.995507 30.784184  C 78.157167 27.255812 76.84333 23.857639 75.090082 20.682998  C 73.336833 17.508358 71.160373 14.586583 68.620479 11.997923  L 40.039999 40.039995  L 78.995507 30.784184  z " style="fill: #d9e6f5; stroke: #444443; stroke-width: 0.5; stroke-linejoin: miter" />
   </g>
   <g id="patch_4">
    <path d="M 68.620479 11.997923  C 65.395142 8.71066 61.62671 6.004361 57.481275 3.998304  C 53.33584 1.992247 48.875212 0.716344 44.29599 0.226829  C 39.716768 -0.262685 35.087231 0.041488 30.611423 1.125941  C 26.135615 2.210395 21.880273 4.05896 18.032948 6.590163  C 14.185622 9.121365 10.80368 12.297462 8.036177 15.978471  C 5.268674 19.65948 3.156875 23.790513 1.793858 28.1895  C 0.43084 32.588486 -0.163074 37.189833 0.038293 41.790741  C 0.23966 46.391648 1.233305 50.923513 2.975433 55.186597  C 4.717562 59.449681 7.182198 63.380419 10.260715 66.805566  C 13.339231 70.230713 16.985726 73.099199 21.039482 75.284596  C 25.093237 77.469994 29.493811 78.939717 34.047249 79.62899  C 38.600687 80.318263 43.239096 80.216808 47.758041 79.329096  C 52.276986 78.441384 56.609087 76.780651 60.56341 74.420094  C 64.517733 72.059537 68.035316 69.034352 70.961124 65.477873  C 73.886932 61.921394 76.17734 57.88665 77.7314 53.551469  C 79.28546 49.216288 80.079999 44.64531 80.079999 40.039998  L 40.039999 40.039995  L 68.620479 11.997923  z " style="fill: #a1dab4; stroke: #444443; stroke-width: 0.5; stroke-linejoin: miter" />
   </g>
   <g id="text_1">
    
    <g style="fill: #444443" transform="translate(22.397187 89.725226)scale(0.09 -0.09)">
     <defs>
      <path id="ArialMT-6e" d="M 422 0  L 422 3319  L 928 3319  L 928 2847  Q 1294 3394 1984 3394  Q 2284 3394 2536 3286  Q 2788 3178 2913 3003  Q 3038 2828 3088 2588  Q 3119 2431 3119 2041  L 3119 0  L 2556 0  L 2556 2019  Q 2556 2363 2490 2533  Q 2425 2703 2258 2804  Q 2091 2906 1866 2906  Q 1506 2906 1245 2678  Q 984 2450 984 1813  L 984 0  L 422 0  z " transform="scale(0.015625)" />
      <path id="ArialMT-3d" d="M 3381 2694  L 356 2694  L 356 3219  L 3381 3219  L 3381 2694  z M 3381 1303  L 356 1303  L 356 1828  L 3381 1828  L 3381 1303  z " transform="scale(0.015625)" />
      <path id="ArialMT-37" d="M 303 3981  L 303 4522  L 3269 4522  L 3269 4084  Q 2831 3619 2401 2847  Q 1972 2075 1738 1259  Q 1569 684 1522 0  L 944 0  Q 953 541 1156 1306  Q 1359 2072 1739 2783  Q 2119 3494 2547 3981  L 303 3981  z " transform="scale(0.015625)" />
      <path id="ArialMT-34" d="M 2069 0  L 2069 1097  L 81 1097  L 81 1613  L 2172 4581  L 2631 4581  L 2631 1613  L 3250 1613  L 3250 1097  L 2631 1097  L 2631 0  L 2069 0  z M 2069 1613  L 2069 3678  L 634 1613  L 2069 1613  z " transform="scale(0.015625)" />
      <path id="ArialMT-32" d="M 3222 541  L 3222 0  L 194 0  Q 188 203 259 391  Q 375 700 629 1000  Q 884 1300 1366 1694  Q 2113 2306 2375 2664  Q 2638 3022 2638 3341  Q 2638 3675 2398 3904  Q 2159 4134 1775 4134  Q 1369 4134 1125 3890  Q 881 3647 878 3216  L 300 3275  Q 359 3922 746 4261  Q 1134 4600 1788 4600  Q 2447 4600 2831 4234  Q 3216 3869 3216 3328  Q 3216 3053 3103 2787  Q 2991 2522 2730 2228  Q 2469 1934 1863 1422  Q 1356 997 1212 845  Q 1069 694 975 541  L 3222 541  z " transform="scale(0.015625)" />
      <path id="ArialMT-31" d="M 2384 0  L 1822 0  L 1822 3584  Q 1619 3391 1289 3197  Q 959 3003 697 2906  L 697 3450  Q 1169 3672 1522 3987  Q 1875 4303 2022 4600  L 2384 4600  L 2384 0  z " transform="scale(0.015625)" />
     </defs>
     <use xlink:href="#ArialMT-6e" />
     <use xlink:href="#ArialMT-3d" x="55.615234" />
     <use xlink:href="#ArialMT-37" x="114.013672" />
     <use xlink:href="#ArialMT-34" x="169.628906" />
     <use xlink:href="#ArialMT-32" x="225.244141" />
     <use xlink:href="#ArialMT-37" x="280.859375" />
     <use xlink:href="#ArialMT-31" x="336.474609" />
    </g>
    
    <g style="fill: #444443" transform="translate(24.278749 99.244414)scale(0.09 -0.09)">
     <defs>
      <path id="ArialMT-52" d="M 503 0  L 503 4581  L 2534 4581  Q 3147 4581 3465 4457  Q 3784 4334 3975 4021  Q 4166 3709 4166 3331  Q 4166 2844 3850 2509  Q 3534 2175 2875 2084  Q 3116 1969 3241 1856  Q 3506 1613 3744 1247  L 4541 0  L 3778 0  L 3172 953  Q 2906 1366 2734 1584  Q 2563 1803 2427 1890  Q 2291 1978 2150 2013  Q 2047 2034 1813 2034  L 1109 2034  L 1109 0  L 503 0  z M 1109 2559  L 2413 2559  Q 2828 2559 3062 2645  Q 3297 2731 3419 2920  Q 3541 3109 3541 3331  Q 3541 3656 3305 3865  Q 3069 4075 2559 4075  L 1109 4075  L 1109 2559  z " transform="scale(0.015625)" />
      <path id="ArialMT-69" d="M 425 3934  L 425 4581  L 988 4581  L 988 3934  L 425 3934  z M 425 0  L 425 3319  L 988 3319  L 988 0  L 425 0  z " transform="scale(0.015625)" />
      <path id="ArialMT-67" d="M 319 -275  L 866 -356  Q 900 -609 1056 -725  Q 1266 -881 1628 -881  Q 2019 -881 2231 -725  Q 2444 -569 2519 -288  Q 2563 -116 2559 434  Q 2191 0 1641 0  Q 956 0 581 494  Q 206 988 206 1678  Q 206 2153 378 2554  Q 550 2956 876 3175  Q 1203 3394 1644 3394  Q 2231 3394 2613 2919  L 2613 3319  L 3131 3319  L 3131 450  Q 3131 -325 2973 -648  Q 2816 -972 2473 -1159  Q 2131 -1347 1631 -1347  Q 1038 -1347 672 -1080  Q 306 -813 319 -275  z M 784 1719  Q 784 1066 1043 766  Q 1303 466 1694 466  Q 2081 466 2343 764  Q 2606 1063 2606 1700  Q 2606 2309 2336 2618  Q 2066 2928 1684 2928  Q 1309 2928 1046 2623  Q 784 2319 784 1719  z " transform="scale(0.015625)" />
      <path id="ArialMT-68" d="M 422 0  L 422 4581  L 984 4581  L 984 2938  Q 1378 3394 1978 3394  Q 2347 3394 2619 3248  Q 2891 3103 3008 2847  Q 3125 2591 3125 2103  L 3125 0  L 2563 0  L 2563 2103  Q 2563 2525 2380 2717  Q 2197 2909 1863 2909  Q 1613 2909 1392 2779  Q 1172 2650 1078 2428  Q 984 2206 984 1816  L 984 0  L 422 0  z " transform="scale(0.015625)" />
      <path id="ArialMT-74" d="M 1650 503  L 1731 6  Q 1494 -44 1306 -44  Q 1000 -44 831 53  Q 663 150 594 308  Q 525 466 525 972  L 525 2881  L 113 2881  L 113 3319  L 525 3319  L 525 4141  L 1084 4478  L 1084 3319  L 1650 3319  L 1650 2881  L 1084 2881  L 1084 941  Q 1084 700 1114 631  Q 1144 563 1211 522  Q 1278 481 1403 481  Q 1497 481 1650 503  z " transform="scale(0.015625)" />
      <path id="ArialMT-2b" d="M 1603 741  L 1603 1997  L 356 1997  L 356 2522  L 1603 2522  L 1603 3769  L 2134 3769  L 2134 2522  L 3381 2522  L 3381 1997  L 2134 1997  L 2134 741  L 1603 741  z " transform="scale(0.015625)" />
     </defs>
     <use xlink:href="#ArialMT-52" />
     <use xlink:href="#ArialMT-69" x="72.216797" />
     <use xlink:href="#ArialMT-67" x="94.433594" />
     <use xlink:href="#ArialMT-68" x="150.048828" />
     <use xlink:href="#ArialMT-74" x="205.664062" />
     <use xlink:href="#ArialMT-2b" x="233.447266" />
     <use xlink:href="#ArialMT-2b" x="291.845703" />
    </g>
   </g>
  </g>
 </g>
</svg></g>

<g id="edge2" class="edge">
<title>node0-&gt;leaf2</title>
<path fill="none" stroke="#444443" stroke-width="0.3" d="M98.56,-115.26C102.16,-106.65 106.3,-96.75 110.35,-87.08" />
<polygon fill="#444443" stroke="#444443" stroke-width="0.3" points="111.7,-87.47 111.96,-83.24 109.12,-86.39 111.7,-87.47" />
<text text-anchor="start" x="109" y="-94.8" font-family="Times New Roman,serif" font-size="14.00">&gt;</text>
</g>


<g id="node4" class="node">
<title>legend</title>
<polygon fill="none" stroke="black" stroke-width="0" points="266.5,-169 183.5,-169 183.5,-114 266.5,-114 266.5,-169" />
<svg width="79px" height="51px" viewBox="0 0 105.779688 68.348437" version="1.1" preserveAspectRatio="xMinYMin meet" x="186" y="-166.5">
 <metadata>
  <rdf:RDF>
   <ns2:Work>
    <dc:type rdf:resource="http://purl.org/dc/dcmitype/StillImage" />
    <dc:date>2021-12-16T22:06:09.752731</dc:date>
    <dc:format>image/svg+xml</dc:format>
    <dc:creator>
     <ns2:Agent>
      <dc:title>Matplotlib v3.5.1, https://matplotlib.org/</dc:title>
     </ns2:Agent>
    </dc:creator>
   </ns2:Work>
  </rdf:RDF>
 </metadata>
 <defs>
  <style type="text/css">*{stroke-linejoin: round; stroke-linecap: butt}</style>
 </defs>
 <g id="figure_1">
  <g id="patch_1">
   <path d="M 0 68.348437  L 105.779688 68.348437  L 105.779688 0  L 0 0  z " style="fill: #ffffff" />
  </g>
  <g id="axes_1">
   <g id="legend_1">
    <g id="patch_2">
     <path d="M 2 68.348437  L 103.779688 68.348437  Q 105.779688 68.348437 105.779688 66.348437  L 105.779688 2  Q 105.779688 -0 103.779688 -0  L 2 -0  Q 0 -0 0 2  L 0 66.348437  Q 0 68.348437 2 68.348437  z " style="fill: #ffffff; opacity: 0.8; stroke: #444443; stroke-width: 0.5; stroke-linejoin: miter" />
    </g>
    <g id="text_1">
     
     <g style="fill: #444443" transform="translate(8 15.598437)scale(0.1 -0.1)">
      <defs>
       <path id="DejaVuSans-Bold-4d" d="M 588 4666  L 2119 4666  L 3181 2169  L 4250 4666  L 5778 4666  L 5778 0  L 4641 0  L 4641 3413  L 3566 897  L 2803 897  L 1728 3413  L 1728 0  L 588 0  L 588 4666  z " transform="scale(0.015625)" />
       <path id="DejaVuSans-Bold-6f" d="M 2203 2784  Q 1831 2784 1636 2517  Q 1441 2250 1441 1747  Q 1441 1244 1636 976  Q 1831 709 2203 709  Q 2569 709 2762 976  Q 2956 1244 2956 1747  Q 2956 2250 2762 2517  Q 2569 2784 2203 2784  z M 2203 3584  Q 3106 3584 3614 3096  Q 4122 2609 4122 1747  Q 4122 884 3614 396  Q 3106 -91 2203 -91  Q 1297 -91 786 396  Q 275 884 275 1747  Q 275 2609 786 3096  Q 1297 3584 2203 3584  z " transform="scale(0.015625)" />
       <path id="DejaVuSans-Bold-75" d="M 500 1363  L 500 3500  L 1625 3500  L 1625 3150  Q 1625 2866 1622 2436  Q 1619 2006 1619 1863  Q 1619 1441 1641 1255  Q 1663 1069 1716 984  Q 1784 875 1895 815  Q 2006 756 2150 756  Q 2500 756 2700 1025  Q 2900 1294 2900 1772  L 2900 3500  L 4019 3500  L 4019 0  L 2900 0  L 2900 506  Q 2647 200 2364 54  Q 2081 -91 1741 -91  Q 1134 -91 817 281  Q 500 653 500 1363  z " transform="scale(0.015625)" />
       <path id="DejaVuSans-Bold-6e" d="M 4056 2131  L 4056 0  L 2931 0  L 2931 347  L 2931 1631  Q 2931 2084 2911 2256  Q 2891 2428 2841 2509  Q 2775 2619 2662 2680  Q 2550 2741 2406 2741  Q 2056 2741 1856 2470  Q 1656 2200 1656 1722  L 1656 0  L 538 0  L 538 3500  L 1656 3500  L 1656 2988  Q 1909 3294 2193 3439  Q 2478 3584 2822 3584  Q 3428 3584 3742 3212  Q 4056 2841 4056 2131  z " transform="scale(0.015625)" />
       <path id="DejaVuSans-Bold-74" d="M 1759 4494  L 1759 3500  L 2913 3500  L 2913 2700  L 1759 2700  L 1759 1216  Q 1759 972 1856 886  Q 1953 800 2241 800  L 2816 800  L 2816 0  L 1856 0  Q 1194 0 917 276  Q 641 553 641 1216  L 641 2700  L 84 2700  L 84 3500  L 641 3500  L 641 4494  L 1759 4494  z " transform="scale(0.015625)" />
       <path id="DejaVuSans-Bold-61" d="M 2106 1575  Q 1756 1575 1579 1456  Q 1403 1338 1403 1106  Q 1403 894 1545 773  Q 1688 653 1941 653  Q 2256 653 2472 879  Q 2688 1106 2688 1447  L 2688 1575  L 2106 1575  z M 3816 1997  L 3816 0  L 2688 0  L 2688 519  Q 2463 200 2181 54  Q 1900 -91 1497 -91  Q 953 -91 614 226  Q 275 544 275 1050  Q 275 1666 698 1953  Q 1122 2241 2028 2241  L 2688 2241  L 2688 2328  Q 2688 2594 2478 2717  Q 2269 2841 1825 2841  Q 1466 2841 1156 2769  Q 847 2697 581 2553  L 581 3406  Q 941 3494 1303 3539  Q 1666 3584 2028 3584  Q 2975 3584 3395 3211  Q 3816 2838 3816 1997  z " transform="scale(0.015625)" />
       <path id="DejaVuSans-Bold-69" d="M 538 3500  L 1656 3500  L 1656 0  L 538 0  L 538 3500  z M 538 4863  L 1656 4863  L 1656 3950  L 538 3950  L 538 4863  z " transform="scale(0.015625)" />
       <path id="DejaVuSans-Bold-43" d="M 4288 256  Q 3956 84 3597 -3  Q 3238 -91 2847 -91  Q 1681 -91 1000 561  Q 319 1213 319 2328  Q 319 3447 1000 4098  Q 1681 4750 2847 4750  Q 3238 4750 3597 4662  Q 3956 4575 4288 4403  L 4288 3438  Q 3953 3666 3628 3772  Q 3303 3878 2944 3878  Q 2300 3878 1931 3465  Q 1563 3053 1563 2328  Q 1563 1606 1931 1193  Q 2300 781 2944 781  Q 3303 781 3628 887  Q 3953 994 4288 1222  L 4288 256  z " transform="scale(0.015625)" />
       <path id="DejaVuSans-Bold-72" d="M 3138 2547  Q 2991 2616 2845 2648  Q 2700 2681 2553 2681  Q 2122 2681 1889 2404  Q 1656 2128 1656 1613  L 1656 0  L 538 0  L 538 3500  L 1656 3500  L 1656 2925  Q 1872 3269 2151 3426  Q 2431 3584 2822 3584  Q 2878 3584 2943 3579  Q 3009 3575 3134 3559  L 3138 2547  z " transform="scale(0.015625)" />
       <path id="DejaVuSans-Bold-2d" d="M 347 2297  L 2309 2297  L 2309 1388  L 347 1388  L 347 2297  z " transform="scale(0.015625)" />
       <path id="DejaVuSans-Bold-76" d="M 97 3500  L 1216 3500  L 2088 1081  L 2956 3500  L 4078 3500  L 2700 0  L 1472 0  L 97 3500  z " transform="scale(0.015625)" />
       <path id="DejaVuSans-Bold-30" d="M 2944 2338  Q 2944 3213 2780 3570  Q 2616 3928 2228 3928  Q 1841 3928 1675 3570  Q 1509 3213 1509 2338  Q 1509 1453 1675 1090  Q 1841 728 2228 728  Q 2613 728 2778 1090  Q 2944 1453 2944 2338  z M 4147 2328  Q 4147 1169 3647 539  Q 3147 -91 2228 -91  Q 1306 -91 806 539  Q 306 1169 306 2328  Q 306 3491 806 4120  Q 1306 4750 2228 4750  Q 3147 4750 3647 4120  Q 4147 3491 4147 2328  z " transform="scale(0.015625)" />
      </defs>
      <use xlink:href="#DejaVuSans-Bold-4d" />
      <use xlink:href="#DejaVuSans-Bold-6f" x="99.511719" />
      <use xlink:href="#DejaVuSans-Bold-75" x="168.212891" />
      <use xlink:href="#DejaVuSans-Bold-6e" x="239.404297" />
      <use xlink:href="#DejaVuSans-Bold-74" x="310.595703" />
      <use xlink:href="#DejaVuSans-Bold-61" x="358.398438" />
      <use xlink:href="#DejaVuSans-Bold-69" x="425.878906" />
      <use xlink:href="#DejaVuSans-Bold-6e" x="460.15625" />
      <use xlink:href="#DejaVuSans-Bold-43" x="531.347656" />
      <use xlink:href="#DejaVuSans-Bold-61" x="604.736328" />
      <use xlink:href="#DejaVuSans-Bold-72" x="672.216797" />
      <use xlink:href="#DejaVuSans-Bold-2d" x="721.533203" />
      <use xlink:href="#DejaVuSans-Bold-76" x="763.037109" />
      <use xlink:href="#DejaVuSans-Bold-30" x="828.222656" />
     </g>
    </g>
    <g id="patch_3">
     <path d="M 16.957031 29.835937  L 36.957031 29.835937  L 36.957031 22.835937  L 16.957031 22.835937  z " style="fill: #fefebb; stroke: #444443; stroke-width: 0.4; stroke-linejoin: miter" />
    </g>
    <g id="text_2">
     
     <g style="fill: #444443" transform="translate(40.457031 29.835937)scale(0.1 -0.1)">
      <defs>
       <path id="ArialMT-4c" d="M 469 0  L 469 4581  L 1075 4581  L 1075 541  L 3331 541  L 3331 0  L 469 0  z " transform="scale(0.015625)" />
       <path id="ArialMT-65" d="M 2694 1069  L 3275 997  Q 3138 488 2766 206  Q 2394 -75 1816 -75  Q 1088 -75 661 373  Q 234 822 234 1631  Q 234 2469 665 2931  Q 1097 3394 1784 3394  Q 2450 3394 2872 2941  Q 3294 2488 3294 1666  Q 3294 1616 3291 1516  L 816 1516  Q 847 969 1125 678  Q 1403 388 1819 388  Q 2128 388 2347 550  Q 2566 713 2694 1069  z M 847 1978  L 2700 1978  Q 2663 2397 2488 2606  Q 2219 2931 1791 2931  Q 1403 2931 1139 2672  Q 875 2413 847 1978  z " transform="scale(0.015625)" />
       <path id="ArialMT-66" d="M 556 0  L 556 2881  L 59 2881  L 59 3319  L 556 3319  L 556 3672  Q 556 4006 616 4169  Q 697 4388 901 4523  Q 1106 4659 1475 4659  Q 1713 4659 2000 4603  L 1916 4113  Q 1741 4144 1584 4144  Q 1328 4144 1222 4034  Q 1116 3925 1116 3625  L 1116 3319  L 1763 3319  L 1763 2881  L 1116 2881  L 1116 0  L 556 0  z " transform="scale(0.015625)" />
       <path id="ArialMT-74" d="M 1650 503  L 1731 6  Q 1494 -44 1306 -44  Q 1000 -44 831 53  Q 663 150 594 308  Q 525 466 525 972  L 525 2881  L 113 2881  L 113 3319  L 525 3319  L 525 4141  L 1084 4478  L 1084 3319  L 1650 3319  L 1650 2881  L 1084 2881  L 1084 941  Q 1084 700 1114 631  Q 1144 563 1211 522  Q 1278 481 1403 481  Q 1497 481 1650 503  z " transform="scale(0.015625)" />
       <path id="ArialMT-2b" d="M 1603 741  L 1603 1997  L 356 1997  L 356 2522  L 1603 2522  L 1603 3769  L 2134 3769  L 2134 2522  L 3381 2522  L 3381 1997  L 2134 1997  L 2134 741  L 1603 741  z " transform="scale(0.015625)" />
      </defs>
      <use xlink:href="#ArialMT-4c" />
      <use xlink:href="#ArialMT-65" x="55.615234" />
      <use xlink:href="#ArialMT-66" x="111.230469" />
      <use xlink:href="#ArialMT-74" x="139.013672" />
      <use xlink:href="#ArialMT-2b" x="166.796875" />
      <use xlink:href="#ArialMT-2b" x="225.195312" />
     </g>
    </g>
    <g id="patch_4">
     <path d="M 16.957031 43.98125  L 36.957031 43.98125  L 36.957031 36.98125  L 16.957031 36.98125  z " style="fill: #d9e6f5; stroke: #444443; stroke-width: 0.4; stroke-linejoin: miter" />
    </g>
    <g id="text_3">
     
     <g style="fill: #444443" transform="translate(40.457031 43.98125)scale(0.1 -0.1)">
      <defs>
       <path id="ArialMT-44" d="M 494 0  L 494 4581  L 2072 4581  Q 2606 4581 2888 4516  Q 3281 4425 3559 4188  Q 3922 3881 4101 3404  Q 4281 2928 4281 2316  Q 4281 1794 4159 1391  Q 4038 988 3847 723  Q 3656 459 3429 307  Q 3203 156 2883 78  Q 2563 0 2147 0  L 494 0  z M 1100 541  L 2078 541  Q 2531 541 2789 625  Q 3047 709 3200 863  Q 3416 1078 3536 1442  Q 3656 1806 3656 2325  Q 3656 3044 3420 3430  Q 3184 3816 2847 3947  Q 2603 4041 2063 4041  L 1100 4041  L 1100 541  z " transform="scale(0.015625)" />
       <path id="ArialMT-6f" d="M 213 1659  Q 213 2581 725 3025  Q 1153 3394 1769 3394  Q 2453 3394 2887 2945  Q 3322 2497 3322 1706  Q 3322 1066 3130 698  Q 2938 331 2570 128  Q 2203 -75 1769 -75  Q 1072 -75 642 372  Q 213 819 213 1659  z M 791 1659  Q 791 1022 1069 705  Q 1347 388 1769 388  Q 2188 388 2466 706  Q 2744 1025 2744 1678  Q 2744 2294 2464 2611  Q 2184 2928 1769 2928  Q 1347 2928 1069 2612  Q 791 2297 791 1659  z " transform="scale(0.015625)" />
       <path id="ArialMT-20" transform="scale(0.015625)" />
       <path id="ArialMT-6e" d="M 422 0  L 422 3319  L 928 3319  L 928 2847  Q 1294 3394 1984 3394  Q 2284 3394 2536 3286  Q 2788 3178 2913 3003  Q 3038 2828 3088 2588  Q 3119 2431 3119 2041  L 3119 0  L 2556 0  L 2556 2019  Q 2556 2363 2490 2533  Q 2425 2703 2258 2804  Q 2091 2906 1866 2906  Q 1506 2906 1245 2678  Q 984 2450 984 1813  L 984 0  L 422 0  z " transform="scale(0.015625)" />
       <path id="ArialMT-68" d="M 422 0  L 422 4581  L 984 4581  L 984 2938  Q 1378 3394 1978 3394  Q 2347 3394 2619 3248  Q 2891 3103 3008 2847  Q 3125 2591 3125 2103  L 3125 0  L 2563 0  L 2563 2103  Q 2563 2525 2380 2717  Q 2197 2909 1863 2909  Q 1613 2909 1392 2779  Q 1172 2650 1078 2428  Q 984 2206 984 1816  L 984 0  L 422 0  z " transform="scale(0.015625)" />
       <path id="ArialMT-69" d="M 425 3934  L 425 4581  L 988 4581  L 988 3934  L 425 3934  z M 425 0  L 425 3319  L 988 3319  L 988 0  L 425 0  z " transform="scale(0.015625)" />
       <path id="ArialMT-67" d="M 319 -275  L 866 -356  Q 900 -609 1056 -725  Q 1266 -881 1628 -881  Q 2019 -881 2231 -725  Q 2444 -569 2519 -288  Q 2563 -116 2559 434  Q 2191 0 1641 0  Q 956 0 581 494  Q 206 988 206 1678  Q 206 2153 378 2554  Q 550 2956 876 3175  Q 1203 3394 1644 3394  Q 2231 3394 2613 2919  L 2613 3319  L 3131 3319  L 3131 450  Q 3131 -325 2973 -648  Q 2816 -972 2473 -1159  Q 2131 -1347 1631 -1347  Q 1038 -1347 672 -1080  Q 306 -813 319 -275  z M 784 1719  Q 784 1066 1043 766  Q 1303 466 1694 466  Q 2081 466 2343 764  Q 2606 1063 2606 1700  Q 2606 2309 2336 2618  Q 2066 2928 1684 2928  Q 1309 2928 1046 2623  Q 784 2319 784 1719  z " transform="scale(0.015625)" />
      </defs>
      <use xlink:href="#ArialMT-44" />
      <use xlink:href="#ArialMT-6f" x="72.216797" />
      <use xlink:href="#ArialMT-20" x="127.832031" />
      <use xlink:href="#ArialMT-6e" x="155.615234" />
      <use xlink:href="#ArialMT-6f" x="211.230469" />
      <use xlink:href="#ArialMT-74" x="266.845703" />
      <use xlink:href="#ArialMT-68" x="294.628906" />
      <use xlink:href="#ArialMT-69" x="350.244141" />
      <use xlink:href="#ArialMT-6e" x="372.460938" />
      <use xlink:href="#ArialMT-67" x="428.076172" />
     </g>
    </g>
    <g id="patch_5">
     <path d="M 16.957031 58.24375  L 36.957031 58.24375  L 36.957031 51.24375  L 16.957031 51.24375  z " style="fill: #a1dab4; stroke: #444443; stroke-width: 0.4; stroke-linejoin: miter" />
    </g>
    <g id="text_4">
     
     <g style="fill: #444443" transform="translate(40.457031 58.24375)scale(0.1 -0.1)">
      <defs>
       <path id="ArialMT-52" d="M 503 0  L 503 4581  L 2534 4581  Q 3147 4581 3465 4457  Q 3784 4334 3975 4021  Q 4166 3709 4166 3331  Q 4166 2844 3850 2509  Q 3534 2175 2875 2084  Q 3116 1969 3241 1856  Q 3506 1613 3744 1247  L 4541 0  L 3778 0  L 3172 953  Q 2906 1366 2734 1584  Q 2563 1803 2427 1890  Q 2291 1978 2150 2013  Q 2047 2034 1813 2034  L 1109 2034  L 1109 0  L 503 0  z M 1109 2559  L 2413 2559  Q 2828 2559 3062 2645  Q 3297 2731 3419 2920  Q 3541 3109 3541 3331  Q 3541 3656 3305 3865  Q 3069 4075 2559 4075  L 1109 4075  L 1109 2559  z " transform="scale(0.015625)" />
      </defs>
      <use xlink:href="#ArialMT-52" />
      <use xlink:href="#ArialMT-69" x="72.216797" />
      <use xlink:href="#ArialMT-67" x="94.433594" />
      <use xlink:href="#ArialMT-68" x="150.048828" />
      <use xlink:href="#ArialMT-74" x="205.664062" />
      <use xlink:href="#ArialMT-2b" x="233.447266" />
      <use xlink:href="#ArialMT-2b" x="291.845703" />
     </g>
    </g>
   </g>
  </g>
 </g>
</svg></g>
</g>
</svg>