<svg xmlns="http://www.w3.org/2000/svg" xmlns:dc="http://purl.org/dc/elements/1.1/" xmlns:ns2="http://creativecommons.org/ns#" xmlns:rdf="http://www.w3.org/1999/02/22-rdf-syntax-ns#" xmlns:xlink="http://www.w3.org/1999/xlink" width="311.0" height="176.0" viewBox="0.0 0.0 311.0 176.0">
<g id="graph0" class="graph" transform="scale(1.0 1.0) rotate(0) translate(4 172)">
<title>G</title>
<polygon fill="white" stroke="transparent" points="-4,4 -4,-172 307,-172 307,4 -4,4" />
<g id="clust2" class="cluster">
<title>cluster_legend</title>
</g>

<g id="node1" class="node">
<title>node0</title>
<svg width="154px" height="44px" viewBox="0 0 205.847162 59.15625" version="1.1" preserveAspectRatio="xMinYMin meet" x="4" y="-154.5">
 <metadata>
  <rdf:RDF>
   <ns2:Work>
    <dc:type rdf:resource="http://purl.org/dc/dcmitype/StillImage" />
    <dc:date>2022-01-18T16:41:19.996551</dc:date>
    <dc:format>image/svg+xml</dc:format>
    <dc:creator>
     <ns2:Agent>
      <dc:title>Matplotlib v3.5.1, https://matplotlib.org/</dc:title>
     </ns2:Agent>
    </dc:creator>
   </ns2:Work>
  </rdf:RDF>
 </metadata>
 <defs>
  <style type="text/css">*{stroke-linejoin: round; stroke-linecap: butt}</style>
 </defs>
 <g id="figure_1">
  <g id="patch_1">
   <path d="M 0 59.15625  L 205.847162 59.15625  L 205.847162 0  L 0 0  z " style="fill: #ffffff" />
  </g>
  <g id="axes_1">
   <g id="patch_2">
    <path d="M 14.803125 29.439375  L 198.943125 29.439375  L 198.943125 1.719375  L 14.803125 1.719375  z " style="fill: #ffffff" />
   </g>
   <g id="patch_3">
    <path d="M 14.803125 29.439375  L 25.367407 29.439375  L 25.367407 29.439375  L 14.803125 29.439375  z " clip-path="url(#p120ef0866b)" style="fill: #fefebb; stroke: #444443; stroke-width: 0.5; stroke-linejoin: miter" />
   </g>
   <g id="patch_4">
    <path d="M 25.367407 29.439375  L 35.931688 29.439375  L 35.931688 29.439375  L 25.367407 29.439375  z " clip-path="url(#p120ef0866b)" style="fill: #fefebb; stroke: #444443; stroke-width: 0.5; stroke-linejoin: miter" />
   </g>
   <g id="patch_5">
    <path d="M 35.931688 29.439375  L 46.49597 29.439375  L 46.49597 29.439375  L 35.931688 29.439375  z " clip-path="url(#p120ef0866b)" style="fill: #fefebb; stroke: #444443; stroke-width: 0.5; stroke-linejoin: miter" />
   </g>
   <g id="patch_6">
    <path d="M 46.49597 29.439375  L 57.060251 29.439375  L 57.060251 29.439375  L 46.49597 29.439375  z " clip-path="url(#p120ef0866b)" style="fill: #fefebb; stroke: #444443; stroke-width: 0.5; stroke-linejoin: miter" />
   </g>
   <g id="patch_7">
    <path d="M 57.060251 29.439375  L 67.624533 29.439375  L 67.624533 29.439375  L 57.060251 29.439375  z " clip-path="url(#p120ef0866b)" style="fill: #fefebb; stroke: #444443; stroke-width: 0.5; stroke-linejoin: miter" />
   </g>
   <g id="patch_8">
    <path d="M 67.624533 29.439375  L 78.188815 29.439375  L 78.188815 29.439375  L 67.624533 29.439375  z " clip-path="url(#p120ef0866b)" style="fill: #fefebb; stroke: #444443; stroke-width: 0.5; stroke-linejoin: miter" />
   </g>
   <g id="patch_9">
    <path d="M 78.188815 29.439375  L 88.753096 29.439375  L 88.753096 26.506042  L 78.188815 26.506042  z " clip-path="url(#p120ef0866b)" style="fill: #fefebb; stroke: #444443; stroke-width: 0.5; stroke-linejoin: miter" />
   </g>
   <g id="patch_10">
    <path d="M 88.753096 29.439375  L 99.317378 29.439375  L 99.317378 26.506042  L 88.753096 26.506042  z " clip-path="url(#p120ef0866b)" style="fill: #fefebb; stroke: #444443; stroke-width: 0.5; stroke-linejoin: miter" />
   </g>
   <g id="patch_11">
    <path d="M 99.317378 29.439375  L 109.881659 29.439375  L 109.881659 20.639375  L 99.317378 20.639375  z " clip-path="url(#p120ef0866b)" style="fill: #fefebb; stroke: #444443; stroke-width: 0.5; stroke-linejoin: miter" />
   </g>
   <g id="patch_12">
    <path d="M 109.881659 29.439375  L 120.445941 29.439375  L 120.445941 11.839375  L 109.881659 11.839375  z " clip-path="url(#p120ef0866b)" style="fill: #fefebb; stroke: #444443; stroke-width: 0.5; stroke-linejoin: miter" />
   </g>
   <g id="patch_13">
    <path d="M 120.445941 29.439375  L 131.010223 29.439375  L 131.010223 20.639375  L 120.445941 20.639375  z " clip-path="url(#p120ef0866b)" style="fill: #fefebb; stroke: #444443; stroke-width: 0.5; stroke-linejoin: miter" />
   </g>
   <g id="patch_14">
    <path d="M 131.010223 29.439375  L 141.574504 29.439375  L 141.574504 11.839375  L 131.010223 11.839375  z " clip-path="url(#p120ef0866b)" style="fill: #fefebb; stroke: #444443; stroke-width: 0.5; stroke-linejoin: miter" />
   </g>
   <g id="patch_15">
    <path d="M 141.574504 29.439375  L 152.138786 29.439375  L 152.138786 20.639375  L 141.574504 20.639375  z " clip-path="url(#p120ef0866b)" style="fill: #fefebb; stroke: #444443; stroke-width: 0.5; stroke-linejoin: miter" />
   </g>
   <g id="patch_16">
    <path d="M 152.138786 29.439375  L 162.703067 29.439375  L 162.703067 17.706042  L 152.138786 17.706042  z " clip-path="url(#p120ef0866b)" style="fill: #fefebb; stroke: #444443; stroke-width: 0.5; stroke-linejoin: miter" />
   </g>
   <g id="patch_17">
    <path d="M 162.703067 29.439375  L 173.267349 29.439375  L 173.267349 23.572708  L 162.703067 23.572708  z " clip-path="url(#p120ef0866b)" style="fill: #fefebb; stroke: #444443; stroke-width: 0.5; stroke-linejoin: miter" />
   </g>
   <g id="patch_18">
    <path d="M 173.267349 29.439375  L 183.831631 29.439375  L 183.831631 23.572708  L 173.267349 23.572708  z " clip-path="url(#p120ef0866b)" style="fill: #fefebb; stroke: #444443; stroke-width: 0.5; stroke-linejoin: miter" />
   </g>
   <g id="patch_19">
    <path d="M 183.831631 29.439375  L 194.395912 29.439375  L 194.395912 20.639375  L 183.831631 20.639375  z " clip-path="url(#p120ef0866b)" style="fill: #fefebb; stroke: #444443; stroke-width: 0.5; stroke-linejoin: miter" />
   </g>
   <g id="patch_20">
    <path d="M 14.803125 29.439375  L 25.367407 29.439375  L 25.367407 23.572708  L 14.803125 23.572708  z " clip-path="url(#p120ef0866b)" style="fill: #d9e6f5; stroke: #444443; stroke-width: 0.5; stroke-linejoin: miter" />
   </g>
   <g id="patch_21">
    <path d="M 25.367407 29.439375  L 35.931688 29.439375  L 35.931688 26.506042  L 25.367407 26.506042  z " clip-path="url(#p120ef0866b)" style="fill: #d9e6f5; stroke: #444443; stroke-width: 0.5; stroke-linejoin: miter" />
   </g>
   <g id="patch_22">
    <path d="M 35.931688 29.439375  L 46.49597 29.439375  L 46.49597 26.506042  L 35.931688 26.506042  z " clip-path="url(#p120ef0866b)" style="fill: #d9e6f5; stroke: #444443; stroke-width: 0.5; stroke-linejoin: miter" />
   </g>
   <g id="patch_23">
    <path d="M 46.49597 29.439375  L 57.060251 29.439375  L 57.060251 29.439375  L 46.49597 29.439375  z " clip-path="url(#p120ef0866b)" style="fill: #d9e6f5; stroke: #444443; stroke-width: 0.5; stroke-linejoin: miter" />
   </g>
   <g id="patch_24">
    <path d="M 57.060251 29.439375  L 67.624533 29.439375  L 67.624533 23.572708  L 57.060251 23.572708  z " clip-path="url(#p120ef0866b)" style="fill: #d9e6f5; stroke: #444443; stroke-width: 0.5; stroke-linejoin: miter" />
   </g>
   <g id="patch_25">
    <path d="M 67.624533 29.439375  L 78.188815 29.439375  L 78.188815 29.439375  L 67.624533 29.439375  z " clip-path="url(#p120ef0866b)" style="fill: #d9e6f5; stroke: #444443; stroke-width: 0.5; stroke-linejoin: miter" />
   </g>
   <g id="patch_26">
    <path d="M 78.188815 26.506042  L 88.753096 26.506042  L 88.753096 23.572708  L 78.188815 23.572708  z " clip-path="url(#p120ef0866b)" style="fill: #d9e6f5; stroke: #444443; stroke-width: 0.5; stroke-linejoin: miter" />
   </g>
   <g id="patch_27">
    <path d="M 88.753096 26.506042  L 99.317378 26.506042  L 99.317378 23.572708  L 88.753096 23.572708  z " clip-path="url(#p120ef0866b)" style="fill: #d9e6f5; stroke: #444443; stroke-width: 0.5; stroke-linejoin: miter" />
   </g>
   <g id="patch_28">
    <path d="M 99.317378 20.639375  L 109.881659 20.639375  L 109.881659 20.639375  L 99.317378 20.639375  z " clip-path="url(#p120ef0866b)" style="fill: #d9e6f5; stroke: #444443; stroke-width: 0.5; stroke-linejoin: miter" />
   </g>
   <g id="patch_29">
    <path d="M 109.881659 11.839375  L 120.445941 11.839375  L 120.445941 11.839375  L 109.881659 11.839375  z " clip-path="url(#p120ef0866b)" style="fill: #d9e6f5; stroke: #444443; stroke-width: 0.5; stroke-linejoin: miter" />
   </g>
   <g id="patch_30">
    <path d="M 120.445941 20.639375  L 131.010223 20.639375  L 131.010223 17.706042  L 120.445941 17.706042  z " clip-path="url(#p120ef0866b)" style="fill: #d9e6f5; stroke: #444443; stroke-width: 0.5; stroke-linejoin: miter" />
   </g>
   <g id="patch_31">
    <path d="M 131.010223 11.839375  L 141.574504 11.839375  L 141.574504 11.839375  L 131.010223 11.839375  z " clip-path="url(#p120ef0866b)" style="fill: #d9e6f5; stroke: #444443; stroke-width: 0.5; stroke-linejoin: miter" />
   </g>
   <g id="patch_32">
    <path d="M 141.574504 20.639375  L 152.138786 20.639375  L 152.138786 20.639375  L 141.574504 20.639375  z " clip-path="url(#p120ef0866b)" style="fill: #d9e6f5; stroke: #444443; stroke-width: 0.5; stroke-linejoin: miter" />
   </g>
   <g id="patch_33">
    <path d="M 152.138786 17.706042  L 162.703067 17.706042  L 162.703067 17.706042  L 152.138786 17.706042  z " clip-path="url(#p120ef0866b)" style="fill: #d9e6f5; stroke: #444443; stroke-width: 0.5; stroke-linejoin: miter" />
   </g>
   <g id="patch_34">
    <path d="M 162.703067 23.572708  L 173.267349 23.572708  L 173.267349 23.572708  L 162.703067 23.572708  z " clip-path="url(#p120ef0866b)" style="fill: #d9e6f5; stroke: #444443; stroke-width: 0.5; stroke-linejoin: miter" />
   </g>
   <g id="patch_35">
    <path d="M 173.267349 23.572708  L 183.831631 23.572708  L 183.831631 23.572708  L 173.267349 23.572708  z " clip-path="url(#p120ef0866b)" style="fill: #d9e6f5; stroke: #444443; stroke-width: 0.5; stroke-linejoin: miter" />
   </g>
   <g id="patch_36">
    <path d="M 183.831631 20.639375  L 194.395912 20.639375  L 194.395912 20.639375  L 183.831631 20.639375  z " clip-path="url(#p120ef0866b)" style="fill: #d9e6f5; stroke: #444443; stroke-width: 0.5; stroke-linejoin: miter" />
   </g>
   <g id="patch_37">
    <path d="M 14.803125 23.572708  L 25.367407 23.572708  L 25.367407 17.706042  L 14.803125 17.706042  z " clip-path="url(#p120ef0866b)" style="fill: #a1dab4; stroke: #444443; stroke-width: 0.5; stroke-linejoin: miter" />
   </g>
   <g id="patch_38">
    <path d="M 25.367407 26.506042  L 35.931688 26.506042  L 35.931688 23.572708  L 25.367407 23.572708  z " clip-path="url(#p120ef0866b)" style="fill: #a1dab4; stroke: #444443; stroke-width: 0.5; stroke-linejoin: miter" />
   </g>
   <g id="patch_39">
    <path d="M 35.931688 26.506042  L 46.49597 26.506042  L 46.49597 20.639375  L 35.931688 20.639375  z " clip-path="url(#p120ef0866b)" style="fill: #a1dab4; stroke: #444443; stroke-width: 0.5; stroke-linejoin: miter" />
   </g>
   <g id="patch_40">
    <path d="M 46.49597 29.439375  L 57.060251 29.439375  L 57.060251 20.639375  L 46.49597 20.639375  z " clip-path="url(#p120ef0866b)" style="fill: #a1dab4; stroke: #444443; stroke-width: 0.5; stroke-linejoin: miter" />
   </g>
   <g id="patch_41">
    <path d="M 57.060251 23.572708  L 67.624533 23.572708  L 67.624533 5.972708  L 57.060251 5.972708  z " clip-path="url(#p120ef0866b)" style="fill: #a1dab4; stroke: #444443; stroke-width: 0.5; stroke-linejoin: miter" />
   </g>
   <g id="patch_42">
    <path d="M 67.624533 29.439375  L 78.188815 29.439375  L 78.188815 17.706042  L 67.624533 17.706042  z " clip-path="url(#p120ef0866b)" style="fill: #a1dab4; stroke: #444443; stroke-width: 0.5; stroke-linejoin: miter" />
   </g>
   <g id="patch_43">
    <path d="M 78.188815 23.572708  L 88.753096 23.572708  L 88.753096 8.906042  L 78.188815 8.906042  z " clip-path="url(#p120ef0866b)" style="fill: #a1dab4; stroke: #444443; stroke-width: 0.5; stroke-linejoin: miter" />
   </g>
   <g id="patch_44">
    <path d="M 88.753096 23.572708  L 99.317378 23.572708  L 99.317378 5.972708  L 88.753096 5.972708  z " clip-path="url(#p120ef0866b)" style="fill: #a1dab4; stroke: #444443; stroke-width: 0.5; stroke-linejoin: miter" />
   </g>
   <g id="patch_45">
    <path d="M 99.317378 20.639375  L 109.881659 20.639375  L 109.881659 3.039375  L 99.317378 3.039375  z " clip-path="url(#p120ef0866b)" style="fill: #a1dab4; stroke: #444443; stroke-width: 0.5; stroke-linejoin: miter" />
   </g>
   <g id="patch_46">
    <path d="M 109.881659 11.839375  L 120.445941 11.839375  L 120.445941 8.906042  L 109.881659 8.906042  z " clip-path="url(#p120ef0866b)" style="fill: #a1dab4; stroke: #444443; stroke-width: 0.5; stroke-linejoin: miter" />
   </g>
   <g id="patch_47">
    <path d="M 120.445941 17.706042  L 131.010223 17.706042  L 131.010223 14.772708  L 120.445941 14.772708  z " clip-path="url(#p120ef0866b)" style="fill: #a1dab4; stroke: #444443; stroke-width: 0.5; stroke-linejoin: miter" />
   </g>
   <g id="patch_48">
    <path d="M 131.010223 11.839375  L 141.574504 11.839375  L 141.574504 11.839375  L 131.010223 11.839375  z " clip-path="url(#p120ef0866b)" style="fill: #a1dab4; stroke: #444443; stroke-width: 0.5; stroke-linejoin: miter" />
   </g>
   <g id="patch_49">
    <path d="M 141.574504 20.639375  L 152.138786 20.639375  L 152.138786 20.639375  L 141.574504 20.639375  z " clip-path="url(#p120ef0866b)" style="fill: #a1dab4; stroke: #444443; stroke-width: 0.5; stroke-linejoin: miter" />
   </g>
   <g id="patch_50">
    <path d="M 152.138786 17.706042  L 162.703067 17.706042  L 162.703067 17.706042  L 152.138786 17.706042  z " clip-path="url(#p120ef0866b)" style="fill: #a1dab4; stroke: #444443; stroke-width: 0.5; stroke-linejoin: miter" />
   </g>
   <g id="patch_51">
    <path d="M 162.703067 23.572708  L 173.267349 23.572708  L 173.267349 23.572708  L 162.703067 23.572708  z " clip-path="url(#p120ef0866b)" style="fill: #a1dab4; stroke: #444443; stroke-width: 0.5; stroke-linejoin: miter" />
   </g>
   <g id="patch_52">
    <path d="M 173.267349 23.572708  L 183.831631 23.572708  L 183.831631 23.572708  L 173.267349 23.572708  z " clip-path="url(#p120ef0866b)" style="fill: #a1dab4; stroke: #444443; stroke-width: 0.5; stroke-linejoin: miter" />
   </g>
   <g id="patch_53">
    <path d="M 183.831631 20.639375  L 194.395912 20.639375  L 194.395912 20.639375  L 183.831631 20.639375  z " clip-path="url(#p120ef0866b)" style="fill: #a1dab4; stroke: #444443; stroke-width: 0.5; stroke-linejoin: miter" />
   </g>
   <g id="patch_54">
    <path d="M 107.727251 30.270975  L 104.412731 37.755375  L 111.041771 37.755375  z " style="fill: #444443" />
   </g>
   <g id="matplotlib.axis_1">
    <g id="xtick_1">
     <g id="line2d_1">
      <defs>
       <path id="m8a4ae40b8a" d="M 0 0  L 0 3.5  " style="stroke: #000000; stroke-width: 0.3" />
      </defs>
      <g>
       <use xlink:href="#m8a4ae40b8a" x="14.803125" y="29.439375" style="stroke: #000000; stroke-width: 0.3" />
      </g>
     </g>
     <g id="text_1">
      
      <g style="fill: #444443" transform="translate(-0 42.518125)scale(0.08 -0.08)">
       <defs>
        <path id="DejaVuSans-2212" d="M 678 2272  L 4684 2272  L 4684 1741  L 678 1741  L 678 2272  z " transform="scale(0.015625)" />
        <path id="DejaVuSans-34" d="M 2419 4116  L 825 1625  L 2419 1625  L 2419 4116  z M 2253 4666  L 3047 4666  L 3047 1625  L 3713 1625  L 3713 1100  L 3047 1100  L 3047 0  L 2419 0  L 2419 1100  L 313 1100  L 313 1709  L 2253 4666  z " transform="scale(0.015625)" />
        <path id="DejaVuSans-2e" d="M 684 794  L 1344 794  L 1344 0  L 684 0  L 684 794  z " transform="scale(0.015625)" />
        <path id="DejaVuSans-30" d="M 2034 4250  Q 1547 4250 1301 3770  Q 1056 3291 1056 2328  Q 1056 1369 1301 889  Q 1547 409 2034 409  Q 2525 409 2770 889  Q 3016 1369 3016 2328  Q 3016 3291 2770 3770  Q 2525 4250 2034 4250  z M 2034 4750  Q 2819 4750 3233 4129  Q 3647 3509 3647 2328  Q 3647 1150 3233 529  Q 2819 -91 2034 -91  Q 1250 -91 836 529  Q 422 1150 422 2328  Q 422 3509 836 4129  Q 1250 4750 2034 4750  z " transform="scale(0.015625)" />
        <path id="DejaVuSans-39" d="M 703 97  L 703 672  Q 941 559 1184 500  Q 1428 441 1663 441  Q 2288 441 2617 861  Q 2947 1281 2994 2138  Q 2813 1869 2534 1725  Q 2256 1581 1919 1581  Q 1219 1581 811 2004  Q 403 2428 403 3163  Q 403 3881 828 4315  Q 1253 4750 1959 4750  Q 2769 4750 3195 4129  Q 3622 3509 3622 2328  Q 3622 1225 3098 567  Q 2575 -91 1691 -91  Q 1453 -91 1209 -44  Q 966 3 703 97  z M 1959 2075  Q 2384 2075 2632 2365  Q 2881 2656 2881 3163  Q 2881 3666 2632 3958  Q 2384 4250 1959 4250  Q 1534 4250 1286 3958  Q 1038 3666 1038 3163  Q 1038 2656 1286 2365  Q 1534 2075 1959 2075  z " transform="scale(0.015625)" />
        <path id="DejaVuSans-32" d="M 1228 531  L 3431 531  L 3431 0  L 469 0  L 469 531  Q 828 903 1448 1529  Q 2069 2156 2228 2338  Q 2531 2678 2651 2914  Q 2772 3150 2772 3378  Q 2772 3750 2511 3984  Q 2250 4219 1831 4219  Q 1534 4219 1204 4116  Q 875 4013 500 3803  L 500 4441  Q 881 4594 1212 4672  Q 1544 4750 1819 4750  Q 2544 4750 2975 4387  Q 3406 4025 3406 3419  Q 3406 3131 3298 2873  Q 3191 2616 2906 2266  Q 2828 2175 2409 1742  Q 1991 1309 1228 531  z " transform="scale(0.015625)" />
       </defs>
       <use xlink:href="#DejaVuSans-2212" />
       <use xlink:href="#DejaVuSans-34" x="83.789062" />
       <use xlink:href="#DejaVuSans-2e" x="147.412109" />
       <use xlink:href="#DejaVuSans-30" x="179.199219" />
       <use xlink:href="#DejaVuSans-39" x="242.822266" />
       <use xlink:href="#DejaVuSans-32" x="306.445312" />
      </g>
     </g>
    </g>
    <g id="xtick_2">
     <g id="line2d_2">
      <g>
       <use xlink:href="#m8a4ae40b8a" x="194.395912" y="29.439375" style="stroke: #000000; stroke-width: 0.3" />
      </g>
     </g>
     <g id="text_2">
      
      <g style="fill: #444443" transform="translate(182.944662 42.518125)scale(0.08 -0.08)">
       <defs>
        <path id="DejaVuSans-31" d="M 794 531  L 1825 531  L 1825 4091  L 703 3866  L 703 4441  L 1819 4666  L 2450 4666  L 2450 531  L 3481 531  L 3481 0  L 794 0  L 794 531  z " transform="scale(0.015625)" />
        <path id="DejaVuSans-38" d="M 2034 2216  Q 1584 2216 1326 1975  Q 1069 1734 1069 1313  Q 1069 891 1326 650  Q 1584 409 2034 409  Q 2484 409 2743 651  Q 3003 894 3003 1313  Q 3003 1734 2745 1975  Q 2488 2216 2034 2216  z M 1403 2484  Q 997 2584 770 2862  Q 544 3141 544 3541  Q 544 4100 942 4425  Q 1341 4750 2034 4750  Q 2731 4750 3128 4425  Q 3525 4100 3525 3541  Q 3525 3141 3298 2862  Q 3072 2584 2669 2484  Q 3125 2378 3379 2068  Q 3634 1759 3634 1313  Q 3634 634 3220 271  Q 2806 -91 2034 -91  Q 1263 -91 848 271  Q 434 634 434 1313  Q 434 1759 690 2068  Q 947 2378 1403 2484  z M 1172 3481  Q 1172 3119 1398 2916  Q 1625 2713 2034 2713  Q 2441 2713 2670 2916  Q 2900 3119 2900 3481  Q 2900 3844 2670 4047  Q 2441 4250 2034 4250  Q 1625 4250 1398 4047  Q 1172 3844 1172 3481  z " transform="scale(0.015625)" />
       </defs>
       <use xlink:href="#DejaVuSans-34" />
       <use xlink:href="#DejaVuSans-2e" x="63.623047" />
       <use xlink:href="#DejaVuSans-31" x="95.410156" />
       <use xlink:href="#DejaVuSans-39" x="159.033203" />
       <use xlink:href="#DejaVuSans-38" x="222.65625" />
      </g>
     </g>
    </g>
    <g id="text_3">
     
     <g style="fill: #444443" transform="translate(77.528437 56.77125)scale(0.12 -0.12)">
      <defs>
       <path id="ArialMT-74" d="M 1650 503  L 1731 6  Q 1494 -44 1306 -44  Q 1000 -44 831 53  Q 663 150 594 308  Q 525 466 525 972  L 525 2881  L 113 2881  L 113 3319  L 525 3319  L 525 4141  L 1084 4478  L 1084 3319  L 1650 3319  L 1650 2881  L 1084 2881  L 1084 941  Q 1084 700 1114 631  Q 1144 563 1211 522  Q 1278 481 1403 481  Q 1497 481 1650 503  z " transform="scale(0.015625)" />
       <path id="ArialMT-68" d="M 422 0  L 422 4581  L 984 4581  L 984 2938  Q 1378 3394 1978 3394  Q 2347 3394 2619 3248  Q 2891 3103 3008 2847  Q 3125 2591 3125 2103  L 3125 0  L 2563 0  L 2563 2103  Q 2563 2525 2380 2717  Q 2197 2909 1863 2909  Q 1613 2909 1392 2779  Q 1172 2650 1078 2428  Q 984 2206 984 1816  L 984 0  L 422 0  z " transform="scale(0.015625)" />
       <path id="ArialMT-65" d="M 2694 1069  L 3275 997  Q 3138 488 2766 206  Q 2394 -75 1816 -75  Q 1088 -75 661 373  Q 234 822 234 1631  Q 234 2469 665 2931  Q 1097 3394 1784 3394  Q 2450 3394 2872 2941  Q 3294 2488 3294 1666  Q 3294 1616 3291 1516  L 816 1516  Q 847 969 1125 678  Q 1403 388 1819 388  Q 2128 388 2347 550  Q 2566 713 2694 1069  z M 847 1978  L 2700 1978  Q 2663 2397 2488 2606  Q 2219 2931 1791 2931  Q 1403 2931 1139 2672  Q 875 2413 847 1978  z " transform="scale(0.015625)" />
       <path id="ArialMT-61" d="M 2588 409  Q 2275 144 1986 34  Q 1697 -75 1366 -75  Q 819 -75 525 192  Q 231 459 231 875  Q 231 1119 342 1320  Q 453 1522 633 1644  Q 813 1766 1038 1828  Q 1203 1872 1538 1913  Q 2219 1994 2541 2106  Q 2544 2222 2544 2253  Q 2544 2597 2384 2738  Q 2169 2928 1744 2928  Q 1347 2928 1158 2789  Q 969 2650 878 2297  L 328 2372  Q 403 2725 575 2942  Q 747 3159 1072 3276  Q 1397 3394 1825 3394  Q 2250 3394 2515 3294  Q 2781 3194 2906 3042  Q 3031 2891 3081 2659  Q 3109 2516 3109 2141  L 3109 1391  Q 3109 606 3145 398  Q 3181 191 3288 0  L 2700 0  Q 2613 175 2588 409  z M 2541 1666  Q 2234 1541 1622 1453  Q 1275 1403 1131 1340  Q 988 1278 909 1158  Q 831 1038 831 891  Q 831 666 1001 516  Q 1172 366 1500 366  Q 1825 366 2078 508  Q 2331 650 2450 897  Q 2541 1088 2541 1459  L 2541 1666  z " transform="scale(0.015625)" />
       <path id="ArialMT-44" d="M 494 0  L 494 4581  L 2072 4581  Q 2606 4581 2888 4516  Q 3281 4425 3559 4188  Q 3922 3881 4101 3404  Q 4281 2928 4281 2316  Q 4281 1794 4159 1391  Q 4038 988 3847 723  Q 3656 459 3429 307  Q 3203 156 2883 78  Q 2563 0 2147 0  L 494 0  z M 1100 541  L 2078 541  Q 2531 541 2789 625  Q 3047 709 3200 863  Q 3416 1078 3536 1442  Q 3656 1806 3656 2325  Q 3656 3044 3420 3430  Q 3184 3816 2847 3947  Q 2603 4041 2063 4041  L 1100 4041  L 1100 541  z " transform="scale(0.015625)" />
       <path id="ArialMT-4f" d="M 309 2231  Q 309 3372 921 4017  Q 1534 4663 2503 4663  Q 3138 4663 3647 4359  Q 4156 4056 4423 3514  Q 4691 2972 4691 2284  Q 4691 1588 4409 1038  Q 4128 488 3612 205  Q 3097 -78 2500 -78  Q 1853 -78 1343 234  Q 834 547 571 1087  Q 309 1628 309 2231  z M 934 2222  Q 934 1394 1379 917  Q 1825 441 2497 441  Q 3181 441 3623 922  Q 4066 1403 4066 2288  Q 4066 2847 3877 3264  Q 3688 3681 3323 3911  Q 2959 4141 2506 4141  Q 1863 4141 1398 3698  Q 934 3256 934 2222  z " transform="scale(0.015625)" />
       <path id="ArialMT-54" d="M 1659 0  L 1659 4041  L 150 4041  L 150 4581  L 3781 4581  L 3781 4041  L 2266 4041  L 2266 0  L 1659 0  z " transform="scale(0.015625)" />
       <path id="ArialMT-31" d="M 2384 0  L 1822 0  L 1822 3584  Q 1619 3391 1289 3197  Q 959 3003 697 2906  L 697 3450  Q 1169 3672 1522 3987  Q 1875 4303 2022 4600  L 2384 4600  L 2384 0  z " transform="scale(0.015625)" />
      </defs>
      <use xlink:href="#ArialMT-74" />
      <use xlink:href="#ArialMT-68" x="27.783203" />
      <use xlink:href="#ArialMT-65" x="83.398438" />
      <use xlink:href="#ArialMT-74" x="139.013672" />
      <use xlink:href="#ArialMT-61" x="166.796875" />
      <use xlink:href="#ArialMT-44" x="222.412109" />
      <use xlink:href="#ArialMT-4f" x="294.628906" />
      <use xlink:href="#ArialMT-54" x="372.412109" />
      <use xlink:href="#ArialMT-31" x="433.496094" />
     </g>
    </g>
   </g>
   <g id="matplotlib.axis_2">
    <g id="ytick_1">
     <g id="line2d_3">
      <defs>
       <path id="m1e094222e5" d="M 0 0  L -3.5 0  " style="stroke: #000000; stroke-width: 0.3" />
      </defs>
      <g>
       <use xlink:href="#m1e094222e5" x="14.803125" y="29.439375" style="stroke: #000000; stroke-width: 0.3" />
      </g>
     </g>
     <g id="text_4">
      
      <g style="fill: #444443" transform="translate(2.713125 32.47875)scale(0.08 -0.08)">
       <use xlink:href="#DejaVuSans-30" />
      </g>
     </g>
    </g>
    <g id="ytick_2">
     <g id="line2d_4">
      <g>
       <use xlink:href="#m1e094222e5" x="14.803125" y="3.039375" style="stroke: #000000; stroke-width: 0.3" />
      </g>
     </g>
     <g id="text_5">
      
      <g style="fill: #444443" transform="translate(2.713125 6.07875)scale(0.08 -0.08)">
       <use xlink:href="#DejaVuSans-39" />
      </g>
     </g>
    </g>
   </g>
   <g id="patch_55">
    <path d="M 14.803125 29.439375  L 14.803125 1.719375  " style="fill: none; stroke: #000000; stroke-width: 0.3; stroke-linejoin: miter; stroke-linecap: square" />
   </g>
   <g id="patch_56">
    <path d="M 14.803125 29.439375  L 198.943125 29.439375  " style="fill: none; stroke: #000000; stroke-width: 0.3; stroke-linejoin: miter; stroke-linecap: square" />
   </g>
   <g id="text_6">
    
    <g style="fill: #444443" transform="translate(99.942876 46.071375)scale(0.08 -0.08)">
     <defs>
      <path id="ArialMT-30" d="M 266 2259  Q 266 3072 433 3567  Q 600 4063 929 4331  Q 1259 4600 1759 4600  Q 2128 4600 2406 4451  Q 2684 4303 2865 4023  Q 3047 3744 3150 3342  Q 3253 2941 3253 2259  Q 3253 1453 3087 958  Q 2922 463 2592 192  Q 2263 -78 1759 -78  Q 1097 -78 719 397  Q 266 969 266 2259  z M 844 2259  Q 844 1131 1108 757  Q 1372 384 1759 384  Q 2147 384 2411 759  Q 2675 1134 2675 2259  Q 2675 3391 2411 3762  Q 2147 4134 1753 4134  Q 1366 4134 1134 3806  Q 844 3388 844 2259  z " transform="scale(0.015625)" />
      <path id="ArialMT-2e" d="M 581 0  L 581 641  L 1222 641  L 1222 0  L 581 0  z " transform="scale(0.015625)" />
      <path id="ArialMT-32" d="M 3222 541  L 3222 0  L 194 0  Q 188 203 259 391  Q 375 700 629 1000  Q 884 1300 1366 1694  Q 2113 2306 2375 2664  Q 2638 3022 2638 3341  Q 2638 3675 2398 3904  Q 2159 4134 1775 4134  Q 1369 4134 1125 3890  Q 881 3647 878 3216  L 300 3275  Q 359 3922 746 4261  Q 1134 4600 1788 4600  Q 2447 4600 2831 4234  Q 3216 3869 3216 3328  Q 3216 3053 3103 2787  Q 2991 2522 2730 2228  Q 2469 1934 1863 1422  Q 1356 997 1212 845  Q 1069 694 975 541  L 3222 541  z " transform="scale(0.015625)" />
     </defs>
     <use xlink:href="#ArialMT-30" />
     <use xlink:href="#ArialMT-2e" x="55.615234" />
     <use xlink:href="#ArialMT-32" x="83.398438" />
     <use xlink:href="#ArialMT-30" x="139.013672" />
    </g>
   </g>
  </g>
 </g>
 <defs>
  <clipPath id="p120ef0866b">
   <rect x="14.803125" y="1.719375" width="184.14" height="27.72" />
  </clipPath>
 </defs>
</svg></g>

<g id="node2" class="node">
<title>leaf1</title>
<polygon fill="none" stroke="#444443" stroke-width="0" points="78,-74 20,-74 20,0 78,0 78,-74" />
<svg width="50px" height="66px" viewBox="0 0 67.143865 87.61179" version="1.1" preserveAspectRatio="xMinYMin meet" x="24" y="-70">
 <metadata>
  <rdf:RDF>
   <ns2:Work>
    <dc:type rdf:resource="http://purl.org/dc/dcmitype/StillImage" />
    <dc:date>2022-01-18T16:41:20.143604</dc:date>
    <dc:format>image/svg+xml</dc:format>
    <dc:creator>
     <ns2:Agent>
      <dc:title>Matplotlib v3.5.1, https://matplotlib.org/</dc:title>
     </ns2:Agent>
    </dc:creator>
   </ns2:Work>
  </rdf:RDF>
 </metadata>
 <defs>
  <style type="text/css">*{stroke-linejoin: round; stroke-linecap: butt}</style>
 </defs>
 <g id="figure_1">
  <g id="patch_1">
   <path d="M 0 87.61179  L 67.143865 87.61179  L 67.143865 0  L 0 0  z " style="fill: #ffffff" />
  </g>
  <g id="axes_1">
   <g id="patch_2">
    <path d="M 67.143865 33.571999  C 67.143865 30.575506 66.742684 27.592456 65.951024 24.702431  C 65.159365 21.812406 63.98433 19.041337 62.457267 16.463149  L 33.571865 33.571999  L 67.143865 33.571999  z " style="fill: #fefebb; stroke: #444443; stroke-width: 0.5; stroke-linejoin: miter" />
   </g>
   <g id="patch_3">
    <path d="M 62.457267 16.463149  C 59.389627 11.283958 54.984761 7.023901 49.705957 4.131036  C 44.427153 1.238172 38.466203 -0.182395 32.450059 0.018747  L 33.571865 33.571999  L 62.457267 16.463149  z " style="fill: #d9e6f5; stroke: #444443; stroke-width: 0.5; stroke-linejoin: miter" />
   </g>
   <g id="patch_4">
    <path d="M 32.450059 0.018747  C 25.862365 0.238997 19.483159 2.394543 14.112047 6.215196  C 8.740936 10.035849 4.612119 15.355015 2.243127 21.505958  C -0.125865 27.656901 -0.631736 34.371419 0.788923 40.807874  C 2.209582 47.244329 5.494825 53.122069 10.232862 57.704344  C 14.970898 62.286619 20.955131 65.373625 27.435462 66.578419  C 33.915794 67.783212 40.609659 67.05326 46.678008 64.480059  C 52.746358 61.906858 57.92459 57.602609 61.563635 52.106831  C 65.202681 46.611053 67.143864 40.163382 67.143865 33.572007  L 33.571865 33.571999  L 32.450059 0.018747  z " style="fill: #a1dab4; stroke: #444443; stroke-width: 0.5; stroke-linejoin: miter" />
   </g>
   <g id="text_1">
    
    <g style="fill: #444443" transform="translate(23.436318 76.27179)scale(0.09 -0.09)">
     <defs>
      <path id="ArialMT-6e" d="M 422 0  L 422 3319  L 928 3319  L 928 2847  Q 1294 3394 1984 3394  Q 2284 3394 2536 3286  Q 2788 3178 2913 3003  Q 3038 2828 3088 2588  Q 3119 2431 3119 2041  L 3119 0  L 2556 0  L 2556 2019  Q 2556 2363 2490 2533  Q 2425 2703 2258 2804  Q 2091 2906 1866 2906  Q 1506 2906 1245 2678  Q 984 2450 984 1813  L 984 0  L 422 0  z " transform="scale(0.015625)" />
      <path id="ArialMT-3d" d="M 3381 2694  L 356 2694  L 356 3219  L 3381 3219  L 3381 2694  z M 3381 1303  L 356 1303  L 356 1828  L 3381 1828  L 3381 1303  z " transform="scale(0.015625)" />
      <path id="ArialMT-34" d="M 2069 0  L 2069 1097  L 81 1097  L 81 1613  L 2172 4581  L 2631 4581  L 2631 1613  L 3250 1613  L 3250 1097  L 2631 1097  L 2631 0  L 2069 0  z M 2069 1613  L 2069 3678  L 634 1613  L 2069 1613  z " transform="scale(0.015625)" />
      <path id="ArialMT-37" d="M 303 3981  L 303 4522  L 3269 4522  L 3269 4084  Q 2831 3619 2401 2847  Q 1972 2075 1738 1259  Q 1569 684 1522 0  L 944 0  Q 953 541 1156 1306  Q 1359 2072 1739 2783  Q 2119 3494 2547 3981  L 303 3981  z " transform="scale(0.015625)" />
     </defs>
     <use xlink:href="#ArialMT-6e" />
     <use xlink:href="#ArialMT-3d" x="55.615234" />
     <use xlink:href="#ArialMT-34" x="114.013672" />
     <use xlink:href="#ArialMT-37" x="169.628906" />
    </g>
    
    <g style="fill: #444443" transform="translate(15.562725 85.82304)scale(0.09 -0.09)">
     <defs>
      <path id="ArialMT-74" d="M 1650 503  L 1731 6  Q 1494 -44 1306 -44  Q 1000 -44 831 53  Q 663 150 594 308  Q 525 466 525 972  L 525 2881  L 113 2881  L 113 3319  L 525 3319  L 525 4141  L 1084 4478  L 1084 3319  L 1650 3319  L 1650 2881  L 1084 2881  L 1084 941  Q 1084 700 1114 631  Q 1144 563 1211 522  Q 1278 481 1403 481  Q 1497 481 1650 503  z " transform="scale(0.015625)" />
      <path id="ArialMT-6f" d="M 213 1659  Q 213 2581 725 3025  Q 1153 3394 1769 3394  Q 2453 3394 2887 2945  Q 3322 2497 3322 1706  Q 3322 1066 3130 698  Q 2938 331 2570 128  Q 2203 -75 1769 -75  Q 1072 -75 642 372  Q 213 819 213 1659  z M 791 1659  Q 791 1022 1069 705  Q 1347 388 1769 388  Q 2188 388 2466 706  Q 2744 1025 2744 1678  Q 2744 2294 2464 2611  Q 2184 2928 1769 2928  Q 1347 2928 1069 2612  Q 791 2297 791 1659  z " transform="scale(0.015625)" />
      <path id="ArialMT-72" d="M 416 0  L 416 3319  L 922 3319  L 922 2816  Q 1116 3169 1280 3281  Q 1444 3394 1641 3394  Q 1925 3394 2219 3213  L 2025 2691  Q 1819 2813 1613 2813  Q 1428 2813 1281 2702  Q 1134 2591 1072 2394  Q 978 2094 978 1738  L 978 0  L 416 0  z " transform="scale(0.015625)" />
      <path id="ArialMT-71" d="M 2538 -1272  L 2538 353  Q 2406 169 2170 47  Q 1934 -75 1669 -75  Q 1078 -75 651 397  Q 225 869 225 1691  Q 225 2191 398 2587  Q 572 2984 901 3189  Q 1231 3394 1625 3394  Q 2241 3394 2594 2875  L 2594 3319  L 3100 3319  L 3100 -1272  L 2538 -1272  z M 803 1669  Q 803 1028 1072 708  Q 1341 388 1716 388  Q 2075 388 2334 692  Q 2594 997 2594 1619  Q 2594 2281 2320 2615  Q 2047 2950 1678 2950  Q 1313 2950 1058 2639  Q 803 2328 803 1669  z " transform="scale(0.015625)" />
      <path id="ArialMT-75" d="M 2597 0  L 2597 488  Q 2209 -75 1544 -75  Q 1250 -75 995 37  Q 741 150 617 320  Q 494 491 444 738  Q 409 903 409 1263  L 409 3319  L 972 3319  L 972 1478  Q 972 1038 1006 884  Q 1059 663 1231 536  Q 1403 409 1656 409  Q 1909 409 2131 539  Q 2353 669 2445 892  Q 2538 1116 2538 1541  L 2538 3319  L 3100 3319  L 3100 0  L 2597 0  z " transform="scale(0.015625)" />
      <path id="ArialMT-65" d="M 2694 1069  L 3275 997  Q 3138 488 2766 206  Q 2394 -75 1816 -75  Q 1088 -75 661 373  Q 234 822 234 1631  Q 234 2469 665 2931  Q 1097 3394 1784 3394  Q 2450 3394 2872 2941  Q 3294 2488 3294 1666  Q 3294 1616 3291 1516  L 816 1516  Q 847 969 1125 678  Q 1403 388 1819 388  Q 2128 388 2347 550  Q 2566 713 2694 1069  z M 847 1978  L 2700 1978  Q 2663 2397 2488 2606  Q 2219 2931 1791 2931  Q 1403 2931 1139 2672  Q 875 2413 847 1978  z " transform="scale(0.015625)" />
      <path id="ArialMT-20" transform="scale(0.015625)" />
      <path id="ArialMT-2d" d="M 203 1375  L 203 1941  L 1931 1941  L 1931 1375  L 203 1375  z " transform="scale(0.015625)" />
      <path id="ArialMT-31" d="M 2384 0  L 1822 0  L 1822 3584  Q 1619 3391 1289 3197  Q 959 3003 697 2906  L 697 3450  Q 1169 3672 1522 3987  Q 1875 4303 2022 4600  L 2384 4600  L 2384 0  z " transform="scale(0.015625)" />
     </defs>
     <use xlink:href="#ArialMT-74" />
     <use xlink:href="#ArialMT-6f" x="27.783203" />
     <use xlink:href="#ArialMT-72" x="83.398438" />
     <use xlink:href="#ArialMT-71" x="116.699219" />
     <use xlink:href="#ArialMT-75" x="172.314453" />
     <use xlink:href="#ArialMT-65" x="227.929688" />
     <use xlink:href="#ArialMT-20" x="283.544922" />
     <use xlink:href="#ArialMT-2d" x="311.328125" />
     <use xlink:href="#ArialMT-31" x="344.628906" />
    </g>
   </g>
  </g>
 </g>
</svg></g>

<g id="edge1" class="edge">
<title>node0-&gt;leaf1</title>
<path fill="none" stroke="#444443" stroke-width="0.3" d="M72.42,-106.44C69.42,-97.66 65.96,-87.56 62.64,-77.86" />
<polygon fill="#444443" stroke="#444443" stroke-width="0.3" points="63.95,-77.36 61.33,-74.02 61.3,-78.26 63.95,-77.36" />
<text text-anchor="start" x="69" y="-85.8" font-family="Times New Roman,serif" font-size="14.00">&#8804;</text>
</g>

<g id="node3" class="node">
<title>leaf2</title>
<polygon fill="none" stroke="#444443" stroke-width="0" points="136.5,-67 91.5,-67 91.5,-7 136.5,-7 136.5,-67" />
<svg width="37px" height="52px" viewBox="0 0 49.895998 69.673866" version="1.1" preserveAspectRatio="xMinYMin meet" x="96" y="-63">
 <metadata>
  <rdf:RDF>
   <ns2:Work>
    <dc:type rdf:resource="http://purl.org/dc/dcmitype/StillImage" />
    <dc:date>2022-01-18T16:41:20.208332</dc:date>
    <dc:format>image/svg+xml</dc:format>
    <dc:creator>
     <ns2:Agent>
      <dc:title>Matplotlib v3.5.1, https://matplotlib.org/</dc:title>
     </ns2:Agent>
    </dc:creator>
   </ns2:Work>
  </rdf:RDF>
 </metadata>
 <defs>
  <style type="text/css">*{stroke-linejoin: round; stroke-linecap: butt}</style>
 </defs>
 <g id="figure_1">
  <g id="patch_1">
   <path d="M 0 69.673866  L 49.895998 69.673866  L 49.895998 0  L 0 0  z " style="fill: #ffffff" />
  </g>
  <g id="axes_1">
   <g id="patch_2">
    <path d="M 49.895998 24.947994  C 49.895998 21.971329 49.363258 19.018548 48.32302 16.229562  C 47.282782 13.440576 45.75174 10.860142 43.802438 8.610528  C 41.853137 6.360915 39.516858 4.478222 36.904301 3.051659  C 34.291745 1.625095 31.444835 0.677552 28.498468 0.253929  C 25.552101 -0.169695 22.553558 -0.062601 19.644918 0.570135  C 16.736279 1.202871 13.96422 2.351095 11.46009 3.960402  C 8.95596 5.569709 6.759943 7.614273 4.976094 9.997217  C 3.192245 12.38016 1.84919 15.063243 1.010567 17.919333  C 0.171944 20.775422 -0.14879 23.758685 0.063563 26.727767  C 0.275916 29.696848 1.017949 32.604101 2.2545 35.311771  C 3.491052 38.019441 5.20228 40.484076 7.3071 42.588896  C 9.411921 44.693717 11.876557 46.404944 14.584227 47.641495  C 17.291898 48.878046 20.199151 49.620078 23.168232 49.83243  C 26.137313 50.044782 29.120576 49.724048 31.976666 48.885424  C 34.832755 48.0468 37.515838 46.703744 39.898781 44.919895  C 42.281724 43.136045 44.326287 40.940029 45.935594 38.435898  L 24.947998 24.947994  L 49.895998 24.947994  z " style="fill: #fefebb; stroke: #444443; stroke-width: 0.5; stroke-linejoin: miter" />
   </g>
   <g id="patch_3">
    <path d="M 45.935594 38.435898  C 46.36369 37.769767 46.759829 37.083633 47.122667 36.379826  C 47.485505 35.676018 47.81463 34.955336 48.108923 34.220225  L 24.947998 24.947994  L 45.935594 38.435898  z " style="fill: #d9e6f5; stroke: #444443; stroke-width: 0.5; stroke-linejoin: miter" />
   </g>
   <g id="patch_4">
    <path d="M 48.108923 34.220225  C 48.697843 32.749173 49.145277 31.225353 49.445156 29.66943  C 49.745036 28.113507 49.895999 26.532547 49.895998 24.94799  L 24.947998 24.947994  L 48.108923 34.220225  z " style="fill: #a1dab4; stroke: #444443; stroke-width: 0.5; stroke-linejoin: miter" />
   </g>
   <g id="text_1">
    
    <g style="fill: #444443" transform="translate(14.812451 58.333866)scale(0.09 -0.09)">
     <defs>
      <path id="ArialMT-6e" d="M 422 0  L 422 3319  L 928 3319  L 928 2847  Q 1294 3394 1984 3394  Q 2284 3394 2536 3286  Q 2788 3178 2913 3003  Q 3038 2828 3088 2588  Q 3119 2431 3119 2041  L 3119 0  L 2556 0  L 2556 2019  Q 2556 2363 2490 2533  Q 2425 2703 2258 2804  Q 2091 2906 1866 2906  Q 1506 2906 1245 2678  Q 984 2450 984 1813  L 984 0  L 422 0  z " transform="scale(0.015625)" />
      <path id="ArialMT-3d" d="M 3381 2694  L 356 2694  L 356 3219  L 3381 3219  L 3381 2694  z M 3381 1303  L 356 1303  L 356 1828  L 3381 1828  L 3381 1303  z " transform="scale(0.015625)" />
      <path id="ArialMT-33" d="M 269 1209  L 831 1284  Q 928 806 1161 595  Q 1394 384 1728 384  Q 2125 384 2398 659  Q 2672 934 2672 1341  Q 2672 1728 2419 1979  Q 2166 2231 1775 2231  Q 1616 2231 1378 2169  L 1441 2663  Q 1497 2656 1531 2656  Q 1891 2656 2178 2843  Q 2466 3031 2466 3422  Q 2466 3731 2256 3934  Q 2047 4138 1716 4138  Q 1388 4138 1169 3931  Q 950 3725 888 3313  L 325 3413  Q 428 3978 793 4289  Q 1159 4600 1703 4600  Q 2078 4600 2393 4439  Q 2709 4278 2876 4000  Q 3044 3722 3044 3409  Q 3044 3113 2884 2869  Q 2725 2625 2413 2481  Q 2819 2388 3044 2092  Q 3269 1797 3269 1353  Q 3269 753 2831 336  Q 2394 -81 1725 -81  Q 1122 -81 723 278  Q 325 638 269 1209  z " transform="scale(0.015625)" />
     </defs>
     <use xlink:href="#ArialMT-6e" />
     <use xlink:href="#ArialMT-3d" x="55.615234" />
     <use xlink:href="#ArialMT-33" x="114.013672" />
     <use xlink:href="#ArialMT-33" x="169.628906" />
    </g>
    
    <g style="fill: #444443" transform="translate(5.808936 67.885116)scale(0.09 -0.09)">
     <defs>
      <path id="ArialMT-74" d="M 1650 503  L 1731 6  Q 1494 -44 1306 -44  Q 1000 -44 831 53  Q 663 150 594 308  Q 525 466 525 972  L 525 2881  L 113 2881  L 113 3319  L 525 3319  L 525 4141  L 1084 4478  L 1084 3319  L 1650 3319  L 1650 2881  L 1084 2881  L 1084 941  Q 1084 700 1114 631  Q 1144 563 1211 522  Q 1278 481 1403 481  Q 1497 481 1650 503  z " transform="scale(0.015625)" />
      <path id="ArialMT-6f" d="M 213 1659  Q 213 2581 725 3025  Q 1153 3394 1769 3394  Q 2453 3394 2887 2945  Q 3322 2497 3322 1706  Q 3322 1066 3130 698  Q 2938 331 2570 128  Q 2203 -75 1769 -75  Q 1072 -75 642 372  Q 213 819 213 1659  z M 791 1659  Q 791 1022 1069 705  Q 1347 388 1769 388  Q 2188 388 2466 706  Q 2744 1025 2744 1678  Q 2744 2294 2464 2611  Q 2184 2928 1769 2928  Q 1347 2928 1069 2612  Q 791 2297 791 1659  z " transform="scale(0.015625)" />
      <path id="ArialMT-72" d="M 416 0  L 416 3319  L 922 3319  L 922 2816  Q 1116 3169 1280 3281  Q 1444 3394 1641 3394  Q 1925 3394 2219 3213  L 2025 2691  Q 1819 2813 1613 2813  Q 1428 2813 1281 2702  Q 1134 2591 1072 2394  Q 978 2094 978 1738  L 978 0  L 416 0  z " transform="scale(0.015625)" />
      <path id="ArialMT-71" d="M 2538 -1272  L 2538 353  Q 2406 169 2170 47  Q 1934 -75 1669 -75  Q 1078 -75 651 397  Q 225 869 225 1691  Q 225 2191 398 2587  Q 572 2984 901 3189  Q 1231 3394 1625 3394  Q 2241 3394 2594 2875  L 2594 3319  L 3100 3319  L 3100 -1272  L 2538 -1272  z M 803 1669  Q 803 1028 1072 708  Q 1341 388 1716 388  Q 2075 388 2334 692  Q 2594 997 2594 1619  Q 2594 2281 2320 2615  Q 2047 2950 1678 2950  Q 1313 2950 1058 2639  Q 803 2328 803 1669  z " transform="scale(0.015625)" />
      <path id="ArialMT-75" d="M 2597 0  L 2597 488  Q 2209 -75 1544 -75  Q 1250 -75 995 37  Q 741 150 617 320  Q 494 491 444 738  Q 409 903 409 1263  L 409 3319  L 972 3319  L 972 1478  Q 972 1038 1006 884  Q 1059 663 1231 536  Q 1403 409 1656 409  Q 1909 409 2131 539  Q 2353 669 2445 892  Q 2538 1116 2538 1541  L 2538 3319  L 3100 3319  L 3100 0  L 2597 0  z " transform="scale(0.015625)" />
      <path id="ArialMT-65" d="M 2694 1069  L 3275 997  Q 3138 488 2766 206  Q 2394 -75 1816 -75  Q 1088 -75 661 373  Q 234 822 234 1631  Q 234 2469 665 2931  Q 1097 3394 1784 3394  Q 2450 3394 2872 2941  Q 3294 2488 3294 1666  Q 3294 1616 3291 1516  L 816 1516  Q 847 969 1125 678  Q 1403 388 1819 388  Q 2128 388 2347 550  Q 2566 713 2694 1069  z M 847 1978  L 2700 1978  Q 2663 2397 2488 2606  Q 2219 2931 1791 2931  Q 1403 2931 1139 2672  Q 875 2413 847 1978  z " transform="scale(0.015625)" />
      <path id="ArialMT-20" transform="scale(0.015625)" />
      <path id="ArialMT-2b" d="M 1603 741  L 1603 1997  L 356 1997  L 356 2522  L 1603 2522  L 1603 3769  L 2134 3769  L 2134 2522  L 3381 2522  L 3381 1997  L 2134 1997  L 2134 741  L 1603 741  z " transform="scale(0.015625)" />
      <path id="ArialMT-31" d="M 2384 0  L 1822 0  L 1822 3584  Q 1619 3391 1289 3197  Q 959 3003 697 2906  L 697 3450  Q 1169 3672 1522 3987  Q 1875 4303 2022 4600  L 2384 4600  L 2384 0  z " transform="scale(0.015625)" />
     </defs>
     <use xlink:href="#ArialMT-74" />
     <use xlink:href="#ArialMT-6f" x="27.783203" />
     <use xlink:href="#ArialMT-72" x="83.398438" />
     <use xlink:href="#ArialMT-71" x="116.699219" />
     <use xlink:href="#ArialMT-75" x="172.314453" />
     <use xlink:href="#ArialMT-65" x="227.929688" />
     <use xlink:href="#ArialMT-20" x="283.544922" />
     <use xlink:href="#ArialMT-2b" x="311.328125" />
     <use xlink:href="#ArialMT-31" x="369.726562" />
    </g>
   </g>
  </g>
 </g>
</svg></g>

<g id="edge2" class="edge">
<title>node0-&gt;leaf2</title>
<path fill="none" stroke="#444443" stroke-width="0.3" d="M89.84,-106.44C93.69,-95.56 98.24,-82.65 102.35,-71" />
<polygon fill="#444443" stroke="#444443" stroke-width="0.3" points="103.72,-71.34 103.73,-67.1 101.08,-70.41 103.72,-71.34" />
<text text-anchor="start" x="98" y="-85.8" font-family="Times New Roman,serif" font-size="14.00">&gt;</text>
</g>


<g id="node4" class="node">
<title>legend</title>
<polygon fill="none" stroke="black" stroke-width="0" points="294.5,-160 169.5,-160 169.5,-105 294.5,-105 294.5,-160" />
<svg width="121px" height="51px" viewBox="0 0 161.517187 68.203125" version="1.1" preserveAspectRatio="xMinYMin meet" x="172" y="-157.5">
 <metadata>
  <rdf:RDF>
   <ns2:Work>
    <dc:type rdf:resource="http://purl.org/dc/dcmitype/StillImage" />
    <dc:date>2022-01-18T16:41:19.756190</dc:date>
    <dc:format>image/svg+xml</dc:format>
    <dc:creator>
     <ns2:Agent>
      <dc:title>Matplotlib v3.5.1, https://matplotlib.org/</dc:title>
     </ns2:Agent>
    </dc:creator>
   </ns2:Work>
  </rdf:RDF>
 </metadata>
 <defs>
  <style type="text/css">*{stroke-linejoin: round; stroke-linecap: butt}</style>
 </defs>
 <g id="figure_1">
  <g id="patch_1">
   <path d="M 0 68.203125  L 161.517187 68.203125  L 161.517187 0  L 0 0  z " style="fill: #ffffff" />
  </g>
  <g id="axes_1">
   <g id="legend_1">
    <g id="patch_2">
     <path d="M 2 68.203125  L 159.517188 68.203125  Q 161.517188 68.203125 161.517188 66.203125  L 161.517188 2  Q 161.517188 -0 159.517188 -0  L 2 -0  Q -0 -0 -0 2  L -0 66.203125  Q -0 68.203125 2 68.203125  z " style="fill: #ffffff; opacity: 0.8; stroke: #444443; stroke-width: 0.5; stroke-linejoin: miter" />
    </g>
    <g id="text_1">
     
     <g style="fill: #444443" transform="translate(8 15.598437)scale(0.1 -0.1)">
      <defs>
       <path id="DejaVuSans-Bold-41" d="M 3419 850  L 1538 850  L 1241 0  L 31 0  L 1759 4666  L 3194 4666  L 4922 0  L 3713 0  L 3419 850  z M 1838 1716  L 3116 1716  L 2478 3572  L 1838 1716  z " transform="scale(0.015625)" />
       <path id="DejaVuSans-Bold-63" d="M 3366 3391  L 3366 2478  Q 3138 2634 2908 2709  Q 2678 2784 2431 2784  Q 1963 2784 1702 2511  Q 1441 2238 1441 1747  Q 1441 1256 1702 982  Q 1963 709 2431 709  Q 2694 709 2930 787  Q 3166 866 3366 1019  L 3366 103  Q 3103 6 2833 -42  Q 2563 -91 2291 -91  Q 1344 -91 809 395  Q 275 881 275 1747  Q 275 2613 809 3098  Q 1344 3584 2291 3584  Q 2566 3584 2833 3536  Q 3100 3488 3366 3391  z " transform="scale(0.015625)" />
       <path id="DejaVuSans-Bold-72" d="M 3138 2547  Q 2991 2616 2845 2648  Q 2700 2681 2553 2681  Q 2122 2681 1889 2404  Q 1656 2128 1656 1613  L 1656 0  L 538 0  L 538 3500  L 1656 3500  L 1656 2925  Q 1872 3269 2151 3426  Q 2431 3584 2822 3584  Q 2878 3584 2943 3579  Q 3009 3575 3134 3559  L 3138 2547  z " transform="scale(0.015625)" />
       <path id="DejaVuSans-Bold-6f" d="M 2203 2784  Q 1831 2784 1636 2517  Q 1441 2250 1441 1747  Q 1441 1244 1636 976  Q 1831 709 2203 709  Q 2569 709 2762 976  Q 2956 1244 2956 1747  Q 2956 2250 2762 2517  Q 2569 2784 2203 2784  z M 2203 3584  Q 3106 3584 3614 3096  Q 4122 2609 4122 1747  Q 4122 884 3614 396  Q 3106 -91 2203 -91  Q 1297 -91 786 396  Q 275 884 275 1747  Q 275 2609 786 3096  Q 1297 3584 2203 3584  z " transform="scale(0.015625)" />
       <path id="DejaVuSans-Bold-62" d="M 2400 722  Q 2759 722 2948 984  Q 3138 1247 3138 1747  Q 3138 2247 2948 2509  Q 2759 2772 2400 2772  Q 2041 2772 1848 2508  Q 1656 2244 1656 1747  Q 1656 1250 1848 986  Q 2041 722 2400 722  z M 1656 2988  Q 1888 3294 2169 3439  Q 2450 3584 2816 3584  Q 3463 3584 3878 3070  Q 4294 2556 4294 1747  Q 4294 938 3878 423  Q 3463 -91 2816 -91  Q 2450 -91 2169 54  Q 1888 200 1656 506  L 1656 0  L 538 0  L 538 4863  L 1656 4863  L 1656 2988  z " transform="scale(0.015625)" />
       <path id="DejaVuSans-Bold-74" d="M 1759 4494  L 1759 3500  L 2913 3500  L 2913 2700  L 1759 2700  L 1759 1216  Q 1759 972 1856 886  Q 1953 800 2241 800  L 2816 800  L 2816 0  L 1856 0  Q 1194 0 917 276  Q 641 553 641 1216  L 641 2700  L 84 2700  L 84 3500  L 641 3500  L 641 4494  L 1759 4494  z " transform="scale(0.015625)" />
       <path id="DejaVuSans-Bold-2d" d="M 347 2297  L 2309 2297  L 2309 1388  L 347 1388  L 347 2297  z " transform="scale(0.015625)" />
       <path id="DejaVuSans-Bold-76" d="M 97 3500  L 1216 3500  L 2088 1081  L 2956 3500  L 4078 3500  L 2700 0  L 1472 0  L 97 3500  z " transform="scale(0.015625)" />
       <path id="DejaVuSans-Bold-31" d="M 750 831  L 1813 831  L 1813 3847  L 722 3622  L 722 4441  L 1806 4666  L 2950 4666  L 2950 831  L 4013 831  L 4013 0  L 750 0  L 750 831  z " transform="scale(0.015625)" />
       <path id="DejaVuSans-Bold-3a" d="M 716 3500  L 1844 3500  L 1844 2291  L 716 2291  L 716 3500  z M 716 1209  L 1844 1209  L 1844 0  L 716 0  L 716 1209  z " transform="scale(0.015625)" />
       <path id="DejaVuSans-Bold-20" transform="scale(0.015625)" />
       <path id="DejaVuSans-Bold-39" d="M 641 103  L 641 966  Q 928 831 1190 764  Q 1453 697 1709 697  Q 2247 697 2547 995  Q 2847 1294 2900 1881  Q 2688 1725 2447 1647  Q 2206 1569 1925 1569  Q 1209 1569 770 1986  Q 331 2403 331 3084  Q 331 3838 820 4291  Q 1309 4744 2131 4744  Q 3044 4744 3544 4128  Q 4044 3513 4044 2388  Q 4044 1231 3459 570  Q 2875 -91 1856 -91  Q 1528 -91 1228 -42  Q 928 6 641 103  z M 2125 2350  Q 2441 2350 2600 2554  Q 2759 2759 2759 3169  Q 2759 3575 2600 3781  Q 2441 3988 2125 3988  Q 1809 3988 1650 3781  Q 1491 3575 1491 3169  Q 1491 2759 1650 2554  Q 1809 2350 2125 2350  z " transform="scale(0.015625)" />
       <path id="DejaVuSans-Bold-2e" d="M 653 1209  L 1778 1209  L 1778 0  L 653 0  L 653 1209  z " transform="scale(0.015625)" />
       <path id="DejaVuSans-Bold-30" d="M 2944 2338  Q 2944 3213 2780 3570  Q 2616 3928 2228 3928  Q 1841 3928 1675 3570  Q 1509 3213 1509 2338  Q 1509 1453 1675 1090  Q 1841 728 2228 728  Q 2613 728 2778 1090  Q 2944 1453 2944 2338  z M 4147 2328  Q 4147 1169 3647 539  Q 3147 -91 2228 -91  Q 1306 -91 806 539  Q 306 1169 306 2328  Q 306 3491 806 4120  Q 1306 4750 2228 4750  Q 3147 4750 3647 4120  Q 4147 3491 4147 2328  z " transform="scale(0.015625)" />
       <path id="DejaVuSans-Bold-34" d="M 2356 3675  L 1038 1722  L 2356 1722  L 2356 3675  z M 2156 4666  L 3494 4666  L 3494 1722  L 4159 1722  L 4159 850  L 3494 850  L 3494 0  L 2356 0  L 2356 850  L 288 850  L 288 1881  L 2156 4666  z " transform="scale(0.015625)" />
       <path id="DejaVuSans-Bold-26" d="M 2497 3097  L 3775 1691  Q 3941 1909 4027 2181  Q 4113 2453 4128 2797  L 5100 2797  Q 5053 2228 4879 1784  Q 4706 1341 4397 1006  L 5313 0  L 3988 0  L 3681 341  Q 3353 122 2990 15  Q 2628 -91 2222 -91  Q 1400 -91 892 342  Q 384 775 384 1459  Q 384 1916 607 2267  Q 831 2619 1338 2950  Q 1206 3116 1143 3281  Q 1081 3447 1081 3628  Q 1081 4138 1478 4444  Q 1875 4750 2534 4750  Q 2819 4750 3126 4704  Q 3434 4659 3769 4569  L 3769 3700  Q 3475 3850 3212 3922  Q 2950 3994 2700 3994  Q 2459 3994 2326 3901  Q 2194 3809 2194 3641  Q 2194 3534 2270 3398  Q 2347 3263 2497 3097  z M 1875 2322  Q 1672 2175 1569 1989  Q 1466 1803 1466 1581  Q 1466 1222 1731 969  Q 1997 716 2369 716  Q 2578 716 2759 780  Q 2941 844 3097 972  L 1875 2322  z " transform="scale(0.015625)" />
       <path id="DejaVuSans-Bold-36" d="M 2316 2303  Q 2000 2303 1842 2098  Q 1684 1894 1684 1484  Q 1684 1075 1842 870  Q 2000 666 2316 666  Q 2634 666 2792 870  Q 2950 1075 2950 1484  Q 2950 1894 2792 2098  Q 2634 2303 2316 2303  z M 3803 4544  L 3803 3681  Q 3506 3822 3243 3889  Q 2981 3956 2731 3956  Q 2194 3956 1894 3657  Q 1594 3359 1544 2772  Q 1750 2925 1990 3001  Q 2231 3078 2516 3078  Q 3231 3078 3670 2659  Q 4109 2241 4109 1563  Q 4109 813 3618 361  Q 3128 -91 2303 -91  Q 1394 -91 895 523  Q 397 1138 397 2266  Q 397 3422 980 4083  Q 1563 4744 2578 4744  Q 2900 4744 3203 4694  Q 3506 4644 3803 4544  z " transform="scale(0.015625)" />
      </defs>
      <use xlink:href="#DejaVuSans-Bold-41" />
      <use xlink:href="#DejaVuSans-Bold-63" x="77.392578" />
      <use xlink:href="#DejaVuSans-Bold-72" x="136.669922" />
      <use xlink:href="#DejaVuSans-Bold-6f" x="185.986328" />
      <use xlink:href="#DejaVuSans-Bold-62" x="254.6875" />
      <use xlink:href="#DejaVuSans-Bold-6f" x="326.269531" />
      <use xlink:href="#DejaVuSans-Bold-74" x="394.970703" />
      <use xlink:href="#DejaVuSans-Bold-2d" x="442.773438" />
      <use xlink:href="#DejaVuSans-Bold-76" x="484.277344" />
      <use xlink:href="#DejaVuSans-Bold-31" x="549.462891" />
      <use xlink:href="#DejaVuSans-Bold-3a" x="619.042969" />
      <use xlink:href="#DejaVuSans-Bold-20" x="659.033203" />
      <use xlink:href="#DejaVuSans-Bold-2d" x="693.847656" />
      <use xlink:href="#DejaVuSans-Bold-39" x="735.351562" />
      <use xlink:href="#DejaVuSans-Bold-39" x="804.931641" />
      <use xlink:href="#DejaVuSans-Bold-2e" x="874.511719" />
      <use xlink:href="#DejaVuSans-Bold-30" x="912.5" />
      <use xlink:href="#DejaVuSans-Bold-34" x="982.080078" />
      <use xlink:href="#DejaVuSans-Bold-20" x="1051.660156" />
      <use xlink:href="#DejaVuSans-Bold-26" x="1086.474609" />
      <use xlink:href="#DejaVuSans-Bold-20" x="1173.681641" />
      <use xlink:href="#DejaVuSans-Bold-36" x="1208.496094" />
      <use xlink:href="#DejaVuSans-Bold-30" x="1278.076172" />
      <use xlink:href="#DejaVuSans-Bold-2e" x="1347.65625" />
      <use xlink:href="#DejaVuSans-Bold-30" x="1385.644531" />
     </g>
    </g>
    <g id="patch_3">
     <path d="M 47.742969 29.865625  L 67.742969 29.865625  L 67.742969 22.865625  L 47.742969 22.865625  z " style="fill: #fefebb; stroke: #444443; stroke-width: 0.4; stroke-linejoin: miter" />
    </g>
    <g id="text_2">
     
     <g style="fill: #444443" transform="translate(71.242969 29.865625)scale(0.1 -0.1)">
      <defs>
       <path id="ArialMT-74" d="M 1650 503  L 1731 6  Q 1494 -44 1306 -44  Q 1000 -44 831 53  Q 663 150 594 308  Q 525 466 525 972  L 525 2881  L 113 2881  L 113 3319  L 525 3319  L 525 4141  L 1084 4478  L 1084 3319  L 1650 3319  L 1650 2881  L 1084 2881  L 1084 941  Q 1084 700 1114 631  Q 1144 563 1211 522  Q 1278 481 1403 481  Q 1497 481 1650 503  z " transform="scale(0.015625)" />
       <path id="ArialMT-6f" d="M 213 1659  Q 213 2581 725 3025  Q 1153 3394 1769 3394  Q 2453 3394 2887 2945  Q 3322 2497 3322 1706  Q 3322 1066 3130 698  Q 2938 331 2570 128  Q 2203 -75 1769 -75  Q 1072 -75 642 372  Q 213 819 213 1659  z M 791 1659  Q 791 1022 1069 705  Q 1347 388 1769 388  Q 2188 388 2466 706  Q 2744 1025 2744 1678  Q 2744 2294 2464 2611  Q 2184 2928 1769 2928  Q 1347 2928 1069 2612  Q 791 2297 791 1659  z " transform="scale(0.015625)" />
       <path id="ArialMT-72" d="M 416 0  L 416 3319  L 922 3319  L 922 2816  Q 1116 3169 1280 3281  Q 1444 3394 1641 3394  Q 1925 3394 2219 3213  L 2025 2691  Q 1819 2813 1613 2813  Q 1428 2813 1281 2702  Q 1134 2591 1072 2394  Q 978 2094 978 1738  L 978 0  L 416 0  z " transform="scale(0.015625)" />
       <path id="ArialMT-71" d="M 2538 -1272  L 2538 353  Q 2406 169 2170 47  Q 1934 -75 1669 -75  Q 1078 -75 651 397  Q 225 869 225 1691  Q 225 2191 398 2587  Q 572 2984 901 3189  Q 1231 3394 1625 3394  Q 2241 3394 2594 2875  L 2594 3319  L 3100 3319  L 3100 -1272  L 2538 -1272  z M 803 1669  Q 803 1028 1072 708  Q 1341 388 1716 388  Q 2075 388 2334 692  Q 2594 997 2594 1619  Q 2594 2281 2320 2615  Q 2047 2950 1678 2950  Q 1313 2950 1058 2639  Q 803 2328 803 1669  z " transform="scale(0.015625)" />
       <path id="ArialMT-75" d="M 2597 0  L 2597 488  Q 2209 -75 1544 -75  Q 1250 -75 995 37  Q 741 150 617 320  Q 494 491 444 738  Q 409 903 409 1263  L 409 3319  L 972 3319  L 972 1478  Q 972 1038 1006 884  Q 1059 663 1231 536  Q 1403 409 1656 409  Q 1909 409 2131 539  Q 2353 669 2445 892  Q 2538 1116 2538 1541  L 2538 3319  L 3100 3319  L 3100 0  L 2597 0  z " transform="scale(0.015625)" />
       <path id="ArialMT-65" d="M 2694 1069  L 3275 997  Q 3138 488 2766 206  Q 2394 -75 1816 -75  Q 1088 -75 661 373  Q 234 822 234 1631  Q 234 2469 665 2931  Q 1097 3394 1784 3394  Q 2450 3394 2872 2941  Q 3294 2488 3294 1666  Q 3294 1616 3291 1516  L 816 1516  Q 847 969 1125 678  Q 1403 388 1819 388  Q 2128 388 2347 550  Q 2566 713 2694 1069  z M 847 1978  L 2700 1978  Q 2663 2397 2488 2606  Q 2219 2931 1791 2931  Q 1403 2931 1139 2672  Q 875 2413 847 1978  z " transform="scale(0.015625)" />
       <path id="ArialMT-20" transform="scale(0.015625)" />
       <path id="ArialMT-2b" d="M 1603 741  L 1603 1997  L 356 1997  L 356 2522  L 1603 2522  L 1603 3769  L 2134 3769  L 2134 2522  L 3381 2522  L 3381 1997  L 2134 1997  L 2134 741  L 1603 741  z " transform="scale(0.015625)" />
       <path id="ArialMT-31" d="M 2384 0  L 1822 0  L 1822 3584  Q 1619 3391 1289 3197  Q 959 3003 697 2906  L 697 3450  Q 1169 3672 1522 3987  Q 1875 4303 2022 4600  L 2384 4600  L 2384 0  z " transform="scale(0.015625)" />
      </defs>
      <use xlink:href="#ArialMT-74" />
      <use xlink:href="#ArialMT-6f" x="27.783203" />
      <use xlink:href="#ArialMT-72" x="83.398438" />
      <use xlink:href="#ArialMT-71" x="116.699219" />
      <use xlink:href="#ArialMT-75" x="172.314453" />
      <use xlink:href="#ArialMT-65" x="227.929688" />
      <use xlink:href="#ArialMT-20" x="283.544922" />
      <use xlink:href="#ArialMT-2b" x="311.328125" />
      <use xlink:href="#ArialMT-31" x="369.726562" />
     </g>
    </g>
    <g id="patch_4">
     <path d="M 47.742969 44.040625  L 67.742969 44.040625  L 67.742969 37.040625  L 47.742969 37.040625  z " style="fill: #d9e6f5; stroke: #444443; stroke-width: 0.4; stroke-linejoin: miter" />
    </g>
    <g id="text_3">
     
     <g style="fill: #444443" transform="translate(71.242969 44.040625)scale(0.1 -0.1)">
      <defs>
       <path id="ArialMT-30" d="M 266 2259  Q 266 3072 433 3567  Q 600 4063 929 4331  Q 1259 4600 1759 4600  Q 2128 4600 2406 4451  Q 2684 4303 2865 4023  Q 3047 3744 3150 3342  Q 3253 2941 3253 2259  Q 3253 1453 3087 958  Q 2922 463 2592 192  Q 2263 -78 1759 -78  Q 1097 -78 719 397  Q 266 969 266 2259  z M 844 2259  Q 844 1131 1108 757  Q 1372 384 1759 384  Q 2147 384 2411 759  Q 2675 1134 2675 2259  Q 2675 3391 2411 3762  Q 2147 4134 1753 4134  Q 1366 4134 1134 3806  Q 844 3388 844 2259  z " transform="scale(0.015625)" />
      </defs>
      <use xlink:href="#ArialMT-74" />
      <use xlink:href="#ArialMT-6f" x="27.783203" />
      <use xlink:href="#ArialMT-72" x="83.398438" />
      <use xlink:href="#ArialMT-71" x="116.699219" />
      <use xlink:href="#ArialMT-75" x="172.314453" />
      <use xlink:href="#ArialMT-65" x="227.929688" />
      <use xlink:href="#ArialMT-20" x="283.544922" />
      <use xlink:href="#ArialMT-30" x="311.328125" />
     </g>
    </g>
    <g id="patch_5">
     <path d="M 47.742969 58.215625  L 67.742969 58.215625  L 67.742969 51.215625  L 47.742969 51.215625  z " style="fill: #a1dab4; stroke: #444443; stroke-width: 0.4; stroke-linejoin: miter" />
    </g>
    <g id="text_4">
     
     <g style="fill: #444443" transform="translate(71.242969 58.215625)scale(0.1 -0.1)">
      <defs>
       <path id="ArialMT-2d" d="M 203 1375  L 203 1941  L 1931 1941  L 1931 1375  L 203 1375  z " transform="scale(0.015625)" />
      </defs>
      <use xlink:href="#ArialMT-74" />
      <use xlink:href="#ArialMT-6f" x="27.783203" />
      <use xlink:href="#ArialMT-72" x="83.398438" />
      <use xlink:href="#ArialMT-71" x="116.699219" />
      <use xlink:href="#ArialMT-75" x="172.314453" />
      <use xlink:href="#ArialMT-65" x="227.929688" />
      <use xlink:href="#ArialMT-20" x="283.544922" />
      <use xlink:href="#ArialMT-2d" x="311.328125" />
      <use xlink:href="#ArialMT-31" x="344.628906" />
     </g>
    </g>
   </g>
  </g>
 </g>
</svg></g>
</g>
</svg>