<svg xmlns="http://www.w3.org/2000/svg" xmlns:dc="http://purl.org/dc/elements/1.1/" xmlns:ns2="http://creativecommons.org/ns#" xmlns:rdf="http://www.w3.org/1999/02/22-rdf-syntax-ns#" xmlns:xlink="http://www.w3.org/1999/xlink" width="345.0" height="185.0" viewBox="0.0 0.0 345.0 185.0">
<g id="graph0" class="graph" transform="scale(1.0 1.0) rotate(0) translate(4 181)">
<title>G</title>
<polygon fill="white" stroke="transparent" points="-4,4 -4,-181 341,-181 341,4 -4,4" />
<g id="clust2" class="cluster">
<title>cluster_legend</title>
</g>

<g id="node1" class="node">
<title>node0</title>
<svg width="162px" height="44px" viewBox="0 0 215.92321 59.443125" version="1.1" preserveAspectRatio="xMinYMin meet" x="4" y="-163.5">
 <metadata>
  <rdf:RDF>
   <ns2:Work>
    <dc:type rdf:resource="http://purl.org/dc/dcmitype/StillImage" />
    <dc:date>2022-01-14T20:52:41.537659</dc:date>
    <dc:format>image/svg+xml</dc:format>
    <dc:creator>
     <ns2:Agent>
      <dc:title>Matplotlib v3.5.1, https://matplotlib.org/</dc:title>
     </ns2:Agent>
    </dc:creator>
   </ns2:Work>
  </rdf:RDF>
 </metadata>
 <defs>
  <style type="text/css">*{stroke-linejoin: round; stroke-linecap: butt}</style>
 </defs>
 <g id="figure_1">
  <g id="patch_1">
   <path d="M 0 59.443125  L 215.92321 59.443125  L 215.92321 0  L 0 0  z " style="fill: #ffffff" />
  </g>
  <g id="axes_1">
   <g id="patch_2">
    <path d="M 22.27 29.439375  L 206.41 29.439375  L 206.41 1.719375  L 22.27 1.719375  z " style="fill: #ffffff" />
   </g>
   <g id="patch_3">
    <path d="M 22.27 29.439375  L 32.838056 29.439375  L 32.838056 29.439375  L 22.27 29.439375  z " clip-path="url(#p23e311f517)" style="fill: #fefebb; stroke: #444443; stroke-width: 0.5; stroke-linejoin: miter" />
   </g>
   <g id="patch_4">
    <path d="M 32.838056 29.439375  L 43.406113 29.439375  L 43.406113 29.439375  L 32.838056 29.439375  z " clip-path="url(#p23e311f517)" style="fill: #fefebb; stroke: #444443; stroke-width: 0.5; stroke-linejoin: miter" />
   </g>
   <g id="patch_5">
    <path d="M 43.406113 29.439375  L 53.974169 29.439375  L 53.974169 29.439375  L 43.406113 29.439375  z " clip-path="url(#p23e311f517)" style="fill: #fefebb; stroke: #444443; stroke-width: 0.5; stroke-linejoin: miter" />
   </g>
   <g id="patch_6">
    <path d="M 53.974169 29.439375  L 64.542226 29.439375  L 64.542226 27.092708  L 53.974169 27.092708  z " clip-path="url(#p23e311f517)" style="fill: #fefebb; stroke: #444443; stroke-width: 0.5; stroke-linejoin: miter" />
   </g>
   <g id="patch_7">
    <path d="M 64.542226 29.439375  L 75.110282 29.439375  L 75.110282 26.310486  L 64.542226 26.310486  z " clip-path="url(#p23e311f517)" style="fill: #fefebb; stroke: #444443; stroke-width: 0.5; stroke-linejoin: miter" />
   </g>
   <g id="patch_8">
    <path d="M 75.110282 29.439375  L 85.678339 29.439375  L 85.678339 26.506042  L 75.110282 26.506042  z " clip-path="url(#p23e311f517)" style="fill: #fefebb; stroke: #444443; stroke-width: 0.5; stroke-linejoin: miter" />
   </g>
   <g id="patch_9">
    <path d="M 85.678339 29.439375  L 96.246395 29.439375  L 96.246395 23.768264  L 85.678339 23.768264  z " clip-path="url(#p23e311f517)" style="fill: #fefebb; stroke: #444443; stroke-width: 0.5; stroke-linejoin: miter" />
   </g>
   <g id="patch_10">
    <path d="M 96.246395 29.439375  L 106.814452 29.439375  L 106.814452 14.577153  L 96.246395 14.577153  z " clip-path="url(#p23e311f517)" style="fill: #fefebb; stroke: #444443; stroke-width: 0.5; stroke-linejoin: miter" />
   </g>
   <g id="patch_11">
    <path d="M 106.814452 29.439375  L 117.382508 29.439375  L 117.382508 23.768264  L 106.814452 23.768264  z " clip-path="url(#p23e311f517)" style="fill: #fefebb; stroke: #444443; stroke-width: 0.5; stroke-linejoin: miter" />
   </g>
   <g id="patch_12">
    <path d="M 117.382508 29.439375  L 127.950565 29.439375  L 127.950565 28.461597  L 117.382508 28.461597  z " clip-path="url(#p23e311f517)" style="fill: #fefebb; stroke: #444443; stroke-width: 0.5; stroke-linejoin: miter" />
   </g>
   <g id="patch_13">
    <path d="M 127.950565 29.439375  L 138.518621 29.439375  L 138.518621 29.243819  L 127.950565 29.243819  z " clip-path="url(#p23e311f517)" style="fill: #fefebb; stroke: #444443; stroke-width: 0.5; stroke-linejoin: miter" />
   </g>
   <g id="patch_14">
    <path d="M 138.518621 29.439375  L 149.086678 29.439375  L 149.086678 29.439375  L 138.518621 29.439375  z " clip-path="url(#p23e311f517)" style="fill: #fefebb; stroke: #444443; stroke-width: 0.5; stroke-linejoin: miter" />
   </g>
   <g id="patch_15">
    <path d="M 149.086678 29.439375  L 159.654734 29.439375  L 159.654734 29.439375  L 149.086678 29.439375  z " clip-path="url(#p23e311f517)" style="fill: #fefebb; stroke: #444443; stroke-width: 0.5; stroke-linejoin: miter" />
   </g>
   <g id="patch_16">
    <path d="M 159.654734 29.439375  L 170.222791 29.439375  L 170.222791 29.439375  L 159.654734 29.439375  z " clip-path="url(#p23e311f517)" style="fill: #fefebb; stroke: #444443; stroke-width: 0.5; stroke-linejoin: miter" />
   </g>
   <g id="patch_17">
    <path d="M 170.222791 29.439375  L 180.790847 29.439375  L 180.790847 29.439375  L 170.222791 29.439375  z " clip-path="url(#p23e311f517)" style="fill: #fefebb; stroke: #444443; stroke-width: 0.5; stroke-linejoin: miter" />
   </g>
   <g id="patch_18">
    <path d="M 180.790847 29.439375  L 191.358904 29.439375  L 191.358904 29.439375  L 180.790847 29.439375  z " clip-path="url(#p23e311f517)" style="fill: #fefebb; stroke: #444443; stroke-width: 0.5; stroke-linejoin: miter" />
   </g>
   <g id="patch_19">
    <path d="M 191.358904 29.439375  L 201.92696 29.439375  L 201.92696 29.439375  L 191.358904 29.439375  z " clip-path="url(#p23e311f517)" style="fill: #fefebb; stroke: #444443; stroke-width: 0.5; stroke-linejoin: miter" />
   </g>
   <g id="patch_20">
    <path d="M 22.27 29.439375  L 32.838056 29.439375  L 32.838056 26.897153  L 22.27 26.897153  z " clip-path="url(#p23e311f517)" style="fill: #d9e6f5; stroke: #444443; stroke-width: 0.5; stroke-linejoin: miter" />
   </g>
   <g id="patch_21">
    <path d="M 32.838056 29.439375  L 43.406113 29.439375  L 43.406113 28.657153  L 32.838056 28.657153  z " clip-path="url(#p23e311f517)" style="fill: #d9e6f5; stroke: #444443; stroke-width: 0.5; stroke-linejoin: miter" />
   </g>
   <g id="patch_22">
    <path d="M 43.406113 29.439375  L 53.974169 29.439375  L 53.974169 29.048264  L 43.406113 29.048264  z " clip-path="url(#p23e311f517)" style="fill: #d9e6f5; stroke: #444443; stroke-width: 0.5; stroke-linejoin: miter" />
   </g>
   <g id="patch_23">
    <path d="M 53.974169 27.092708  L 64.542226 27.092708  L 64.542226 26.506042  L 53.974169 26.506042  z " clip-path="url(#p23e311f517)" style="fill: #d9e6f5; stroke: #444443; stroke-width: 0.5; stroke-linejoin: miter" />
   </g>
   <g id="patch_24">
    <path d="M 64.542226 26.310486  L 75.110282 26.310486  L 75.110282 23.768264  L 64.542226 23.768264  z " clip-path="url(#p23e311f517)" style="fill: #d9e6f5; stroke: #444443; stroke-width: 0.5; stroke-linejoin: miter" />
   </g>
   <g id="patch_25">
    <path d="M 75.110282 26.506042  L 85.678339 26.506042  L 85.678339 24.746042  L 75.110282 24.746042  z " clip-path="url(#p23e311f517)" style="fill: #d9e6f5; stroke: #444443; stroke-width: 0.5; stroke-linejoin: miter" />
   </g>
   <g id="patch_26">
    <path d="M 85.678339 23.768264  L 96.246395 23.768264  L 96.246395 22.790486  L 85.678339 22.790486  z " clip-path="url(#p23e311f517)" style="fill: #d9e6f5; stroke: #444443; stroke-width: 0.5; stroke-linejoin: miter" />
   </g>
   <g id="patch_27">
    <path d="M 96.246395 14.577153  L 106.814452 14.577153  L 106.814452 14.577153  L 96.246395 14.577153  z " clip-path="url(#p23e311f517)" style="fill: #d9e6f5; stroke: #444443; stroke-width: 0.5; stroke-linejoin: miter" />
   </g>
   <g id="patch_28">
    <path d="M 106.814452 23.768264  L 117.382508 23.768264  L 117.382508 21.812708  L 106.814452 21.812708  z " clip-path="url(#p23e311f517)" style="fill: #d9e6f5; stroke: #444443; stroke-width: 0.5; stroke-linejoin: miter" />
   </g>
   <g id="patch_29">
    <path d="M 117.382508 28.461597  L 127.950565 28.461597  L 127.950565 28.266042  L 117.382508 28.266042  z " clip-path="url(#p23e311f517)" style="fill: #d9e6f5; stroke: #444443; stroke-width: 0.5; stroke-linejoin: miter" />
   </g>
   <g id="patch_30">
    <path d="M 127.950565 29.243819  L 138.518621 29.243819  L 138.518621 29.243819  L 127.950565 29.243819  z " clip-path="url(#p23e311f517)" style="fill: #d9e6f5; stroke: #444443; stroke-width: 0.5; stroke-linejoin: miter" />
   </g>
   <g id="patch_31">
    <path d="M 138.518621 29.439375  L 149.086678 29.439375  L 149.086678 29.439375  L 138.518621 29.439375  z " clip-path="url(#p23e311f517)" style="fill: #d9e6f5; stroke: #444443; stroke-width: 0.5; stroke-linejoin: miter" />
   </g>
   <g id="patch_32">
    <path d="M 149.086678 29.439375  L 159.654734 29.439375  L 159.654734 29.439375  L 149.086678 29.439375  z " clip-path="url(#p23e311f517)" style="fill: #d9e6f5; stroke: #444443; stroke-width: 0.5; stroke-linejoin: miter" />
   </g>
   <g id="patch_33">
    <path d="M 159.654734 29.439375  L 170.222791 29.439375  L 170.222791 29.439375  L 159.654734 29.439375  z " clip-path="url(#p23e311f517)" style="fill: #d9e6f5; stroke: #444443; stroke-width: 0.5; stroke-linejoin: miter" />
   </g>
   <g id="patch_34">
    <path d="M 170.222791 29.439375  L 180.790847 29.439375  L 180.790847 29.439375  L 170.222791 29.439375  z " clip-path="url(#p23e311f517)" style="fill: #d9e6f5; stroke: #444443; stroke-width: 0.5; stroke-linejoin: miter" />
   </g>
   <g id="patch_35">
    <path d="M 180.790847 29.439375  L 191.358904 29.439375  L 191.358904 29.439375  L 180.790847 29.439375  z " clip-path="url(#p23e311f517)" style="fill: #d9e6f5; stroke: #444443; stroke-width: 0.5; stroke-linejoin: miter" />
   </g>
   <g id="patch_36">
    <path d="M 191.358904 29.439375  L 201.92696 29.439375  L 201.92696 29.439375  L 191.358904 29.439375  z " clip-path="url(#p23e311f517)" style="fill: #d9e6f5; stroke: #444443; stroke-width: 0.5; stroke-linejoin: miter" />
   </g>
   <g id="patch_37">
    <path d="M 22.27 26.897153  L 32.838056 26.897153  L 32.838056 26.897153  L 22.27 26.897153  z " clip-path="url(#p23e311f517)" style="fill: #a1dab4; stroke: #444443; stroke-width: 0.5; stroke-linejoin: miter" />
   </g>
   <g id="patch_38">
    <path d="M 32.838056 28.657153  L 43.406113 28.657153  L 43.406113 28.657153  L 32.838056 28.657153  z " clip-path="url(#p23e311f517)" style="fill: #a1dab4; stroke: #444443; stroke-width: 0.5; stroke-linejoin: miter" />
   </g>
   <g id="patch_39">
    <path d="M 43.406113 29.048264  L 53.974169 29.048264  L 53.974169 29.048264  L 43.406113 29.048264  z " clip-path="url(#p23e311f517)" style="fill: #a1dab4; stroke: #444443; stroke-width: 0.5; stroke-linejoin: miter" />
   </g>
   <g id="patch_40">
    <path d="M 53.974169 26.506042  L 64.542226 26.506042  L 64.542226 26.506042  L 53.974169 26.506042  z " clip-path="url(#p23e311f517)" style="fill: #a1dab4; stroke: #444443; stroke-width: 0.5; stroke-linejoin: miter" />
   </g>
   <g id="patch_41">
    <path d="M 64.542226 23.768264  L 75.110282 23.768264  L 75.110282 23.768264  L 64.542226 23.768264  z " clip-path="url(#p23e311f517)" style="fill: #a1dab4; stroke: #444443; stroke-width: 0.5; stroke-linejoin: miter" />
   </g>
   <g id="patch_42">
    <path d="M 75.110282 24.746042  L 85.678339 24.746042  L 85.678339 24.354931  L 75.110282 24.354931  z " clip-path="url(#p23e311f517)" style="fill: #a1dab4; stroke: #444443; stroke-width: 0.5; stroke-linejoin: miter" />
   </g>
   <g id="patch_43">
    <path d="M 85.678339 22.790486  L 96.246395 22.790486  L 96.246395 19.661597  L 85.678339 19.661597  z " clip-path="url(#p23e311f517)" style="fill: #a1dab4; stroke: #444443; stroke-width: 0.5; stroke-linejoin: miter" />
   </g>
   <g id="patch_44">
    <path d="M 96.246395 14.577153  L 106.814452 14.577153  L 106.814452 4.799375  L 96.246395 4.799375  z " clip-path="url(#p23e311f517)" style="fill: #a1dab4; stroke: #444443; stroke-width: 0.5; stroke-linejoin: miter" />
   </g>
   <g id="patch_45">
    <path d="M 106.814452 21.812708  L 117.382508 21.812708  L 117.382508 9.297153  L 106.814452 9.297153  z " clip-path="url(#p23e311f517)" style="fill: #a1dab4; stroke: #444443; stroke-width: 0.5; stroke-linejoin: miter" />
   </g>
   <g id="patch_46">
    <path d="M 117.382508 28.266042  L 127.950565 28.266042  L 127.950565 3.039375  L 117.382508 3.039375  z " clip-path="url(#p23e311f517)" style="fill: #a1dab4; stroke: #444443; stroke-width: 0.5; stroke-linejoin: miter" />
   </g>
   <g id="patch_47">
    <path d="M 127.950565 29.243819  L 138.518621 29.243819  L 138.518621 15.554931  L 127.950565 15.554931  z " clip-path="url(#p23e311f517)" style="fill: #a1dab4; stroke: #444443; stroke-width: 0.5; stroke-linejoin: miter" />
   </g>
   <g id="patch_48">
    <path d="M 138.518621 29.439375  L 149.086678 29.439375  L 149.086678 21.812708  L 138.518621 21.812708  z " clip-path="url(#p23e311f517)" style="fill: #a1dab4; stroke: #444443; stroke-width: 0.5; stroke-linejoin: miter" />
   </g>
   <g id="patch_49">
    <path d="M 149.086678 29.439375  L 159.654734 29.439375  L 159.654734 22.790486  L 149.086678 22.790486  z " clip-path="url(#p23e311f517)" style="fill: #a1dab4; stroke: #444443; stroke-width: 0.5; stroke-linejoin: miter" />
   </g>
   <g id="patch_50">
    <path d="M 159.654734 29.439375  L 170.222791 29.439375  L 170.222791 21.812708  L 159.654734 21.812708  z " clip-path="url(#p23e311f517)" style="fill: #a1dab4; stroke: #444443; stroke-width: 0.5; stroke-linejoin: miter" />
   </g>
   <g id="patch_51">
    <path d="M 170.222791 29.439375  L 180.790847 29.439375  L 180.790847 23.572708  L 170.222791 23.572708  z " clip-path="url(#p23e311f517)" style="fill: #a1dab4; stroke: #444443; stroke-width: 0.5; stroke-linejoin: miter" />
   </g>
   <g id="patch_52">
    <path d="M 180.790847 29.439375  L 191.358904 29.439375  L 191.358904 22.399375  L 180.790847 22.399375  z " clip-path="url(#p23e311f517)" style="fill: #a1dab4; stroke: #444443; stroke-width: 0.5; stroke-linejoin: miter" />
   </g>
   <g id="patch_53">
    <path d="M 191.358904 29.439375  L 201.92696 29.439375  L 201.92696 24.354931  L 191.358904 24.354931  z " clip-path="url(#p23e311f517)" style="fill: #a1dab4; stroke: #444443; stroke-width: 0.5; stroke-linejoin: miter" />
   </g>
   <g id="patch_54">
    <path d="M 110.581887 30.270975  L 107.267367 37.755375  L 113.896407 37.755375  z " style="fill: #444443" />
   </g>
   <g id="matplotlib.axis_1">
    <g id="xtick_1">
     <g id="line2d_1">
      <defs>
       <path id="m1b38a86796" d="M 0 0  L 0 3.5  " style="stroke: #000000; stroke-width: 0.3" />
      </defs>
      <g>
       <use xlink:href="#m1b38a86796" x="22.27" y="29.439375" style="stroke: #000000; stroke-width: 0.3" />
      </g>
     </g>
     <g id="text_1">
      
      <g style="fill: #444443" transform="translate(4.921875 42.518125)scale(0.08 -0.08)">
       <defs>
        <path id="DejaVuSans-2212" d="M 678 2272  L 4684 2272  L 4684 1741  L 678 1741  L 678 2272  z " transform="scale(0.015625)" />
        <path id="DejaVuSans-30" d="M 2034 4250  Q 1547 4250 1301 3770  Q 1056 3291 1056 2328  Q 1056 1369 1301 889  Q 1547 409 2034 409  Q 2525 409 2770 889  Q 3016 1369 3016 2328  Q 3016 3291 2770 3770  Q 2525 4250 2034 4250  z M 2034 4750  Q 2819 4750 3233 4129  Q 3647 3509 3647 2328  Q 3647 1150 3233 529  Q 2819 -91 2034 -91  Q 1250 -91 836 529  Q 422 1150 422 2328  Q 422 3509 836 4129  Q 1250 4750 2034 4750  z " transform="scale(0.015625)" />
        <path id="DejaVuSans-2e" d="M 684 794  L 1344 794  L 1344 0  L 684 0  L 684 794  z " transform="scale(0.015625)" />
        <path id="DejaVuSans-36" d="M 2113 2584  Q 1688 2584 1439 2293  Q 1191 2003 1191 1497  Q 1191 994 1439 701  Q 1688 409 2113 409  Q 2538 409 2786 701  Q 3034 994 3034 1497  Q 3034 2003 2786 2293  Q 2538 2584 2113 2584  z M 3366 4563  L 3366 3988  Q 3128 4100 2886 4159  Q 2644 4219 2406 4219  Q 1781 4219 1451 3797  Q 1122 3375 1075 2522  Q 1259 2794 1537 2939  Q 1816 3084 2150 3084  Q 2853 3084 3261 2657  Q 3669 2231 3669 1497  Q 3669 778 3244 343  Q 2819 -91 2113 -91  Q 1303 -91 875 529  Q 447 1150 447 2328  Q 447 3434 972 4092  Q 1497 4750 2381 4750  Q 2619 4750 2861 4703  Q 3103 4656 3366 4563  z " transform="scale(0.015625)" />
        <path id="DejaVuSans-32" d="M 1228 531  L 3431 531  L 3431 0  L 469 0  L 469 531  Q 828 903 1448 1529  Q 2069 2156 2228 2338  Q 2531 2678 2651 2914  Q 2772 3150 2772 3378  Q 2772 3750 2511 3984  Q 2250 4219 1831 4219  Q 1534 4219 1204 4116  Q 875 4013 500 3803  L 500 4441  Q 881 4594 1212 4672  Q 1544 4750 1819 4750  Q 2544 4750 2975 4387  Q 3406 4025 3406 3419  Q 3406 3131 3298 2873  Q 3191 2616 2906 2266  Q 2828 2175 2409 1742  Q 1991 1309 1228 531  z " transform="scale(0.015625)" />
       </defs>
       <use xlink:href="#DejaVuSans-2212" />
       <use xlink:href="#DejaVuSans-30" x="83.789062" />
       <use xlink:href="#DejaVuSans-2e" x="147.412109" />
       <use xlink:href="#DejaVuSans-30" x="179.199219" />
       <use xlink:href="#DejaVuSans-36" x="242.822266" />
       <use xlink:href="#DejaVuSans-32" x="306.445312" />
       <use xlink:href="#DejaVuSans-36" x="370.068359" />
      </g>
     </g>
    </g>
    <g id="xtick_2">
     <g id="line2d_2">
      <g>
       <use xlink:href="#m1b38a86796" x="201.92696" y="29.439375" style="stroke: #000000; stroke-width: 0.3" />
      </g>
     </g>
     <g id="text_2">
      
      <g style="fill: #444443" transform="translate(187.93071 42.518125)scale(0.08 -0.08)">
       <defs>
        <path id="DejaVuSans-34" d="M 2419 4116  L 825 1625  L 2419 1625  L 2419 4116  z M 2253 4666  L 3047 4666  L 3047 1625  L 3713 1625  L 3713 1100  L 3047 1100  L 3047 0  L 2419 0  L 2419 1100  L 313 1100  L 313 1709  L 2253 4666  z " transform="scale(0.015625)" />
       </defs>
       <use xlink:href="#DejaVuSans-30" />
       <use xlink:href="#DejaVuSans-2e" x="63.623047" />
       <use xlink:href="#DejaVuSans-30" x="95.410156" />
       <use xlink:href="#DejaVuSans-36" x="159.033203" />
       <use xlink:href="#DejaVuSans-32" x="222.65625" />
       <use xlink:href="#DejaVuSans-34" x="286.279297" />
      </g>
     </g>
    </g>
    <g id="text_3">
     
     <g style="fill: #444443" transform="translate(80.660312 56.9175)scale(0.12 -0.12)">
      <defs>
       <path id="ArialMT-43" d="M 3763 1606  L 4369 1453  Q 4178 706 3683 314  Q 3188 -78 2472 -78  Q 1731 -78 1267 223  Q 803 525 561 1097  Q 319 1669 319 2325  Q 319 3041 592 3573  Q 866 4106 1370 4382  Q 1875 4659 2481 4659  Q 3169 4659 3637 4309  Q 4106 3959 4291 3325  L 3694 3184  Q 3534 3684 3231 3912  Q 2928 4141 2469 4141  Q 1941 4141 1586 3887  Q 1231 3634 1087 3207  Q 944 2781 944 2328  Q 944 1744 1114 1308  Q 1284 872 1643 656  Q 2003 441 2422 441  Q 2931 441 3284 734  Q 3638 1028 3763 1606  z " transform="scale(0.015625)" />
       <path id="ArialMT-61" d="M 2588 409  Q 2275 144 1986 34  Q 1697 -75 1366 -75  Q 819 -75 525 192  Q 231 459 231 875  Q 231 1119 342 1320  Q 453 1522 633 1644  Q 813 1766 1038 1828  Q 1203 1872 1538 1913  Q 2219 1994 2541 2106  Q 2544 2222 2544 2253  Q 2544 2597 2384 2738  Q 2169 2928 1744 2928  Q 1347 2928 1158 2789  Q 969 2650 878 2297  L 328 2372  Q 403 2725 575 2942  Q 747 3159 1072 3276  Q 1397 3394 1825 3394  Q 2250 3394 2515 3294  Q 2781 3194 2906 3042  Q 3031 2891 3081 2659  Q 3109 2516 3109 2141  L 3109 1391  Q 3109 606 3145 398  Q 3181 191 3288 0  L 2700 0  Q 2613 175 2588 409  z M 2541 1666  Q 2234 1541 1622 1453  Q 1275 1403 1131 1340  Q 988 1278 909 1158  Q 831 1038 831 891  Q 831 666 1001 516  Q 1172 366 1500 366  Q 1825 366 2078 508  Q 2331 650 2450 897  Q 2541 1088 2541 1459  L 2541 1666  z " transform="scale(0.015625)" />
       <path id="ArialMT-72" d="M 416 0  L 416 3319  L 922 3319  L 922 2816  Q 1116 3169 1280 3281  Q 1444 3394 1641 3394  Q 1925 3394 2219 3213  L 2025 2691  Q 1819 2813 1613 2813  Q 1428 2813 1281 2702  Q 1134 2591 1072 2394  Q 978 2094 978 1738  L 978 0  L 416 0  z " transform="scale(0.015625)" />
       <path id="ArialMT-74" d="M 1650 503  L 1731 6  Q 1494 -44 1306 -44  Q 1000 -44 831 53  Q 663 150 594 308  Q 525 466 525 972  L 525 2881  L 113 2881  L 113 3319  L 525 3319  L 525 4141  L 1084 4478  L 1084 3319  L 1650 3319  L 1650 2881  L 1084 2881  L 1084 941  Q 1084 700 1114 631  Q 1144 563 1211 522  Q 1278 481 1403 481  Q 1497 481 1650 503  z " transform="scale(0.015625)" />
       <path id="ArialMT-20" transform="scale(0.015625)" />
       <path id="ArialMT-56" d="M 1803 0  L 28 4581  L 684 4581  L 1875 1253  Q 2019 853 2116 503  Q 2222 878 2363 1253  L 3600 4581  L 4219 4581  L 2425 0  L 1803 0  z " transform="scale(0.015625)" />
       <path id="ArialMT-65" d="M 2694 1069  L 3275 997  Q 3138 488 2766 206  Q 2394 -75 1816 -75  Q 1088 -75 661 373  Q 234 822 234 1631  Q 234 2469 665 2931  Q 1097 3394 1784 3394  Q 2450 3394 2872 2941  Q 3294 2488 3294 1666  Q 3294 1616 3291 1516  L 816 1516  Q 847 969 1125 678  Q 1403 388 1819 388  Q 2128 388 2347 550  Q 2566 713 2694 1069  z M 847 1978  L 2700 1978  Q 2663 2397 2488 2606  Q 2219 2931 1791 2931  Q 1403 2931 1139 2672  Q 875 2413 847 1978  z " transform="scale(0.015625)" />
       <path id="ArialMT-6c" d="M 409 0  L 409 4581  L 972 4581  L 972 0  L 409 0  z " transform="scale(0.015625)" />
       <path id="ArialMT-6f" d="M 213 1659  Q 213 2581 725 3025  Q 1153 3394 1769 3394  Q 2453 3394 2887 2945  Q 3322 2497 3322 1706  Q 3322 1066 3130 698  Q 2938 331 2570 128  Q 2203 -75 1769 -75  Q 1072 -75 642 372  Q 213 819 213 1659  z M 791 1659  Q 791 1022 1069 705  Q 1347 388 1769 388  Q 2188 388 2466 706  Q 2744 1025 2744 1678  Q 2744 2294 2464 2611  Q 2184 2928 1769 2928  Q 1347 2928 1069 2612  Q 791 2297 791 1659  z " transform="scale(0.015625)" />
       <path id="ArialMT-63" d="M 2588 1216  L 3141 1144  Q 3050 572 2676 248  Q 2303 -75 1759 -75  Q 1078 -75 664 370  Q 250 816 250 1647  Q 250 2184 428 2587  Q 606 2991 970 3192  Q 1334 3394 1763 3394  Q 2303 3394 2647 3120  Q 2991 2847 3088 2344  L 2541 2259  Q 2463 2594 2264 2762  Q 2066 2931 1784 2931  Q 1359 2931 1093 2626  Q 828 2322 828 1663  Q 828 994 1084 691  Q 1341 388 1753 388  Q 2084 388 2306 591  Q 2528 794 2588 1216  z " transform="scale(0.015625)" />
       <path id="ArialMT-69" d="M 425 3934  L 425 4581  L 988 4581  L 988 3934  L 425 3934  z M 425 0  L 425 3319  L 988 3319  L 988 0  L 425 0  z " transform="scale(0.015625)" />
       <path id="ArialMT-79" d="M 397 -1278  L 334 -750  Q 519 -800 656 -800  Q 844 -800 956 -737  Q 1069 -675 1141 -563  Q 1194 -478 1313 -144  Q 1328 -97 1363 -6  L 103 3319  L 709 3319  L 1400 1397  Q 1534 1031 1641 628  Q 1738 1016 1872 1384  L 2581 3319  L 3144 3319  L 1881 -56  Q 1678 -603 1566 -809  Q 1416 -1088 1222 -1217  Q 1028 -1347 759 -1347  Q 597 -1347 397 -1278  z " transform="scale(0.015625)" />
      </defs>
      <use xlink:href="#ArialMT-43" />
      <use xlink:href="#ArialMT-61" x="72.216797" />
      <use xlink:href="#ArialMT-72" x="127.832031" />
      <use xlink:href="#ArialMT-74" x="161.132812" />
      <use xlink:href="#ArialMT-20" x="188.916016" />
      <use xlink:href="#ArialMT-56" x="216.699219" />
      <use xlink:href="#ArialMT-65" x="277.898438" />
      <use xlink:href="#ArialMT-6c" x="333.513672" />
      <use xlink:href="#ArialMT-6f" x="355.730469" />
      <use xlink:href="#ArialMT-63" x="411.345703" />
      <use xlink:href="#ArialMT-69" x="461.345703" />
      <use xlink:href="#ArialMT-74" x="483.5625" />
      <use xlink:href="#ArialMT-79" x="511.345703" />
     </g>
    </g>
   </g>
   <g id="matplotlib.axis_2">
    <g id="ytick_1">
     <g id="line2d_3">
      <defs>
       <path id="m5fd24ba3cb" d="M 0 0  L -3.5 0  " style="stroke: #000000; stroke-width: 0.3" />
      </defs>
      <g>
       <use xlink:href="#m5fd24ba3cb" x="22.27" y="29.439375" style="stroke: #000000; stroke-width: 0.3" />
      </g>
     </g>
     <g id="text_4">
      
      <g style="fill: #444443" transform="translate(10.18 32.47875)scale(0.08 -0.08)">
       <use xlink:href="#DejaVuSans-30" />
      </g>
     </g>
    </g>
    <g id="ytick_2">
     <g id="line2d_4">
      <g>
       <use xlink:href="#m5fd24ba3cb" x="22.27" y="3.039375" style="stroke: #000000; stroke-width: 0.3" />
      </g>
     </g>
     <g id="text_5">
      
      <g style="fill: #444443" transform="translate(0 6.07875)scale(0.08 -0.08)">
       <defs>
        <path id="DejaVuSans-31" d="M 794 531  L 1825 531  L 1825 4091  L 703 3866  L 703 4441  L 1819 4666  L 2450 4666  L 2450 531  L 3481 531  L 3481 0  L 794 0  L 794 531  z " transform="scale(0.015625)" />
        <path id="DejaVuSans-33" d="M 2597 2516  Q 3050 2419 3304 2112  Q 3559 1806 3559 1356  Q 3559 666 3084 287  Q 2609 -91 1734 -91  Q 1441 -91 1130 -33  Q 819 25 488 141  L 488 750  Q 750 597 1062 519  Q 1375 441 1716 441  Q 2309 441 2620 675  Q 2931 909 2931 1356  Q 2931 1769 2642 2001  Q 2353 2234 1838 2234  L 1294 2234  L 1294 2753  L 1863 2753  Q 2328 2753 2575 2939  Q 2822 3125 2822 3475  Q 2822 3834 2567 4026  Q 2313 4219 1838 4219  Q 1578 4219 1281 4162  Q 984 4106 628 3988  L 628 4550  Q 988 4650 1302 4700  Q 1616 4750 1894 4750  Q 2613 4750 3031 4423  Q 3450 4097 3450 3541  Q 3450 3153 3228 2886  Q 3006 2619 2597 2516  z " transform="scale(0.015625)" />
        <path id="DejaVuSans-35" d="M 691 4666  L 3169 4666  L 3169 4134  L 1269 4134  L 1269 2991  Q 1406 3038 1543 3061  Q 1681 3084 1819 3084  Q 2600 3084 3056 2656  Q 3513 2228 3513 1497  Q 3513 744 3044 326  Q 2575 -91 1722 -91  Q 1428 -91 1123 -41  Q 819 9 494 109  L 494 744  Q 775 591 1075 516  Q 1375 441 1709 441  Q 2250 441 2565 725  Q 2881 1009 2881 1497  Q 2881 1984 2565 2268  Q 2250 2553 1709 2553  Q 1456 2553 1204 2497  Q 953 2441 691 2322  L 691 4666  z " transform="scale(0.015625)" />
       </defs>
       <use xlink:href="#DejaVuSans-31" />
       <use xlink:href="#DejaVuSans-33" x="63.623047" />
       <use xlink:href="#DejaVuSans-35" x="127.246094" />
      </g>
     </g>
    </g>
   </g>
   <g id="patch_55">
    <path d="M 22.27 29.439375  L 22.27 1.719375  " style="fill: none; stroke: #000000; stroke-width: 0.3; stroke-linejoin: miter; stroke-linecap: square" />
   </g>
   <g id="patch_56">
    <path d="M 22.27 29.439375  L 206.41 29.439375  " style="fill: none; stroke: #000000; stroke-width: 0.3; stroke-linejoin: miter; stroke-linecap: square" />
   </g>
   <g id="text_6">
    
    <g style="fill: #444443" transform="translate(101.465637 46.071375)scale(0.08 -0.08)">
     <defs>
      <path id="ArialMT-2d" d="M 203 1375  L 203 1941  L 1931 1941  L 1931 1375  L 203 1375  z " transform="scale(0.015625)" />
      <path id="ArialMT-30" d="M 266 2259  Q 266 3072 433 3567  Q 600 4063 929 4331  Q 1259 4600 1759 4600  Q 2128 4600 2406 4451  Q 2684 4303 2865 4023  Q 3047 3744 3150 3342  Q 3253 2941 3253 2259  Q 3253 1453 3087 958  Q 2922 463 2592 192  Q 2263 -78 1759 -78  Q 1097 -78 719 397  Q 266 969 266 2259  z M 844 2259  Q 844 1131 1108 757  Q 1372 384 1759 384  Q 2147 384 2411 759  Q 2675 1134 2675 2259  Q 2675 3391 2411 3762  Q 2147 4134 1753 4134  Q 1366 4134 1134 3806  Q 844 3388 844 2259  z " transform="scale(0.015625)" />
      <path id="ArialMT-2e" d="M 581 0  L 581 641  L 1222 641  L 1222 0  L 581 0  z " transform="scale(0.015625)" />
     </defs>
     <use xlink:href="#ArialMT-2d" />
     <use xlink:href="#ArialMT-30" x="33.300781" />
     <use xlink:href="#ArialMT-2e" x="88.916016" />
     <use xlink:href="#ArialMT-30" x="116.699219" />
     <use xlink:href="#ArialMT-30" x="172.314453" />
    </g>
   </g>
  </g>
 </g>
 <defs>
  <clipPath id="p23e311f517">
   <rect x="22.27" y="1.719375" width="184.14" height="27.72" />
  </clipPath>
 </defs>
</svg></g>

<g id="node2" class="node">
<title>leaf1</title>
<polygon fill="none" stroke="#444443" stroke-width="0" points="78,-83 10,-83 10,0 78,0 78,-83" />
<svg width="60px" height="75px" viewBox="0 0 80.079968 101.03313" version="1.1" preserveAspectRatio="xMinYMin meet" x="14" y="-78.5">
 <metadata>
  <rdf:RDF>
   <ns2:Work>
    <dc:type rdf:resource="http://purl.org/dc/dcmitype/StillImage" />
    <dc:date>2022-01-14T20:52:41.633434</dc:date>
    <dc:format>image/svg+xml</dc:format>
    <dc:creator>
     <ns2:Agent>
      <dc:title>Matplotlib v3.5.1, https://matplotlib.org/</dc:title>
     </ns2:Agent>
    </dc:creator>
   </ns2:Work>
  </rdf:RDF>
 </metadata>
 <defs>
  <style type="text/css">*{stroke-linejoin: round; stroke-linecap: butt}</style>
 </defs>
 <g id="figure_1">
  <g id="patch_1">
   <path d="M 0 101.03313  L 80.079968 101.03313  L 80.079968 -0  L 0 -0  z " style="fill: #ffffff" />
  </g>
  <g id="axes_1">
   <g id="patch_2">
    <path d="M 80.079968 40.039961  C 80.079968 33.748272 78.597001 27.544274 75.751716 21.932706  C 72.906431 16.321138 68.778141 11.458422 63.702712 7.740175  C 58.627283 4.021928 52.746192 1.551796 46.537908 0.530742  C 40.329624 -0.490312 33.967202 -0.033827 27.968272 1.86306  C 21.969342 3.759947 16.501123 7.044359 12.008494 11.449087  C 7.515865 15.853815 4.124058 21.256076 2.10902 27.216358  C 0.093982 33.176641 -0.488117 39.528801 0.410081 45.756047  C 1.308278 51.983292 3.661735 57.912037 7.278981 63.059938  L 40.039968 40.039961  L 80.079968 40.039961  z " style="fill: #fefebb; stroke: #444443; stroke-width: 0.5; stroke-linejoin: miter" />
   </g>
   <g id="patch_3">
    <path d="M 7.278981 63.059938  C 12.326089 70.242753 19.598028 75.570157 27.968278 78.216863  C 36.338527 80.86357 45.35133 80.685467 53.610482 77.710145  L 40.039968 40.039961  L 7.278981 63.059938  z " style="fill: #d9e6f5; stroke: #444443; stroke-width: 0.5; stroke-linejoin: miter" />
   </g>
   <g id="patch_4">
    <path d="M 53.610482 77.710145  C 61.361223 74.917975 68.064539 69.800593 72.800959 63.059931  C 77.53738 56.31927 80.079969 48.278294 80.079968 40.039957  L 40.039968 40.039961  L 53.610482 77.710145  z " style="fill: #a1dab4; stroke: #444443; stroke-width: 0.5; stroke-linejoin: miter" />
   </g>
   <g id="text_1">
    
    <g style="fill: #444443" transform="translate(27.401999 89.725192)scale(0.09 -0.09)">
     <defs>
      <path id="ArialMT-6e" d="M 422 0  L 422 3319  L 928 3319  L 928 2847  Q 1294 3394 1984 3394  Q 2284 3394 2536 3286  Q 2788 3178 2913 3003  Q 3038 2828 3088 2588  Q 3119 2431 3119 2041  L 3119 0  L 2556 0  L 2556 2019  Q 2556 2363 2490 2533  Q 2425 2703 2258 2804  Q 2091 2906 1866 2906  Q 1506 2906 1245 2678  Q 984 2450 984 1813  L 984 0  L 422 0  z " transform="scale(0.015625)" />
      <path id="ArialMT-3d" d="M 3381 2694  L 356 2694  L 356 3219  L 3381 3219  L 3381 2694  z M 3381 1303  L 356 1303  L 356 1828  L 3381 1828  L 3381 1303  z " transform="scale(0.015625)" />
      <path id="ArialMT-32" d="M 3222 541  L 3222 0  L 194 0  Q 188 203 259 391  Q 375 700 629 1000  Q 884 1300 1366 1694  Q 2113 2306 2375 2664  Q 2638 3022 2638 3341  Q 2638 3675 2398 3904  Q 2159 4134 1775 4134  Q 1369 4134 1125 3890  Q 881 3647 878 3216  L 300 3275  Q 359 3922 746 4261  Q 1134 4600 1788 4600  Q 2447 4600 2831 4234  Q 3216 3869 3216 3328  Q 3216 3053 3103 2787  Q 2991 2522 2730 2228  Q 2469 1934 1863 1422  Q 1356 997 1212 845  Q 1069 694 975 541  L 3222 541  z " transform="scale(0.015625)" />
      <path id="ArialMT-39" d="M 350 1059  L 891 1109  Q 959 728 1153 556  Q 1347 384 1650 384  Q 1909 384 2104 503  Q 2300 622 2425 820  Q 2550 1019 2634 1356  Q 2719 1694 2719 2044  Q 2719 2081 2716 2156  Q 2547 1888 2255 1720  Q 1963 1553 1622 1553  Q 1053 1553 659 1965  Q 266 2378 266 3053  Q 266 3750 677 4175  Q 1088 4600 1706 4600  Q 2153 4600 2523 4359  Q 2894 4119 3086 3673  Q 3278 3228 3278 2384  Q 3278 1506 3087 986  Q 2897 466 2520 194  Q 2144 -78 1638 -78  Q 1100 -78 759 220  Q 419 519 350 1059  z M 2653 3081  Q 2653 3566 2395 3850  Q 2138 4134 1775 4134  Q 1400 4134 1122 3828  Q 844 3522 844 3034  Q 844 2597 1108 2323  Q 1372 2050 1759 2050  Q 2150 2050 2401 2323  Q 2653 2597 2653 3081  z " transform="scale(0.015625)" />
      <path id="ArialMT-38" d="M 1131 2484  Q 781 2613 612 2850  Q 444 3088 444 3419  Q 444 3919 803 4259  Q 1163 4600 1759 4600  Q 2359 4600 2725 4251  Q 3091 3903 3091 3403  Q 3091 3084 2923 2848  Q 2756 2613 2416 2484  Q 2838 2347 3058 2040  Q 3278 1734 3278 1309  Q 3278 722 2862 322  Q 2447 -78 1769 -78  Q 1091 -78 675 323  Q 259 725 259 1325  Q 259 1772 486 2073  Q 713 2375 1131 2484  z M 1019 3438  Q 1019 3113 1228 2906  Q 1438 2700 1772 2700  Q 2097 2700 2305 2904  Q 2513 3109 2513 3406  Q 2513 3716 2298 3927  Q 2084 4138 1766 4138  Q 1444 4138 1231 3931  Q 1019 3725 1019 3438  z M 838 1322  Q 838 1081 952 856  Q 1066 631 1291 507  Q 1516 384 1775 384  Q 2178 384 2440 643  Q 2703 903 2703 1303  Q 2703 1709 2433 1975  Q 2163 2241 1756 2241  Q 1359 2241 1098 1978  Q 838 1716 838 1322  z " transform="scale(0.015625)" />
     </defs>
     <use xlink:href="#ArialMT-6e" />
     <use xlink:href="#ArialMT-3d" x="55.615234" />
     <use xlink:href="#ArialMT-32" x="114.013672" />
     <use xlink:href="#ArialMT-39" x="169.628906" />
     <use xlink:href="#ArialMT-38" x="225.244141" />
    </g>
    
    <g style="fill: #444443" transform="translate(27.278249 99.24438)scale(0.09 -0.09)">
     <defs>
      <path id="ArialMT-4c" d="M 469 0  L 469 4581  L 1075 4581  L 1075 541  L 3331 541  L 3331 0  L 469 0  z " transform="scale(0.015625)" />
      <path id="ArialMT-65" d="M 2694 1069  L 3275 997  Q 3138 488 2766 206  Q 2394 -75 1816 -75  Q 1088 -75 661 373  Q 234 822 234 1631  Q 234 2469 665 2931  Q 1097 3394 1784 3394  Q 2450 3394 2872 2941  Q 3294 2488 3294 1666  Q 3294 1616 3291 1516  L 816 1516  Q 847 969 1125 678  Q 1403 388 1819 388  Q 2128 388 2347 550  Q 2566 713 2694 1069  z M 847 1978  L 2700 1978  Q 2663 2397 2488 2606  Q 2219 2931 1791 2931  Q 1403 2931 1139 2672  Q 875 2413 847 1978  z " transform="scale(0.015625)" />
      <path id="ArialMT-66" d="M 556 0  L 556 2881  L 59 2881  L 59 3319  L 556 3319  L 556 3672  Q 556 4006 616 4169  Q 697 4388 901 4523  Q 1106 4659 1475 4659  Q 1713 4659 2000 4603  L 1916 4113  Q 1741 4144 1584 4144  Q 1328 4144 1222 4034  Q 1116 3925 1116 3625  L 1116 3319  L 1763 3319  L 1763 2881  L 1116 2881  L 1116 0  L 556 0  z " transform="scale(0.015625)" />
      <path id="ArialMT-74" d="M 1650 503  L 1731 6  Q 1494 -44 1306 -44  Q 1000 -44 831 53  Q 663 150 594 308  Q 525 466 525 972  L 525 2881  L 113 2881  L 113 3319  L 525 3319  L 525 4141  L 1084 4478  L 1084 3319  L 1650 3319  L 1650 2881  L 1084 2881  L 1084 941  Q 1084 700 1114 631  Q 1144 563 1211 522  Q 1278 481 1403 481  Q 1497 481 1650 503  z " transform="scale(0.015625)" />
      <path id="ArialMT-2b" d="M 1603 741  L 1603 1997  L 356 1997  L 356 2522  L 1603 2522  L 1603 3769  L 2134 3769  L 2134 2522  L 3381 2522  L 3381 1997  L 2134 1997  L 2134 741  L 1603 741  z " transform="scale(0.015625)" />
     </defs>
     <use xlink:href="#ArialMT-4c" />
     <use xlink:href="#ArialMT-65" x="55.615234" />
     <use xlink:href="#ArialMT-66" x="111.230469" />
     <use xlink:href="#ArialMT-74" x="139.013672" />
     <use xlink:href="#ArialMT-2b" x="166.796875" />
     <use xlink:href="#ArialMT-2b" x="225.195312" />
    </g>
   </g>
  </g>
 </g>
</svg></g>

<g id="edge1" class="edge">
<title>node0-&gt;leaf1</title>
<path fill="none" stroke="#444443" stroke-width="0.3" d="M74.44,-115.26C70.84,-106.65 66.7,-96.75 62.65,-87.08" />
<polygon fill="#444443" stroke="#444443" stroke-width="0.3" points="63.88,-86.39 61.04,-83.24 61.3,-87.47 63.88,-86.39" />
<text text-anchor="start" x="70" y="-94.8" font-family="Times New Roman,serif" font-size="14.00">&#8804;</text>
</g>

<g id="node3" class="node">
<title>leaf2</title>
<polygon fill="none" stroke="#444443" stroke-width="0" points="160,-83 92,-83 92,0 160,0 160,-83" />
<svg width="60px" height="75px" viewBox="0 0 80.079992 101.138624" version="1.1" preserveAspectRatio="xMinYMin meet" x="96" y="-78.5">
 <metadata>
  <rdf:RDF>
   <ns2:Work>
    <dc:type rdf:resource="http://purl.org/dc/dcmitype/StillImage" />
    <dc:date>2022-01-14T20:52:41.694272</dc:date>
    <dc:format>image/svg+xml</dc:format>
    <dc:creator>
     <ns2:Agent>
      <dc:title>Matplotlib v3.5.1, https://matplotlib.org/</dc:title>
     </ns2:Agent>
    </dc:creator>
   </ns2:Work>
  </rdf:RDF>
 </metadata>
 <defs>
  <style type="text/css">*{stroke-linejoin: round; stroke-linecap: butt}</style>
 </defs>
 <g id="figure_1">
  <g id="patch_1">
   <path d="M 0 101.138624  L 80.079992 101.138624  L 80.079992 0  L 0 0  z " style="fill: #ffffff" />
  </g>
  <g id="axes_1">
   <g id="patch_2">
    <path d="M 80.079992 40.039986  C 80.079992 39.457605 80.067286 38.875293 80.041883 38.293466  C 80.01648 37.711639 79.978386 37.130435 79.927628 36.55027  L 40.039992 40.039986  L 80.079992 40.039986  z " style="fill: #fefebb; stroke: #444443; stroke-width: 0.5; stroke-linejoin: miter" />
   </g>
   <g id="patch_3">
    <path d="M 79.927628 36.55027  C 79.851487 35.679979 79.746884 34.812413 79.613987 33.948966  C 79.48109 33.085518 79.319969 32.226651 79.130884 31.373744  L 40.039992 40.039986  L 79.927628 36.55027  z " style="fill: #d9e6f5; stroke: #444443; stroke-width: 0.5; stroke-linejoin: miter" />
   </g>
   <g id="patch_4">
    <path d="M 79.130884 31.373744  C 78.032597 26.419693 76.002503 21.71928 73.148931 17.523331  C 70.295359 13.327382 66.669987 9.711883 62.466272 6.869765  C 58.262556 4.027647 53.556625 2.010378 48.599597 0.925606  C 43.642569 -0.159167 38.524213 -0.291799 33.517656 0.534787  C 28.511099 1.361373 23.707007 3.132208 19.361736 5.752797  C 15.016466 8.373385 11.208708 11.79627 8.141653 15.838797  C 5.074597 19.881325 2.803787 24.470288 1.450398 29.360809  C 0.097009 34.25133 -0.314451 39.354845 0.237976 44.399018  C 0.790403 49.443191 2.296713 54.336675 4.676524 58.818344  C 7.056335 63.300013 10.266552 67.288706 14.135869 70.571577  C 18.005187 73.854448 22.463534 76.372046 27.273003 77.990027  C 32.082473 79.608008 37.155968 80.297071 42.222755 80.020446  C 47.289543 79.743821 52.257866 78.506517 56.862605 76.37456  C 61.467344 74.242604 65.625109 71.254602 69.114032 67.570003  C 72.602955 63.885403 75.359854 59.570931 77.237615 54.856817  C 79.115375 50.142703 80.079992 45.114316 80.079992 40.039983  L 40.039992 40.039986  L 79.130884 31.373744  z " style="fill: #a1dab4; stroke: #444443; stroke-width: 0.5; stroke-linejoin: miter" />
   </g>
   <g id="text_1">
    
    <g style="fill: #444443" transform="translate(27.402023 89.725217)scale(0.09 -0.09)">
     <defs>
      <path id="ArialMT-6e" d="M 422 0  L 422 3319  L 928 3319  L 928 2847  Q 1294 3394 1984 3394  Q 2284 3394 2536 3286  Q 2788 3178 2913 3003  Q 3038 2828 3088 2588  Q 3119 2431 3119 2041  L 3119 0  L 2556 0  L 2556 2019  Q 2556 2363 2490 2533  Q 2425 2703 2258 2804  Q 2091 2906 1866 2906  Q 1506 2906 1245 2678  Q 984 2450 984 1813  L 984 0  L 422 0  z " transform="scale(0.015625)" />
      <path id="ArialMT-3d" d="M 3381 2694  L 356 2694  L 356 3219  L 3381 3219  L 3381 2694  z M 3381 1303  L 356 1303  L 356 1828  L 3381 1828  L 3381 1303  z " transform="scale(0.015625)" />
      <path id="ArialMT-34" d="M 2069 0  L 2069 1097  L 81 1097  L 81 1613  L 2172 4581  L 2631 4581  L 2631 1613  L 3250 1613  L 3250 1097  L 2631 1097  L 2631 0  L 2069 0  z M 2069 1613  L 2069 3678  L 634 1613  L 2069 1613  z " transform="scale(0.015625)" />
      <path id="ArialMT-38" d="M 1131 2484  Q 781 2613 612 2850  Q 444 3088 444 3419  Q 444 3919 803 4259  Q 1163 4600 1759 4600  Q 2359 4600 2725 4251  Q 3091 3903 3091 3403  Q 3091 3084 2923 2848  Q 2756 2613 2416 2484  Q 2838 2347 3058 2040  Q 3278 1734 3278 1309  Q 3278 722 2862 322  Q 2447 -78 1769 -78  Q 1091 -78 675 323  Q 259 725 259 1325  Q 259 1772 486 2073  Q 713 2375 1131 2484  z M 1019 3438  Q 1019 3113 1228 2906  Q 1438 2700 1772 2700  Q 2097 2700 2305 2904  Q 2513 3109 2513 3406  Q 2513 3716 2298 3927  Q 2084 4138 1766 4138  Q 1444 4138 1231 3931  Q 1019 3725 1019 3438  z M 838 1322  Q 838 1081 952 856  Q 1066 631 1291 507  Q 1516 384 1775 384  Q 2178 384 2440 643  Q 2703 903 2703 1303  Q 2703 1709 2433 1975  Q 2163 2241 1756 2241  Q 1359 2241 1098 1978  Q 838 1716 838 1322  z " transform="scale(0.015625)" />
      <path id="ArialMT-30" d="M 266 2259  Q 266 3072 433 3567  Q 600 4063 929 4331  Q 1259 4600 1759 4600  Q 2128 4600 2406 4451  Q 2684 4303 2865 4023  Q 3047 3744 3150 3342  Q 3253 2941 3253 2259  Q 3253 1453 3087 958  Q 2922 463 2592 192  Q 2263 -78 1759 -78  Q 1097 -78 719 397  Q 266 969 266 2259  z M 844 2259  Q 844 1131 1108 757  Q 1372 384 1759 384  Q 2147 384 2411 759  Q 2675 1134 2675 2259  Q 2675 3391 2411 3762  Q 2147 4134 1753 4134  Q 1366 4134 1134 3806  Q 844 3388 844 2259  z " transform="scale(0.015625)" />
     </defs>
     <use xlink:href="#ArialMT-6e" />
     <use xlink:href="#ArialMT-3d" x="55.615234" />
     <use xlink:href="#ArialMT-34" x="114.013672" />
     <use xlink:href="#ArialMT-38" x="169.628906" />
     <use xlink:href="#ArialMT-30" x="225.244141" />
    </g>
    
    <g style="fill: #444443" transform="translate(24.278742 99.244405)scale(0.09 -0.09)">
     <defs>
      <path id="ArialMT-52" d="M 503 0  L 503 4581  L 2534 4581  Q 3147 4581 3465 4457  Q 3784 4334 3975 4021  Q 4166 3709 4166 3331  Q 4166 2844 3850 2509  Q 3534 2175 2875 2084  Q 3116 1969 3241 1856  Q 3506 1613 3744 1247  L 4541 0  L 3778 0  L 3172 953  Q 2906 1366 2734 1584  Q 2563 1803 2427 1890  Q 2291 1978 2150 2013  Q 2047 2034 1813 2034  L 1109 2034  L 1109 0  L 503 0  z M 1109 2559  L 2413 2559  Q 2828 2559 3062 2645  Q 3297 2731 3419 2920  Q 3541 3109 3541 3331  Q 3541 3656 3305 3865  Q 3069 4075 2559 4075  L 1109 4075  L 1109 2559  z " transform="scale(0.015625)" />
      <path id="ArialMT-69" d="M 425 3934  L 425 4581  L 988 4581  L 988 3934  L 425 3934  z M 425 0  L 425 3319  L 988 3319  L 988 0  L 425 0  z " transform="scale(0.015625)" />
      <path id="ArialMT-67" d="M 319 -275  L 866 -356  Q 900 -609 1056 -725  Q 1266 -881 1628 -881  Q 2019 -881 2231 -725  Q 2444 -569 2519 -288  Q 2563 -116 2559 434  Q 2191 0 1641 0  Q 956 0 581 494  Q 206 988 206 1678  Q 206 2153 378 2554  Q 550 2956 876 3175  Q 1203 3394 1644 3394  Q 2231 3394 2613 2919  L 2613 3319  L 3131 3319  L 3131 450  Q 3131 -325 2973 -648  Q 2816 -972 2473 -1159  Q 2131 -1347 1631 -1347  Q 1038 -1347 672 -1080  Q 306 -813 319 -275  z M 784 1719  Q 784 1066 1043 766  Q 1303 466 1694 466  Q 2081 466 2343 764  Q 2606 1063 2606 1700  Q 2606 2309 2336 2618  Q 2066 2928 1684 2928  Q 1309 2928 1046 2623  Q 784 2319 784 1719  z " transform="scale(0.015625)" />
      <path id="ArialMT-68" d="M 422 0  L 422 4581  L 984 4581  L 984 2938  Q 1378 3394 1978 3394  Q 2347 3394 2619 3248  Q 2891 3103 3008 2847  Q 3125 2591 3125 2103  L 3125 0  L 2563 0  L 2563 2103  Q 2563 2525 2380 2717  Q 2197 2909 1863 2909  Q 1613 2909 1392 2779  Q 1172 2650 1078 2428  Q 984 2206 984 1816  L 984 0  L 422 0  z " transform="scale(0.015625)" />
      <path id="ArialMT-74" d="M 1650 503  L 1731 6  Q 1494 -44 1306 -44  Q 1000 -44 831 53  Q 663 150 594 308  Q 525 466 525 972  L 525 2881  L 113 2881  L 113 3319  L 525 3319  L 525 4141  L 1084 4478  L 1084 3319  L 1650 3319  L 1650 2881  L 1084 2881  L 1084 941  Q 1084 700 1114 631  Q 1144 563 1211 522  Q 1278 481 1403 481  Q 1497 481 1650 503  z " transform="scale(0.015625)" />
      <path id="ArialMT-2b" d="M 1603 741  L 1603 1997  L 356 1997  L 356 2522  L 1603 2522  L 1603 3769  L 2134 3769  L 2134 2522  L 3381 2522  L 3381 1997  L 2134 1997  L 2134 741  L 1603 741  z " transform="scale(0.015625)" />
     </defs>
     <use xlink:href="#ArialMT-52" />
     <use xlink:href="#ArialMT-69" x="72.216797" />
     <use xlink:href="#ArialMT-67" x="94.433594" />
     <use xlink:href="#ArialMT-68" x="150.048828" />
     <use xlink:href="#ArialMT-74" x="205.664062" />
     <use xlink:href="#ArialMT-2b" x="233.447266" />
     <use xlink:href="#ArialMT-2b" x="291.845703" />
    </g>
   </g>
  </g>
 </g>
</svg></g>

<g id="edge2" class="edge">
<title>node0-&gt;leaf2</title>
<path fill="none" stroke="#444443" stroke-width="0.3" d="M95.56,-115.26C99.16,-106.65 103.3,-96.75 107.35,-87.08" />
<polygon fill="#444443" stroke="#444443" stroke-width="0.3" points="108.7,-87.47 108.96,-83.24 106.12,-86.39 108.7,-87.47" />
<text text-anchor="start" x="106" y="-94.8" font-family="Times New Roman,serif" font-size="14.00">&gt;</text>
</g>


<g id="node4" class="node">
<title>legend</title>
<polygon fill="none" stroke="black" stroke-width="0" points="328.5,-169 177.5,-169 177.5,-114 328.5,-114 328.5,-169" />
<svg width="147px" height="51px" viewBox="0 0 196.351562 68.348437" version="1.1" preserveAspectRatio="xMinYMin meet" x="180" y="-166.5">
 <metadata>
  <rdf:RDF>
   <ns2:Work>
    <dc:type rdf:resource="http://purl.org/dc/dcmitype/StillImage" />
    <dc:date>2022-01-14T20:52:41.309269</dc:date>
    <dc:format>image/svg+xml</dc:format>
    <dc:creator>
     <ns2:Agent>
      <dc:title>Matplotlib v3.5.1, https://matplotlib.org/</dc:title>
     </ns2:Agent>
    </dc:creator>
   </ns2:Work>
  </rdf:RDF>
 </metadata>
 <defs>
  <style type="text/css">*{stroke-linejoin: round; stroke-linecap: butt}</style>
 </defs>
 <g id="figure_1">
  <g id="patch_1">
   <path d="M 0 68.348437  L 196.351562 68.348437  L 196.351562 0  L 0 0  z " style="fill: #ffffff" />
  </g>
  <g id="axes_1">
   <g id="legend_1">
    <g id="patch_2">
     <path d="M 2 68.348437  L 194.351562 68.348437  Q 196.351562 68.348437 196.351562 66.348437  L 196.351562 2  Q 196.351562 -0 194.351562 -0  L 2 -0  Q 0 -0 0 2  L 0 66.348437  Q 0 68.348437 2 68.348437  z " style="fill: #ffffff; opacity: 0.8; stroke: #444443; stroke-width: 0.5; stroke-linejoin: miter" />
    </g>
    <g id="text_1">
     
     <g style="fill: #444443" transform="translate(8 15.598437)scale(0.1 -0.1)">
      <defs>
       <path id="DejaVuSans-Bold-4d" d="M 588 4666  L 2119 4666  L 3181 2169  L 4250 4666  L 5778 4666  L 5778 0  L 4641 0  L 4641 3413  L 3566 897  L 2803 897  L 1728 3413  L 1728 0  L 588 0  L 588 4666  z " transform="scale(0.015625)" />
       <path id="DejaVuSans-Bold-6f" d="M 2203 2784  Q 1831 2784 1636 2517  Q 1441 2250 1441 1747  Q 1441 1244 1636 976  Q 1831 709 2203 709  Q 2569 709 2762 976  Q 2956 1244 2956 1747  Q 2956 2250 2762 2517  Q 2569 2784 2203 2784  z M 2203 3584  Q 3106 3584 3614 3096  Q 4122 2609 4122 1747  Q 4122 884 3614 396  Q 3106 -91 2203 -91  Q 1297 -91 786 396  Q 275 884 275 1747  Q 275 2609 786 3096  Q 1297 3584 2203 3584  z " transform="scale(0.015625)" />
       <path id="DejaVuSans-Bold-75" d="M 500 1363  L 500 3500  L 1625 3500  L 1625 3150  Q 1625 2866 1622 2436  Q 1619 2006 1619 1863  Q 1619 1441 1641 1255  Q 1663 1069 1716 984  Q 1784 875 1895 815  Q 2006 756 2150 756  Q 2500 756 2700 1025  Q 2900 1294 2900 1772  L 2900 3500  L 4019 3500  L 4019 0  L 2900 0  L 2900 506  Q 2647 200 2364 54  Q 2081 -91 1741 -91  Q 1134 -91 817 281  Q 500 653 500 1363  z " transform="scale(0.015625)" />
       <path id="DejaVuSans-Bold-6e" d="M 4056 2131  L 4056 0  L 2931 0  L 2931 347  L 2931 1631  Q 2931 2084 2911 2256  Q 2891 2428 2841 2509  Q 2775 2619 2662 2680  Q 2550 2741 2406 2741  Q 2056 2741 1856 2470  Q 1656 2200 1656 1722  L 1656 0  L 538 0  L 538 3500  L 1656 3500  L 1656 2988  Q 1909 3294 2193 3439  Q 2478 3584 2822 3584  Q 3428 3584 3742 3212  Q 4056 2841 4056 2131  z " transform="scale(0.015625)" />
       <path id="DejaVuSans-Bold-74" d="M 1759 4494  L 1759 3500  L 2913 3500  L 2913 2700  L 1759 2700  L 1759 1216  Q 1759 972 1856 886  Q 1953 800 2241 800  L 2816 800  L 2816 0  L 1856 0  Q 1194 0 917 276  Q 641 553 641 1216  L 641 2700  L 84 2700  L 84 3500  L 641 3500  L 641 4494  L 1759 4494  z " transform="scale(0.015625)" />
       <path id="DejaVuSans-Bold-61" d="M 2106 1575  Q 1756 1575 1579 1456  Q 1403 1338 1403 1106  Q 1403 894 1545 773  Q 1688 653 1941 653  Q 2256 653 2472 879  Q 2688 1106 2688 1447  L 2688 1575  L 2106 1575  z M 3816 1997  L 3816 0  L 2688 0  L 2688 519  Q 2463 200 2181 54  Q 1900 -91 1497 -91  Q 953 -91 614 226  Q 275 544 275 1050  Q 275 1666 698 1953  Q 1122 2241 2028 2241  L 2688 2241  L 2688 2328  Q 2688 2594 2478 2717  Q 2269 2841 1825 2841  Q 1466 2841 1156 2769  Q 847 2697 581 2553  L 581 3406  Q 941 3494 1303 3539  Q 1666 3584 2028 3584  Q 2975 3584 3395 3211  Q 3816 2838 3816 1997  z " transform="scale(0.015625)" />
       <path id="DejaVuSans-Bold-69" d="M 538 3500  L 1656 3500  L 1656 0  L 538 0  L 538 3500  z M 538 4863  L 1656 4863  L 1656 3950  L 538 3950  L 538 4863  z " transform="scale(0.015625)" />
       <path id="DejaVuSans-Bold-43" d="M 4288 256  Q 3956 84 3597 -3  Q 3238 -91 2847 -91  Q 1681 -91 1000 561  Q 319 1213 319 2328  Q 319 3447 1000 4098  Q 1681 4750 2847 4750  Q 3238 4750 3597 4662  Q 3956 4575 4288 4403  L 4288 3438  Q 3953 3666 3628 3772  Q 3303 3878 2944 3878  Q 2300 3878 1931 3465  Q 1563 3053 1563 2328  Q 1563 1606 1931 1193  Q 2300 781 2944 781  Q 3303 781 3628 887  Q 3953 994 4288 1222  L 4288 256  z " transform="scale(0.015625)" />
       <path id="DejaVuSans-Bold-72" d="M 3138 2547  Q 2991 2616 2845 2648  Q 2700 2681 2553 2681  Q 2122 2681 1889 2404  Q 1656 2128 1656 1613  L 1656 0  L 538 0  L 538 3500  L 1656 3500  L 1656 2925  Q 1872 3269 2151 3426  Q 2431 3584 2822 3584  Q 2878 3584 2943 3579  Q 3009 3575 3134 3559  L 3138 2547  z " transform="scale(0.015625)" />
       <path id="DejaVuSans-Bold-2d" d="M 347 2297  L 2309 2297  L 2309 1388  L 347 1388  L 347 2297  z " transform="scale(0.015625)" />
       <path id="DejaVuSans-Bold-76" d="M 97 3500  L 1216 3500  L 2088 1081  L 2956 3500  L 4078 3500  L 2700 0  L 1472 0  L 97 3500  z " transform="scale(0.015625)" />
       <path id="DejaVuSans-Bold-30" d="M 2944 2338  Q 2944 3213 2780 3570  Q 2616 3928 2228 3928  Q 1841 3928 1675 3570  Q 1509 3213 1509 2338  Q 1509 1453 1675 1090  Q 1841 728 2228 728  Q 2613 728 2778 1090  Q 2944 1453 2944 2338  z M 4147 2328  Q 4147 1169 3647 539  Q 3147 -91 2228 -91  Q 1306 -91 806 539  Q 306 1169 306 2328  Q 306 3491 806 4120  Q 1306 4750 2228 4750  Q 3147 4750 3647 4120  Q 4147 3491 4147 2328  z " transform="scale(0.015625)" />
       <path id="DejaVuSans-Bold-3a" d="M 716 3500  L 1844 3500  L 1844 2291  L 716 2291  L 716 3500  z M 716 1209  L 1844 1209  L 1844 0  L 716 0  L 716 1209  z " transform="scale(0.015625)" />
       <path id="DejaVuSans-Bold-20" transform="scale(0.015625)" />
       <path id="DejaVuSans-Bold-31" d="M 750 831  L 1813 831  L 1813 3847  L 722 3622  L 722 4441  L 1806 4666  L 2950 4666  L 2950 831  L 4013 831  L 4013 0  L 750 0  L 750 831  z " transform="scale(0.015625)" />
       <path id="DejaVuSans-Bold-32" d="M 1844 884  L 3897 884  L 3897 0  L 506 0  L 506 884  L 2209 2388  Q 2438 2594 2547 2791  Q 2656 2988 2656 3200  Q 2656 3528 2436 3728  Q 2216 3928 1850 3928  Q 1569 3928 1234 3808  Q 900 3688 519 3450  L 519 4475  Q 925 4609 1322 4679  Q 1719 4750 2100 4750  Q 2938 4750 3402 4381  Q 3866 4013 3866 3353  Q 3866 2972 3669 2642  Q 3472 2313 2841 1759  L 1844 884  z " transform="scale(0.015625)" />
       <path id="DejaVuSans-Bold-2e" d="M 653 1209  L 1778 1209  L 1778 0  L 653 0  L 653 1209  z " transform="scale(0.015625)" />
       <path id="DejaVuSans-Bold-35" d="M 678 4666  L 3669 4666  L 3669 3781  L 1638 3781  L 1638 3059  Q 1775 3097 1914 3117  Q 2053 3138 2203 3138  Q 3056 3138 3531 2711  Q 4006 2284 4006 1522  Q 4006 766 3489 337  Q 2972 -91 2053 -91  Q 1656 -91 1267 -14  Q 878 63 494 219  L 494 1166  Q 875 947 1217 837  Q 1559 728 1863 728  Q 2300 728 2551 942  Q 2803 1156 2803 1522  Q 2803 1891 2551 2103  Q 2300 2316 1863 2316  Q 1603 2316 1309 2248  Q 1016 2181 678 2041  L 678 4666  z " transform="scale(0.015625)" />
       <path id="DejaVuSans-Bold-26" d="M 2497 3097  L 3775 1691  Q 3941 1909 4027 2181  Q 4113 2453 4128 2797  L 5100 2797  Q 5053 2228 4879 1784  Q 4706 1341 4397 1006  L 5313 0  L 3988 0  L 3681 341  Q 3353 122 2990 15  Q 2628 -91 2222 -91  Q 1400 -91 892 342  Q 384 775 384 1459  Q 384 1916 607 2267  Q 831 2619 1338 2950  Q 1206 3116 1143 3281  Q 1081 3447 1081 3628  Q 1081 4138 1478 4444  Q 1875 4750 2534 4750  Q 2819 4750 3126 4704  Q 3434 4659 3769 4569  L 3769 3700  Q 3475 3850 3212 3922  Q 2950 3994 2700 3994  Q 2459 3994 2326 3901  Q 2194 3809 2194 3641  Q 2194 3534 2270 3398  Q 2347 3263 2497 3097  z M 1875 2322  Q 1672 2175 1569 1989  Q 1466 1803 1466 1581  Q 1466 1222 1731 969  Q 1997 716 2369 716  Q 2578 716 2759 780  Q 2941 844 3097 972  L 1875 2322  z " transform="scale(0.015625)" />
       <path id="DejaVuSans-Bold-38" d="M 2228 2088  Q 1891 2088 1709 1903  Q 1528 1719 1528 1375  Q 1528 1031 1709 848  Q 1891 666 2228 666  Q 2563 666 2741 848  Q 2919 1031 2919 1375  Q 2919 1722 2741 1905  Q 2563 2088 2228 2088  z M 1350 2484  Q 925 2613 709 2878  Q 494 3144 494 3541  Q 494 4131 934 4440  Q 1375 4750 2228 4750  Q 3075 4750 3515 4442  Q 3956 4134 3956 3541  Q 3956 3144 3739 2878  Q 3522 2613 3097 2484  Q 3572 2353 3814 2058  Q 4056 1763 4056 1313  Q 4056 619 3595 264  Q 3134 -91 2228 -91  Q 1319 -91 855 264  Q 391 619 391 1313  Q 391 1763 633 2058  Q 875 2353 1350 2484  z M 1631 3419  Q 1631 3141 1786 2991  Q 1941 2841 2228 2841  Q 2509 2841 2662 2991  Q 2816 3141 2816 3419  Q 2816 3697 2662 3845  Q 2509 3994 2228 3994  Q 1941 3994 1786 3844  Q 1631 3694 1631 3419  z " transform="scale(0.015625)" />
      </defs>
      <use xlink:href="#DejaVuSans-Bold-4d" />
      <use xlink:href="#DejaVuSans-Bold-6f" x="99.511719" />
      <use xlink:href="#DejaVuSans-Bold-75" x="168.212891" />
      <use xlink:href="#DejaVuSans-Bold-6e" x="239.404297" />
      <use xlink:href="#DejaVuSans-Bold-74" x="310.595703" />
      <use xlink:href="#DejaVuSans-Bold-61" x="358.398438" />
      <use xlink:href="#DejaVuSans-Bold-69" x="425.878906" />
      <use xlink:href="#DejaVuSans-Bold-6e" x="460.15625" />
      <use xlink:href="#DejaVuSans-Bold-43" x="531.347656" />
      <use xlink:href="#DejaVuSans-Bold-61" x="604.736328" />
      <use xlink:href="#DejaVuSans-Bold-72" x="672.216797" />
      <use xlink:href="#DejaVuSans-Bold-2d" x="721.533203" />
      <use xlink:href="#DejaVuSans-Bold-76" x="763.037109" />
      <use xlink:href="#DejaVuSans-Bold-30" x="828.222656" />
      <use xlink:href="#DejaVuSans-Bold-3a" x="897.802734" />
      <use xlink:href="#DejaVuSans-Bold-20" x="937.792969" />
      <use xlink:href="#DejaVuSans-Bold-2d" x="972.607422" />
      <use xlink:href="#DejaVuSans-Bold-31" x="1014.111328" />
      <use xlink:href="#DejaVuSans-Bold-32" x="1083.691406" />
      <use xlink:href="#DejaVuSans-Bold-31" x="1153.271484" />
      <use xlink:href="#DejaVuSans-Bold-2e" x="1222.851562" />
      <use xlink:href="#DejaVuSans-Bold-35" x="1260.839844" />
      <use xlink:href="#DejaVuSans-Bold-31" x="1330.419922" />
      <use xlink:href="#DejaVuSans-Bold-20" x="1400" />
      <use xlink:href="#DejaVuSans-Bold-26" x="1434.814453" />
      <use xlink:href="#DejaVuSans-Bold-20" x="1522.021484" />
      <use xlink:href="#DejaVuSans-Bold-35" x="1556.835938" />
      <use xlink:href="#DejaVuSans-Bold-2e" x="1626.416016" />
      <use xlink:href="#DejaVuSans-Bold-38" x="1664.404297" />
      <use xlink:href="#DejaVuSans-Bold-32" x="1733.984375" />
     </g>
    </g>
    <g id="patch_3">
     <path d="M 62.242969 29.835937  L 82.242969 29.835937  L 82.242969 22.835937  L 62.242969 22.835937  z " style="fill: #fefebb; stroke: #444443; stroke-width: 0.4; stroke-linejoin: miter" />
    </g>
    <g id="text_2">
     
     <g style="fill: #444443" transform="translate(85.742969 29.835937)scale(0.1 -0.1)">
      <defs>
       <path id="ArialMT-4c" d="M 469 0  L 469 4581  L 1075 4581  L 1075 541  L 3331 541  L 3331 0  L 469 0  z " transform="scale(0.015625)" />
       <path id="ArialMT-65" d="M 2694 1069  L 3275 997  Q 3138 488 2766 206  Q 2394 -75 1816 -75  Q 1088 -75 661 373  Q 234 822 234 1631  Q 234 2469 665 2931  Q 1097 3394 1784 3394  Q 2450 3394 2872 2941  Q 3294 2488 3294 1666  Q 3294 1616 3291 1516  L 816 1516  Q 847 969 1125 678  Q 1403 388 1819 388  Q 2128 388 2347 550  Q 2566 713 2694 1069  z M 847 1978  L 2700 1978  Q 2663 2397 2488 2606  Q 2219 2931 1791 2931  Q 1403 2931 1139 2672  Q 875 2413 847 1978  z " transform="scale(0.015625)" />
       <path id="ArialMT-66" d="M 556 0  L 556 2881  L 59 2881  L 59 3319  L 556 3319  L 556 3672  Q 556 4006 616 4169  Q 697 4388 901 4523  Q 1106 4659 1475 4659  Q 1713 4659 2000 4603  L 1916 4113  Q 1741 4144 1584 4144  Q 1328 4144 1222 4034  Q 1116 3925 1116 3625  L 1116 3319  L 1763 3319  L 1763 2881  L 1116 2881  L 1116 0  L 556 0  z " transform="scale(0.015625)" />
       <path id="ArialMT-74" d="M 1650 503  L 1731 6  Q 1494 -44 1306 -44  Q 1000 -44 831 53  Q 663 150 594 308  Q 525 466 525 972  L 525 2881  L 113 2881  L 113 3319  L 525 3319  L 525 4141  L 1084 4478  L 1084 3319  L 1650 3319  L 1650 2881  L 1084 2881  L 1084 941  Q 1084 700 1114 631  Q 1144 563 1211 522  Q 1278 481 1403 481  Q 1497 481 1650 503  z " transform="scale(0.015625)" />
       <path id="ArialMT-2b" d="M 1603 741  L 1603 1997  L 356 1997  L 356 2522  L 1603 2522  L 1603 3769  L 2134 3769  L 2134 2522  L 3381 2522  L 3381 1997  L 2134 1997  L 2134 741  L 1603 741  z " transform="scale(0.015625)" />
      </defs>
      <use xlink:href="#ArialMT-4c" />
      <use xlink:href="#ArialMT-65" x="55.615234" />
      <use xlink:href="#ArialMT-66" x="111.230469" />
      <use xlink:href="#ArialMT-74" x="139.013672" />
      <use xlink:href="#ArialMT-2b" x="166.796875" />
      <use xlink:href="#ArialMT-2b" x="225.195312" />
     </g>
    </g>
    <g id="patch_4">
     <path d="M 62.242969 43.98125  L 82.242969 43.98125  L 82.242969 36.98125  L 62.242969 36.98125  z " style="fill: #d9e6f5; stroke: #444443; stroke-width: 0.4; stroke-linejoin: miter" />
    </g>
    <g id="text_3">
     
     <g style="fill: #444443" transform="translate(85.742969 43.98125)scale(0.1 -0.1)">
      <defs>
       <path id="ArialMT-44" d="M 494 0  L 494 4581  L 2072 4581  Q 2606 4581 2888 4516  Q 3281 4425 3559 4188  Q 3922 3881 4101 3404  Q 4281 2928 4281 2316  Q 4281 1794 4159 1391  Q 4038 988 3847 723  Q 3656 459 3429 307  Q 3203 156 2883 78  Q 2563 0 2147 0  L 494 0  z M 1100 541  L 2078 541  Q 2531 541 2789 625  Q 3047 709 3200 863  Q 3416 1078 3536 1442  Q 3656 1806 3656 2325  Q 3656 3044 3420 3430  Q 3184 3816 2847 3947  Q 2603 4041 2063 4041  L 1100 4041  L 1100 541  z " transform="scale(0.015625)" />
       <path id="ArialMT-6f" d="M 213 1659  Q 213 2581 725 3025  Q 1153 3394 1769 3394  Q 2453 3394 2887 2945  Q 3322 2497 3322 1706  Q 3322 1066 3130 698  Q 2938 331 2570 128  Q 2203 -75 1769 -75  Q 1072 -75 642 372  Q 213 819 213 1659  z M 791 1659  Q 791 1022 1069 705  Q 1347 388 1769 388  Q 2188 388 2466 706  Q 2744 1025 2744 1678  Q 2744 2294 2464 2611  Q 2184 2928 1769 2928  Q 1347 2928 1069 2612  Q 791 2297 791 1659  z " transform="scale(0.015625)" />
       <path id="ArialMT-20" transform="scale(0.015625)" />
       <path id="ArialMT-6e" d="M 422 0  L 422 3319  L 928 3319  L 928 2847  Q 1294 3394 1984 3394  Q 2284 3394 2536 3286  Q 2788 3178 2913 3003  Q 3038 2828 3088 2588  Q 3119 2431 3119 2041  L 3119 0  L 2556 0  L 2556 2019  Q 2556 2363 2490 2533  Q 2425 2703 2258 2804  Q 2091 2906 1866 2906  Q 1506 2906 1245 2678  Q 984 2450 984 1813  L 984 0  L 422 0  z " transform="scale(0.015625)" />
       <path id="ArialMT-68" d="M 422 0  L 422 4581  L 984 4581  L 984 2938  Q 1378 3394 1978 3394  Q 2347 3394 2619 3248  Q 2891 3103 3008 2847  Q 3125 2591 3125 2103  L 3125 0  L 2563 0  L 2563 2103  Q 2563 2525 2380 2717  Q 2197 2909 1863 2909  Q 1613 2909 1392 2779  Q 1172 2650 1078 2428  Q 984 2206 984 1816  L 984 0  L 422 0  z " transform="scale(0.015625)" />
       <path id="ArialMT-69" d="M 425 3934  L 425 4581  L 988 4581  L 988 3934  L 425 3934  z M 425 0  L 425 3319  L 988 3319  L 988 0  L 425 0  z " transform="scale(0.015625)" />
       <path id="ArialMT-67" d="M 319 -275  L 866 -356  Q 900 -609 1056 -725  Q 1266 -881 1628 -881  Q 2019 -881 2231 -725  Q 2444 -569 2519 -288  Q 2563 -116 2559 434  Q 2191 0 1641 0  Q 956 0 581 494  Q 206 988 206 1678  Q 206 2153 378 2554  Q 550 2956 876 3175  Q 1203 3394 1644 3394  Q 2231 3394 2613 2919  L 2613 3319  L 3131 3319  L 3131 450  Q 3131 -325 2973 -648  Q 2816 -972 2473 -1159  Q 2131 -1347 1631 -1347  Q 1038 -1347 672 -1080  Q 306 -813 319 -275  z M 784 1719  Q 784 1066 1043 766  Q 1303 466 1694 466  Q 2081 466 2343 764  Q 2606 1063 2606 1700  Q 2606 2309 2336 2618  Q 2066 2928 1684 2928  Q 1309 2928 1046 2623  Q 784 2319 784 1719  z " transform="scale(0.015625)" />
      </defs>
      <use xlink:href="#ArialMT-44" />
      <use xlink:href="#ArialMT-6f" x="72.216797" />
      <use xlink:href="#ArialMT-20" x="127.832031" />
      <use xlink:href="#ArialMT-6e" x="155.615234" />
      <use xlink:href="#ArialMT-6f" x="211.230469" />
      <use xlink:href="#ArialMT-74" x="266.845703" />
      <use xlink:href="#ArialMT-68" x="294.628906" />
      <use xlink:href="#ArialMT-69" x="350.244141" />
      <use xlink:href="#ArialMT-6e" x="372.460938" />
      <use xlink:href="#ArialMT-67" x="428.076172" />
     </g>
    </g>
    <g id="patch_5">
     <path d="M 62.242969 58.24375  L 82.242969 58.24375  L 82.242969 51.24375  L 62.242969 51.24375  z " style="fill: #a1dab4; stroke: #444443; stroke-width: 0.4; stroke-linejoin: miter" />
    </g>
    <g id="text_4">
     
     <g style="fill: #444443" transform="translate(85.742969 58.24375)scale(0.1 -0.1)">
      <defs>
       <path id="ArialMT-52" d="M 503 0  L 503 4581  L 2534 4581  Q 3147 4581 3465 4457  Q 3784 4334 3975 4021  Q 4166 3709 4166 3331  Q 4166 2844 3850 2509  Q 3534 2175 2875 2084  Q 3116 1969 3241 1856  Q 3506 1613 3744 1247  L 4541 0  L 3778 0  L 3172 953  Q 2906 1366 2734 1584  Q 2563 1803 2427 1890  Q 2291 1978 2150 2013  Q 2047 2034 1813 2034  L 1109 2034  L 1109 0  L 503 0  z M 1109 2559  L 2413 2559  Q 2828 2559 3062 2645  Q 3297 2731 3419 2920  Q 3541 3109 3541 3331  Q 3541 3656 3305 3865  Q 3069 4075 2559 4075  L 1109 4075  L 1109 2559  z " transform="scale(0.015625)" />
      </defs>
      <use xlink:href="#ArialMT-52" />
      <use xlink:href="#ArialMT-69" x="72.216797" />
      <use xlink:href="#ArialMT-67" x="94.433594" />
      <use xlink:href="#ArialMT-68" x="150.048828" />
      <use xlink:href="#ArialMT-74" x="205.664062" />
      <use xlink:href="#ArialMT-2b" x="233.447266" />
      <use xlink:href="#ArialMT-2b" x="291.845703" />
     </g>
    </g>
   </g>
  </g>
 </g>
</svg></g>
</g>
</svg>