<svg xmlns="http://www.w3.org/2000/svg" xmlns:dc="http://purl.org/dc/elements/1.1/" xmlns:ns2="http://creativecommons.org/ns#" xmlns:rdf="http://www.w3.org/1999/02/22-rdf-syntax-ns#" xmlns:xlink="http://www.w3.org/1999/xlink" width="317.0" height="170.0" viewBox="0.0 0.0 317.0 170.0">
<g id="graph0" class="graph" transform="scale(1.0 1.0) rotate(0) translate(4 166)">
<title>G</title>
<polygon fill="white" stroke="transparent" points="-4,4 -4,-166 313,-166 313,4 -4,4" />
<g id="clust2" class="cluster">
<title>cluster_legend</title>
</g>

<g id="node1" class="node">
<title>node0</title>
<svg width="156px" height="44px" viewBox="0 0 207.947062 59.15625" version="1.1" preserveAspectRatio="xMinYMin meet" x="4" y="-148.5">
 <metadata>
  <rdf:RDF>
   <ns2:Work>
    <dc:type rdf:resource="http://purl.org/dc/dcmitype/StillImage" />
    <dc:date>2022-01-14T16:26:09.397375</dc:date>
    <dc:format>image/svg+xml</dc:format>
    <dc:creator>
     <ns2:Agent>
      <dc:title>Matplotlib v3.5.1, https://matplotlib.org/</dc:title>
     </ns2:Agent>
    </dc:creator>
   </ns2:Work>
  </rdf:RDF>
 </metadata>
 <defs>
  <style type="text/css">*{stroke-linejoin: round; stroke-linecap: butt}</style>
 </defs>
 <g id="figure_1">
  <g id="patch_1">
   <path d="M 0 59.15625  L 207.947062 59.15625  L 207.947062 0  L 0 0  z " style="fill: #ffffff" />
  </g>
  <g id="axes_1">
   <g id="patch_2">
    <path d="M 17.18 29.439375  L 201.32 29.439375  L 201.32 1.719375  L 17.18 1.719375  z " style="fill: #ffffff" />
   </g>
   <g id="patch_3">
    <path d="M 17.18 29.439375  L 27.727989 29.439375  L 27.727989 29.439375  L 17.18 29.439375  z " clip-path="url(#p23612cdc10)" style="fill: #fefebb; stroke: #444443; stroke-width: 0.5; stroke-linejoin: miter" />
   </g>
   <g id="patch_4">
    <path d="M 27.727989 29.439375  L 38.275978 29.439375  L 38.275978 29.439375  L 27.727989 29.439375  z " clip-path="url(#p23612cdc10)" style="fill: #fefebb; stroke: #444443; stroke-width: 0.5; stroke-linejoin: miter" />
   </g>
   <g id="patch_5">
    <path d="M 38.275978 29.439375  L 48.823967 29.439375  L 48.823967 29.439375  L 38.275978 29.439375  z " clip-path="url(#p23612cdc10)" style="fill: #fefebb; stroke: #444443; stroke-width: 0.5; stroke-linejoin: miter" />
   </g>
   <g id="patch_6">
    <path d="M 48.823967 29.439375  L 59.371956 29.439375  L 59.371956 29.439375  L 48.823967 29.439375  z " clip-path="url(#p23612cdc10)" style="fill: #fefebb; stroke: #444443; stroke-width: 0.5; stroke-linejoin: miter" />
   </g>
   <g id="patch_7">
    <path d="M 59.371956 29.439375  L 69.919945 29.439375  L 69.919945 29.439375  L 59.371956 29.439375  z " clip-path="url(#p23612cdc10)" style="fill: #fefebb; stroke: #444443; stroke-width: 0.5; stroke-linejoin: miter" />
   </g>
   <g id="patch_8">
    <path d="M 69.919945 29.439375  L 80.467934 29.439375  L 80.467934 29.439375  L 69.919945 29.439375  z " clip-path="url(#p23612cdc10)" style="fill: #fefebb; stroke: #444443; stroke-width: 0.5; stroke-linejoin: miter" />
   </g>
   <g id="patch_9">
    <path d="M 80.467934 29.439375  L 91.015923 29.439375  L 91.015923 24.639375  L 80.467934 24.639375  z " clip-path="url(#p23612cdc10)" style="fill: #fefebb; stroke: #444443; stroke-width: 0.5; stroke-linejoin: miter" />
   </g>
   <g id="patch_10">
    <path d="M 91.015923 29.439375  L 101.563912 29.439375  L 101.563912 22.239375  L 91.015923 22.239375  z " clip-path="url(#p23612cdc10)" style="fill: #fefebb; stroke: #444443; stroke-width: 0.5; stroke-linejoin: miter" />
   </g>
   <g id="patch_11">
    <path d="M 101.563912 29.439375  L 112.111901 29.439375  L 112.111901 22.239375  L 101.563912 22.239375  z " clip-path="url(#p23612cdc10)" style="fill: #fefebb; stroke: #444443; stroke-width: 0.5; stroke-linejoin: miter" />
   </g>
   <g id="patch_12">
    <path d="M 112.111901 29.439375  L 122.65989 29.439375  L 122.65989 7.839375  L 112.111901 7.839375  z " clip-path="url(#p23612cdc10)" style="fill: #fefebb; stroke: #444443; stroke-width: 0.5; stroke-linejoin: miter" />
   </g>
   <g id="patch_13">
    <path d="M 122.65989 29.439375  L 133.207879 29.439375  L 133.207879 17.439375  L 122.65989 17.439375  z " clip-path="url(#p23612cdc10)" style="fill: #fefebb; stroke: #444443; stroke-width: 0.5; stroke-linejoin: miter" />
   </g>
   <g id="patch_14">
    <path d="M 133.207879 29.439375  L 143.755868 29.439375  L 143.755868 19.839375  L 133.207879 19.839375  z " clip-path="url(#p23612cdc10)" style="fill: #fefebb; stroke: #444443; stroke-width: 0.5; stroke-linejoin: miter" />
   </g>
   <g id="patch_15">
    <path d="M 143.755868 29.439375  L 154.303857 29.439375  L 154.303857 17.439375  L 143.755868 17.439375  z " clip-path="url(#p23612cdc10)" style="fill: #fefebb; stroke: #444443; stroke-width: 0.5; stroke-linejoin: miter" />
   </g>
   <g id="patch_16">
    <path d="M 154.303857 29.439375  L 164.851845 29.439375  L 164.851845 22.239375  L 154.303857 22.239375  z " clip-path="url(#p23612cdc10)" style="fill: #fefebb; stroke: #444443; stroke-width: 0.5; stroke-linejoin: miter" />
   </g>
   <g id="patch_17">
    <path d="M 164.851845 29.439375  L 175.399834 29.439375  L 175.399834 19.839375  L 164.851845 19.839375  z " clip-path="url(#p23612cdc10)" style="fill: #fefebb; stroke: #444443; stroke-width: 0.5; stroke-linejoin: miter" />
   </g>
   <g id="patch_18">
    <path d="M 175.399834 29.439375  L 185.947823 29.439375  L 185.947823 24.639375  L 175.399834 24.639375  z " clip-path="url(#p23612cdc10)" style="fill: #fefebb; stroke: #444443; stroke-width: 0.5; stroke-linejoin: miter" />
   </g>
   <g id="patch_19">
    <path d="M 185.947823 29.439375  L 196.495812 29.439375  L 196.495812 24.639375  L 185.947823 24.639375  z " clip-path="url(#p23612cdc10)" style="fill: #fefebb; stroke: #444443; stroke-width: 0.5; stroke-linejoin: miter" />
   </g>
   <g id="patch_20">
    <path d="M 17.18 29.439375  L 27.727989 29.439375  L 27.727989 29.439375  L 17.18 29.439375  z " clip-path="url(#p23612cdc10)" style="fill: #d9e6f5; stroke: #444443; stroke-width: 0.5; stroke-linejoin: miter" />
   </g>
   <g id="patch_21">
    <path d="M 27.727989 29.439375  L 38.275978 29.439375  L 38.275978 27.039375  L 27.727989 27.039375  z " clip-path="url(#p23612cdc10)" style="fill: #d9e6f5; stroke: #444443; stroke-width: 0.5; stroke-linejoin: miter" />
   </g>
   <g id="patch_22">
    <path d="M 38.275978 29.439375  L 48.823967 29.439375  L 48.823967 29.439375  L 38.275978 29.439375  z " clip-path="url(#p23612cdc10)" style="fill: #d9e6f5; stroke: #444443; stroke-width: 0.5; stroke-linejoin: miter" />
   </g>
   <g id="patch_23">
    <path d="M 48.823967 29.439375  L 59.371956 29.439375  L 59.371956 24.639375  L 48.823967 24.639375  z " clip-path="url(#p23612cdc10)" style="fill: #d9e6f5; stroke: #444443; stroke-width: 0.5; stroke-linejoin: miter" />
   </g>
   <g id="patch_24">
    <path d="M 59.371956 29.439375  L 69.919945 29.439375  L 69.919945 27.039375  L 59.371956 27.039375  z " clip-path="url(#p23612cdc10)" style="fill: #d9e6f5; stroke: #444443; stroke-width: 0.5; stroke-linejoin: miter" />
   </g>
   <g id="patch_25">
    <path d="M 69.919945 29.439375  L 80.467934 29.439375  L 80.467934 24.639375  L 69.919945 24.639375  z " clip-path="url(#p23612cdc10)" style="fill: #d9e6f5; stroke: #444443; stroke-width: 0.5; stroke-linejoin: miter" />
   </g>
   <g id="patch_26">
    <path d="M 80.467934 24.639375  L 91.015923 24.639375  L 91.015923 22.239375  L 80.467934 22.239375  z " clip-path="url(#p23612cdc10)" style="fill: #d9e6f5; stroke: #444443; stroke-width: 0.5; stroke-linejoin: miter" />
   </g>
   <g id="patch_27">
    <path d="M 91.015923 22.239375  L 101.563912 22.239375  L 101.563912 17.439375  L 91.015923 17.439375  z " clip-path="url(#p23612cdc10)" style="fill: #d9e6f5; stroke: #444443; stroke-width: 0.5; stroke-linejoin: miter" />
   </g>
   <g id="patch_28">
    <path d="M 101.563912 22.239375  L 112.111901 22.239375  L 112.111901 22.239375  L 101.563912 22.239375  z " clip-path="url(#p23612cdc10)" style="fill: #d9e6f5; stroke: #444443; stroke-width: 0.5; stroke-linejoin: miter" />
   </g>
   <g id="patch_29">
    <path d="M 112.111901 7.839375  L 122.65989 7.839375  L 122.65989 5.439375  L 112.111901 5.439375  z " clip-path="url(#p23612cdc10)" style="fill: #d9e6f5; stroke: #444443; stroke-width: 0.5; stroke-linejoin: miter" />
   </g>
   <g id="patch_30">
    <path d="M 122.65989 17.439375  L 133.207879 17.439375  L 133.207879 15.039375  L 122.65989 15.039375  z " clip-path="url(#p23612cdc10)" style="fill: #d9e6f5; stroke: #444443; stroke-width: 0.5; stroke-linejoin: miter" />
   </g>
   <g id="patch_31">
    <path d="M 133.207879 19.839375  L 143.755868 19.839375  L 143.755868 19.839375  L 133.207879 19.839375  z " clip-path="url(#p23612cdc10)" style="fill: #d9e6f5; stroke: #444443; stroke-width: 0.5; stroke-linejoin: miter" />
   </g>
   <g id="patch_32">
    <path d="M 143.755868 17.439375  L 154.303857 17.439375  L 154.303857 17.439375  L 143.755868 17.439375  z " clip-path="url(#p23612cdc10)" style="fill: #d9e6f5; stroke: #444443; stroke-width: 0.5; stroke-linejoin: miter" />
   </g>
   <g id="patch_33">
    <path d="M 154.303857 22.239375  L 164.851845 22.239375  L 164.851845 22.239375  L 154.303857 22.239375  z " clip-path="url(#p23612cdc10)" style="fill: #d9e6f5; stroke: #444443; stroke-width: 0.5; stroke-linejoin: miter" />
   </g>
   <g id="patch_34">
    <path d="M 164.851845 19.839375  L 175.399834 19.839375  L 175.399834 19.839375  L 164.851845 19.839375  z " clip-path="url(#p23612cdc10)" style="fill: #d9e6f5; stroke: #444443; stroke-width: 0.5; stroke-linejoin: miter" />
   </g>
   <g id="patch_35">
    <path d="M 175.399834 24.639375  L 185.947823 24.639375  L 185.947823 24.639375  L 175.399834 24.639375  z " clip-path="url(#p23612cdc10)" style="fill: #d9e6f5; stroke: #444443; stroke-width: 0.5; stroke-linejoin: miter" />
   </g>
   <g id="patch_36">
    <path d="M 185.947823 24.639375  L 196.495812 24.639375  L 196.495812 24.639375  L 185.947823 24.639375  z " clip-path="url(#p23612cdc10)" style="fill: #d9e6f5; stroke: #444443; stroke-width: 0.5; stroke-linejoin: miter" />
   </g>
   <g id="patch_37">
    <path d="M 17.18 29.439375  L 27.727989 29.439375  L 27.727989 24.639375  L 17.18 24.639375  z " clip-path="url(#p23612cdc10)" style="fill: #a1dab4; stroke: #444443; stroke-width: 0.5; stroke-linejoin: miter" />
   </g>
   <g id="patch_38">
    <path d="M 27.727989 27.039375  L 38.275978 27.039375  L 38.275978 19.839375  L 27.727989 19.839375  z " clip-path="url(#p23612cdc10)" style="fill: #a1dab4; stroke: #444443; stroke-width: 0.5; stroke-linejoin: miter" />
   </g>
   <g id="patch_39">
    <path d="M 38.275978 29.439375  L 48.823967 29.439375  L 48.823967 22.239375  L 38.275978 22.239375  z " clip-path="url(#p23612cdc10)" style="fill: #a1dab4; stroke: #444443; stroke-width: 0.5; stroke-linejoin: miter" />
   </g>
   <g id="patch_40">
    <path d="M 48.823967 24.639375  L 59.371956 24.639375  L 59.371956 15.039375  L 48.823967 15.039375  z " clip-path="url(#p23612cdc10)" style="fill: #a1dab4; stroke: #444443; stroke-width: 0.5; stroke-linejoin: miter" />
   </g>
   <g id="patch_41">
    <path d="M 59.371956 27.039375  L 69.919945 27.039375  L 69.919945 19.839375  L 59.371956 19.839375  z " clip-path="url(#p23612cdc10)" style="fill: #a1dab4; stroke: #444443; stroke-width: 0.5; stroke-linejoin: miter" />
   </g>
   <g id="patch_42">
    <path d="M 69.919945 24.639375  L 80.467934 24.639375  L 80.467934 17.439375  L 69.919945 17.439375  z " clip-path="url(#p23612cdc10)" style="fill: #a1dab4; stroke: #444443; stroke-width: 0.5; stroke-linejoin: miter" />
   </g>
   <g id="patch_43">
    <path d="M 80.467934 22.239375  L 91.015923 22.239375  L 91.015923 15.039375  L 80.467934 15.039375  z " clip-path="url(#p23612cdc10)" style="fill: #a1dab4; stroke: #444443; stroke-width: 0.5; stroke-linejoin: miter" />
   </g>
   <g id="patch_44">
    <path d="M 91.015923 17.439375  L 101.563912 17.439375  L 101.563912 5.439375  L 91.015923 5.439375  z " clip-path="url(#p23612cdc10)" style="fill: #a1dab4; stroke: #444443; stroke-width: 0.5; stroke-linejoin: miter" />
   </g>
   <g id="patch_45">
    <path d="M 101.563912 22.239375  L 112.111901 22.239375  L 112.111901 19.839375  L 101.563912 19.839375  z " clip-path="url(#p23612cdc10)" style="fill: #a1dab4; stroke: #444443; stroke-width: 0.5; stroke-linejoin: miter" />
   </g>
   <g id="patch_46">
    <path d="M 112.111901 5.439375  L 122.65989 5.439375  L 122.65989 3.039375  L 112.111901 3.039375  z " clip-path="url(#p23612cdc10)" style="fill: #a1dab4; stroke: #444443; stroke-width: 0.5; stroke-linejoin: miter" />
   </g>
   <g id="patch_47">
    <path d="M 122.65989 15.039375  L 133.207879 15.039375  L 133.207879 15.039375  L 122.65989 15.039375  z " clip-path="url(#p23612cdc10)" style="fill: #a1dab4; stroke: #444443; stroke-width: 0.5; stroke-linejoin: miter" />
   </g>
   <g id="patch_48">
    <path d="M 133.207879 19.839375  L 143.755868 19.839375  L 143.755868 19.839375  L 133.207879 19.839375  z " clip-path="url(#p23612cdc10)" style="fill: #a1dab4; stroke: #444443; stroke-width: 0.5; stroke-linejoin: miter" />
   </g>
   <g id="patch_49">
    <path d="M 143.755868 17.439375  L 154.303857 17.439375  L 154.303857 17.439375  L 143.755868 17.439375  z " clip-path="url(#p23612cdc10)" style="fill: #a1dab4; stroke: #444443; stroke-width: 0.5; stroke-linejoin: miter" />
   </g>
   <g id="patch_50">
    <path d="M 154.303857 22.239375  L 164.851845 22.239375  L 164.851845 22.239375  L 154.303857 22.239375  z " clip-path="url(#p23612cdc10)" style="fill: #a1dab4; stroke: #444443; stroke-width: 0.5; stroke-linejoin: miter" />
   </g>
   <g id="patch_51">
    <path d="M 164.851845 19.839375  L 175.399834 19.839375  L 175.399834 19.839375  L 164.851845 19.839375  z " clip-path="url(#p23612cdc10)" style="fill: #a1dab4; stroke: #444443; stroke-width: 0.5; stroke-linejoin: miter" />
   </g>
   <g id="patch_52">
    <path d="M 175.399834 24.639375  L 185.947823 24.639375  L 185.947823 24.639375  L 175.399834 24.639375  z " clip-path="url(#p23612cdc10)" style="fill: #a1dab4; stroke: #444443; stroke-width: 0.5; stroke-linejoin: miter" />
   </g>
   <g id="patch_53">
    <path d="M 185.947823 24.639375  L 196.495812 24.639375  L 196.495812 24.639375  L 185.947823 24.639375  z " clip-path="url(#p23612cdc10)" style="fill: #a1dab4; stroke: #444443; stroke-width: 0.5; stroke-linejoin: miter" />
   </g>
   <g id="patch_54">
    <path d="M 102.431482 30.270975  L 99.116962 37.755375  L 105.746002 37.755375  z " style="fill: #444443" />
   </g>
   <g id="matplotlib.axis_1">
    <g id="xtick_1">
     <g id="line2d_1">
      <defs>
       <path id="m963ffcf2a6" d="M 0 0  L 0 3.5  " style="stroke: #000000; stroke-width: 0.3" />
      </defs>
      <g>
       <use xlink:href="#m963ffcf2a6" x="17.18" y="29.439375" style="stroke: #000000; stroke-width: 0.3" />
      </g>
     </g>
     <g id="text_1">
      
      <g style="fill: #444443" transform="translate(2.376875 42.518125)scale(0.08 -0.08)">
       <defs>
        <path id="DejaVuSans-2212" d="M 678 2272  L 4684 2272  L 4684 1741  L 678 1741  L 678 2272  z " transform="scale(0.015625)" />
        <path id="DejaVuSans-34" d="M 2419 4116  L 825 1625  L 2419 1625  L 2419 4116  z M 2253 4666  L 3047 4666  L 3047 1625  L 3713 1625  L 3713 1100  L 3047 1100  L 3047 0  L 2419 0  L 2419 1100  L 313 1100  L 313 1709  L 2253 4666  z " transform="scale(0.015625)" />
        <path id="DejaVuSans-2e" d="M 684 794  L 1344 794  L 1344 0  L 684 0  L 684 794  z " transform="scale(0.015625)" />
        <path id="DejaVuSans-31" d="M 794 531  L 1825 531  L 1825 4091  L 703 3866  L 703 4441  L 1819 4666  L 2450 4666  L 2450 531  L 3481 531  L 3481 0  L 794 0  L 794 531  z " transform="scale(0.015625)" />
        <path id="DejaVuSans-38" d="M 2034 2216  Q 1584 2216 1326 1975  Q 1069 1734 1069 1313  Q 1069 891 1326 650  Q 1584 409 2034 409  Q 2484 409 2743 651  Q 3003 894 3003 1313  Q 3003 1734 2745 1975  Q 2488 2216 2034 2216  z M 1403 2484  Q 997 2584 770 2862  Q 544 3141 544 3541  Q 544 4100 942 4425  Q 1341 4750 2034 4750  Q 2731 4750 3128 4425  Q 3525 4100 3525 3541  Q 3525 3141 3298 2862  Q 3072 2584 2669 2484  Q 3125 2378 3379 2068  Q 3634 1759 3634 1313  Q 3634 634 3220 271  Q 2806 -91 2034 -91  Q 1263 -91 848 271  Q 434 634 434 1313  Q 434 1759 690 2068  Q 947 2378 1403 2484  z M 1172 3481  Q 1172 3119 1398 2916  Q 1625 2713 2034 2713  Q 2441 2713 2670 2916  Q 2900 3119 2900 3481  Q 2900 3844 2670 4047  Q 2441 4250 2034 4250  Q 1625 4250 1398 4047  Q 1172 3844 1172 3481  z " transform="scale(0.015625)" />
       </defs>
       <use xlink:href="#DejaVuSans-2212" />
       <use xlink:href="#DejaVuSans-34" x="83.789062" />
       <use xlink:href="#DejaVuSans-2e" x="147.412109" />
       <use xlink:href="#DejaVuSans-31" x="179.199219" />
       <use xlink:href="#DejaVuSans-34" x="242.822266" />
       <use xlink:href="#DejaVuSans-38" x="306.445312" />
      </g>
     </g>
    </g>
    <g id="xtick_2">
     <g id="line2d_2">
      <g>
       <use xlink:href="#m963ffcf2a6" x="196.495812" y="29.439375" style="stroke: #000000; stroke-width: 0.3" />
      </g>
     </g>
     <g id="text_2">
      
      <g style="fill: #444443" transform="translate(185.044562 42.518125)scale(0.08 -0.08)">
       <defs>
        <path id="DejaVuSans-33" d="M 2597 2516  Q 3050 2419 3304 2112  Q 3559 1806 3559 1356  Q 3559 666 3084 287  Q 2609 -91 1734 -91  Q 1441 -91 1130 -33  Q 819 25 488 141  L 488 750  Q 750 597 1062 519  Q 1375 441 1716 441  Q 2309 441 2620 675  Q 2931 909 2931 1356  Q 2931 1769 2642 2001  Q 2353 2234 1838 2234  L 1294 2234  L 1294 2753  L 1863 2753  Q 2328 2753 2575 2939  Q 2822 3125 2822 3475  Q 2822 3834 2567 4026  Q 2313 4219 1838 4219  Q 1578 4219 1281 4162  Q 984 4106 628 3988  L 628 4550  Q 988 4650 1302 4700  Q 1616 4750 1894 4750  Q 2613 4750 3031 4423  Q 3450 4097 3450 3541  Q 3450 3153 3228 2886  Q 3006 2619 2597 2516  z " transform="scale(0.015625)" />
        <path id="DejaVuSans-32" d="M 1228 531  L 3431 531  L 3431 0  L 469 0  L 469 531  Q 828 903 1448 1529  Q 2069 2156 2228 2338  Q 2531 2678 2651 2914  Q 2772 3150 2772 3378  Q 2772 3750 2511 3984  Q 2250 4219 1831 4219  Q 1534 4219 1204 4116  Q 875 4013 500 3803  L 500 4441  Q 881 4594 1212 4672  Q 1544 4750 1819 4750  Q 2544 4750 2975 4387  Q 3406 4025 3406 3419  Q 3406 3131 3298 2873  Q 3191 2616 2906 2266  Q 2828 2175 2409 1742  Q 1991 1309 1228 531  z " transform="scale(0.015625)" />
       </defs>
       <use xlink:href="#DejaVuSans-34" />
       <use xlink:href="#DejaVuSans-2e" x="63.623047" />
       <use xlink:href="#DejaVuSans-38" x="95.410156" />
       <use xlink:href="#DejaVuSans-33" x="159.033203" />
       <use xlink:href="#DejaVuSans-32" x="222.65625" />
      </g>
     </g>
    </g>
    <g id="text_3">
     
     <g style="fill: #444443" transform="translate(79.905313 56.77125)scale(0.12 -0.12)">
      <defs>
       <path id="ArialMT-74" d="M 1650 503  L 1731 6  Q 1494 -44 1306 -44  Q 1000 -44 831 53  Q 663 150 594 308  Q 525 466 525 972  L 525 2881  L 113 2881  L 113 3319  L 525 3319  L 525 4141  L 1084 4478  L 1084 3319  L 1650 3319  L 1650 2881  L 1084 2881  L 1084 941  Q 1084 700 1114 631  Q 1144 563 1211 522  Q 1278 481 1403 481  Q 1497 481 1650 503  z " transform="scale(0.015625)" />
       <path id="ArialMT-68" d="M 422 0  L 422 4581  L 984 4581  L 984 2938  Q 1378 3394 1978 3394  Q 2347 3394 2619 3248  Q 2891 3103 3008 2847  Q 3125 2591 3125 2103  L 3125 0  L 2563 0  L 2563 2103  Q 2563 2525 2380 2717  Q 2197 2909 1863 2909  Q 1613 2909 1392 2779  Q 1172 2650 1078 2428  Q 984 2206 984 1816  L 984 0  L 422 0  z " transform="scale(0.015625)" />
       <path id="ArialMT-65" d="M 2694 1069  L 3275 997  Q 3138 488 2766 206  Q 2394 -75 1816 -75  Q 1088 -75 661 373  Q 234 822 234 1631  Q 234 2469 665 2931  Q 1097 3394 1784 3394  Q 2450 3394 2872 2941  Q 3294 2488 3294 1666  Q 3294 1616 3291 1516  L 816 1516  Q 847 969 1125 678  Q 1403 388 1819 388  Q 2128 388 2347 550  Q 2566 713 2694 1069  z M 847 1978  L 2700 1978  Q 2663 2397 2488 2606  Q 2219 2931 1791 2931  Q 1403 2931 1139 2672  Q 875 2413 847 1978  z " transform="scale(0.015625)" />
       <path id="ArialMT-61" d="M 2588 409  Q 2275 144 1986 34  Q 1697 -75 1366 -75  Q 819 -75 525 192  Q 231 459 231 875  Q 231 1119 342 1320  Q 453 1522 633 1644  Q 813 1766 1038 1828  Q 1203 1872 1538 1913  Q 2219 1994 2541 2106  Q 2544 2222 2544 2253  Q 2544 2597 2384 2738  Q 2169 2928 1744 2928  Q 1347 2928 1158 2789  Q 969 2650 878 2297  L 328 2372  Q 403 2725 575 2942  Q 747 3159 1072 3276  Q 1397 3394 1825 3394  Q 2250 3394 2515 3294  Q 2781 3194 2906 3042  Q 3031 2891 3081 2659  Q 3109 2516 3109 2141  L 3109 1391  Q 3109 606 3145 398  Q 3181 191 3288 0  L 2700 0  Q 2613 175 2588 409  z M 2541 1666  Q 2234 1541 1622 1453  Q 1275 1403 1131 1340  Q 988 1278 909 1158  Q 831 1038 831 891  Q 831 666 1001 516  Q 1172 366 1500 366  Q 1825 366 2078 508  Q 2331 650 2450 897  Q 2541 1088 2541 1459  L 2541 1666  z " transform="scale(0.015625)" />
       <path id="ArialMT-44" d="M 494 0  L 494 4581  L 2072 4581  Q 2606 4581 2888 4516  Q 3281 4425 3559 4188  Q 3922 3881 4101 3404  Q 4281 2928 4281 2316  Q 4281 1794 4159 1391  Q 4038 988 3847 723  Q 3656 459 3429 307  Q 3203 156 2883 78  Q 2563 0 2147 0  L 494 0  z M 1100 541  L 2078 541  Q 2531 541 2789 625  Q 3047 709 3200 863  Q 3416 1078 3536 1442  Q 3656 1806 3656 2325  Q 3656 3044 3420 3430  Q 3184 3816 2847 3947  Q 2603 4041 2063 4041  L 1100 4041  L 1100 541  z " transform="scale(0.015625)" />
       <path id="ArialMT-4f" d="M 309 2231  Q 309 3372 921 4017  Q 1534 4663 2503 4663  Q 3138 4663 3647 4359  Q 4156 4056 4423 3514  Q 4691 2972 4691 2284  Q 4691 1588 4409 1038  Q 4128 488 3612 205  Q 3097 -78 2500 -78  Q 1853 -78 1343 234  Q 834 547 571 1087  Q 309 1628 309 2231  z M 934 2222  Q 934 1394 1379 917  Q 1825 441 2497 441  Q 3181 441 3623 922  Q 4066 1403 4066 2288  Q 4066 2847 3877 3264  Q 3688 3681 3323 3911  Q 2959 4141 2506 4141  Q 1863 4141 1398 3698  Q 934 3256 934 2222  z " transform="scale(0.015625)" />
       <path id="ArialMT-54" d="M 1659 0  L 1659 4041  L 150 4041  L 150 4581  L 3781 4581  L 3781 4041  L 2266 4041  L 2266 0  L 1659 0  z " transform="scale(0.015625)" />
       <path id="ArialMT-31" d="M 2384 0  L 1822 0  L 1822 3584  Q 1619 3391 1289 3197  Q 959 3003 697 2906  L 697 3450  Q 1169 3672 1522 3987  Q 1875 4303 2022 4600  L 2384 4600  L 2384 0  z " transform="scale(0.015625)" />
      </defs>
      <use xlink:href="#ArialMT-74" />
      <use xlink:href="#ArialMT-68" x="27.783203" />
      <use xlink:href="#ArialMT-65" x="83.398438" />
      <use xlink:href="#ArialMT-74" x="139.013672" />
      <use xlink:href="#ArialMT-61" x="166.796875" />
      <use xlink:href="#ArialMT-44" x="222.412109" />
      <use xlink:href="#ArialMT-4f" x="294.628906" />
      <use xlink:href="#ArialMT-54" x="372.412109" />
      <use xlink:href="#ArialMT-31" x="433.496094" />
     </g>
    </g>
   </g>
   <g id="matplotlib.axis_2">
    <g id="ytick_1">
     <g id="line2d_3">
      <defs>
       <path id="m3aa9d2555a" d="M 0 0  L -3.5 0  " style="stroke: #000000; stroke-width: 0.3" />
      </defs>
      <g>
       <use xlink:href="#m3aa9d2555a" x="17.18" y="29.439375" style="stroke: #000000; stroke-width: 0.3" />
      </g>
     </g>
     <g id="text_4">
      
      <g style="fill: #444443" transform="translate(5.09 32.47875)scale(0.08 -0.08)">
       <defs>
        <path id="DejaVuSans-30" d="M 2034 4250  Q 1547 4250 1301 3770  Q 1056 3291 1056 2328  Q 1056 1369 1301 889  Q 1547 409 2034 409  Q 2525 409 2770 889  Q 3016 1369 3016 2328  Q 3016 3291 2770 3770  Q 2525 4250 2034 4250  z M 2034 4750  Q 2819 4750 3233 4129  Q 3647 3509 3647 2328  Q 3647 1150 3233 529  Q 2819 -91 2034 -91  Q 1250 -91 836 529  Q 422 1150 422 2328  Q 422 3509 836 4129  Q 1250 4750 2034 4750  z " transform="scale(0.015625)" />
       </defs>
       <use xlink:href="#DejaVuSans-30" />
      </g>
     </g>
    </g>
    <g id="ytick_2">
     <g id="line2d_4">
      <g>
       <use xlink:href="#m3aa9d2555a" x="17.18" y="3.039375" style="stroke: #000000; stroke-width: 0.3" />
      </g>
     </g>
     <g id="text_5">
      
      <g style="fill: #444443" transform="translate(0 6.07875)scale(0.08 -0.08)">
       <use xlink:href="#DejaVuSans-31" />
       <use xlink:href="#DejaVuSans-31" x="63.623047" />
      </g>
     </g>
    </g>
   </g>
   <g id="patch_55">
    <path d="M 17.18 29.439375  L 17.18 1.719375  " style="fill: none; stroke: #000000; stroke-width: 0.3; stroke-linejoin: miter; stroke-linecap: square" />
   </g>
   <g id="patch_56">
    <path d="M 17.18 29.439375  L 201.32 29.439375  " style="fill: none; stroke: #000000; stroke-width: 0.3; stroke-linejoin: miter; stroke-linecap: square" />
   </g>
   <g id="text_6">
    
    <g style="fill: #444443" transform="translate(94.647107 46.071375)scale(0.08 -0.08)">
     <defs>
      <path id="ArialMT-30" d="M 266 2259  Q 266 3072 433 3567  Q 600 4063 929 4331  Q 1259 4600 1759 4600  Q 2128 4600 2406 4451  Q 2684 4303 2865 4023  Q 3047 3744 3150 3342  Q 3253 2941 3253 2259  Q 3253 1453 3087 958  Q 2922 463 2592 192  Q 2263 -78 1759 -78  Q 1097 -78 719 397  Q 266 969 266 2259  z M 844 2259  Q 844 1131 1108 757  Q 1372 384 1759 384  Q 2147 384 2411 759  Q 2675 1134 2675 2259  Q 2675 3391 2411 3762  Q 2147 4134 1753 4134  Q 1366 4134 1134 3806  Q 844 3388 844 2259  z " transform="scale(0.015625)" />
      <path id="ArialMT-2e" d="M 581 0  L 581 641  L 1222 641  L 1222 0  L 581 0  z " transform="scale(0.015625)" />
      <path id="ArialMT-32" d="M 3222 541  L 3222 0  L 194 0  Q 188 203 259 391  Q 375 700 629 1000  Q 884 1300 1366 1694  Q 2113 2306 2375 2664  Q 2638 3022 2638 3341  Q 2638 3675 2398 3904  Q 2159 4134 1775 4134  Q 1369 4134 1125 3890  Q 881 3647 878 3216  L 300 3275  Q 359 3922 746 4261  Q 1134 4600 1788 4600  Q 2447 4600 2831 4234  Q 3216 3869 3216 3328  Q 3216 3053 3103 2787  Q 2991 2522 2730 2228  Q 2469 1934 1863 1422  Q 1356 997 1212 845  Q 1069 694 975 541  L 3222 541  z " transform="scale(0.015625)" />
     </defs>
     <use xlink:href="#ArialMT-30" />
     <use xlink:href="#ArialMT-2e" x="55.615234" />
     <use xlink:href="#ArialMT-31" x="83.398438" />
     <use xlink:href="#ArialMT-32" x="139.013672" />
    </g>
   </g>
  </g>
 </g>
 <defs>
  <clipPath id="p23612cdc10">
   <rect x="17.18" y="1.719375" width="184.14" height="27.72" />
  </clipPath>
 </defs>
</svg></g>

<g id="node2" class="node">
<title>leaf1</title>
<polygon fill="none" stroke="#444443" stroke-width="0" points="75,-67.5 23,-67.5 23,-0.5 75,-0.5 75,-67.5" />
<svg width="44px" height="59px" viewBox="0 0 58.519966 78.6428" version="1.1" preserveAspectRatio="xMinYMin meet" x="27" y="-63">
 <metadata>
  <rdf:RDF>
   <ns2:Work>
    <dc:type rdf:resource="http://purl.org/dc/dcmitype/StillImage" />
    <dc:date>2022-01-14T16:26:09.489117</dc:date>
    <dc:format>image/svg+xml</dc:format>
    <dc:creator>
     <ns2:Agent>
      <dc:title>Matplotlib v3.5.1, https://matplotlib.org/</dc:title>
     </ns2:Agent>
    </dc:creator>
   </ns2:Work>
  </rdf:RDF>
 </metadata>
 <defs>
  <style type="text/css">*{stroke-linejoin: round; stroke-linecap: butt}</style>
 </defs>
 <g id="figure_1">
  <g id="patch_1">
   <path d="M 0 78.6428  L 58.519966 78.6428  L 58.519966 0  L 0 0  z " style="fill: #ffffff" />
  </g>
  <g id="axes_1">
   <g id="patch_2">
    <path d="M 58.519966 29.259969  C 58.519966 27.015479 58.261709 24.778425 57.750294 22.592975  C 57.238879 20.407526 56.477695 18.288161 55.481771 16.276727  L 29.259966 29.259969  L 58.519966 29.259969  z " style="fill: #fefebb; stroke: #444443; stroke-width: 0.5; stroke-linejoin: miter" />
   </g>
   <g id="patch_3">
    <path d="M 55.481771 16.276727  C 53.483389 12.240666 50.579883 8.719958 46.998122 5.9897  C 43.416362 3.259442 39.252131 1.392648 34.830811 0.535184  C 30.409492 -0.322281 25.849318 -0.147486 21.506609 1.045911  C 17.163901 2.239308 13.15479 4.419393 9.792538 7.41582  L 29.259966 29.259969  L 55.481771 16.276727  z " style="fill: #d9e6f5; stroke: #444443; stroke-width: 0.5; stroke-linejoin: miter" />
   </g>
   <g id="patch_4">
    <path d="M 9.792538 7.41582  C 6.147355 10.664394 3.372639 14.774304 1.722209 19.369592  C 0.071779 23.964881 -0.402457 28.901024 0.34288 33.726484  C 1.088218 38.551944 3.029688 43.114958 5.989695 46.998122  C 8.949701 50.881285 12.835149 53.96247 17.290615 55.959823  C 21.746081 57.957176 26.631437 58.80788 31.499794 58.434114  C 36.36815 58.060349 41.066394 56.473871 45.164749 53.819803  C 49.263105 51.165735 52.632678 47.527551 54.965233 43.238054  C 57.297788 38.948557 58.519965 34.142656 58.519966 29.259973  L 29.259966 29.259969  L 9.792538 7.41582  z " style="fill: #a1dab4; stroke: #444443; stroke-width: 0.5; stroke-linejoin: miter" />
   </g>
   <g id="text_1">
    
    <g style="fill: #444443" transform="translate(19.124419 67.3028)scale(0.09 -0.09)">
     <defs>
      <path id="ArialMT-6e" d="M 422 0  L 422 3319  L 928 3319  L 928 2847  Q 1294 3394 1984 3394  Q 2284 3394 2536 3286  Q 2788 3178 2913 3003  Q 3038 2828 3088 2588  Q 3119 2431 3119 2041  L 3119 0  L 2556 0  L 2556 2019  Q 2556 2363 2490 2533  Q 2425 2703 2258 2804  Q 2091 2906 1866 2906  Q 1506 2906 1245 2678  Q 984 2450 984 1813  L 984 0  L 422 0  z " transform="scale(0.015625)" />
      <path id="ArialMT-3d" d="M 3381 2694  L 356 2694  L 356 3219  L 3381 3219  L 3381 2694  z M 3381 1303  L 356 1303  L 356 1828  L 3381 1828  L 3381 1303  z " transform="scale(0.015625)" />
      <path id="ArialMT-34" d="M 2069 0  L 2069 1097  L 81 1097  L 81 1613  L 2172 4581  L 2631 4581  L 2631 1613  L 3250 1613  L 3250 1097  L 2631 1097  L 2631 0  L 2069 0  z M 2069 1613  L 2069 3678  L 634 1613  L 2069 1613  z " transform="scale(0.015625)" />
      <path id="ArialMT-30" d="M 266 2259  Q 266 3072 433 3567  Q 600 4063 929 4331  Q 1259 4600 1759 4600  Q 2128 4600 2406 4451  Q 2684 4303 2865 4023  Q 3047 3744 3150 3342  Q 3253 2941 3253 2259  Q 3253 1453 3087 958  Q 2922 463 2592 192  Q 2263 -78 1759 -78  Q 1097 -78 719 397  Q 266 969 266 2259  z M 844 2259  Q 844 1131 1108 757  Q 1372 384 1759 384  Q 2147 384 2411 759  Q 2675 1134 2675 2259  Q 2675 3391 2411 3762  Q 2147 4134 1753 4134  Q 1366 4134 1134 3806  Q 844 3388 844 2259  z " transform="scale(0.015625)" />
     </defs>
     <use xlink:href="#ArialMT-6e" />
     <use xlink:href="#ArialMT-3d" x="55.615234" />
     <use xlink:href="#ArialMT-34" x="114.013672" />
     <use xlink:href="#ArialMT-30" x="169.628906" />
    </g>
    
    <g style="fill: #444443" transform="translate(11.250825 76.85405)scale(0.09 -0.09)">
     <defs>
      <path id="ArialMT-74" d="M 1650 503  L 1731 6  Q 1494 -44 1306 -44  Q 1000 -44 831 53  Q 663 150 594 308  Q 525 466 525 972  L 525 2881  L 113 2881  L 113 3319  L 525 3319  L 525 4141  L 1084 4478  L 1084 3319  L 1650 3319  L 1650 2881  L 1084 2881  L 1084 941  Q 1084 700 1114 631  Q 1144 563 1211 522  Q 1278 481 1403 481  Q 1497 481 1650 503  z " transform="scale(0.015625)" />
      <path id="ArialMT-6f" d="M 213 1659  Q 213 2581 725 3025  Q 1153 3394 1769 3394  Q 2453 3394 2887 2945  Q 3322 2497 3322 1706  Q 3322 1066 3130 698  Q 2938 331 2570 128  Q 2203 -75 1769 -75  Q 1072 -75 642 372  Q 213 819 213 1659  z M 791 1659  Q 791 1022 1069 705  Q 1347 388 1769 388  Q 2188 388 2466 706  Q 2744 1025 2744 1678  Q 2744 2294 2464 2611  Q 2184 2928 1769 2928  Q 1347 2928 1069 2612  Q 791 2297 791 1659  z " transform="scale(0.015625)" />
      <path id="ArialMT-72" d="M 416 0  L 416 3319  L 922 3319  L 922 2816  Q 1116 3169 1280 3281  Q 1444 3394 1641 3394  Q 1925 3394 2219 3213  L 2025 2691  Q 1819 2813 1613 2813  Q 1428 2813 1281 2702  Q 1134 2591 1072 2394  Q 978 2094 978 1738  L 978 0  L 416 0  z " transform="scale(0.015625)" />
      <path id="ArialMT-71" d="M 2538 -1272  L 2538 353  Q 2406 169 2170 47  Q 1934 -75 1669 -75  Q 1078 -75 651 397  Q 225 869 225 1691  Q 225 2191 398 2587  Q 572 2984 901 3189  Q 1231 3394 1625 3394  Q 2241 3394 2594 2875  L 2594 3319  L 3100 3319  L 3100 -1272  L 2538 -1272  z M 803 1669  Q 803 1028 1072 708  Q 1341 388 1716 388  Q 2075 388 2334 692  Q 2594 997 2594 1619  Q 2594 2281 2320 2615  Q 2047 2950 1678 2950  Q 1313 2950 1058 2639  Q 803 2328 803 1669  z " transform="scale(0.015625)" />
      <path id="ArialMT-75" d="M 2597 0  L 2597 488  Q 2209 -75 1544 -75  Q 1250 -75 995 37  Q 741 150 617 320  Q 494 491 444 738  Q 409 903 409 1263  L 409 3319  L 972 3319  L 972 1478  Q 972 1038 1006 884  Q 1059 663 1231 536  Q 1403 409 1656 409  Q 1909 409 2131 539  Q 2353 669 2445 892  Q 2538 1116 2538 1541  L 2538 3319  L 3100 3319  L 3100 0  L 2597 0  z " transform="scale(0.015625)" />
      <path id="ArialMT-65" d="M 2694 1069  L 3275 997  Q 3138 488 2766 206  Q 2394 -75 1816 -75  Q 1088 -75 661 373  Q 234 822 234 1631  Q 234 2469 665 2931  Q 1097 3394 1784 3394  Q 2450 3394 2872 2941  Q 3294 2488 3294 1666  Q 3294 1616 3291 1516  L 816 1516  Q 847 969 1125 678  Q 1403 388 1819 388  Q 2128 388 2347 550  Q 2566 713 2694 1069  z M 847 1978  L 2700 1978  Q 2663 2397 2488 2606  Q 2219 2931 1791 2931  Q 1403 2931 1139 2672  Q 875 2413 847 1978  z " transform="scale(0.015625)" />
      <path id="ArialMT-20" transform="scale(0.015625)" />
      <path id="ArialMT-2d" d="M 203 1375  L 203 1941  L 1931 1941  L 1931 1375  L 203 1375  z " transform="scale(0.015625)" />
      <path id="ArialMT-31" d="M 2384 0  L 1822 0  L 1822 3584  Q 1619 3391 1289 3197  Q 959 3003 697 2906  L 697 3450  Q 1169 3672 1522 3987  Q 1875 4303 2022 4600  L 2384 4600  L 2384 0  z " transform="scale(0.015625)" />
     </defs>
     <use xlink:href="#ArialMT-74" />
     <use xlink:href="#ArialMT-6f" x="27.783203" />
     <use xlink:href="#ArialMT-72" x="83.398438" />
     <use xlink:href="#ArialMT-71" x="116.699219" />
     <use xlink:href="#ArialMT-75" x="172.314453" />
     <use xlink:href="#ArialMT-65" x="227.929688" />
     <use xlink:href="#ArialMT-20" x="283.544922" />
     <use xlink:href="#ArialMT-2d" x="311.328125" />
     <use xlink:href="#ArialMT-31" x="344.628906" />
    </g>
   </g>
  </g>
 </g>
</svg></g>

<g id="edge1" class="edge">
<title>node0-&gt;leaf1</title>
<path fill="none" stroke="#444443" stroke-width="0.3" d="M72.81,-100.29C69.54,-91.33 65.8,-81.06 62.26,-71.36" />
<polygon fill="#444443" stroke="#444443" stroke-width="0.3" points="63.55,-70.81 60.86,-67.53 60.92,-71.77 63.55,-70.81" />
<text text-anchor="start" x="69" y="-79.8" font-family="Times New Roman,serif" font-size="14.00">&#8804;</text>
</g>

<g id="node3" class="node">
<title>leaf2</title>
<polygon fill="none" stroke="#444443" stroke-width="0" points="141.5,-68 88.5,-68 88.5,0 141.5,0 141.5,-68" />
<svg width="45px" height="60px" viewBox="0 0 59.751997 79.924105" version="1.1" preserveAspectRatio="xMinYMin meet" x="93" y="-64">
 <metadata>
  <rdf:RDF>
   <ns2:Work>
    <dc:type rdf:resource="http://purl.org/dc/dcmitype/StillImage" />
    <dc:date>2022-01-14T16:26:09.547221</dc:date>
    <dc:format>image/svg+xml</dc:format>
    <dc:creator>
     <ns2:Agent>
      <dc:title>Matplotlib v3.5.1, https://matplotlib.org/</dc:title>
     </ns2:Agent>
    </dc:creator>
   </ns2:Work>
  </rdf:RDF>
 </metadata>
 <defs>
  <style type="text/css">*{stroke-linejoin: round; stroke-linecap: butt}</style>
 </defs>
 <g id="figure_1">
  <g id="patch_1">
   <path d="M 0 79.924105  L 59.751997 79.924105  L 59.751997 0  L 0 0  z " style="fill: #ffffff" />
  </g>
  <g id="axes_1">
   <g id="patch_2">
    <path d="M 59.751997 29.875994  C 59.751997 26.288471 59.10581 22.730105 57.844443 19.371642  C 56.583076 16.013179 54.727032 12.90921 52.365372 10.208676  C 50.003712 7.508143 47.174825 5.254941 44.014451 3.557189  C 40.854078 1.859437 37.41359 0.744732 33.858077 0.266562  C 30.302564 -0.211607 26.68982 -0.04547 23.193199 0.757003  C 19.696578 1.559477 16.372918 2.985241 13.381701 4.965883  C 10.390484 6.946525 7.780333 9.44985 5.676493 12.355736  C 3.572653 15.261623 2.009322 18.522837 1.061515 21.982893  C 0.113708 25.442948 -0.203168 29.045601 0.126091 32.617983  C 0.45535 36.190364 1.425393 39.674405 2.989673 42.902926  C 4.553952 46.131447 6.687042 49.05197 9.286586 51.524355  C 11.886131 53.99674 14.909875 55.9808 18.212728 57.38133  C 21.51558 58.78186 25.043854 59.576096 28.628246 59.725927  C 32.212639 59.875757 35.794888 59.378746 39.2031 58.258744  C 42.611313 57.138741 45.79009 55.413952 48.586901 53.167138  C 51.383712 50.920325 53.753094 48.188009 55.581355 45.101299  L 29.875997 29.875994  L 59.751997 29.875994  z " style="fill: #fefebb; stroke: #444443; stroke-width: 0.5; stroke-linejoin: miter" />
   </g>
   <g id="patch_3">
    <path d="M 55.581355 45.101299  C 56.260071 43.955401 56.861406 42.7654 57.381333 41.539262  C 57.901261 40.313124 58.338618 39.053591 58.690478 37.769094  L 29.875997 29.875994  L 55.581355 45.101299  z " style="fill: #d9e6f5; stroke: #444443; stroke-width: 0.5; stroke-linejoin: miter" />
   </g>
   <g id="patch_4">
    <path d="M 58.690478 37.769094  C 59.042338 36.484597 59.307914 35.178008 59.485428 33.858073  C 59.662942 32.538139 59.751997 31.20781 59.751997 29.875992  L 29.875997 29.875994  L 58.690478 37.769094  z " style="fill: #a1dab4; stroke: #444443; stroke-width: 0.5; stroke-linejoin: miter" />
   </g>
   <g id="text_1">
    
    <g style="fill: #444443" transform="translate(19.74045 68.584105)scale(0.09 -0.09)">
     <defs>
      <path id="ArialMT-6e" d="M 422 0  L 422 3319  L 928 3319  L 928 2847  Q 1294 3394 1984 3394  Q 2284 3394 2536 3286  Q 2788 3178 2913 3003  Q 3038 2828 3088 2588  Q 3119 2431 3119 2041  L 3119 0  L 2556 0  L 2556 2019  Q 2556 2363 2490 2533  Q 2425 2703 2258 2804  Q 2091 2906 1866 2906  Q 1506 2906 1245 2678  Q 984 2450 984 1813  L 984 0  L 422 0  z " transform="scale(0.015625)" />
      <path id="ArialMT-3d" d="M 3381 2694  L 356 2694  L 356 3219  L 3381 3219  L 3381 2694  z M 3381 1303  L 356 1303  L 356 1828  L 3381 1828  L 3381 1303  z " transform="scale(0.015625)" />
      <path id="ArialMT-34" d="M 2069 0  L 2069 1097  L 81 1097  L 81 1613  L 2172 4581  L 2631 4581  L 2631 1613  L 3250 1613  L 3250 1097  L 2631 1097  L 2631 0  L 2069 0  z M 2069 1613  L 2069 3678  L 634 1613  L 2069 1613  z " transform="scale(0.015625)" />
      <path id="ArialMT-31" d="M 2384 0  L 1822 0  L 1822 3584  Q 1619 3391 1289 3197  Q 959 3003 697 2906  L 697 3450  Q 1169 3672 1522 3987  Q 1875 4303 2022 4600  L 2384 4600  L 2384 0  z " transform="scale(0.015625)" />
     </defs>
     <use xlink:href="#ArialMT-6e" />
     <use xlink:href="#ArialMT-3d" x="55.615234" />
     <use xlink:href="#ArialMT-34" x="114.013672" />
     <use xlink:href="#ArialMT-31" x="169.628906" />
    </g>
    
    <g style="fill: #444443" transform="translate(10.736934 78.135355)scale(0.09 -0.09)">
     <defs>
      <path id="ArialMT-74" d="M 1650 503  L 1731 6  Q 1494 -44 1306 -44  Q 1000 -44 831 53  Q 663 150 594 308  Q 525 466 525 972  L 525 2881  L 113 2881  L 113 3319  L 525 3319  L 525 4141  L 1084 4478  L 1084 3319  L 1650 3319  L 1650 2881  L 1084 2881  L 1084 941  Q 1084 700 1114 631  Q 1144 563 1211 522  Q 1278 481 1403 481  Q 1497 481 1650 503  z " transform="scale(0.015625)" />
      <path id="ArialMT-6f" d="M 213 1659  Q 213 2581 725 3025  Q 1153 3394 1769 3394  Q 2453 3394 2887 2945  Q 3322 2497 3322 1706  Q 3322 1066 3130 698  Q 2938 331 2570 128  Q 2203 -75 1769 -75  Q 1072 -75 642 372  Q 213 819 213 1659  z M 791 1659  Q 791 1022 1069 705  Q 1347 388 1769 388  Q 2188 388 2466 706  Q 2744 1025 2744 1678  Q 2744 2294 2464 2611  Q 2184 2928 1769 2928  Q 1347 2928 1069 2612  Q 791 2297 791 1659  z " transform="scale(0.015625)" />
      <path id="ArialMT-72" d="M 416 0  L 416 3319  L 922 3319  L 922 2816  Q 1116 3169 1280 3281  Q 1444 3394 1641 3394  Q 1925 3394 2219 3213  L 2025 2691  Q 1819 2813 1613 2813  Q 1428 2813 1281 2702  Q 1134 2591 1072 2394  Q 978 2094 978 1738  L 978 0  L 416 0  z " transform="scale(0.015625)" />
      <path id="ArialMT-71" d="M 2538 -1272  L 2538 353  Q 2406 169 2170 47  Q 1934 -75 1669 -75  Q 1078 -75 651 397  Q 225 869 225 1691  Q 225 2191 398 2587  Q 572 2984 901 3189  Q 1231 3394 1625 3394  Q 2241 3394 2594 2875  L 2594 3319  L 3100 3319  L 3100 -1272  L 2538 -1272  z M 803 1669  Q 803 1028 1072 708  Q 1341 388 1716 388  Q 2075 388 2334 692  Q 2594 997 2594 1619  Q 2594 2281 2320 2615  Q 2047 2950 1678 2950  Q 1313 2950 1058 2639  Q 803 2328 803 1669  z " transform="scale(0.015625)" />
      <path id="ArialMT-75" d="M 2597 0  L 2597 488  Q 2209 -75 1544 -75  Q 1250 -75 995 37  Q 741 150 617 320  Q 494 491 444 738  Q 409 903 409 1263  L 409 3319  L 972 3319  L 972 1478  Q 972 1038 1006 884  Q 1059 663 1231 536  Q 1403 409 1656 409  Q 1909 409 2131 539  Q 2353 669 2445 892  Q 2538 1116 2538 1541  L 2538 3319  L 3100 3319  L 3100 0  L 2597 0  z " transform="scale(0.015625)" />
      <path id="ArialMT-65" d="M 2694 1069  L 3275 997  Q 3138 488 2766 206  Q 2394 -75 1816 -75  Q 1088 -75 661 373  Q 234 822 234 1631  Q 234 2469 665 2931  Q 1097 3394 1784 3394  Q 2450 3394 2872 2941  Q 3294 2488 3294 1666  Q 3294 1616 3291 1516  L 816 1516  Q 847 969 1125 678  Q 1403 388 1819 388  Q 2128 388 2347 550  Q 2566 713 2694 1069  z M 847 1978  L 2700 1978  Q 2663 2397 2488 2606  Q 2219 2931 1791 2931  Q 1403 2931 1139 2672  Q 875 2413 847 1978  z " transform="scale(0.015625)" />
      <path id="ArialMT-20" transform="scale(0.015625)" />
      <path id="ArialMT-2b" d="M 1603 741  L 1603 1997  L 356 1997  L 356 2522  L 1603 2522  L 1603 3769  L 2134 3769  L 2134 2522  L 3381 2522  L 3381 1997  L 2134 1997  L 2134 741  L 1603 741  z " transform="scale(0.015625)" />
     </defs>
     <use xlink:href="#ArialMT-74" />
     <use xlink:href="#ArialMT-6f" x="27.783203" />
     <use xlink:href="#ArialMT-72" x="83.398438" />
     <use xlink:href="#ArialMT-71" x="116.699219" />
     <use xlink:href="#ArialMT-75" x="172.314453" />
     <use xlink:href="#ArialMT-65" x="227.929688" />
     <use xlink:href="#ArialMT-20" x="283.544922" />
     <use xlink:href="#ArialMT-2b" x="311.328125" />
     <use xlink:href="#ArialMT-31" x="369.726562" />
    </g>
   </g>
  </g>
 </g>
</svg></g>

<g id="edge2" class="edge">
<title>node0-&gt;leaf2</title>
<path fill="none" stroke="#444443" stroke-width="0.3" d="M91.19,-100.29C94.39,-91.52 98.05,-81.49 101.52,-71.96" />
<polygon fill="#444443" stroke="#444443" stroke-width="0.3" points="102.84,-72.44 102.89,-68.2 100.21,-71.48 102.84,-72.44" />
<text text-anchor="start" x="100" y="-79.8" font-family="Times New Roman,serif" font-size="14.00">&gt;</text>
</g>


<g id="node4" class="node">
<title>legend</title>
<polygon fill="none" stroke="black" stroke-width="0" points="301,-154 171,-154 171,-99 301,-99 301,-154" />
<svg width="126px" height="51px" viewBox="0 0 168.475 68.203125" version="1.1" preserveAspectRatio="xMinYMin meet" x="173" y="-151.5">
 <metadata>
  <rdf:RDF>
   <ns2:Work>
    <dc:type rdf:resource="http://purl.org/dc/dcmitype/StillImage" />
    <dc:date>2022-01-14T16:26:09.139946</dc:date>
    <dc:format>image/svg+xml</dc:format>
    <dc:creator>
     <ns2:Agent>
      <dc:title>Matplotlib v3.5.1, https://matplotlib.org/</dc:title>
     </ns2:Agent>
    </dc:creator>
   </ns2:Work>
  </rdf:RDF>
 </metadata>
 <defs>
  <style type="text/css">*{stroke-linejoin: round; stroke-linecap: butt}</style>
 </defs>
 <g id="figure_1">
  <g id="patch_1">
   <path d="M 0 68.203125  L 168.475 68.203125  L 168.475 0  L 0 0  z " style="fill: #ffffff" />
  </g>
  <g id="axes_1">
   <g id="legend_1">
    <g id="patch_2">
     <path d="M 2 68.203125  L 166.475 68.203125  Q 168.475 68.203125 168.475 66.203125  L 168.475 2  Q 168.475 -0 166.475 -0  L 2 -0  Q -0 -0 -0 2  L -0 66.203125  Q -0 68.203125 2 68.203125  z " style="fill: #ffffff; opacity: 0.8; stroke: #444443; stroke-width: 0.5; stroke-linejoin: miter" />
    </g>
    <g id="text_1">
     
     <g style="fill: #444443" transform="translate(8 15.598437)scale(0.1 -0.1)">
      <defs>
       <path id="DejaVuSans-Bold-41" d="M 3419 850  L 1538 850  L 1241 0  L 31 0  L 1759 4666  L 3194 4666  L 4922 0  L 3713 0  L 3419 850  z M 1838 1716  L 3116 1716  L 2478 3572  L 1838 1716  z " transform="scale(0.015625)" />
       <path id="DejaVuSans-Bold-63" d="M 3366 3391  L 3366 2478  Q 3138 2634 2908 2709  Q 2678 2784 2431 2784  Q 1963 2784 1702 2511  Q 1441 2238 1441 1747  Q 1441 1256 1702 982  Q 1963 709 2431 709  Q 2694 709 2930 787  Q 3166 866 3366 1019  L 3366 103  Q 3103 6 2833 -42  Q 2563 -91 2291 -91  Q 1344 -91 809 395  Q 275 881 275 1747  Q 275 2613 809 3098  Q 1344 3584 2291 3584  Q 2566 3584 2833 3536  Q 3100 3488 3366 3391  z " transform="scale(0.015625)" />
       <path id="DejaVuSans-Bold-72" d="M 3138 2547  Q 2991 2616 2845 2648  Q 2700 2681 2553 2681  Q 2122 2681 1889 2404  Q 1656 2128 1656 1613  L 1656 0  L 538 0  L 538 3500  L 1656 3500  L 1656 2925  Q 1872 3269 2151 3426  Q 2431 3584 2822 3584  Q 2878 3584 2943 3579  Q 3009 3575 3134 3559  L 3138 2547  z " transform="scale(0.015625)" />
       <path id="DejaVuSans-Bold-6f" d="M 2203 2784  Q 1831 2784 1636 2517  Q 1441 2250 1441 1747  Q 1441 1244 1636 976  Q 1831 709 2203 709  Q 2569 709 2762 976  Q 2956 1244 2956 1747  Q 2956 2250 2762 2517  Q 2569 2784 2203 2784  z M 2203 3584  Q 3106 3584 3614 3096  Q 4122 2609 4122 1747  Q 4122 884 3614 396  Q 3106 -91 2203 -91  Q 1297 -91 786 396  Q 275 884 275 1747  Q 275 2609 786 3096  Q 1297 3584 2203 3584  z " transform="scale(0.015625)" />
       <path id="DejaVuSans-Bold-62" d="M 2400 722  Q 2759 722 2948 984  Q 3138 1247 3138 1747  Q 3138 2247 2948 2509  Q 2759 2772 2400 2772  Q 2041 2772 1848 2508  Q 1656 2244 1656 1747  Q 1656 1250 1848 986  Q 2041 722 2400 722  z M 1656 2988  Q 1888 3294 2169 3439  Q 2450 3584 2816 3584  Q 3463 3584 3878 3070  Q 4294 2556 4294 1747  Q 4294 938 3878 423  Q 3463 -91 2816 -91  Q 2450 -91 2169 54  Q 1888 200 1656 506  L 1656 0  L 538 0  L 538 4863  L 1656 4863  L 1656 2988  z " transform="scale(0.015625)" />
       <path id="DejaVuSans-Bold-74" d="M 1759 4494  L 1759 3500  L 2913 3500  L 2913 2700  L 1759 2700  L 1759 1216  Q 1759 972 1856 886  Q 1953 800 2241 800  L 2816 800  L 2816 0  L 1856 0  Q 1194 0 917 276  Q 641 553 641 1216  L 641 2700  L 84 2700  L 84 3500  L 641 3500  L 641 4494  L 1759 4494  z " transform="scale(0.015625)" />
       <path id="DejaVuSans-Bold-2d" d="M 347 2297  L 2309 2297  L 2309 1388  L 347 1388  L 347 2297  z " transform="scale(0.015625)" />
       <path id="DejaVuSans-Bold-76" d="M 97 3500  L 1216 3500  L 2088 1081  L 2956 3500  L 4078 3500  L 2700 0  L 1472 0  L 97 3500  z " transform="scale(0.015625)" />
       <path id="DejaVuSans-Bold-31" d="M 750 831  L 1813 831  L 1813 3847  L 722 3622  L 722 4441  L 1806 4666  L 2950 4666  L 2950 831  L 4013 831  L 4013 0  L 750 0  L 750 831  z " transform="scale(0.015625)" />
       <path id="DejaVuSans-Bold-3a" d="M 716 3500  L 1844 3500  L 1844 2291  L 716 2291  L 716 3500  z M 716 1209  L 1844 1209  L 1844 0  L 716 0  L 716 1209  z " transform="scale(0.015625)" />
       <path id="DejaVuSans-Bold-20" transform="scale(0.015625)" />
       <path id="DejaVuSans-Bold-39" d="M 641 103  L 641 966  Q 928 831 1190 764  Q 1453 697 1709 697  Q 2247 697 2547 995  Q 2847 1294 2900 1881  Q 2688 1725 2447 1647  Q 2206 1569 1925 1569  Q 1209 1569 770 1986  Q 331 2403 331 3084  Q 331 3838 820 4291  Q 1309 4744 2131 4744  Q 3044 4744 3544 4128  Q 4044 3513 4044 2388  Q 4044 1231 3459 570  Q 2875 -91 1856 -91  Q 1528 -91 1228 -42  Q 928 6 641 103  z M 2125 2350  Q 2441 2350 2600 2554  Q 2759 2759 2759 3169  Q 2759 3575 2600 3781  Q 2441 3988 2125 3988  Q 1809 3988 1650 3781  Q 1491 3575 1491 3169  Q 1491 2759 1650 2554  Q 1809 2350 2125 2350  z " transform="scale(0.015625)" />
       <path id="DejaVuSans-Bold-30" d="M 2944 2338  Q 2944 3213 2780 3570  Q 2616 3928 2228 3928  Q 1841 3928 1675 3570  Q 1509 3213 1509 2338  Q 1509 1453 1675 1090  Q 1841 728 2228 728  Q 2613 728 2778 1090  Q 2944 1453 2944 2338  z M 4147 2328  Q 4147 1169 3647 539  Q 3147 -91 2228 -91  Q 1306 -91 806 539  Q 306 1169 306 2328  Q 306 3491 806 4120  Q 1306 4750 2228 4750  Q 3147 4750 3647 4120  Q 4147 3491 4147 2328  z " transform="scale(0.015625)" />
       <path id="DejaVuSans-Bold-2e" d="M 653 1209  L 1778 1209  L 1778 0  L 653 0  L 653 1209  z " transform="scale(0.015625)" />
       <path id="DejaVuSans-Bold-34" d="M 2356 3675  L 1038 1722  L 2356 1722  L 2356 3675  z M 2156 4666  L 3494 4666  L 3494 1722  L 4159 1722  L 4159 850  L 3494 850  L 3494 0  L 2356 0  L 2356 850  L 288 850  L 288 1881  L 2156 4666  z " transform="scale(0.015625)" />
       <path id="DejaVuSans-Bold-35" d="M 678 4666  L 3669 4666  L 3669 3781  L 1638 3781  L 1638 3059  Q 1775 3097 1914 3117  Q 2053 3138 2203 3138  Q 3056 3138 3531 2711  Q 4006 2284 4006 1522  Q 4006 766 3489 337  Q 2972 -91 2053 -91  Q 1656 -91 1267 -14  Q 878 63 494 219  L 494 1166  Q 875 947 1217 837  Q 1559 728 1863 728  Q 2300 728 2551 942  Q 2803 1156 2803 1522  Q 2803 1891 2551 2103  Q 2300 2316 1863 2316  Q 1603 2316 1309 2248  Q 1016 2181 678 2041  L 678 4666  z " transform="scale(0.015625)" />
       <path id="DejaVuSans-Bold-26" d="M 2497 3097  L 3775 1691  Q 3941 1909 4027 2181  Q 4113 2453 4128 2797  L 5100 2797  Q 5053 2228 4879 1784  Q 4706 1341 4397 1006  L 5313 0  L 3988 0  L 3681 341  Q 3353 122 2990 15  Q 2628 -91 2222 -91  Q 1400 -91 892 342  Q 384 775 384 1459  Q 384 1916 607 2267  Q 831 2619 1338 2950  Q 1206 3116 1143 3281  Q 1081 3447 1081 3628  Q 1081 4138 1478 4444  Q 1875 4750 2534 4750  Q 2819 4750 3126 4704  Q 3434 4659 3769 4569  L 3769 3700  Q 3475 3850 3212 3922  Q 2950 3994 2700 3994  Q 2459 3994 2326 3901  Q 2194 3809 2194 3641  Q 2194 3534 2270 3398  Q 2347 3263 2497 3097  z M 1875 2322  Q 1672 2175 1569 1989  Q 1466 1803 1466 1581  Q 1466 1222 1731 969  Q 1997 716 2369 716  Q 2578 716 2759 780  Q 2941 844 3097 972  L 1875 2322  z " transform="scale(0.015625)" />
       <path id="DejaVuSans-Bold-32" d="M 1844 884  L 3897 884  L 3897 0  L 506 0  L 506 884  L 2209 2388  Q 2438 2594 2547 2791  Q 2656 2988 2656 3200  Q 2656 3528 2436 3728  Q 2216 3928 1850 3928  Q 1569 3928 1234 3808  Q 900 3688 519 3450  L 519 4475  Q 925 4609 1322 4679  Q 1719 4750 2100 4750  Q 2938 4750 3402 4381  Q 3866 4013 3866 3353  Q 3866 2972 3669 2642  Q 3472 2313 2841 1759  L 1844 884  z " transform="scale(0.015625)" />
      </defs>
      <use xlink:href="#DejaVuSans-Bold-41" />
      <use xlink:href="#DejaVuSans-Bold-63" x="77.392578" />
      <use xlink:href="#DejaVuSans-Bold-72" x="136.669922" />
      <use xlink:href="#DejaVuSans-Bold-6f" x="185.986328" />
      <use xlink:href="#DejaVuSans-Bold-62" x="254.6875" />
      <use xlink:href="#DejaVuSans-Bold-6f" x="326.269531" />
      <use xlink:href="#DejaVuSans-Bold-74" x="394.970703" />
      <use xlink:href="#DejaVuSans-Bold-2d" x="442.773438" />
      <use xlink:href="#DejaVuSans-Bold-76" x="484.277344" />
      <use xlink:href="#DejaVuSans-Bold-31" x="549.462891" />
      <use xlink:href="#DejaVuSans-Bold-3a" x="619.042969" />
      <use xlink:href="#DejaVuSans-Bold-20" x="659.033203" />
      <use xlink:href="#DejaVuSans-Bold-2d" x="693.847656" />
      <use xlink:href="#DejaVuSans-Bold-39" x="735.351562" />
      <use xlink:href="#DejaVuSans-Bold-30" x="804.931641" />
      <use xlink:href="#DejaVuSans-Bold-2e" x="874.511719" />
      <use xlink:href="#DejaVuSans-Bold-34" x="912.5" />
      <use xlink:href="#DejaVuSans-Bold-35" x="982.080078" />
      <use xlink:href="#DejaVuSans-Bold-20" x="1051.660156" />
      <use xlink:href="#DejaVuSans-Bold-26" x="1086.474609" />
      <use xlink:href="#DejaVuSans-Bold-20" x="1173.681641" />
      <use xlink:href="#DejaVuSans-Bold-32" x="1208.496094" />
      <use xlink:href="#DejaVuSans-Bold-34" x="1278.076172" />
      <use xlink:href="#DejaVuSans-Bold-2e" x="1347.65625" />
      <use xlink:href="#DejaVuSans-Bold-32" x="1385.644531" />
      <use xlink:href="#DejaVuSans-Bold-32" x="1455.224609" />
     </g>
    </g>
    <g id="patch_3">
     <path d="M 51.221875 29.865625  L 71.221875 29.865625  L 71.221875 22.865625  L 51.221875 22.865625  z " style="fill: #fefebb; stroke: #444443; stroke-width: 0.4; stroke-linejoin: miter" />
    </g>
    <g id="text_2">
     
     <g style="fill: #444443" transform="translate(74.721875 29.865625)scale(0.1 -0.1)">
      <defs>
       <path id="ArialMT-74" d="M 1650 503  L 1731 6  Q 1494 -44 1306 -44  Q 1000 -44 831 53  Q 663 150 594 308  Q 525 466 525 972  L 525 2881  L 113 2881  L 113 3319  L 525 3319  L 525 4141  L 1084 4478  L 1084 3319  L 1650 3319  L 1650 2881  L 1084 2881  L 1084 941  Q 1084 700 1114 631  Q 1144 563 1211 522  Q 1278 481 1403 481  Q 1497 481 1650 503  z " transform="scale(0.015625)" />
       <path id="ArialMT-6f" d="M 213 1659  Q 213 2581 725 3025  Q 1153 3394 1769 3394  Q 2453 3394 2887 2945  Q 3322 2497 3322 1706  Q 3322 1066 3130 698  Q 2938 331 2570 128  Q 2203 -75 1769 -75  Q 1072 -75 642 372  Q 213 819 213 1659  z M 791 1659  Q 791 1022 1069 705  Q 1347 388 1769 388  Q 2188 388 2466 706  Q 2744 1025 2744 1678  Q 2744 2294 2464 2611  Q 2184 2928 1769 2928  Q 1347 2928 1069 2612  Q 791 2297 791 1659  z " transform="scale(0.015625)" />
       <path id="ArialMT-72" d="M 416 0  L 416 3319  L 922 3319  L 922 2816  Q 1116 3169 1280 3281  Q 1444 3394 1641 3394  Q 1925 3394 2219 3213  L 2025 2691  Q 1819 2813 1613 2813  Q 1428 2813 1281 2702  Q 1134 2591 1072 2394  Q 978 2094 978 1738  L 978 0  L 416 0  z " transform="scale(0.015625)" />
       <path id="ArialMT-71" d="M 2538 -1272  L 2538 353  Q 2406 169 2170 47  Q 1934 -75 1669 -75  Q 1078 -75 651 397  Q 225 869 225 1691  Q 225 2191 398 2587  Q 572 2984 901 3189  Q 1231 3394 1625 3394  Q 2241 3394 2594 2875  L 2594 3319  L 3100 3319  L 3100 -1272  L 2538 -1272  z M 803 1669  Q 803 1028 1072 708  Q 1341 388 1716 388  Q 2075 388 2334 692  Q 2594 997 2594 1619  Q 2594 2281 2320 2615  Q 2047 2950 1678 2950  Q 1313 2950 1058 2639  Q 803 2328 803 1669  z " transform="scale(0.015625)" />
       <path id="ArialMT-75" d="M 2597 0  L 2597 488  Q 2209 -75 1544 -75  Q 1250 -75 995 37  Q 741 150 617 320  Q 494 491 444 738  Q 409 903 409 1263  L 409 3319  L 972 3319  L 972 1478  Q 972 1038 1006 884  Q 1059 663 1231 536  Q 1403 409 1656 409  Q 1909 409 2131 539  Q 2353 669 2445 892  Q 2538 1116 2538 1541  L 2538 3319  L 3100 3319  L 3100 0  L 2597 0  z " transform="scale(0.015625)" />
       <path id="ArialMT-65" d="M 2694 1069  L 3275 997  Q 3138 488 2766 206  Q 2394 -75 1816 -75  Q 1088 -75 661 373  Q 234 822 234 1631  Q 234 2469 665 2931  Q 1097 3394 1784 3394  Q 2450 3394 2872 2941  Q 3294 2488 3294 1666  Q 3294 1616 3291 1516  L 816 1516  Q 847 969 1125 678  Q 1403 388 1819 388  Q 2128 388 2347 550  Q 2566 713 2694 1069  z M 847 1978  L 2700 1978  Q 2663 2397 2488 2606  Q 2219 2931 1791 2931  Q 1403 2931 1139 2672  Q 875 2413 847 1978  z " transform="scale(0.015625)" />
       <path id="ArialMT-20" transform="scale(0.015625)" />
       <path id="ArialMT-2b" d="M 1603 741  L 1603 1997  L 356 1997  L 356 2522  L 1603 2522  L 1603 3769  L 2134 3769  L 2134 2522  L 3381 2522  L 3381 1997  L 2134 1997  L 2134 741  L 1603 741  z " transform="scale(0.015625)" />
       <path id="ArialMT-31" d="M 2384 0  L 1822 0  L 1822 3584  Q 1619 3391 1289 3197  Q 959 3003 697 2906  L 697 3450  Q 1169 3672 1522 3987  Q 1875 4303 2022 4600  L 2384 4600  L 2384 0  z " transform="scale(0.015625)" />
      </defs>
      <use xlink:href="#ArialMT-74" />
      <use xlink:href="#ArialMT-6f" x="27.783203" />
      <use xlink:href="#ArialMT-72" x="83.398438" />
      <use xlink:href="#ArialMT-71" x="116.699219" />
      <use xlink:href="#ArialMT-75" x="172.314453" />
      <use xlink:href="#ArialMT-65" x="227.929688" />
      <use xlink:href="#ArialMT-20" x="283.544922" />
      <use xlink:href="#ArialMT-2b" x="311.328125" />
      <use xlink:href="#ArialMT-31" x="369.726562" />
     </g>
    </g>
    <g id="patch_4">
     <path d="M 51.221875 44.040625  L 71.221875 44.040625  L 71.221875 37.040625  L 51.221875 37.040625  z " style="fill: #d9e6f5; stroke: #444443; stroke-width: 0.4; stroke-linejoin: miter" />
    </g>
    <g id="text_3">
     
     <g style="fill: #444443" transform="translate(74.721875 44.040625)scale(0.1 -0.1)">
      <defs>
       <path id="ArialMT-30" d="M 266 2259  Q 266 3072 433 3567  Q 600 4063 929 4331  Q 1259 4600 1759 4600  Q 2128 4600 2406 4451  Q 2684 4303 2865 4023  Q 3047 3744 3150 3342  Q 3253 2941 3253 2259  Q 3253 1453 3087 958  Q 2922 463 2592 192  Q 2263 -78 1759 -78  Q 1097 -78 719 397  Q 266 969 266 2259  z M 844 2259  Q 844 1131 1108 757  Q 1372 384 1759 384  Q 2147 384 2411 759  Q 2675 1134 2675 2259  Q 2675 3391 2411 3762  Q 2147 4134 1753 4134  Q 1366 4134 1134 3806  Q 844 3388 844 2259  z " transform="scale(0.015625)" />
      </defs>
      <use xlink:href="#ArialMT-74" />
      <use xlink:href="#ArialMT-6f" x="27.783203" />
      <use xlink:href="#ArialMT-72" x="83.398438" />
      <use xlink:href="#ArialMT-71" x="116.699219" />
      <use xlink:href="#ArialMT-75" x="172.314453" />
      <use xlink:href="#ArialMT-65" x="227.929688" />
      <use xlink:href="#ArialMT-20" x="283.544922" />
      <use xlink:href="#ArialMT-30" x="311.328125" />
     </g>
    </g>
    <g id="patch_5">
     <path d="M 51.221875 58.215625  L 71.221875 58.215625  L 71.221875 51.215625  L 51.221875 51.215625  z " style="fill: #a1dab4; stroke: #444443; stroke-width: 0.4; stroke-linejoin: miter" />
    </g>
    <g id="text_4">
     
     <g style="fill: #444443" transform="translate(74.721875 58.215625)scale(0.1 -0.1)">
      <defs>
       <path id="ArialMT-2d" d="M 203 1375  L 203 1941  L 1931 1941  L 1931 1375  L 203 1375  z " transform="scale(0.015625)" />
      </defs>
      <use xlink:href="#ArialMT-74" />
      <use xlink:href="#ArialMT-6f" x="27.783203" />
      <use xlink:href="#ArialMT-72" x="83.398438" />
      <use xlink:href="#ArialMT-71" x="116.699219" />
      <use xlink:href="#ArialMT-75" x="172.314453" />
      <use xlink:href="#ArialMT-65" x="227.929688" />
      <use xlink:href="#ArialMT-20" x="283.544922" />
      <use xlink:href="#ArialMT-2d" x="311.328125" />
      <use xlink:href="#ArialMT-31" x="344.628906" />
     </g>
    </g>
   </g>
  </g>
 </g>
</svg></g>
</g>
</svg>