<svg xmlns="http://www.w3.org/2000/svg" xmlns:dc="http://purl.org/dc/elements/1.1/" xmlns:ns2="http://creativecommons.org/ns#" xmlns:rdf="http://www.w3.org/1999/02/22-rdf-syntax-ns#" xmlns:xlink="http://www.w3.org/1999/xlink" width="319.0" height="185.0" viewBox="0.0 0.0 319.0 185.0">
<g id="graph0" class="graph" transform="scale(1.0 1.0) rotate(0) translate(4 181)">
<title>G</title>
<polygon fill="white" stroke="transparent" points="-4,4 -4,-181 315,-181 315,4 -4,4" />
<g id="clust2" class="cluster">
<title>cluster_legend</title>
</g>

<g id="node1" class="node">
<title>node0</title>
<svg width="158px" height="44px" viewBox="0 0 211.326812 59.15625" version="1.1" preserveAspectRatio="xMinYMin meet" x="4" y="-163.5">
 <metadata>
  <rdf:RDF>
   <ns2:Work>
    <dc:type rdf:resource="http://purl.org/dc/dcmitype/StillImage" />
    <dc:date>2022-01-16T09:25:51.708572</dc:date>
    <dc:format>image/svg+xml</dc:format>
    <dc:creator>
     <ns2:Agent>
      <dc:title>Matplotlib v3.5.1, https://matplotlib.org/</dc:title>
     </ns2:Agent>
    </dc:creator>
   </ns2:Work>
  </rdf:RDF>
 </metadata>
 <defs>
  <style type="text/css">*{stroke-linejoin: round; stroke-linecap: butt}</style>
 </defs>
 <g id="figure_1">
  <g id="patch_1">
   <path d="M 0 59.15625  L 211.326812 59.15625  L 211.326812 0  L 0 0  z " style="fill: #ffffff" />
  </g>
  <g id="axes_1">
   <g id="patch_2">
    <path d="M 22.27 29.439375  L 206.41 29.439375  L 206.41 1.719375  L 22.27 1.719375  z " style="fill: #ffffff" />
   </g>
   <g id="patch_3">
    <path d="M 22.27 29.439375  L 32.867092 29.439375  L 32.867092 29.327747  L 22.27 29.327747  z " clip-path="url(#p79e9fed2a9)" style="fill: #fefebb; stroke: #444443; stroke-width: 0.5; stroke-linejoin: miter" />
   </g>
   <g id="patch_4">
    <path d="M 32.867092 29.439375  L 43.464184 29.439375  L 43.464184 29.439375  L 32.867092 29.439375  z " clip-path="url(#p79e9fed2a9)" style="fill: #fefebb; stroke: #444443; stroke-width: 0.5; stroke-linejoin: miter" />
   </g>
   <g id="patch_5">
    <path d="M 43.464184 29.439375  L 54.061276 29.439375  L 54.061276 29.271933  L 43.464184 29.271933  z " clip-path="url(#p79e9fed2a9)" style="fill: #fefebb; stroke: #444443; stroke-width: 0.5; stroke-linejoin: miter" />
   </g>
   <g id="patch_6">
    <path d="M 54.061276 29.439375  L 64.658368 29.439375  L 64.658368 29.104491  L 54.061276 29.104491  z " clip-path="url(#p79e9fed2a9)" style="fill: #fefebb; stroke: #444443; stroke-width: 0.5; stroke-linejoin: miter" />
   </g>
   <g id="patch_7">
    <path d="M 64.658368 29.439375  L 75.25546 29.439375  L 75.25546 28.65798  L 64.658368 28.65798  z " clip-path="url(#p79e9fed2a9)" style="fill: #fefebb; stroke: #444443; stroke-width: 0.5; stroke-linejoin: miter" />
   </g>
   <g id="patch_8">
    <path d="M 75.25546 29.439375  L 85.852551 29.439375  L 85.852551 28.602166  L 75.25546 28.602166  z " clip-path="url(#p79e9fed2a9)" style="fill: #fefebb; stroke: #444443; stroke-width: 0.5; stroke-linejoin: miter" />
   </g>
   <g id="patch_9">
    <path d="M 85.852551 29.439375  L 96.449643 29.439375  L 96.449643 28.267282  L 85.852551 28.267282  z " clip-path="url(#p79e9fed2a9)" style="fill: #fefebb; stroke: #444443; stroke-width: 0.5; stroke-linejoin: miter" />
   </g>
   <g id="patch_10">
    <path d="M 96.449643 29.439375  L 107.046735 29.439375  L 107.046735 28.09984  L 96.449643 28.09984  z " clip-path="url(#p79e9fed2a9)" style="fill: #fefebb; stroke: #444443; stroke-width: 0.5; stroke-linejoin: miter" />
   </g>
   <g id="patch_11">
    <path d="M 107.046735 29.439375  L 117.643827 29.439375  L 117.643827 25.364956  L 107.046735 25.364956  z " clip-path="url(#p79e9fed2a9)" style="fill: #fefebb; stroke: #444443; stroke-width: 0.5; stroke-linejoin: miter" />
   </g>
   <g id="patch_12">
    <path d="M 117.643827 29.439375  L 128.240919 29.439375  L 128.240919 24.304491  L 117.643827 24.304491  z " clip-path="url(#p79e9fed2a9)" style="fill: #fefebb; stroke: #444443; stroke-width: 0.5; stroke-linejoin: miter" />
   </g>
   <g id="patch_13">
    <path d="M 128.240919 29.439375  L 138.838011 29.439375  L 138.838011 28.37891  L 128.240919 28.37891  z " clip-path="url(#p79e9fed2a9)" style="fill: #fefebb; stroke: #444443; stroke-width: 0.5; stroke-linejoin: miter" />
   </g>
   <g id="patch_14">
    <path d="M 138.838011 29.439375  L 149.435103 29.439375  L 149.435103 28.769608  L 138.838011 28.769608  z " clip-path="url(#p79e9fed2a9)" style="fill: #fefebb; stroke: #444443; stroke-width: 0.5; stroke-linejoin: miter" />
   </g>
   <g id="patch_15">
    <path d="M 149.435103 29.439375  L 160.032195 29.439375  L 160.032195 29.271933  L 149.435103 29.271933  z " clip-path="url(#p79e9fed2a9)" style="fill: #fefebb; stroke: #444443; stroke-width: 0.5; stroke-linejoin: miter" />
   </g>
   <g id="patch_16">
    <path d="M 160.032195 29.439375  L 170.629287 29.439375  L 170.629287 29.383561  L 160.032195 29.383561  z " clip-path="url(#p79e9fed2a9)" style="fill: #fefebb; stroke: #444443; stroke-width: 0.5; stroke-linejoin: miter" />
   </g>
   <g id="patch_17">
    <path d="M 170.629287 29.439375  L 181.226379 29.439375  L 181.226379 29.439375  L 170.629287 29.439375  z " clip-path="url(#p79e9fed2a9)" style="fill: #fefebb; stroke: #444443; stroke-width: 0.5; stroke-linejoin: miter" />
   </g>
   <g id="patch_18">
    <path d="M 181.226379 29.439375  L 191.823471 29.439375  L 191.823471 29.439375  L 181.226379 29.439375  z " clip-path="url(#p79e9fed2a9)" style="fill: #fefebb; stroke: #444443; stroke-width: 0.5; stroke-linejoin: miter" />
   </g>
   <g id="patch_19">
    <path d="M 191.823471 29.439375  L 202.420562 29.439375  L 202.420562 29.439375  L 191.823471 29.439375  z " clip-path="url(#p79e9fed2a9)" style="fill: #fefebb; stroke: #444443; stroke-width: 0.5; stroke-linejoin: miter" />
   </g>
   <g id="patch_20">
    <path d="M 22.27 29.327747  L 32.867092 29.327747  L 32.867092 29.327747  L 22.27 29.327747  z " clip-path="url(#p79e9fed2a9)" style="fill: #d9e6f5; stroke: #444443; stroke-width: 0.5; stroke-linejoin: miter" />
   </g>
   <g id="patch_21">
    <path d="M 32.867092 29.439375  L 43.464184 29.439375  L 43.464184 29.439375  L 32.867092 29.439375  z " clip-path="url(#p79e9fed2a9)" style="fill: #d9e6f5; stroke: #444443; stroke-width: 0.5; stroke-linejoin: miter" />
   </g>
   <g id="patch_22">
    <path d="M 43.464184 29.271933  L 54.061276 29.271933  L 54.061276 29.271933  L 43.464184 29.271933  z " clip-path="url(#p79e9fed2a9)" style="fill: #d9e6f5; stroke: #444443; stroke-width: 0.5; stroke-linejoin: miter" />
   </g>
   <g id="patch_23">
    <path d="M 54.061276 29.104491  L 64.658368 29.104491  L 64.658368 29.104491  L 54.061276 29.104491  z " clip-path="url(#p79e9fed2a9)" style="fill: #d9e6f5; stroke: #444443; stroke-width: 0.5; stroke-linejoin: miter" />
   </g>
   <g id="patch_24">
    <path d="M 64.658368 28.65798  L 75.25546 28.65798  L 75.25546 28.546352  L 64.658368 28.546352  z " clip-path="url(#p79e9fed2a9)" style="fill: #d9e6f5; stroke: #444443; stroke-width: 0.5; stroke-linejoin: miter" />
   </g>
   <g id="patch_25">
    <path d="M 75.25546 28.602166  L 85.852551 28.602166  L 85.852551 28.490538  L 75.25546 28.490538  z " clip-path="url(#p79e9fed2a9)" style="fill: #d9e6f5; stroke: #444443; stroke-width: 0.5; stroke-linejoin: miter" />
   </g>
   <g id="patch_26">
    <path d="M 85.852551 28.267282  L 96.449643 28.267282  L 96.449643 27.988212  L 85.852551 27.988212  z " clip-path="url(#p79e9fed2a9)" style="fill: #d9e6f5; stroke: #444443; stroke-width: 0.5; stroke-linejoin: miter" />
   </g>
   <g id="patch_27">
    <path d="M 96.449643 28.09984  L 107.046735 28.09984  L 107.046735 27.151003  L 96.449643 27.151003  z " clip-path="url(#p79e9fed2a9)" style="fill: #d9e6f5; stroke: #444443; stroke-width: 0.5; stroke-linejoin: miter" />
   </g>
   <g id="patch_28">
    <path d="M 107.046735 25.364956  L 117.643827 25.364956  L 117.643827 23.85798  L 107.046735 23.85798  z " clip-path="url(#p79e9fed2a9)" style="fill: #d9e6f5; stroke: #444443; stroke-width: 0.5; stroke-linejoin: miter" />
   </g>
   <g id="patch_29">
    <path d="M 117.643827 24.304491  L 128.240919 24.304491  L 128.240919 13.755654  L 117.643827 13.755654  z " clip-path="url(#p79e9fed2a9)" style="fill: #d9e6f5; stroke: #444443; stroke-width: 0.5; stroke-linejoin: miter" />
   </g>
   <g id="patch_30">
    <path d="M 128.240919 28.37891  L 138.838011 28.37891  L 138.838011 27.988212  L 128.240919 27.988212  z " clip-path="url(#p79e9fed2a9)" style="fill: #d9e6f5; stroke: #444443; stroke-width: 0.5; stroke-linejoin: miter" />
   </g>
   <g id="patch_31">
    <path d="M 138.838011 28.769608  L 149.435103 28.769608  L 149.435103 28.546352  L 138.838011 28.546352  z " clip-path="url(#p79e9fed2a9)" style="fill: #d9e6f5; stroke: #444443; stroke-width: 0.5; stroke-linejoin: miter" />
   </g>
   <g id="patch_32">
    <path d="M 149.435103 29.271933  L 160.032195 29.271933  L 160.032195 29.048677  L 149.435103 29.048677  z " clip-path="url(#p79e9fed2a9)" style="fill: #d9e6f5; stroke: #444443; stroke-width: 0.5; stroke-linejoin: miter" />
   </g>
   <g id="patch_33">
    <path d="M 160.032195 29.383561  L 170.629287 29.383561  L 170.629287 29.327747  L 160.032195 29.327747  z " clip-path="url(#p79e9fed2a9)" style="fill: #d9e6f5; stroke: #444443; stroke-width: 0.5; stroke-linejoin: miter" />
   </g>
   <g id="patch_34">
    <path d="M 170.629287 29.439375  L 181.226379 29.439375  L 181.226379 29.383561  L 170.629287 29.383561  z " clip-path="url(#p79e9fed2a9)" style="fill: #d9e6f5; stroke: #444443; stroke-width: 0.5; stroke-linejoin: miter" />
   </g>
   <g id="patch_35">
    <path d="M 181.226379 29.439375  L 191.823471 29.439375  L 191.823471 29.439375  L 181.226379 29.439375  z " clip-path="url(#p79e9fed2a9)" style="fill: #d9e6f5; stroke: #444443; stroke-width: 0.5; stroke-linejoin: miter" />
   </g>
   <g id="patch_36">
    <path d="M 191.823471 29.439375  L 202.420562 29.439375  L 202.420562 29.327747  L 191.823471 29.327747  z " clip-path="url(#p79e9fed2a9)" style="fill: #d9e6f5; stroke: #444443; stroke-width: 0.5; stroke-linejoin: miter" />
   </g>
   <g id="patch_37">
    <path d="M 22.27 29.327747  L 32.867092 29.327747  L 32.867092 29.327747  L 22.27 29.327747  z " clip-path="url(#p79e9fed2a9)" style="fill: #a1dab4; stroke: #444443; stroke-width: 0.5; stroke-linejoin: miter" />
   </g>
   <g id="patch_38">
    <path d="M 32.867092 29.439375  L 43.464184 29.439375  L 43.464184 29.439375  L 32.867092 29.439375  z " clip-path="url(#p79e9fed2a9)" style="fill: #a1dab4; stroke: #444443; stroke-width: 0.5; stroke-linejoin: miter" />
   </g>
   <g id="patch_39">
    <path d="M 43.464184 29.271933  L 54.061276 29.271933  L 54.061276 29.271933  L 43.464184 29.271933  z " clip-path="url(#p79e9fed2a9)" style="fill: #a1dab4; stroke: #444443; stroke-width: 0.5; stroke-linejoin: miter" />
   </g>
   <g id="patch_40">
    <path d="M 54.061276 29.104491  L 64.658368 29.104491  L 64.658368 29.104491  L 54.061276 29.104491  z " clip-path="url(#p79e9fed2a9)" style="fill: #a1dab4; stroke: #444443; stroke-width: 0.5; stroke-linejoin: miter" />
   </g>
   <g id="patch_41">
    <path d="M 64.658368 28.546352  L 75.25546 28.546352  L 75.25546 28.546352  L 64.658368 28.546352  z " clip-path="url(#p79e9fed2a9)" style="fill: #a1dab4; stroke: #444443; stroke-width: 0.5; stroke-linejoin: miter" />
   </g>
   <g id="patch_42">
    <path d="M 75.25546 28.490538  L 85.852551 28.490538  L 85.852551 28.490538  L 75.25546 28.490538  z " clip-path="url(#p79e9fed2a9)" style="fill: #a1dab4; stroke: #444443; stroke-width: 0.5; stroke-linejoin: miter" />
   </g>
   <g id="patch_43">
    <path d="M 85.852551 27.988212  L 96.449643 27.988212  L 96.449643 27.988212  L 85.852551 27.988212  z " clip-path="url(#p79e9fed2a9)" style="fill: #a1dab4; stroke: #444443; stroke-width: 0.5; stroke-linejoin: miter" />
   </g>
   <g id="patch_44">
    <path d="M 96.449643 27.151003  L 107.046735 27.151003  L 107.046735 26.816119  L 96.449643 26.816119  z " clip-path="url(#p79e9fed2a9)" style="fill: #a1dab4; stroke: #444443; stroke-width: 0.5; stroke-linejoin: miter" />
   </g>
   <g id="patch_45">
    <path d="M 107.046735 23.85798  L 117.643827 23.85798  L 117.643827 22.964956  L 107.046735 22.964956  z " clip-path="url(#p79e9fed2a9)" style="fill: #a1dab4; stroke: #444443; stroke-width: 0.5; stroke-linejoin: miter" />
   </g>
   <g id="patch_46">
    <path d="M 117.643827 13.755654  L 128.240919 13.755654  L 128.240919 3.039375  L 117.643827 3.039375  z " clip-path="url(#p79e9fed2a9)" style="fill: #a1dab4; stroke: #444443; stroke-width: 0.5; stroke-linejoin: miter" />
   </g>
   <g id="patch_47">
    <path d="M 128.240919 27.988212  L 138.838011 27.988212  L 138.838011 24.192863  L 128.240919 24.192863  z " clip-path="url(#p79e9fed2a9)" style="fill: #a1dab4; stroke: #444443; stroke-width: 0.5; stroke-linejoin: miter" />
   </g>
   <g id="patch_48">
    <path d="M 138.838011 28.546352  L 149.435103 28.546352  L 149.435103 27.206817  L 138.838011 27.206817  z " clip-path="url(#p79e9fed2a9)" style="fill: #a1dab4; stroke: #444443; stroke-width: 0.5; stroke-linejoin: miter" />
   </g>
   <g id="patch_49">
    <path d="M 149.435103 29.048677  L 160.032195 29.048677  L 160.032195 27.932398  L 149.435103 27.932398  z " clip-path="url(#p79e9fed2a9)" style="fill: #a1dab4; stroke: #444443; stroke-width: 0.5; stroke-linejoin: miter" />
   </g>
   <g id="patch_50">
    <path d="M 160.032195 29.327747  L 170.629287 29.327747  L 170.629287 28.602166  L 160.032195 28.602166  z " clip-path="url(#p79e9fed2a9)" style="fill: #a1dab4; stroke: #444443; stroke-width: 0.5; stroke-linejoin: miter" />
   </g>
   <g id="patch_51">
    <path d="M 170.629287 29.383561  L 181.226379 29.383561  L 181.226379 28.602166  L 170.629287 28.602166  z " clip-path="url(#p79e9fed2a9)" style="fill: #a1dab4; stroke: #444443; stroke-width: 0.5; stroke-linejoin: miter" />
   </g>
   <g id="patch_52">
    <path d="M 181.226379 29.439375  L 191.823471 29.439375  L 191.823471 29.216119  L 181.226379 29.216119  z " clip-path="url(#p79e9fed2a9)" style="fill: #a1dab4; stroke: #444443; stroke-width: 0.5; stroke-linejoin: miter" />
   </g>
   <g id="patch_53">
    <path d="M 191.823471 29.327747  L 202.420562 29.327747  L 202.420562 29.048677  L 191.823471 29.048677  z " clip-path="url(#p79e9fed2a9)" style="fill: #a1dab4; stroke: #444443; stroke-width: 0.5; stroke-linejoin: miter" />
   </g>
   <g id="patch_54">
    <path d="M 120.726776 30.270975  L 117.412256 37.755375  L 124.041296 37.755375  z " style="fill: #444443" />
   </g>
   <g id="matplotlib.axis_1">
    <g id="xtick_1">
     <g id="line2d_1">
      <defs>
       <path id="m11e1e84bc6" d="M 0 0  L 0 3.5  " style="stroke: #000000; stroke-width: 0.3" />
      </defs>
      <g>
       <use xlink:href="#m11e1e84bc6" x="22.27" y="29.439375" style="stroke: #000000; stroke-width: 0.3" />
      </g>
     </g>
     <g id="text_1">
      
      <g style="fill: #444443" transform="translate(7.466875 42.518125)scale(0.08 -0.08)">
       <defs>
        <path id="DejaVuSans-2212" d="M 678 2272  L 4684 2272  L 4684 1741  L 678 1741  L 678 2272  z " transform="scale(0.015625)" />
        <path id="DejaVuSans-31" d="M 794 531  L 1825 531  L 1825 4091  L 703 3866  L 703 4441  L 1819 4666  L 2450 4666  L 2450 531  L 3481 531  L 3481 0  L 794 0  L 794 531  z " transform="scale(0.015625)" />
        <path id="DejaVuSans-30" d="M 2034 4250  Q 1547 4250 1301 3770  Q 1056 3291 1056 2328  Q 1056 1369 1301 889  Q 1547 409 2034 409  Q 2525 409 2770 889  Q 3016 1369 3016 2328  Q 3016 3291 2770 3770  Q 2525 4250 2034 4250  z M 2034 4750  Q 2819 4750 3233 4129  Q 3647 3509 3647 2328  Q 3647 1150 3233 529  Q 2819 -91 2034 -91  Q 1250 -91 836 529  Q 422 1150 422 2328  Q 422 3509 836 4129  Q 1250 4750 2034 4750  z " transform="scale(0.015625)" />
        <path id="DejaVuSans-2e" d="M 684 794  L 1344 794  L 1344 0  L 684 0  L 684 794  z " transform="scale(0.015625)" />
        <path id="DejaVuSans-36" d="M 2113 2584  Q 1688 2584 1439 2293  Q 1191 2003 1191 1497  Q 1191 994 1439 701  Q 1688 409 2113 409  Q 2538 409 2786 701  Q 3034 994 3034 1497  Q 3034 2003 2786 2293  Q 2538 2584 2113 2584  z M 3366 4563  L 3366 3988  Q 3128 4100 2886 4159  Q 2644 4219 2406 4219  Q 1781 4219 1451 3797  Q 1122 3375 1075 2522  Q 1259 2794 1537 2939  Q 1816 3084 2150 3084  Q 2853 3084 3261 2657  Q 3669 2231 3669 1497  Q 3669 778 3244 343  Q 2819 -91 2113 -91  Q 1303 -91 875 529  Q 447 1150 447 2328  Q 447 3434 972 4092  Q 1497 4750 2381 4750  Q 2619 4750 2861 4703  Q 3103 4656 3366 4563  z " transform="scale(0.015625)" />
       </defs>
       <use xlink:href="#DejaVuSans-2212" />
       <use xlink:href="#DejaVuSans-31" x="83.789062" />
       <use xlink:href="#DejaVuSans-30" x="147.412109" />
       <use xlink:href="#DejaVuSans-2e" x="211.035156" />
       <use xlink:href="#DejaVuSans-30" x="242.822266" />
       <use xlink:href="#DejaVuSans-36" x="306.445312" />
      </g>
     </g>
    </g>
    <g id="xtick_2">
     <g id="line2d_2">
      <g>
       <use xlink:href="#m11e1e84bc6" x="202.420562" y="29.439375" style="stroke: #000000; stroke-width: 0.3" />
      </g>
     </g>
     <g id="text_2">
      
      <g style="fill: #444443" transform="translate(193.514312 42.518125)scale(0.08 -0.08)">
       <defs>
        <path id="DejaVuSans-38" d="M 2034 2216  Q 1584 2216 1326 1975  Q 1069 1734 1069 1313  Q 1069 891 1326 650  Q 1584 409 2034 409  Q 2484 409 2743 651  Q 3003 894 3003 1313  Q 3003 1734 2745 1975  Q 2488 2216 2034 2216  z M 1403 2484  Q 997 2584 770 2862  Q 544 3141 544 3541  Q 544 4100 942 4425  Q 1341 4750 2034 4750  Q 2731 4750 3128 4425  Q 3525 4100 3525 3541  Q 3525 3141 3298 2862  Q 3072 2584 2669 2484  Q 3125 2378 3379 2068  Q 3634 1759 3634 1313  Q 3634 634 3220 271  Q 2806 -91 2034 -91  Q 1263 -91 848 271  Q 434 634 434 1313  Q 434 1759 690 2068  Q 947 2378 1403 2484  z M 1172 3481  Q 1172 3119 1398 2916  Q 1625 2713 2034 2713  Q 2441 2713 2670 2916  Q 2900 3119 2900 3481  Q 2900 3844 2670 4047  Q 2441 4250 2034 4250  Q 1625 4250 1398 4047  Q 1172 3844 1172 3481  z " transform="scale(0.015625)" />
       </defs>
       <use xlink:href="#DejaVuSans-38" />
       <use xlink:href="#DejaVuSans-2e" x="63.623047" />
       <use xlink:href="#DejaVuSans-30" x="95.410156" />
       <use xlink:href="#DejaVuSans-30" x="159.033203" />
      </g>
     </g>
    </g>
    <g id="text_3">
     
     <g style="fill: #444443" transform="translate(84.995312 56.77125)scale(0.12 -0.12)">
      <defs>
       <path id="ArialMT-74" d="M 1650 503  L 1731 6  Q 1494 -44 1306 -44  Q 1000 -44 831 53  Q 663 150 594 308  Q 525 466 525 972  L 525 2881  L 113 2881  L 113 3319  L 525 3319  L 525 4141  L 1084 4478  L 1084 3319  L 1650 3319  L 1650 2881  L 1084 2881  L 1084 941  Q 1084 700 1114 631  Q 1144 563 1211 522  Q 1278 481 1403 481  Q 1497 481 1650 503  z " transform="scale(0.015625)" />
       <path id="ArialMT-68" d="M 422 0  L 422 4581  L 984 4581  L 984 2938  Q 1378 3394 1978 3394  Q 2347 3394 2619 3248  Q 2891 3103 3008 2847  Q 3125 2591 3125 2103  L 3125 0  L 2563 0  L 2563 2103  Q 2563 2525 2380 2717  Q 2197 2909 1863 2909  Q 1613 2909 1392 2779  Q 1172 2650 1078 2428  Q 984 2206 984 1816  L 984 0  L 422 0  z " transform="scale(0.015625)" />
       <path id="ArialMT-65" d="M 2694 1069  L 3275 997  Q 3138 488 2766 206  Q 2394 -75 1816 -75  Q 1088 -75 661 373  Q 234 822 234 1631  Q 234 2469 665 2931  Q 1097 3394 1784 3394  Q 2450 3394 2872 2941  Q 3294 2488 3294 1666  Q 3294 1616 3291 1516  L 816 1516  Q 847 969 1125 678  Q 1403 388 1819 388  Q 2128 388 2347 550  Q 2566 713 2694 1069  z M 847 1978  L 2700 1978  Q 2663 2397 2488 2606  Q 2219 2931 1791 2931  Q 1403 2931 1139 2672  Q 875 2413 847 1978  z " transform="scale(0.015625)" />
       <path id="ArialMT-61" d="M 2588 409  Q 2275 144 1986 34  Q 1697 -75 1366 -75  Q 819 -75 525 192  Q 231 459 231 875  Q 231 1119 342 1320  Q 453 1522 633 1644  Q 813 1766 1038 1828  Q 1203 1872 1538 1913  Q 2219 1994 2541 2106  Q 2544 2222 2544 2253  Q 2544 2597 2384 2738  Q 2169 2928 1744 2928  Q 1347 2928 1158 2789  Q 969 2650 878 2297  L 328 2372  Q 403 2725 575 2942  Q 747 3159 1072 3276  Q 1397 3394 1825 3394  Q 2250 3394 2515 3294  Q 2781 3194 2906 3042  Q 3031 2891 3081 2659  Q 3109 2516 3109 2141  L 3109 1391  Q 3109 606 3145 398  Q 3181 191 3288 0  L 2700 0  Q 2613 175 2588 409  z M 2541 1666  Q 2234 1541 1622 1453  Q 1275 1403 1131 1340  Q 988 1278 909 1158  Q 831 1038 831 891  Q 831 666 1001 516  Q 1172 366 1500 366  Q 1825 366 2078 508  Q 2331 650 2450 897  Q 2541 1088 2541 1459  L 2541 1666  z " transform="scale(0.015625)" />
       <path id="ArialMT-44" d="M 494 0  L 494 4581  L 2072 4581  Q 2606 4581 2888 4516  Q 3281 4425 3559 4188  Q 3922 3881 4101 3404  Q 4281 2928 4281 2316  Q 4281 1794 4159 1391  Q 4038 988 3847 723  Q 3656 459 3429 307  Q 3203 156 2883 78  Q 2563 0 2147 0  L 494 0  z M 1100 541  L 2078 541  Q 2531 541 2789 625  Q 3047 709 3200 863  Q 3416 1078 3536 1442  Q 3656 1806 3656 2325  Q 3656 3044 3420 3430  Q 3184 3816 2847 3947  Q 2603 4041 2063 4041  L 1100 4041  L 1100 541  z " transform="scale(0.015625)" />
       <path id="ArialMT-4f" d="M 309 2231  Q 309 3372 921 4017  Q 1534 4663 2503 4663  Q 3138 4663 3647 4359  Q 4156 4056 4423 3514  Q 4691 2972 4691 2284  Q 4691 1588 4409 1038  Q 4128 488 3612 205  Q 3097 -78 2500 -78  Q 1853 -78 1343 234  Q 834 547 571 1087  Q 309 1628 309 2231  z M 934 2222  Q 934 1394 1379 917  Q 1825 441 2497 441  Q 3181 441 3623 922  Q 4066 1403 4066 2288  Q 4066 2847 3877 3264  Q 3688 3681 3323 3911  Q 2959 4141 2506 4141  Q 1863 4141 1398 3698  Q 934 3256 934 2222  z " transform="scale(0.015625)" />
       <path id="ArialMT-54" d="M 1659 0  L 1659 4041  L 150 4041  L 150 4581  L 3781 4581  L 3781 4041  L 2266 4041  L 2266 0  L 1659 0  z " transform="scale(0.015625)" />
       <path id="ArialMT-32" d="M 3222 541  L 3222 0  L 194 0  Q 188 203 259 391  Q 375 700 629 1000  Q 884 1300 1366 1694  Q 2113 2306 2375 2664  Q 2638 3022 2638 3341  Q 2638 3675 2398 3904  Q 2159 4134 1775 4134  Q 1369 4134 1125 3890  Q 881 3647 878 3216  L 300 3275  Q 359 3922 746 4261  Q 1134 4600 1788 4600  Q 2447 4600 2831 4234  Q 3216 3869 3216 3328  Q 3216 3053 3103 2787  Q 2991 2522 2730 2228  Q 2469 1934 1863 1422  Q 1356 997 1212 845  Q 1069 694 975 541  L 3222 541  z " transform="scale(0.015625)" />
      </defs>
      <use xlink:href="#ArialMT-74" />
      <use xlink:href="#ArialMT-68" x="27.783203" />
      <use xlink:href="#ArialMT-65" x="83.398438" />
      <use xlink:href="#ArialMT-74" x="139.013672" />
      <use xlink:href="#ArialMT-61" x="166.796875" />
      <use xlink:href="#ArialMT-44" x="222.412109" />
      <use xlink:href="#ArialMT-4f" x="294.628906" />
      <use xlink:href="#ArialMT-54" x="372.412109" />
      <use xlink:href="#ArialMT-32" x="433.496094" />
     </g>
    </g>
   </g>
   <g id="matplotlib.axis_2">
    <g id="ytick_1">
     <g id="line2d_3">
      <defs>
       <path id="m1d18363655" d="M 0 0  L -3.5 0  " style="stroke: #000000; stroke-width: 0.3" />
      </defs>
      <g>
       <use xlink:href="#m1d18363655" x="22.27" y="29.439375" style="stroke: #000000; stroke-width: 0.3" />
      </g>
     </g>
     <g id="text_4">
      
      <g style="fill: #444443" transform="translate(10.18 32.47875)scale(0.08 -0.08)">
       <use xlink:href="#DejaVuSans-30" />
      </g>
     </g>
    </g>
    <g id="ytick_2">
     <g id="line2d_4">
      <g>
       <use xlink:href="#m1d18363655" x="22.27" y="3.039375" style="stroke: #000000; stroke-width: 0.3" />
      </g>
     </g>
     <g id="text_5">
      
      <g style="fill: #444443" transform="translate(0 6.07875)scale(0.08 -0.08)">
       <defs>
        <path id="DejaVuSans-34" d="M 2419 4116  L 825 1625  L 2419 1625  L 2419 4116  z M 2253 4666  L 3047 4666  L 3047 1625  L 3713 1625  L 3713 1100  L 3047 1100  L 3047 0  L 2419 0  L 2419 1100  L 313 1100  L 313 1709  L 2253 4666  z " transform="scale(0.015625)" />
        <path id="DejaVuSans-37" d="M 525 4666  L 3525 4666  L 3525 4397  L 1831 0  L 1172 0  L 2766 4134  L 525 4134  L 525 4666  z " transform="scale(0.015625)" />
        <path id="DejaVuSans-33" d="M 2597 2516  Q 3050 2419 3304 2112  Q 3559 1806 3559 1356  Q 3559 666 3084 287  Q 2609 -91 1734 -91  Q 1441 -91 1130 -33  Q 819 25 488 141  L 488 750  Q 750 597 1062 519  Q 1375 441 1716 441  Q 2309 441 2620 675  Q 2931 909 2931 1356  Q 2931 1769 2642 2001  Q 2353 2234 1838 2234  L 1294 2234  L 1294 2753  L 1863 2753  Q 2328 2753 2575 2939  Q 2822 3125 2822 3475  Q 2822 3834 2567 4026  Q 2313 4219 1838 4219  Q 1578 4219 1281 4162  Q 984 4106 628 3988  L 628 4550  Q 988 4650 1302 4700  Q 1616 4750 1894 4750  Q 2613 4750 3031 4423  Q 3450 4097 3450 3541  Q 3450 3153 3228 2886  Q 3006 2619 2597 2516  z " transform="scale(0.015625)" />
       </defs>
       <use xlink:href="#DejaVuSans-34" />
       <use xlink:href="#DejaVuSans-37" x="63.623047" />
       <use xlink:href="#DejaVuSans-33" x="127.246094" />
      </g>
     </g>
    </g>
   </g>
   <g id="patch_55">
    <path d="M 22.27 29.439375  L 22.27 1.719375  " style="fill: none; stroke: #000000; stroke-width: 0.3; stroke-linejoin: miter; stroke-linecap: square" />
   </g>
   <g id="patch_56">
    <path d="M 22.27 29.439375  L 206.41 29.439375  " style="fill: none; stroke: #000000; stroke-width: 0.3; stroke-linejoin: miter; stroke-linecap: square" />
   </g>
   <g id="text_6">
    
    <g style="fill: #444443" transform="translate(111.610526 46.071375)scale(0.08 -0.08)">
     <defs>
      <path id="ArialMT-2d" d="M 203 1375  L 203 1941  L 1931 1941  L 1931 1375  L 203 1375  z " transform="scale(0.015625)" />
      <path id="ArialMT-30" d="M 266 2259  Q 266 3072 433 3567  Q 600 4063 929 4331  Q 1259 4600 1759 4600  Q 2128 4600 2406 4451  Q 2684 4303 2865 4023  Q 3047 3744 3150 3342  Q 3253 2941 3253 2259  Q 3253 1453 3087 958  Q 2922 463 2592 192  Q 2263 -78 1759 -78  Q 1097 -78 719 397  Q 266 969 266 2259  z M 844 2259  Q 844 1131 1108 757  Q 1372 384 1759 384  Q 2147 384 2411 759  Q 2675 1134 2675 2259  Q 2675 3391 2411 3762  Q 2147 4134 1753 4134  Q 1366 4134 1134 3806  Q 844 3388 844 2259  z " transform="scale(0.015625)" />
      <path id="ArialMT-2e" d="M 581 0  L 581 641  L 1222 641  L 1222 0  L 581 0  z " transform="scale(0.015625)" />
      <path id="ArialMT-31" d="M 2384 0  L 1822 0  L 1822 3584  Q 1619 3391 1289 3197  Q 959 3003 697 2906  L 697 3450  Q 1169 3672 1522 3987  Q 1875 4303 2022 4600  L 2384 4600  L 2384 0  z " transform="scale(0.015625)" />
      <path id="ArialMT-39" d="M 350 1059  L 891 1109  Q 959 728 1153 556  Q 1347 384 1650 384  Q 1909 384 2104 503  Q 2300 622 2425 820  Q 2550 1019 2634 1356  Q 2719 1694 2719 2044  Q 2719 2081 2716 2156  Q 2547 1888 2255 1720  Q 1963 1553 1622 1553  Q 1053 1553 659 1965  Q 266 2378 266 3053  Q 266 3750 677 4175  Q 1088 4600 1706 4600  Q 2153 4600 2523 4359  Q 2894 4119 3086 3673  Q 3278 3228 3278 2384  Q 3278 1506 3087 986  Q 2897 466 2520 194  Q 2144 -78 1638 -78  Q 1100 -78 759 220  Q 419 519 350 1059  z M 2653 3081  Q 2653 3566 2395 3850  Q 2138 4134 1775 4134  Q 1400 4134 1122 3828  Q 844 3522 844 3034  Q 844 2597 1108 2323  Q 1372 2050 1759 2050  Q 2150 2050 2401 2323  Q 2653 2597 2653 3081  z " transform="scale(0.015625)" />
     </defs>
     <use xlink:href="#ArialMT-2d" />
     <use xlink:href="#ArialMT-30" x="33.300781" />
     <use xlink:href="#ArialMT-2e" x="88.916016" />
     <use xlink:href="#ArialMT-31" x="116.699219" />
     <use xlink:href="#ArialMT-39" x="172.314453" />
    </g>
   </g>
  </g>
 </g>
 <defs>
  <clipPath id="p79e9fed2a9">
   <rect x="22.27" y="1.719375" width="184.14" height="27.72" />
  </clipPath>
 </defs>
</svg></g>

<g id="node2" class="node">
<title>leaf1</title>
<polygon fill="none" stroke="#444443" stroke-width="0" points="76,-83 8,-83 8,0 76,0 76,-83" />
<svg width="60px" height="75px" viewBox="0 0 80.07986 101.065189" version="1.1" preserveAspectRatio="xMinYMin meet" x="12" y="-78.5">
 <metadata>
  <rdf:RDF>
   <ns2:Work>
    <dc:type rdf:resource="http://purl.org/dc/dcmitype/StillImage" />
    <dc:date>2022-01-16T09:25:51.945937</dc:date>
    <dc:format>image/svg+xml</dc:format>
    <dc:creator>
     <ns2:Agent>
      <dc:title>Matplotlib v3.5.1, https://matplotlib.org/</dc:title>
     </ns2:Agent>
    </dc:creator>
   </ns2:Work>
  </rdf:RDF>
 </metadata>
 <defs>
  <style type="text/css">*{stroke-linejoin: round; stroke-linecap: butt}</style>
 </defs>
 <g id="figure_1">
  <g id="patch_1">
   <path d="M 0 101.065189  L 80.07986 101.065189  L 80.07986 0  L 0 0  z " style="fill: #ffffff" />
  </g>
  <g id="axes_1">
   <g id="patch_2">
    <path d="M 80.07986 40.039957  C 80.07986 32.491342 77.945185 25.094406 73.923251 18.706477  C 69.901317 12.318548 64.153754 7.196339 57.346723 3.93353  C 50.539692 0.670722 42.946748 -0.601563 35.447938 0.264138  C 27.949128 1.129838 20.845807 4.098734 14.961274 8.826721  C 9.076741 13.554708 4.647477 19.851781 2.18685 26.98809  C -0.273778 34.124398 -0.666884 41.813155 1.053094 49.163207  C 2.773071 56.513259 6.537012 63.22923 11.908662 68.532716  C 17.280311 73.836202 24.0438 77.514072 31.415217 79.140049  L 40.03986 40.039957  L 80.07986 40.039957  z " style="fill: #fefebb; stroke: #444443; stroke-width: 0.5; stroke-linejoin: miter" />
   </g>
   <g id="patch_3">
    <path d="M 31.415217 79.140049  C 39.807506 80.991208 48.576881 80.092151 56.418962 76.576605  C 64.261043 73.06106 70.766729 67.112423 74.968348 59.61551  L 40.03986 40.039957  L 31.415217 79.140049  z " style="fill: #d9e6f5; stroke: #444443; stroke-width: 0.5; stroke-linejoin: miter" />
   </g>
   <g id="patch_4">
    <path d="M 74.968348 59.61551  C 76.637234 56.637733 77.91849 53.458724 78.780911 50.155912  C 79.643332 46.853099 80.079859 43.453517 80.07986 40.039965  L 40.03986 40.039957  L 74.968348 59.61551  z " style="fill: #a1dab4; stroke: #444443; stroke-width: 0.5; stroke-linejoin: miter" />
   </g>
   <g id="text_1">
    
    <g style="fill: #444443" transform="translate(27.401891 89.725189)scale(0.09 -0.09)">
     <defs>
      <path id="ArialMT-6e" d="M 422 0  L 422 3319  L 928 3319  L 928 2847  Q 1294 3394 1984 3394  Q 2284 3394 2536 3286  Q 2788 3178 2913 3003  Q 3038 2828 3088 2588  Q 3119 2431 3119 2041  L 3119 0  L 2556 0  L 2556 2019  Q 2556 2363 2490 2533  Q 2425 2703 2258 2804  Q 2091 2906 1866 2906  Q 1506 2906 1245 2678  Q 984 2450 984 1813  L 984 0  L 422 0  z " transform="scale(0.015625)" />
      <path id="ArialMT-3d" d="M 3381 2694  L 356 2694  L 356 3219  L 3381 3219  L 3381 2694  z M 3381 1303  L 356 1303  L 356 1828  L 3381 1828  L 3381 1303  z " transform="scale(0.015625)" />
      <path id="ArialMT-33" d="M 269 1209  L 831 1284  Q 928 806 1161 595  Q 1394 384 1728 384  Q 2125 384 2398 659  Q 2672 934 2672 1341  Q 2672 1728 2419 1979  Q 2166 2231 1775 2231  Q 1616 2231 1378 2169  L 1441 2663  Q 1497 2656 1531 2656  Q 1891 2656 2178 2843  Q 2466 3031 2466 3422  Q 2466 3731 2256 3934  Q 2047 4138 1716 4138  Q 1388 4138 1169 3931  Q 950 3725 888 3313  L 325 3413  Q 428 3978 793 4289  Q 1159 4600 1703 4600  Q 2078 4600 2393 4439  Q 2709 4278 2876 4000  Q 3044 3722 3044 3409  Q 3044 3113 2884 2869  Q 2725 2625 2413 2481  Q 2819 2388 3044 2092  Q 3269 1797 3269 1353  Q 3269 753 2831 336  Q 2394 -81 1725 -81  Q 1122 -81 723 278  Q 325 638 269 1209  z " transform="scale(0.015625)" />
      <path id="ArialMT-34" d="M 2069 0  L 2069 1097  L 81 1097  L 81 1613  L 2172 4581  L 2631 4581  L 2631 1613  L 3250 1613  L 3250 1097  L 2631 1097  L 2631 0  L 2069 0  z M 2069 1613  L 2069 3678  L 634 1613  L 2069 1613  z " transform="scale(0.015625)" />
      <path id="ArialMT-32" d="M 3222 541  L 3222 0  L 194 0  Q 188 203 259 391  Q 375 700 629 1000  Q 884 1300 1366 1694  Q 2113 2306 2375 2664  Q 2638 3022 2638 3341  Q 2638 3675 2398 3904  Q 2159 4134 1775 4134  Q 1369 4134 1125 3890  Q 881 3647 878 3216  L 300 3275  Q 359 3922 746 4261  Q 1134 4600 1788 4600  Q 2447 4600 2831 4234  Q 3216 3869 3216 3328  Q 3216 3053 3103 2787  Q 2991 2522 2730 2228  Q 2469 1934 1863 1422  Q 1356 997 1212 845  Q 1069 694 975 541  L 3222 541  z " transform="scale(0.015625)" />
     </defs>
     <use xlink:href="#ArialMT-6e" />
     <use xlink:href="#ArialMT-3d" x="55.615234" />
     <use xlink:href="#ArialMT-33" x="114.013672" />
     <use xlink:href="#ArialMT-34" x="169.628906" />
     <use xlink:href="#ArialMT-32" x="225.244141" />
    </g>
    
    <g style="fill: #444443" transform="translate(20.900797 99.276439)scale(0.09 -0.09)">
     <defs>
      <path id="ArialMT-74" d="M 1650 503  L 1731 6  Q 1494 -44 1306 -44  Q 1000 -44 831 53  Q 663 150 594 308  Q 525 466 525 972  L 525 2881  L 113 2881  L 113 3319  L 525 3319  L 525 4141  L 1084 4478  L 1084 3319  L 1650 3319  L 1650 2881  L 1084 2881  L 1084 941  Q 1084 700 1114 631  Q 1144 563 1211 522  Q 1278 481 1403 481  Q 1497 481 1650 503  z " transform="scale(0.015625)" />
      <path id="ArialMT-6f" d="M 213 1659  Q 213 2581 725 3025  Q 1153 3394 1769 3394  Q 2453 3394 2887 2945  Q 3322 2497 3322 1706  Q 3322 1066 3130 698  Q 2938 331 2570 128  Q 2203 -75 1769 -75  Q 1072 -75 642 372  Q 213 819 213 1659  z M 791 1659  Q 791 1022 1069 705  Q 1347 388 1769 388  Q 2188 388 2466 706  Q 2744 1025 2744 1678  Q 2744 2294 2464 2611  Q 2184 2928 1769 2928  Q 1347 2928 1069 2612  Q 791 2297 791 1659  z " transform="scale(0.015625)" />
      <path id="ArialMT-72" d="M 416 0  L 416 3319  L 922 3319  L 922 2816  Q 1116 3169 1280 3281  Q 1444 3394 1641 3394  Q 1925 3394 2219 3213  L 2025 2691  Q 1819 2813 1613 2813  Q 1428 2813 1281 2702  Q 1134 2591 1072 2394  Q 978 2094 978 1738  L 978 0  L 416 0  z " transform="scale(0.015625)" />
      <path id="ArialMT-71" d="M 2538 -1272  L 2538 353  Q 2406 169 2170 47  Q 1934 -75 1669 -75  Q 1078 -75 651 397  Q 225 869 225 1691  Q 225 2191 398 2587  Q 572 2984 901 3189  Q 1231 3394 1625 3394  Q 2241 3394 2594 2875  L 2594 3319  L 3100 3319  L 3100 -1272  L 2538 -1272  z M 803 1669  Q 803 1028 1072 708  Q 1341 388 1716 388  Q 2075 388 2334 692  Q 2594 997 2594 1619  Q 2594 2281 2320 2615  Q 2047 2950 1678 2950  Q 1313 2950 1058 2639  Q 803 2328 803 1669  z " transform="scale(0.015625)" />
      <path id="ArialMT-75" d="M 2597 0  L 2597 488  Q 2209 -75 1544 -75  Q 1250 -75 995 37  Q 741 150 617 320  Q 494 491 444 738  Q 409 903 409 1263  L 409 3319  L 972 3319  L 972 1478  Q 972 1038 1006 884  Q 1059 663 1231 536  Q 1403 409 1656 409  Q 1909 409 2131 539  Q 2353 669 2445 892  Q 2538 1116 2538 1541  L 2538 3319  L 3100 3319  L 3100 0  L 2597 0  z " transform="scale(0.015625)" />
      <path id="ArialMT-65" d="M 2694 1069  L 3275 997  Q 3138 488 2766 206  Q 2394 -75 1816 -75  Q 1088 -75 661 373  Q 234 822 234 1631  Q 234 2469 665 2931  Q 1097 3394 1784 3394  Q 2450 3394 2872 2941  Q 3294 2488 3294 1666  Q 3294 1616 3291 1516  L 816 1516  Q 847 969 1125 678  Q 1403 388 1819 388  Q 2128 388 2347 550  Q 2566 713 2694 1069  z M 847 1978  L 2700 1978  Q 2663 2397 2488 2606  Q 2219 2931 1791 2931  Q 1403 2931 1139 2672  Q 875 2413 847 1978  z " transform="scale(0.015625)" />
      <path id="ArialMT-20" transform="scale(0.015625)" />
      <path id="ArialMT-2b" d="M 1603 741  L 1603 1997  L 356 1997  L 356 2522  L 1603 2522  L 1603 3769  L 2134 3769  L 2134 2522  L 3381 2522  L 3381 1997  L 2134 1997  L 2134 741  L 1603 741  z " transform="scale(0.015625)" />
      <path id="ArialMT-31" d="M 2384 0  L 1822 0  L 1822 3584  Q 1619 3391 1289 3197  Q 959 3003 697 2906  L 697 3450  Q 1169 3672 1522 3987  Q 1875 4303 2022 4600  L 2384 4600  L 2384 0  z " transform="scale(0.015625)" />
     </defs>
     <use xlink:href="#ArialMT-74" />
     <use xlink:href="#ArialMT-6f" x="27.783203" />
     <use xlink:href="#ArialMT-72" x="83.398438" />
     <use xlink:href="#ArialMT-71" x="116.699219" />
     <use xlink:href="#ArialMT-75" x="172.314453" />
     <use xlink:href="#ArialMT-65" x="227.929688" />
     <use xlink:href="#ArialMT-20" x="283.544922" />
     <use xlink:href="#ArialMT-2b" x="311.328125" />
     <use xlink:href="#ArialMT-31" x="369.726562" />
    </g>
   </g>
  </g>
 </g>
</svg></g>

<g id="edge1" class="edge">
<title>node0-&gt;leaf1</title>
<path fill="none" stroke="#444443" stroke-width="0.3" d="M72.44,-115.26C68.84,-106.65 64.7,-96.75 60.65,-87.08" />
<polygon fill="#444443" stroke="#444443" stroke-width="0.3" points="61.88,-86.39 59.04,-83.24 59.3,-87.47 61.88,-86.39" />
<text text-anchor="start" x="68" y="-94.8" font-family="Times New Roman,serif" font-size="14.00">&#8804;</text>
</g>

<g id="node3" class="node">
<title>leaf2</title>
<polygon fill="none" stroke="#444443" stroke-width="0" points="158,-83 90,-83 90,0 158,0 158,-83" />
<svg width="60px" height="75px" viewBox="0 0 80.079982 101.065115" version="1.1" preserveAspectRatio="xMinYMin meet" x="94" y="-78.5">
 <metadata>
  <rdf:RDF>
   <ns2:Work>
    <dc:type rdf:resource="http://purl.org/dc/dcmitype/StillImage" />
    <dc:date>2022-01-16T09:25:52.054647</dc:date>
    <dc:format>image/svg+xml</dc:format>
    <dc:creator>
     <ns2:Agent>
      <dc:title>Matplotlib v3.5.1, https://matplotlib.org/</dc:title>
     </ns2:Agent>
    </dc:creator>
   </ns2:Work>
  </rdf:RDF>
 </metadata>
 <defs>
  <style type="text/css">*{stroke-linejoin: round; stroke-linecap: butt}</style>
 </defs>
 <g id="figure_1">
  <g id="patch_1">
   <path d="M -0 101.065115  L 80.079982 101.065115  L 80.079982 0  L -0 0  z " style="fill: #ffffff" />
  </g>
  <g id="axes_1">
   <g id="patch_2">
    <path d="M 80.079982 40.039883  C 80.079982 38.541998 79.995929 37.045292 79.828219 35.556826  C 79.660509 34.068359 79.409406 32.590475 79.076095 31.130145  L 40.039982 40.039883  L 80.079982 40.039883  z " style="fill: #fefebb; stroke: #444443; stroke-width: 0.5; stroke-linejoin: miter" />
   </g>
   <g id="patch_3">
    <path d="M 79.076095 31.130145  C 77.32358 23.451872 73.343978 16.458691 67.637885 11.030276  C 61.931792 5.601861 54.748937 1.975787 46.992853 0.608181  C 39.23677 -0.759426 31.246904 0.191288 24.028303 3.340731  C 16.809703 6.490175 10.678292 11.700512 6.405343 18.316333  L 40.039982 40.039883  L 79.076095 31.130145  z " style="fill: #d9e6f5; stroke: #444443; stroke-width: 0.5; stroke-linejoin: miter" />
   </g>
   <g id="patch_4">
    <path d="M 6.405343 18.316333  C 3.027631 23.546054 0.915734 29.492194 0.237966 35.680856  C -0.439803 41.869519 0.335055 48.13181 2.500783 53.968636  C 4.666511 59.805461 8.164005 65.05753 12.714522 69.306261  C 17.265038 73.554992 22.744389 76.684433 28.71588 78.445174  C 34.687372 80.205915 40.988035 80.549903 47.11572 79.449724  C 53.243405 78.349545 59.03088 75.835222 64.016895 72.107144  C 69.002911 68.379066 73.051392 63.538975 75.839684 57.972616  C 78.627976 52.406258 80.079982 46.265545 80.079982 40.039879  L 40.039982 40.039883  L 6.405343 18.316333  z " style="fill: #a1dab4; stroke: #444443; stroke-width: 0.5; stroke-linejoin: miter" />
   </g>
   <g id="text_1">
    
    <g style="fill: #444443" transform="translate(27.402013 89.725115)scale(0.09 -0.09)">
     <defs>
      <path id="ArialMT-6e" d="M 422 0  L 422 3319  L 928 3319  L 928 2847  Q 1294 3394 1984 3394  Q 2284 3394 2536 3286  Q 2788 3178 2913 3003  Q 3038 2828 3088 2588  Q 3119 2431 3119 2041  L 3119 0  L 2556 0  L 2556 2019  Q 2556 2363 2490 2533  Q 2425 2703 2258 2804  Q 2091 2906 1866 2906  Q 1506 2906 1245 2678  Q 984 2450 984 1813  L 984 0  L 422 0  z " transform="scale(0.015625)" />
      <path id="ArialMT-3d" d="M 3381 2694  L 356 2694  L 356 3219  L 3381 3219  L 3381 2694  z M 3381 1303  L 356 1303  L 356 1828  L 3381 1828  L 3381 1303  z " transform="scale(0.015625)" />
      <path id="ArialMT-35" d="M 266 1200  L 856 1250  Q 922 819 1161 601  Q 1400 384 1738 384  Q 2144 384 2425 690  Q 2706 997 2706 1503  Q 2706 1984 2436 2262  Q 2166 2541 1728 2541  Q 1456 2541 1237 2417  Q 1019 2294 894 2097  L 366 2166  L 809 4519  L 3088 4519  L 3088 3981  L 1259 3981  L 1013 2750  Q 1425 3038 1878 3038  Q 2478 3038 2890 2622  Q 3303 2206 3303 1553  Q 3303 931 2941 478  Q 2500 -78 1738 -78  Q 1113 -78 717 272  Q 322 622 266 1200  z " transform="scale(0.015625)" />
      <path id="ArialMT-36" d="M 3184 3459  L 2625 3416  Q 2550 3747 2413 3897  Q 2184 4138 1850 4138  Q 1581 4138 1378 3988  Q 1113 3794 959 3422  Q 806 3050 800 2363  Q 1003 2672 1297 2822  Q 1591 2972 1913 2972  Q 2475 2972 2870 2558  Q 3266 2144 3266 1488  Q 3266 1056 3080 686  Q 2894 316 2569 119  Q 2244 -78 1831 -78  Q 1128 -78 684 439  Q 241 956 241 2144  Q 241 3472 731 4075  Q 1159 4600 1884 4600  Q 2425 4600 2770 4297  Q 3116 3994 3184 3459  z M 888 1484  Q 888 1194 1011 928  Q 1134 663 1356 523  Q 1578 384 1822 384  Q 2178 384 2434 671  Q 2691 959 2691 1453  Q 2691 1928 2437 2201  Q 2184 2475 1800 2475  Q 1419 2475 1153 2201  Q 888 1928 888 1484  z " transform="scale(0.015625)" />
     </defs>
     <use xlink:href="#ArialMT-6e" />
     <use xlink:href="#ArialMT-3d" x="55.615234" />
     <use xlink:href="#ArialMT-35" x="114.013672" />
     <use xlink:href="#ArialMT-36" x="169.628906" />
     <use xlink:href="#ArialMT-36" x="225.244141" />
    </g>
    
    <g style="fill: #444443" transform="translate(22.030841 99.276365)scale(0.09 -0.09)">
     <defs>
      <path id="ArialMT-74" d="M 1650 503  L 1731 6  Q 1494 -44 1306 -44  Q 1000 -44 831 53  Q 663 150 594 308  Q 525 466 525 972  L 525 2881  L 113 2881  L 113 3319  L 525 3319  L 525 4141  L 1084 4478  L 1084 3319  L 1650 3319  L 1650 2881  L 1084 2881  L 1084 941  Q 1084 700 1114 631  Q 1144 563 1211 522  Q 1278 481 1403 481  Q 1497 481 1650 503  z " transform="scale(0.015625)" />
      <path id="ArialMT-6f" d="M 213 1659  Q 213 2581 725 3025  Q 1153 3394 1769 3394  Q 2453 3394 2887 2945  Q 3322 2497 3322 1706  Q 3322 1066 3130 698  Q 2938 331 2570 128  Q 2203 -75 1769 -75  Q 1072 -75 642 372  Q 213 819 213 1659  z M 791 1659  Q 791 1022 1069 705  Q 1347 388 1769 388  Q 2188 388 2466 706  Q 2744 1025 2744 1678  Q 2744 2294 2464 2611  Q 2184 2928 1769 2928  Q 1347 2928 1069 2612  Q 791 2297 791 1659  z " transform="scale(0.015625)" />
      <path id="ArialMT-72" d="M 416 0  L 416 3319  L 922 3319  L 922 2816  Q 1116 3169 1280 3281  Q 1444 3394 1641 3394  Q 1925 3394 2219 3213  L 2025 2691  Q 1819 2813 1613 2813  Q 1428 2813 1281 2702  Q 1134 2591 1072 2394  Q 978 2094 978 1738  L 978 0  L 416 0  z " transform="scale(0.015625)" />
      <path id="ArialMT-71" d="M 2538 -1272  L 2538 353  Q 2406 169 2170 47  Q 1934 -75 1669 -75  Q 1078 -75 651 397  Q 225 869 225 1691  Q 225 2191 398 2587  Q 572 2984 901 3189  Q 1231 3394 1625 3394  Q 2241 3394 2594 2875  L 2594 3319  L 3100 3319  L 3100 -1272  L 2538 -1272  z M 803 1669  Q 803 1028 1072 708  Q 1341 388 1716 388  Q 2075 388 2334 692  Q 2594 997 2594 1619  Q 2594 2281 2320 2615  Q 2047 2950 1678 2950  Q 1313 2950 1058 2639  Q 803 2328 803 1669  z " transform="scale(0.015625)" />
      <path id="ArialMT-75" d="M 2597 0  L 2597 488  Q 2209 -75 1544 -75  Q 1250 -75 995 37  Q 741 150 617 320  Q 494 491 444 738  Q 409 903 409 1263  L 409 3319  L 972 3319  L 972 1478  Q 972 1038 1006 884  Q 1059 663 1231 536  Q 1403 409 1656 409  Q 1909 409 2131 539  Q 2353 669 2445 892  Q 2538 1116 2538 1541  L 2538 3319  L 3100 3319  L 3100 0  L 2597 0  z " transform="scale(0.015625)" />
      <path id="ArialMT-65" d="M 2694 1069  L 3275 997  Q 3138 488 2766 206  Q 2394 -75 1816 -75  Q 1088 -75 661 373  Q 234 822 234 1631  Q 234 2469 665 2931  Q 1097 3394 1784 3394  Q 2450 3394 2872 2941  Q 3294 2488 3294 1666  Q 3294 1616 3291 1516  L 816 1516  Q 847 969 1125 678  Q 1403 388 1819 388  Q 2128 388 2347 550  Q 2566 713 2694 1069  z M 847 1978  L 2700 1978  Q 2663 2397 2488 2606  Q 2219 2931 1791 2931  Q 1403 2931 1139 2672  Q 875 2413 847 1978  z " transform="scale(0.015625)" />
      <path id="ArialMT-20" transform="scale(0.015625)" />
      <path id="ArialMT-2d" d="M 203 1375  L 203 1941  L 1931 1941  L 1931 1375  L 203 1375  z " transform="scale(0.015625)" />
      <path id="ArialMT-31" d="M 2384 0  L 1822 0  L 1822 3584  Q 1619 3391 1289 3197  Q 959 3003 697 2906  L 697 3450  Q 1169 3672 1522 3987  Q 1875 4303 2022 4600  L 2384 4600  L 2384 0  z " transform="scale(0.015625)" />
     </defs>
     <use xlink:href="#ArialMT-74" />
     <use xlink:href="#ArialMT-6f" x="27.783203" />
     <use xlink:href="#ArialMT-72" x="83.398438" />
     <use xlink:href="#ArialMT-71" x="116.699219" />
     <use xlink:href="#ArialMT-75" x="172.314453" />
     <use xlink:href="#ArialMT-65" x="227.929688" />
     <use xlink:href="#ArialMT-20" x="283.544922" />
     <use xlink:href="#ArialMT-2d" x="311.328125" />
     <use xlink:href="#ArialMT-31" x="344.628906" />
    </g>
   </g>
  </g>
 </g>
</svg></g>

<g id="edge2" class="edge">
<title>node0-&gt;leaf2</title>
<path fill="none" stroke="#444443" stroke-width="0.3" d="M93.56,-115.26C97.16,-106.65 101.3,-96.75 105.35,-87.08" />
<polygon fill="#444443" stroke="#444443" stroke-width="0.3" points="106.7,-87.47 106.96,-83.24 104.12,-86.39 106.7,-87.47" />
<text text-anchor="start" x="104" y="-94.8" font-family="Times New Roman,serif" font-size="14.00">&gt;</text>
</g>


<g id="node4" class="node">
<title>legend</title>
<polygon fill="none" stroke="black" stroke-width="0" points="303,-169 173,-169 173,-114 303,-114 303,-169" />
<svg width="126px" height="51px" viewBox="0 0 168.475 68.203125" version="1.1" preserveAspectRatio="xMinYMin meet" x="175" y="-166.5">
 <metadata>
  <rdf:RDF>
   <ns2:Work>
    <dc:type rdf:resource="http://purl.org/dc/dcmitype/StillImage" />
    <dc:date>2022-01-16T09:25:51.155052</dc:date>
    <dc:format>image/svg+xml</dc:format>
    <dc:creator>
     <ns2:Agent>
      <dc:title>Matplotlib v3.5.1, https://matplotlib.org/</dc:title>
     </ns2:Agent>
    </dc:creator>
   </ns2:Work>
  </rdf:RDF>
 </metadata>
 <defs>
  <style type="text/css">*{stroke-linejoin: round; stroke-linecap: butt}</style>
 </defs>
 <g id="figure_1">
  <g id="patch_1">
   <path d="M 0 68.203125  L 168.475 68.203125  L 168.475 0  L 0 0  z " style="fill: #ffffff" />
  </g>
  <g id="axes_1">
   <g id="legend_1">
    <g id="patch_2">
     <path d="M 2 68.203125  L 166.475 68.203125  Q 168.475 68.203125 168.475 66.203125  L 168.475 2  Q 168.475 -0 166.475 -0  L 2 -0  Q -0 -0 -0 2  L -0 66.203125  Q -0 68.203125 2 68.203125  z " style="fill: #ffffff; opacity: 0.8; stroke: #444443; stroke-width: 0.5; stroke-linejoin: miter" />
    </g>
    <g id="text_1">
     
     <g style="fill: #444443" transform="translate(8 15.598437)scale(0.1 -0.1)">
      <defs>
       <path id="DejaVuSans-Bold-41" d="M 3419 850  L 1538 850  L 1241 0  L 31 0  L 1759 4666  L 3194 4666  L 4922 0  L 3713 0  L 3419 850  z M 1838 1716  L 3116 1716  L 2478 3572  L 1838 1716  z " transform="scale(0.015625)" />
       <path id="DejaVuSans-Bold-63" d="M 3366 3391  L 3366 2478  Q 3138 2634 2908 2709  Q 2678 2784 2431 2784  Q 1963 2784 1702 2511  Q 1441 2238 1441 1747  Q 1441 1256 1702 982  Q 1963 709 2431 709  Q 2694 709 2930 787  Q 3166 866 3366 1019  L 3366 103  Q 3103 6 2833 -42  Q 2563 -91 2291 -91  Q 1344 -91 809 395  Q 275 881 275 1747  Q 275 2613 809 3098  Q 1344 3584 2291 3584  Q 2566 3584 2833 3536  Q 3100 3488 3366 3391  z " transform="scale(0.015625)" />
       <path id="DejaVuSans-Bold-72" d="M 3138 2547  Q 2991 2616 2845 2648  Q 2700 2681 2553 2681  Q 2122 2681 1889 2404  Q 1656 2128 1656 1613  L 1656 0  L 538 0  L 538 3500  L 1656 3500  L 1656 2925  Q 1872 3269 2151 3426  Q 2431 3584 2822 3584  Q 2878 3584 2943 3579  Q 3009 3575 3134 3559  L 3138 2547  z " transform="scale(0.015625)" />
       <path id="DejaVuSans-Bold-6f" d="M 2203 2784  Q 1831 2784 1636 2517  Q 1441 2250 1441 1747  Q 1441 1244 1636 976  Q 1831 709 2203 709  Q 2569 709 2762 976  Q 2956 1244 2956 1747  Q 2956 2250 2762 2517  Q 2569 2784 2203 2784  z M 2203 3584  Q 3106 3584 3614 3096  Q 4122 2609 4122 1747  Q 4122 884 3614 396  Q 3106 -91 2203 -91  Q 1297 -91 786 396  Q 275 884 275 1747  Q 275 2609 786 3096  Q 1297 3584 2203 3584  z " transform="scale(0.015625)" />
       <path id="DejaVuSans-Bold-62" d="M 2400 722  Q 2759 722 2948 984  Q 3138 1247 3138 1747  Q 3138 2247 2948 2509  Q 2759 2772 2400 2772  Q 2041 2772 1848 2508  Q 1656 2244 1656 1747  Q 1656 1250 1848 986  Q 2041 722 2400 722  z M 1656 2988  Q 1888 3294 2169 3439  Q 2450 3584 2816 3584  Q 3463 3584 3878 3070  Q 4294 2556 4294 1747  Q 4294 938 3878 423  Q 3463 -91 2816 -91  Q 2450 -91 2169 54  Q 1888 200 1656 506  L 1656 0  L 538 0  L 538 4863  L 1656 4863  L 1656 2988  z " transform="scale(0.015625)" />
       <path id="DejaVuSans-Bold-74" d="M 1759 4494  L 1759 3500  L 2913 3500  L 2913 2700  L 1759 2700  L 1759 1216  Q 1759 972 1856 886  Q 1953 800 2241 800  L 2816 800  L 2816 0  L 1856 0  Q 1194 0 917 276  Q 641 553 641 1216  L 641 2700  L 84 2700  L 84 3500  L 641 3500  L 641 4494  L 1759 4494  z " transform="scale(0.015625)" />
       <path id="DejaVuSans-Bold-2d" d="M 347 2297  L 2309 2297  L 2309 1388  L 347 1388  L 347 2297  z " transform="scale(0.015625)" />
       <path id="DejaVuSans-Bold-76" d="M 97 3500  L 1216 3500  L 2088 1081  L 2956 3500  L 4078 3500  L 2700 0  L 1472 0  L 97 3500  z " transform="scale(0.015625)" />
       <path id="DejaVuSans-Bold-31" d="M 750 831  L 1813 831  L 1813 3847  L 722 3622  L 722 4441  L 1806 4666  L 2950 4666  L 2950 831  L 4013 831  L 4013 0  L 750 0  L 750 831  z " transform="scale(0.015625)" />
       <path id="DejaVuSans-Bold-3a" d="M 716 3500  L 1844 3500  L 1844 2291  L 716 2291  L 716 3500  z M 716 1209  L 1844 1209  L 1844 0  L 716 0  L 716 1209  z " transform="scale(0.015625)" />
       <path id="DejaVuSans-Bold-20" transform="scale(0.015625)" />
       <path id="DejaVuSans-Bold-39" d="M 641 103  L 641 966  Q 928 831 1190 764  Q 1453 697 1709 697  Q 2247 697 2547 995  Q 2847 1294 2900 1881  Q 2688 1725 2447 1647  Q 2206 1569 1925 1569  Q 1209 1569 770 1986  Q 331 2403 331 3084  Q 331 3838 820 4291  Q 1309 4744 2131 4744  Q 3044 4744 3544 4128  Q 4044 3513 4044 2388  Q 4044 1231 3459 570  Q 2875 -91 1856 -91  Q 1528 -91 1228 -42  Q 928 6 641 103  z M 2125 2350  Q 2441 2350 2600 2554  Q 2759 2759 2759 3169  Q 2759 3575 2600 3781  Q 2441 3988 2125 3988  Q 1809 3988 1650 3781  Q 1491 3575 1491 3169  Q 1491 2759 1650 2554  Q 1809 2350 2125 2350  z " transform="scale(0.015625)" />
       <path id="DejaVuSans-Bold-33" d="M 2981 2516  Q 3453 2394 3698 2092  Q 3944 1791 3944 1325  Q 3944 631 3412 270  Q 2881 -91 1863 -91  Q 1503 -91 1142 -33  Q 781 25 428 141  L 428 1069  Q 766 900 1098 814  Q 1431 728 1753 728  Q 2231 728 2486 893  Q 2741 1059 2741 1369  Q 2741 1688 2480 1852  Q 2219 2016 1709 2016  L 1228 2016  L 1228 2791  L 1734 2791  Q 2188 2791 2409 2933  Q 2631 3075 2631 3366  Q 2631 3634 2415 3781  Q 2200 3928 1806 3928  Q 1516 3928 1219 3862  Q 922 3797 628 3669  L 628 4550  Q 984 4650 1334 4700  Q 1684 4750 2022 4750  Q 2931 4750 3382 4451  Q 3834 4153 3834 3553  Q 3834 3144 3618 2883  Q 3403 2622 2981 2516  z " transform="scale(0.015625)" />
       <path id="DejaVuSans-Bold-2e" d="M 653 1209  L 1778 1209  L 1778 0  L 653 0  L 653 1209  z " transform="scale(0.015625)" />
       <path id="DejaVuSans-Bold-32" d="M 1844 884  L 3897 884  L 3897 0  L 506 0  L 506 884  L 2209 2388  Q 2438 2594 2547 2791  Q 2656 2988 2656 3200  Q 2656 3528 2436 3728  Q 2216 3928 1850 3928  Q 1569 3928 1234 3808  Q 900 3688 519 3450  L 519 4475  Q 925 4609 1322 4679  Q 1719 4750 2100 4750  Q 2938 4750 3402 4381  Q 3866 4013 3866 3353  Q 3866 2972 3669 2642  Q 3472 2313 2841 1759  L 1844 884  z " transform="scale(0.015625)" />
       <path id="DejaVuSans-Bold-26" d="M 2497 3097  L 3775 1691  Q 3941 1909 4027 2181  Q 4113 2453 4128 2797  L 5100 2797  Q 5053 2228 4879 1784  Q 4706 1341 4397 1006  L 5313 0  L 3988 0  L 3681 341  Q 3353 122 2990 15  Q 2628 -91 2222 -91  Q 1400 -91 892 342  Q 384 775 384 1459  Q 384 1916 607 2267  Q 831 2619 1338 2950  Q 1206 3116 1143 3281  Q 1081 3447 1081 3628  Q 1081 4138 1478 4444  Q 1875 4750 2534 4750  Q 2819 4750 3126 4704  Q 3434 4659 3769 4569  L 3769 3700  Q 3475 3850 3212 3922  Q 2950 3994 2700 3994  Q 2459 3994 2326 3901  Q 2194 3809 2194 3641  Q 2194 3534 2270 3398  Q 2347 3263 2497 3097  z M 1875 2322  Q 1672 2175 1569 1989  Q 1466 1803 1466 1581  Q 1466 1222 1731 969  Q 1997 716 2369 716  Q 2578 716 2759 780  Q 2941 844 3097 972  L 1875 2322  z " transform="scale(0.015625)" />
       <path id="DejaVuSans-Bold-34" d="M 2356 3675  L 1038 1722  L 2356 1722  L 2356 3675  z M 2156 4666  L 3494 4666  L 3494 1722  L 4159 1722  L 4159 850  L 3494 850  L 3494 0  L 2356 0  L 2356 850  L 288 850  L 288 1881  L 2156 4666  z " transform="scale(0.015625)" />
       <path id="DejaVuSans-Bold-38" d="M 2228 2088  Q 1891 2088 1709 1903  Q 1528 1719 1528 1375  Q 1528 1031 1709 848  Q 1891 666 2228 666  Q 2563 666 2741 848  Q 2919 1031 2919 1375  Q 2919 1722 2741 1905  Q 2563 2088 2228 2088  z M 1350 2484  Q 925 2613 709 2878  Q 494 3144 494 3541  Q 494 4131 934 4440  Q 1375 4750 2228 4750  Q 3075 4750 3515 4442  Q 3956 4134 3956 3541  Q 3956 3144 3739 2878  Q 3522 2613 3097 2484  Q 3572 2353 3814 2058  Q 4056 1763 4056 1313  Q 4056 619 3595 264  Q 3134 -91 2228 -91  Q 1319 -91 855 264  Q 391 619 391 1313  Q 391 1763 633 2058  Q 875 2353 1350 2484  z M 1631 3419  Q 1631 3141 1786 2991  Q 1941 2841 2228 2841  Q 2509 2841 2662 2991  Q 2816 3141 2816 3419  Q 2816 3697 2662 3845  Q 2509 3994 2228 3994  Q 1941 3994 1786 3844  Q 1631 3694 1631 3419  z " transform="scale(0.015625)" />
      </defs>
      <use xlink:href="#DejaVuSans-Bold-41" />
      <use xlink:href="#DejaVuSans-Bold-63" x="77.392578" />
      <use xlink:href="#DejaVuSans-Bold-72" x="136.669922" />
      <use xlink:href="#DejaVuSans-Bold-6f" x="185.986328" />
      <use xlink:href="#DejaVuSans-Bold-62" x="254.6875" />
      <use xlink:href="#DejaVuSans-Bold-6f" x="326.269531" />
      <use xlink:href="#DejaVuSans-Bold-74" x="394.970703" />
      <use xlink:href="#DejaVuSans-Bold-2d" x="442.773438" />
      <use xlink:href="#DejaVuSans-Bold-76" x="484.277344" />
      <use xlink:href="#DejaVuSans-Bold-31" x="549.462891" />
      <use xlink:href="#DejaVuSans-Bold-3a" x="619.042969" />
      <use xlink:href="#DejaVuSans-Bold-20" x="659.033203" />
      <use xlink:href="#DejaVuSans-Bold-2d" x="693.847656" />
      <use xlink:href="#DejaVuSans-Bold-39" x="735.351562" />
      <use xlink:href="#DejaVuSans-Bold-33" x="804.931641" />
      <use xlink:href="#DejaVuSans-Bold-2e" x="874.511719" />
      <use xlink:href="#DejaVuSans-Bold-32" x="912.5" />
      <use xlink:href="#DejaVuSans-Bold-33" x="982.080078" />
      <use xlink:href="#DejaVuSans-Bold-20" x="1051.660156" />
      <use xlink:href="#DejaVuSans-Bold-26" x="1086.474609" />
      <use xlink:href="#DejaVuSans-Bold-20" x="1173.681641" />
      <use xlink:href="#DejaVuSans-Bold-32" x="1208.496094" />
      <use xlink:href="#DejaVuSans-Bold-39" x="1278.076172" />
      <use xlink:href="#DejaVuSans-Bold-2e" x="1347.65625" />
      <use xlink:href="#DejaVuSans-Bold-34" x="1385.644531" />
      <use xlink:href="#DejaVuSans-Bold-38" x="1455.224609" />
     </g>
    </g>
    <g id="patch_3">
     <path d="M 51.221875 29.865625  L 71.221875 29.865625  L 71.221875 22.865625  L 51.221875 22.865625  z " style="fill: #fefebb; stroke: #444443; stroke-width: 0.4; stroke-linejoin: miter" />
    </g>
    <g id="text_2">
     
     <g style="fill: #444443" transform="translate(74.721875 29.865625)scale(0.1 -0.1)">
      <defs>
       <path id="ArialMT-74" d="M 1650 503  L 1731 6  Q 1494 -44 1306 -44  Q 1000 -44 831 53  Q 663 150 594 308  Q 525 466 525 972  L 525 2881  L 113 2881  L 113 3319  L 525 3319  L 525 4141  L 1084 4478  L 1084 3319  L 1650 3319  L 1650 2881  L 1084 2881  L 1084 941  Q 1084 700 1114 631  Q 1144 563 1211 522  Q 1278 481 1403 481  Q 1497 481 1650 503  z " transform="scale(0.015625)" />
       <path id="ArialMT-6f" d="M 213 1659  Q 213 2581 725 3025  Q 1153 3394 1769 3394  Q 2453 3394 2887 2945  Q 3322 2497 3322 1706  Q 3322 1066 3130 698  Q 2938 331 2570 128  Q 2203 -75 1769 -75  Q 1072 -75 642 372  Q 213 819 213 1659  z M 791 1659  Q 791 1022 1069 705  Q 1347 388 1769 388  Q 2188 388 2466 706  Q 2744 1025 2744 1678  Q 2744 2294 2464 2611  Q 2184 2928 1769 2928  Q 1347 2928 1069 2612  Q 791 2297 791 1659  z " transform="scale(0.015625)" />
       <path id="ArialMT-72" d="M 416 0  L 416 3319  L 922 3319  L 922 2816  Q 1116 3169 1280 3281  Q 1444 3394 1641 3394  Q 1925 3394 2219 3213  L 2025 2691  Q 1819 2813 1613 2813  Q 1428 2813 1281 2702  Q 1134 2591 1072 2394  Q 978 2094 978 1738  L 978 0  L 416 0  z " transform="scale(0.015625)" />
       <path id="ArialMT-71" d="M 2538 -1272  L 2538 353  Q 2406 169 2170 47  Q 1934 -75 1669 -75  Q 1078 -75 651 397  Q 225 869 225 1691  Q 225 2191 398 2587  Q 572 2984 901 3189  Q 1231 3394 1625 3394  Q 2241 3394 2594 2875  L 2594 3319  L 3100 3319  L 3100 -1272  L 2538 -1272  z M 803 1669  Q 803 1028 1072 708  Q 1341 388 1716 388  Q 2075 388 2334 692  Q 2594 997 2594 1619  Q 2594 2281 2320 2615  Q 2047 2950 1678 2950  Q 1313 2950 1058 2639  Q 803 2328 803 1669  z " transform="scale(0.015625)" />
       <path id="ArialMT-75" d="M 2597 0  L 2597 488  Q 2209 -75 1544 -75  Q 1250 -75 995 37  Q 741 150 617 320  Q 494 491 444 738  Q 409 903 409 1263  L 409 3319  L 972 3319  L 972 1478  Q 972 1038 1006 884  Q 1059 663 1231 536  Q 1403 409 1656 409  Q 1909 409 2131 539  Q 2353 669 2445 892  Q 2538 1116 2538 1541  L 2538 3319  L 3100 3319  L 3100 0  L 2597 0  z " transform="scale(0.015625)" />
       <path id="ArialMT-65" d="M 2694 1069  L 3275 997  Q 3138 488 2766 206  Q 2394 -75 1816 -75  Q 1088 -75 661 373  Q 234 822 234 1631  Q 234 2469 665 2931  Q 1097 3394 1784 3394  Q 2450 3394 2872 2941  Q 3294 2488 3294 1666  Q 3294 1616 3291 1516  L 816 1516  Q 847 969 1125 678  Q 1403 388 1819 388  Q 2128 388 2347 550  Q 2566 713 2694 1069  z M 847 1978  L 2700 1978  Q 2663 2397 2488 2606  Q 2219 2931 1791 2931  Q 1403 2931 1139 2672  Q 875 2413 847 1978  z " transform="scale(0.015625)" />
       <path id="ArialMT-20" transform="scale(0.015625)" />
       <path id="ArialMT-2b" d="M 1603 741  L 1603 1997  L 356 1997  L 356 2522  L 1603 2522  L 1603 3769  L 2134 3769  L 2134 2522  L 3381 2522  L 3381 1997  L 2134 1997  L 2134 741  L 1603 741  z " transform="scale(0.015625)" />
       <path id="ArialMT-31" d="M 2384 0  L 1822 0  L 1822 3584  Q 1619 3391 1289 3197  Q 959 3003 697 2906  L 697 3450  Q 1169 3672 1522 3987  Q 1875 4303 2022 4600  L 2384 4600  L 2384 0  z " transform="scale(0.015625)" />
      </defs>
      <use xlink:href="#ArialMT-74" />
      <use xlink:href="#ArialMT-6f" x="27.783203" />
      <use xlink:href="#ArialMT-72" x="83.398438" />
      <use xlink:href="#ArialMT-71" x="116.699219" />
      <use xlink:href="#ArialMT-75" x="172.314453" />
      <use xlink:href="#ArialMT-65" x="227.929688" />
      <use xlink:href="#ArialMT-20" x="283.544922" />
      <use xlink:href="#ArialMT-2b" x="311.328125" />
      <use xlink:href="#ArialMT-31" x="369.726562" />
     </g>
    </g>
    <g id="patch_4">
     <path d="M 51.221875 44.040625  L 71.221875 44.040625  L 71.221875 37.040625  L 51.221875 37.040625  z " style="fill: #d9e6f5; stroke: #444443; stroke-width: 0.4; stroke-linejoin: miter" />
    </g>
    <g id="text_3">
     
     <g style="fill: #444443" transform="translate(74.721875 44.040625)scale(0.1 -0.1)">
      <defs>
       <path id="ArialMT-30" d="M 266 2259  Q 266 3072 433 3567  Q 600 4063 929 4331  Q 1259 4600 1759 4600  Q 2128 4600 2406 4451  Q 2684 4303 2865 4023  Q 3047 3744 3150 3342  Q 3253 2941 3253 2259  Q 3253 1453 3087 958  Q 2922 463 2592 192  Q 2263 -78 1759 -78  Q 1097 -78 719 397  Q 266 969 266 2259  z M 844 2259  Q 844 1131 1108 757  Q 1372 384 1759 384  Q 2147 384 2411 759  Q 2675 1134 2675 2259  Q 2675 3391 2411 3762  Q 2147 4134 1753 4134  Q 1366 4134 1134 3806  Q 844 3388 844 2259  z " transform="scale(0.015625)" />
      </defs>
      <use xlink:href="#ArialMT-74" />
      <use xlink:href="#ArialMT-6f" x="27.783203" />
      <use xlink:href="#ArialMT-72" x="83.398438" />
      <use xlink:href="#ArialMT-71" x="116.699219" />
      <use xlink:href="#ArialMT-75" x="172.314453" />
      <use xlink:href="#ArialMT-65" x="227.929688" />
      <use xlink:href="#ArialMT-20" x="283.544922" />
      <use xlink:href="#ArialMT-30" x="311.328125" />
     </g>
    </g>
    <g id="patch_5">
     <path d="M 51.221875 58.215625  L 71.221875 58.215625  L 71.221875 51.215625  L 51.221875 51.215625  z " style="fill: #a1dab4; stroke: #444443; stroke-width: 0.4; stroke-linejoin: miter" />
    </g>
    <g id="text_4">
     
     <g style="fill: #444443" transform="translate(74.721875 58.215625)scale(0.1 -0.1)">
      <defs>
       <path id="ArialMT-2d" d="M 203 1375  L 203 1941  L 1931 1941  L 1931 1375  L 203 1375  z " transform="scale(0.015625)" />
      </defs>
      <use xlink:href="#ArialMT-74" />
      <use xlink:href="#ArialMT-6f" x="27.783203" />
      <use xlink:href="#ArialMT-72" x="83.398438" />
      <use xlink:href="#ArialMT-71" x="116.699219" />
      <use xlink:href="#ArialMT-75" x="172.314453" />
      <use xlink:href="#ArialMT-65" x="227.929688" />
      <use xlink:href="#ArialMT-20" x="283.544922" />
      <use xlink:href="#ArialMT-2d" x="311.328125" />
      <use xlink:href="#ArialMT-31" x="344.628906" />
     </g>
    </g>
   </g>
  </g>
 </g>
</svg></g>
</g>
</svg>