<svg xmlns="http://www.w3.org/2000/svg" xmlns:dc="http://purl.org/dc/elements/1.1/" xmlns:ns2="http://creativecommons.org/ns#" xmlns:rdf="http://www.w3.org/1999/02/22-rdf-syntax-ns#" xmlns:xlink="http://www.w3.org/1999/xlink" width="386.0" height="314.0" viewBox="0.0 0.0 386.0 314.0">
<g id="graph0" class="graph" transform="scale(1.0 1.0) rotate(0) translate(4 310)">
<title>G</title>
<polygon fill="white" stroke="transparent" points="-4,4 -4,-310 382,-310 382,4 -4,4" />
<g id="clust3" class="cluster">
<title>cluster_legend</title>
</g>

<g id="node1" class="node">
<title>node1</title>
<svg width="154px" height="44px" viewBox="0 0 206.41 59.443125" version="1.1" preserveAspectRatio="xMinYMin meet" x="4" y="-163.5">
 <metadata>
  <rdf:RDF>
   <ns2:Work>
    <dc:type rdf:resource="http://purl.org/dc/dcmitype/StillImage" />
    <dc:date>2022-01-18T17:06:55.023620</dc:date>
    <dc:format>image/svg+xml</dc:format>
    <dc:creator>
     <ns2:Agent>
      <dc:title>Matplotlib v3.5.1, https://matplotlib.org/</dc:title>
     </ns2:Agent>
    </dc:creator>
   </ns2:Work>
  </rdf:RDF>
 </metadata>
 <defs>
  <style type="text/css">*{stroke-linejoin: round; stroke-linecap: butt}</style>
 </defs>
 <g id="figure_1">
  <g id="patch_1">
   <path d="M 0 59.443125  L 206.41 59.443125  L 206.41 0  L 0 0  z " style="fill: #ffffff" />
  </g>
  <g id="axes_1">
   <g id="patch_2">
    <path d="M 22.27 29.439375  L 206.41 29.439375  L 206.41 1.719375  L 22.27 1.719375  z " style="fill: #ffffff" />
   </g>
   <g id="patch_3">
    <path d="M 22.27 29.439375  L 32.837576 29.439375  L 32.837576 28.406973  L 22.27 28.406973  z " clip-path="url(#p1e8ce1ec4a)" style="fill: #fefebb; stroke: #444443; stroke-width: 0.5; stroke-linejoin: miter" />
   </g>
   <g id="patch_4">
    <path d="M 32.837576 29.439375  L 43.405152 29.439375  L 43.405152 28.996917  L 32.837576 28.996917  z " clip-path="url(#p1e8ce1ec4a)" style="fill: #fefebb; stroke: #444443; stroke-width: 0.5; stroke-linejoin: miter" />
   </g>
   <g id="patch_5">
    <path d="M 43.405152 29.439375  L 53.972728 29.439375  L 53.972728 29.144403  L 43.405152 29.144403  z " clip-path="url(#p1e8ce1ec4a)" style="fill: #fefebb; stroke: #444443; stroke-width: 0.5; stroke-linejoin: miter" />
   </g>
   <g id="patch_6">
    <path d="M 53.972728 29.439375  L 64.540304 29.439375  L 64.540304 29.291889  L 53.972728 29.291889  z " clip-path="url(#p1e8ce1ec4a)" style="fill: #fefebb; stroke: #444443; stroke-width: 0.5; stroke-linejoin: miter" />
   </g>
   <g id="patch_7">
    <path d="M 64.540304 29.439375  L 75.10788 29.439375  L 75.10788 28.849431  L 64.540304 28.849431  z " clip-path="url(#p1e8ce1ec4a)" style="fill: #fefebb; stroke: #444443; stroke-width: 0.5; stroke-linejoin: miter" />
   </g>
   <g id="patch_8">
    <path d="M 75.10788 29.439375  L 85.675456 29.439375  L 85.675456 29.144403  L 75.10788 29.144403  z " clip-path="url(#p1e8ce1ec4a)" style="fill: #fefebb; stroke: #444443; stroke-width: 0.5; stroke-linejoin: miter" />
   </g>
   <g id="patch_9">
    <path d="M 85.675456 29.439375  L 96.243033 29.439375  L 96.243033 29.144403  L 85.675456 29.144403  z " clip-path="url(#p1e8ce1ec4a)" style="fill: #fefebb; stroke: #444443; stroke-width: 0.5; stroke-linejoin: miter" />
   </g>
   <g id="patch_10">
    <path d="M 96.243033 29.439375  L 106.810609 29.439375  L 106.810609 28.996917  L 96.243033 28.996917  z " clip-path="url(#p1e8ce1ec4a)" style="fill: #fefebb; stroke: #444443; stroke-width: 0.5; stroke-linejoin: miter" />
   </g>
   <g id="patch_11">
    <path d="M 106.810609 29.439375  L 117.378185 29.439375  L 117.378185 28.701945  L 106.810609 28.701945  z " clip-path="url(#p1e8ce1ec4a)" style="fill: #fefebb; stroke: #444443; stroke-width: 0.5; stroke-linejoin: miter" />
   </g>
   <g id="patch_12">
    <path d="M 117.378185 29.439375  L 127.945761 29.439375  L 127.945761 28.996917  L 117.378185 28.996917  z " clip-path="url(#p1e8ce1ec4a)" style="fill: #fefebb; stroke: #444443; stroke-width: 0.5; stroke-linejoin: miter" />
   </g>
   <g id="patch_13">
    <path d="M 127.945761 29.439375  L 138.513337 29.439375  L 138.513337 28.554459  L 127.945761 28.554459  z " clip-path="url(#p1e8ce1ec4a)" style="fill: #fefebb; stroke: #444443; stroke-width: 0.5; stroke-linejoin: miter" />
   </g>
   <g id="patch_14">
    <path d="M 138.513337 29.439375  L 149.080913 29.439375  L 149.080913 25.604738  L 138.513337 25.604738  z " clip-path="url(#p1e8ce1ec4a)" style="fill: #fefebb; stroke: #444443; stroke-width: 0.5; stroke-linejoin: miter" />
   </g>
   <g id="patch_15">
    <path d="M 149.080913 29.439375  L 159.648489 29.439375  L 159.648489 26.63714  L 149.080913 26.63714  z " clip-path="url(#p1e8ce1ec4a)" style="fill: #fefebb; stroke: #444443; stroke-width: 0.5; stroke-linejoin: miter" />
   </g>
   <g id="patch_16">
    <path d="M 159.648489 29.439375  L 170.216065 29.439375  L 170.216065 27.964515  L 159.648489 27.964515  z " clip-path="url(#p1e8ce1ec4a)" style="fill: #fefebb; stroke: #444443; stroke-width: 0.5; stroke-linejoin: miter" />
   </g>
   <g id="patch_17">
    <path d="M 170.216065 29.439375  L 180.783641 29.439375  L 180.783641 26.047196  L 170.216065 26.047196  z " clip-path="url(#p1e8ce1ec4a)" style="fill: #fefebb; stroke: #444443; stroke-width: 0.5; stroke-linejoin: miter" />
   </g>
   <g id="patch_18">
    <path d="M 180.783641 29.439375  L 191.351217 29.439375  L 191.351217 25.457252  L 180.783641 25.457252  z " clip-path="url(#p1e8ce1ec4a)" style="fill: #fefebb; stroke: #444443; stroke-width: 0.5; stroke-linejoin: miter" />
   </g>
   <g id="patch_19">
    <path d="M 191.351217 29.439375  L 201.918793 29.439375  L 201.918793 18.230436  L 191.351217 18.230436  z " clip-path="url(#p1e8ce1ec4a)" style="fill: #fefebb; stroke: #444443; stroke-width: 0.5; stroke-linejoin: miter" />
   </g>
   <g id="patch_20">
    <path d="M 22.27 28.406973  L 32.837576 28.406973  L 32.837576 27.522057  L 22.27 27.522057  z " clip-path="url(#p1e8ce1ec4a)" style="fill: #d9e6f5; stroke: #444443; stroke-width: 0.5; stroke-linejoin: miter" />
   </g>
   <g id="patch_21">
    <path d="M 32.837576 28.996917  L 43.405152 28.996917  L 43.405152 28.406973  L 32.837576 28.406973  z " clip-path="url(#p1e8ce1ec4a)" style="fill: #d9e6f5; stroke: #444443; stroke-width: 0.5; stroke-linejoin: miter" />
   </g>
   <g id="patch_22">
    <path d="M 43.405152 29.144403  L 53.972728 29.144403  L 53.972728 28.259487  L 43.405152 28.259487  z " clip-path="url(#p1e8ce1ec4a)" style="fill: #d9e6f5; stroke: #444443; stroke-width: 0.5; stroke-linejoin: miter" />
   </g>
   <g id="patch_23">
    <path d="M 53.972728 29.291889  L 64.540304 29.291889  L 64.540304 27.374571  L 53.972728 27.374571  z " clip-path="url(#p1e8ce1ec4a)" style="fill: #d9e6f5; stroke: #444443; stroke-width: 0.5; stroke-linejoin: miter" />
   </g>
   <g id="patch_24">
    <path d="M 64.540304 28.849431  L 75.10788 28.849431  L 75.10788 27.964515  L 64.540304 27.964515  z " clip-path="url(#p1e8ce1ec4a)" style="fill: #d9e6f5; stroke: #444443; stroke-width: 0.5; stroke-linejoin: miter" />
   </g>
   <g id="patch_25">
    <path d="M 75.10788 29.144403  L 85.675456 29.144403  L 85.675456 27.817029  L 75.10788 27.817029  z " clip-path="url(#p1e8ce1ec4a)" style="fill: #d9e6f5; stroke: #444443; stroke-width: 0.5; stroke-linejoin: miter" />
   </g>
   <g id="patch_26">
    <path d="M 85.675456 29.144403  L 96.243033 29.144403  L 96.243033 27.522057  L 85.675456 27.522057  z " clip-path="url(#p1e8ce1ec4a)" style="fill: #d9e6f5; stroke: #444443; stroke-width: 0.5; stroke-linejoin: miter" />
   </g>
   <g id="patch_27">
    <path d="M 96.243033 28.996917  L 106.810609 28.996917  L 106.810609 28.112001  L 96.243033 28.112001  z " clip-path="url(#p1e8ce1ec4a)" style="fill: #d9e6f5; stroke: #444443; stroke-width: 0.5; stroke-linejoin: miter" />
   </g>
   <g id="patch_28">
    <path d="M 106.810609 28.701945  L 117.378185 28.701945  L 117.378185 27.817029  L 106.810609 27.817029  z " clip-path="url(#p1e8ce1ec4a)" style="fill: #d9e6f5; stroke: #444443; stroke-width: 0.5; stroke-linejoin: miter" />
   </g>
   <g id="patch_29">
    <path d="M 117.378185 28.996917  L 127.945761 28.996917  L 127.945761 27.227084  L 117.378185 27.227084  z " clip-path="url(#p1e8ce1ec4a)" style="fill: #d9e6f5; stroke: #444443; stroke-width: 0.5; stroke-linejoin: miter" />
   </g>
   <g id="patch_30">
    <path d="M 127.945761 28.554459  L 138.513337 28.554459  L 138.513337 27.669543  L 127.945761 27.669543  z " clip-path="url(#p1e8ce1ec4a)" style="fill: #d9e6f5; stroke: #444443; stroke-width: 0.5; stroke-linejoin: miter" />
   </g>
   <g id="patch_31">
    <path d="M 138.513337 25.604738  L 149.080913 25.604738  L 149.080913 25.16228  L 138.513337 25.16228  z " clip-path="url(#p1e8ce1ec4a)" style="fill: #d9e6f5; stroke: #444443; stroke-width: 0.5; stroke-linejoin: miter" />
   </g>
   <g id="patch_32">
    <path d="M 149.080913 26.63714  L 159.648489 26.63714  L 159.648489 26.194682  L 149.080913 26.194682  z " clip-path="url(#p1e8ce1ec4a)" style="fill: #d9e6f5; stroke: #444443; stroke-width: 0.5; stroke-linejoin: miter" />
   </g>
   <g id="patch_33">
    <path d="M 159.648489 27.964515  L 170.216065 27.964515  L 170.216065 27.522057  L 159.648489 27.522057  z " clip-path="url(#p1e8ce1ec4a)" style="fill: #d9e6f5; stroke: #444443; stroke-width: 0.5; stroke-linejoin: miter" />
   </g>
   <g id="patch_34">
    <path d="M 170.216065 26.047196  L 180.783641 26.047196  L 180.783641 25.752224  L 170.216065 25.752224  z " clip-path="url(#p1e8ce1ec4a)" style="fill: #d9e6f5; stroke: #444443; stroke-width: 0.5; stroke-linejoin: miter" />
   </g>
   <g id="patch_35">
    <path d="M 180.783641 25.457252  L 191.351217 25.457252  L 191.351217 25.16228  L 180.783641 25.16228  z " clip-path="url(#p1e8ce1ec4a)" style="fill: #d9e6f5; stroke: #444443; stroke-width: 0.5; stroke-linejoin: miter" />
   </g>
   <g id="patch_36">
    <path d="M 191.351217 18.230436  L 201.918793 18.230436  L 201.918793 17.935464  L 191.351217 17.935464  z " clip-path="url(#p1e8ce1ec4a)" style="fill: #d9e6f5; stroke: #444443; stroke-width: 0.5; stroke-linejoin: miter" />
   </g>
   <g id="patch_37">
    <path d="M 22.27 27.522057  L 32.837576 27.522057  L 32.837576 3.039375  L 22.27 3.039375  z " clip-path="url(#p1e8ce1ec4a)" style="fill: #a1dab4; stroke: #444443; stroke-width: 0.5; stroke-linejoin: miter" />
   </g>
   <g id="patch_38">
    <path d="M 32.837576 28.406973  L 43.405152 28.406973  L 43.405152 18.08295  L 32.837576 18.08295  z " clip-path="url(#p1e8ce1ec4a)" style="fill: #a1dab4; stroke: #444443; stroke-width: 0.5; stroke-linejoin: miter" />
   </g>
   <g id="patch_39">
    <path d="M 43.405152 28.259487  L 53.972728 28.259487  L 53.972728 17.935464  L 43.405152 17.935464  z " clip-path="url(#p1e8ce1ec4a)" style="fill: #a1dab4; stroke: #444443; stroke-width: 0.5; stroke-linejoin: miter" />
   </g>
   <g id="patch_40">
    <path d="M 53.972728 27.374571  L 64.540304 27.374571  L 64.540304 18.967867  L 53.972728 18.967867  z " clip-path="url(#p1e8ce1ec4a)" style="fill: #a1dab4; stroke: #444443; stroke-width: 0.5; stroke-linejoin: miter" />
   </g>
   <g id="patch_41">
    <path d="M 64.540304 27.964515  L 75.10788 27.964515  L 75.10788 22.065073  L 64.540304 22.065073  z " clip-path="url(#p1e8ce1ec4a)" style="fill: #a1dab4; stroke: #444443; stroke-width: 0.5; stroke-linejoin: miter" />
   </g>
   <g id="patch_42">
    <path d="M 75.10788 27.817029  L 85.675456 27.817029  L 85.675456 22.065073  L 75.10788 22.065073  z " clip-path="url(#p1e8ce1ec4a)" style="fill: #a1dab4; stroke: #444443; stroke-width: 0.5; stroke-linejoin: miter" />
   </g>
   <g id="patch_43">
    <path d="M 85.675456 27.522057  L 96.243033 27.522057  L 96.243033 24.572336  L 85.675456 24.572336  z " clip-path="url(#p1e8ce1ec4a)" style="fill: #a1dab4; stroke: #444443; stroke-width: 0.5; stroke-linejoin: miter" />
   </g>
   <g id="patch_44">
    <path d="M 96.243033 28.112001  L 106.810609 28.112001  L 106.810609 23.097476  L 96.243033 23.097476  z " clip-path="url(#p1e8ce1ec4a)" style="fill: #a1dab4; stroke: #444443; stroke-width: 0.5; stroke-linejoin: miter" />
   </g>
   <g id="patch_45">
    <path d="M 106.810609 27.817029  L 117.378185 27.817029  L 117.378185 21.032671  L 106.810609 21.032671  z " clip-path="url(#p1e8ce1ec4a)" style="fill: #a1dab4; stroke: #444443; stroke-width: 0.5; stroke-linejoin: miter" />
   </g>
   <g id="patch_46">
    <path d="M 117.378185 27.227084  L 127.945761 27.227084  L 127.945761 20.442727  L 117.378185 20.442727  z " clip-path="url(#p1e8ce1ec4a)" style="fill: #a1dab4; stroke: #444443; stroke-width: 0.5; stroke-linejoin: miter" />
   </g>
   <g id="patch_47">
    <path d="M 127.945761 27.669543  L 138.513337 27.669543  L 138.513337 22.212559  L 127.945761 22.212559  z " clip-path="url(#p1e8ce1ec4a)" style="fill: #a1dab4; stroke: #444443; stroke-width: 0.5; stroke-linejoin: miter" />
   </g>
   <g id="patch_48">
    <path d="M 138.513337 25.16228  L 149.080913 25.16228  L 149.080913 19.557811  L 138.513337 19.557811  z " clip-path="url(#p1e8ce1ec4a)" style="fill: #a1dab4; stroke: #444443; stroke-width: 0.5; stroke-linejoin: miter" />
   </g>
   <g id="patch_49">
    <path d="M 149.080913 26.194682  L 159.648489 26.194682  L 159.648489 23.539934  L 149.080913 23.539934  z " clip-path="url(#p1e8ce1ec4a)" style="fill: #a1dab4; stroke: #444443; stroke-width: 0.5; stroke-linejoin: miter" />
   </g>
   <g id="patch_50">
    <path d="M 159.648489 27.522057  L 170.216065 27.522057  L 170.216065 25.457252  L 159.648489 25.457252  z " clip-path="url(#p1e8ce1ec4a)" style="fill: #a1dab4; stroke: #444443; stroke-width: 0.5; stroke-linejoin: miter" />
   </g>
   <g id="patch_51">
    <path d="M 170.216065 25.752224  L 180.783641 25.752224  L 180.783641 22.507531  L 170.216065 22.507531  z " clip-path="url(#p1e8ce1ec4a)" style="fill: #a1dab4; stroke: #444443; stroke-width: 0.5; stroke-linejoin: miter" />
   </g>
   <g id="patch_52">
    <path d="M 180.783641 25.16228  L 191.351217 25.16228  L 191.351217 22.655017  L 180.783641 22.655017  z " clip-path="url(#p1e8ce1ec4a)" style="fill: #a1dab4; stroke: #444443; stroke-width: 0.5; stroke-linejoin: miter" />
   </g>
   <g id="patch_53">
    <path d="M 191.351217 17.935464  L 201.918793 17.935464  L 201.918793 7.31647  L 191.351217 7.31647  z " clip-path="url(#p1e8ce1ec4a)" style="fill: #a1dab4; stroke: #444443; stroke-width: 0.5; stroke-linejoin: miter" />
   </g>
   <g id="patch_54">
    <path d="M 144.465555 30.270975  L 141.151035 37.755375  L 147.780075 37.755375  z " style="fill: #444443" />
   </g>
   <g id="matplotlib.axis_1">
    <g id="xtick_1">
     <g id="line2d_1">
      <defs>
       <path id="m237894bc4c" d="M 0 0  L 0 3.5  " style="stroke: #000000; stroke-width: 0.3" />
      </defs>
      <g>
       <use xlink:href="#m237894bc4c" x="22.27" y="29.439375" style="stroke: #000000; stroke-width: 0.3" />
      </g>
     </g>
     <g id="text_1">
      
      <g style="fill: #444443" transform="translate(16.373125 42.518125)scale(0.08 -0.08)">
       <defs>
        <path id="DejaVuSans-2212" d="M 678 2272  L 4684 2272  L 4684 1741  L 678 1741  L 678 2272  z " transform="scale(0.015625)" />
        <path id="DejaVuSans-31" d="M 794 531  L 1825 531  L 1825 4091  L 703 3866  L 703 4441  L 1819 4666  L 2450 4666  L 2450 531  L 3481 531  L 3481 0  L 794 0  L 794 531  z " transform="scale(0.015625)" />
       </defs>
       <use xlink:href="#DejaVuSans-2212" />
       <use xlink:href="#DejaVuSans-31" x="83.789062" />
      </g>
     </g>
    </g>
    <g id="xtick_2">
     <g id="line2d_2">
      <g>
       <use xlink:href="#m237894bc4c" x="201.918793" y="29.439375" style="stroke: #000000; stroke-width: 0.3" />
      </g>
     </g>
     <g id="text_2">
      
      <g style="fill: #444443" transform="translate(199.373793 42.518125)scale(0.08 -0.08)">
       <use xlink:href="#DejaVuSans-31" />
      </g>
     </g>
    </g>
    <g id="text_3">
     
     <g style="fill: #444443" transform="translate(85.994687 56.9175)scale(0.12 -0.12)">
      <defs>
       <path id="ArialMT-73" d="M 197 991  L 753 1078  Q 800 744 1014 566  Q 1228 388 1613 388  Q 2000 388 2187 545  Q 2375 703 2375 916  Q 2375 1106 2209 1216  Q 2094 1291 1634 1406  Q 1016 1563 777 1677  Q 538 1791 414 1992  Q 291 2194 291 2438  Q 291 2659 392 2848  Q 494 3038 669 3163  Q 800 3259 1026 3326  Q 1253 3394 1513 3394  Q 1903 3394 2198 3281  Q 2494 3169 2634 2976  Q 2775 2784 2828 2463  L 2278 2388  Q 2241 2644 2061 2787  Q 1881 2931 1553 2931  Q 1166 2931 1000 2803  Q 834 2675 834 2503  Q 834 2394 903 2306  Q 972 2216 1119 2156  Q 1203 2125 1616 2013  Q 2213 1853 2448 1751  Q 2684 1650 2818 1456  Q 2953 1263 2953 975  Q 2953 694 2789 445  Q 2625 197 2315 61  Q 2006 -75 1616 -75  Q 969 -75 630 194  Q 291 463 197 991  z " transform="scale(0.015625)" />
       <path id="ArialMT-69" d="M 425 3934  L 425 4581  L 988 4581  L 988 3934  L 425 3934  z M 425 0  L 425 3319  L 988 3319  L 988 0  L 425 0  z " transform="scale(0.015625)" />
       <path id="ArialMT-6e" d="M 422 0  L 422 3319  L 928 3319  L 928 2847  Q 1294 3394 1984 3394  Q 2284 3394 2536 3286  Q 2788 3178 2913 3003  Q 3038 2828 3088 2588  Q 3119 2431 3119 2041  L 3119 0  L 2556 0  L 2556 2019  Q 2556 2363 2490 2533  Q 2425 2703 2258 2804  Q 2091 2906 1866 2906  Q 1506 2906 1245 2678  Q 984 2450 984 1813  L 984 0  L 422 0  z " transform="scale(0.015625)" />
       <path id="ArialMT-28" d="M 1497 -1347  Q 1031 -759 709 28  Q 388 816 388 1659  Q 388 2403 628 3084  Q 909 3875 1497 4659  L 1900 4659  Q 1522 4009 1400 3731  Q 1209 3300 1100 2831  Q 966 2247 966 1656  Q 966 153 1900 -1347  L 1497 -1347  z " transform="scale(0.015625)" />
       <path id="ArialMT-74" d="M 1650 503  L 1731 6  Q 1494 -44 1306 -44  Q 1000 -44 831 53  Q 663 150 594 308  Q 525 466 525 972  L 525 2881  L 113 2881  L 113 3319  L 525 3319  L 525 4141  L 1084 4478  L 1084 3319  L 1650 3319  L 1650 2881  L 1084 2881  L 1084 941  Q 1084 700 1114 631  Q 1144 563 1211 522  Q 1278 481 1403 481  Q 1497 481 1650 503  z " transform="scale(0.015625)" />
       <path id="ArialMT-68" d="M 422 0  L 422 4581  L 984 4581  L 984 2938  Q 1378 3394 1978 3394  Q 2347 3394 2619 3248  Q 2891 3103 3008 2847  Q 3125 2591 3125 2103  L 3125 0  L 2563 0  L 2563 2103  Q 2563 2525 2380 2717  Q 2197 2909 1863 2909  Q 1613 2909 1392 2779  Q 1172 2650 1078 2428  Q 984 2206 984 1816  L 984 0  L 422 0  z " transform="scale(0.015625)" />
       <path id="ArialMT-65" d="M 2694 1069  L 3275 997  Q 3138 488 2766 206  Q 2394 -75 1816 -75  Q 1088 -75 661 373  Q 234 822 234 1631  Q 234 2469 665 2931  Q 1097 3394 1784 3394  Q 2450 3394 2872 2941  Q 3294 2488 3294 1666  Q 3294 1616 3291 1516  L 816 1516  Q 847 969 1125 678  Q 1403 388 1819 388  Q 2128 388 2347 550  Q 2566 713 2694 1069  z M 847 1978  L 2700 1978  Q 2663 2397 2488 2606  Q 2219 2931 1791 2931  Q 1403 2931 1139 2672  Q 875 2413 847 1978  z " transform="scale(0.015625)" />
       <path id="ArialMT-61" d="M 2588 409  Q 2275 144 1986 34  Q 1697 -75 1366 -75  Q 819 -75 525 192  Q 231 459 231 875  Q 231 1119 342 1320  Q 453 1522 633 1644  Q 813 1766 1038 1828  Q 1203 1872 1538 1913  Q 2219 1994 2541 2106  Q 2544 2222 2544 2253  Q 2544 2597 2384 2738  Q 2169 2928 1744 2928  Q 1347 2928 1158 2789  Q 969 2650 878 2297  L 328 2372  Q 403 2725 575 2942  Q 747 3159 1072 3276  Q 1397 3394 1825 3394  Q 2250 3394 2515 3294  Q 2781 3194 2906 3042  Q 3031 2891 3081 2659  Q 3109 2516 3109 2141  L 3109 1391  Q 3109 606 3145 398  Q 3181 191 3288 0  L 2700 0  Q 2613 175 2588 409  z M 2541 1666  Q 2234 1541 1622 1453  Q 1275 1403 1131 1340  Q 988 1278 909 1158  Q 831 1038 831 891  Q 831 666 1001 516  Q 1172 366 1500 366  Q 1825 366 2078 508  Q 2331 650 2450 897  Q 2541 1088 2541 1459  L 2541 1666  z " transform="scale(0.015625)" />
       <path id="ArialMT-32" d="M 3222 541  L 3222 0  L 194 0  Q 188 203 259 391  Q 375 700 629 1000  Q 884 1300 1366 1694  Q 2113 2306 2375 2664  Q 2638 3022 2638 3341  Q 2638 3675 2398 3904  Q 2159 4134 1775 4134  Q 1369 4134 1125 3890  Q 881 3647 878 3216  L 300 3275  Q 359 3922 746 4261  Q 1134 4600 1788 4600  Q 2447 4600 2831 4234  Q 3216 3869 3216 3328  Q 3216 3053 3103 2787  Q 2991 2522 2730 2228  Q 2469 1934 1863 1422  Q 1356 997 1212 845  Q 1069 694 975 541  L 3222 541  z " transform="scale(0.015625)" />
       <path id="ArialMT-29" d="M 791 -1347  L 388 -1347  Q 1322 153 1322 1656  Q 1322 2244 1188 2822  Q 1081 3291 891 3722  Q 769 4003 388 4659  L 791 4659  Q 1378 3875 1659 3084  Q 1900 2403 1900 1659  Q 1900 816 1576 28  Q 1253 -759 791 -1347  z " transform="scale(0.015625)" />
      </defs>
      <use xlink:href="#ArialMT-73" />
      <use xlink:href="#ArialMT-69" x="50" />
      <use xlink:href="#ArialMT-6e" x="72.216797" />
      <use xlink:href="#ArialMT-28" x="127.832031" />
      <use xlink:href="#ArialMT-74" x="161.132812" />
      <use xlink:href="#ArialMT-68" x="188.916016" />
      <use xlink:href="#ArialMT-65" x="244.53125" />
      <use xlink:href="#ArialMT-74" x="300.146484" />
      <use xlink:href="#ArialMT-61" x="327.929688" />
      <use xlink:href="#ArialMT-32" x="383.544922" />
      <use xlink:href="#ArialMT-29" x="439.160156" />
     </g>
    </g>
   </g>
   <g id="matplotlib.axis_2">
    <g id="ytick_1">
     <g id="line2d_3">
      <defs>
       <path id="ma30dba7070" d="M 0 0  L -3.5 0  " style="stroke: #000000; stroke-width: 0.3" />
      </defs>
      <g>
       <use xlink:href="#ma30dba7070" x="22.27" y="29.439375" style="stroke: #000000; stroke-width: 0.3" />
      </g>
     </g>
     <g id="text_4">
      
      <g style="fill: #444443" transform="translate(10.18 32.47875)scale(0.08 -0.08)">
       <defs>
        <path id="DejaVuSans-30" d="M 2034 4250  Q 1547 4250 1301 3770  Q 1056 3291 1056 2328  Q 1056 1369 1301 889  Q 1547 409 2034 409  Q 2525 409 2770 889  Q 3016 1369 3016 2328  Q 3016 3291 2770 3770  Q 2525 4250 2034 4250  z M 2034 4750  Q 2819 4750 3233 4129  Q 3647 3509 3647 2328  Q 3647 1150 3233 529  Q 2819 -91 2034 -91  Q 1250 -91 836 529  Q 422 1150 422 2328  Q 422 3509 836 4129  Q 1250 4750 2034 4750  z " transform="scale(0.015625)" />
       </defs>
       <use xlink:href="#DejaVuSans-30" />
      </g>
     </g>
    </g>
    <g id="ytick_2">
     <g id="line2d_4">
      <g>
       <use xlink:href="#ma30dba7070" x="22.27" y="3.039375" style="stroke: #000000; stroke-width: 0.3" />
      </g>
     </g>
     <g id="text_5">
      
      <g style="fill: #444443" transform="translate(0 6.07875)scale(0.08 -0.08)">
       <defs>
        <path id="DejaVuSans-37" d="M 525 4666  L 3525 4666  L 3525 4397  L 1831 0  L 1172 0  L 2766 4134  L 525 4134  L 525 4666  z " transform="scale(0.015625)" />
        <path id="DejaVuSans-39" d="M 703 97  L 703 672  Q 941 559 1184 500  Q 1428 441 1663 441  Q 2288 441 2617 861  Q 2947 1281 2994 2138  Q 2813 1869 2534 1725  Q 2256 1581 1919 1581  Q 1219 1581 811 2004  Q 403 2428 403 3163  Q 403 3881 828 4315  Q 1253 4750 1959 4750  Q 2769 4750 3195 4129  Q 3622 3509 3622 2328  Q 3622 1225 3098 567  Q 2575 -91 1691 -91  Q 1453 -91 1209 -44  Q 966 3 703 97  z M 1959 2075  Q 2384 2075 2632 2365  Q 2881 2656 2881 3163  Q 2881 3666 2632 3958  Q 2384 4250 1959 4250  Q 1534 4250 1286 3958  Q 1038 3666 1038 3163  Q 1038 2656 1286 2365  Q 1534 2075 1959 2075  z " transform="scale(0.015625)" />
       </defs>
       <use xlink:href="#DejaVuSans-31" />
       <use xlink:href="#DejaVuSans-37" x="63.623047" />
       <use xlink:href="#DejaVuSans-39" x="127.246094" />
      </g>
     </g>
    </g>
   </g>
   <g id="patch_55">
    <path d="M 22.27 29.439375  L 22.27 1.719375  " style="fill: none; stroke: #000000; stroke-width: 0.3; stroke-linejoin: miter; stroke-linecap: square" />
   </g>
   <g id="patch_56">
    <path d="M 22.27 29.439375  L 206.41 29.439375  " style="fill: none; stroke: #000000; stroke-width: 0.3; stroke-linejoin: miter; stroke-linecap: square" />
   </g>
   <g id="text_6">
    
    <g style="fill: #444443" transform="translate(136.68118 46.071375)scale(0.08 -0.08)">
     <defs>
      <path id="ArialMT-30" d="M 266 2259  Q 266 3072 433 3567  Q 600 4063 929 4331  Q 1259 4600 1759 4600  Q 2128 4600 2406 4451  Q 2684 4303 2865 4023  Q 3047 3744 3150 3342  Q 3253 2941 3253 2259  Q 3253 1453 3087 958  Q 2922 463 2592 192  Q 2263 -78 1759 -78  Q 1097 -78 719 397  Q 266 969 266 2259  z M 844 2259  Q 844 1131 1108 757  Q 1372 384 1759 384  Q 2147 384 2411 759  Q 2675 1134 2675 2259  Q 2675 3391 2411 3762  Q 2147 4134 1753 4134  Q 1366 4134 1134 3806  Q 844 3388 844 2259  z " transform="scale(0.015625)" />
      <path id="ArialMT-2e" d="M 581 0  L 581 641  L 1222 641  L 1222 0  L 581 0  z " transform="scale(0.015625)" />
      <path id="ArialMT-33" d="M 269 1209  L 831 1284  Q 928 806 1161 595  Q 1394 384 1728 384  Q 2125 384 2398 659  Q 2672 934 2672 1341  Q 2672 1728 2419 1979  Q 2166 2231 1775 2231  Q 1616 2231 1378 2169  L 1441 2663  Q 1497 2656 1531 2656  Q 1891 2656 2178 2843  Q 2466 3031 2466 3422  Q 2466 3731 2256 3934  Q 2047 4138 1716 4138  Q 1388 4138 1169 3931  Q 950 3725 888 3313  L 325 3413  Q 428 3978 793 4289  Q 1159 4600 1703 4600  Q 2078 4600 2393 4439  Q 2709 4278 2876 4000  Q 3044 3722 3044 3409  Q 3044 3113 2884 2869  Q 2725 2625 2413 2481  Q 2819 2388 3044 2092  Q 3269 1797 3269 1353  Q 3269 753 2831 336  Q 2394 -81 1725 -81  Q 1122 -81 723 278  Q 325 638 269 1209  z " transform="scale(0.015625)" />
      <path id="ArialMT-36" d="M 3184 3459  L 2625 3416  Q 2550 3747 2413 3897  Q 2184 4138 1850 4138  Q 1581 4138 1378 3988  Q 1113 3794 959 3422  Q 806 3050 800 2363  Q 1003 2672 1297 2822  Q 1591 2972 1913 2972  Q 2475 2972 2870 2558  Q 3266 2144 3266 1488  Q 3266 1056 3080 686  Q 2894 316 2569 119  Q 2244 -78 1831 -78  Q 1128 -78 684 439  Q 241 956 241 2144  Q 241 3472 731 4075  Q 1159 4600 1884 4600  Q 2425 4600 2770 4297  Q 3116 3994 3184 3459  z M 888 1484  Q 888 1194 1011 928  Q 1134 663 1356 523  Q 1578 384 1822 384  Q 2178 384 2434 671  Q 2691 959 2691 1453  Q 2691 1928 2437 2201  Q 2184 2475 1800 2475  Q 1419 2475 1153 2201  Q 888 1928 888 1484  z " transform="scale(0.015625)" />
     </defs>
     <use xlink:href="#ArialMT-30" />
     <use xlink:href="#ArialMT-2e" x="55.615234" />
     <use xlink:href="#ArialMT-33" x="83.398438" />
     <use xlink:href="#ArialMT-36" x="139.013672" />
    </g>
   </g>
  </g>
 </g>
 <defs>
  <clipPath id="p1e8ce1ec4a">
   <rect x="22.27" y="1.719375" width="184.14" height="27.72" />
  </clipPath>
 </defs>
</svg></g>

<g id="node3" class="node">
<title>leaf2</title>
<polygon fill="none" stroke="#444443" stroke-width="0" points="75,-83 7,-83 7,0 75,0 75,-83" />
<svg width="60px" height="75px" viewBox="0 0 80.079998 101.065227" version="1.1" preserveAspectRatio="xMinYMin meet" x="11" y="-78.5">
 <metadata>
  <rdf:RDF>
   <ns2:Work>
    <dc:type rdf:resource="http://purl.org/dc/dcmitype/StillImage" />
    <dc:date>2022-01-18T17:06:55.433524</dc:date>
    <dc:format>image/svg+xml</dc:format>
    <dc:creator>
     <ns2:Agent>
      <dc:title>Matplotlib v3.5.1, https://matplotlib.org/</dc:title>
     </ns2:Agent>
    </dc:creator>
   </ns2:Work>
  </rdf:RDF>
 </metadata>
 <defs>
  <style type="text/css">*{stroke-linejoin: round; stroke-linecap: butt}</style>
 </defs>
 <g id="figure_1">
  <g id="patch_1">
   <path d="M 0 101.065227  L 80.079998 101.065227  L 80.079998 0  L 0 0  z " style="fill: #ffffff" />
  </g>
  <g id="axes_1">
   <g id="patch_2">
    <path d="M 80.079998 40.039996  C 80.079998 38.451986 79.985526 36.865381 79.797082 35.288592  C 79.608639 33.711803 79.326558 32.147619 78.952334 30.604333  L 40.039998 40.039996  L 80.079998 40.039996  z " style="fill: #fefebb; stroke: #444443; stroke-width: 0.5; stroke-linejoin: miter" />
   </g>
   <g id="patch_3">
    <path d="M 78.952334 30.604333  C 78.401816 28.334018 77.653663 26.116231 76.716441 23.976368  C 75.779219 21.836504 74.656519 19.782763 73.361196 17.838659  L 40.039998 40.039996  L 78.952334 30.604333  z " style="fill: #d9e6f5; stroke: #444443; stroke-width: 0.5; stroke-linejoin: miter" />
   </g>
   <g id="patch_4">
    <path d="M 73.361196 17.838659  C 70.719958 13.874519 67.392383 10.413333 63.535238 7.618162  C 59.678092 4.822992 55.352914 2.738431 50.763467 1.462687  C 46.17402 0.186942 41.393526 -0.259633 36.647198 0.144  C 31.90087 0.547633 27.264433 1.795035 22.956314 3.827438  C 18.648196 5.859842 14.737129 8.644822 11.407368 12.051175  C 8.077607 15.457528 5.382277 19.430909 3.448356 23.784126  C 1.514435 28.137343 0.372779 32.800944 0.077172 37.555223  C -0.218436 42.309502 0.336722 47.078606 1.716491 51.637859  C 3.09626 56.197112 5.278627 60.473773 8.160778 64.266365  C 11.042929 68.058957 14.578882 71.306971 18.602054 73.85739  C 22.625226 76.40781 27.07143 78.219944 31.7312 79.208421  C 36.390971 80.196898 41.189965 80.345948 45.902096 79.648548  C 50.614227 78.951149 55.164318 77.418427 59.338007 75.122591  C 63.511697 72.826754 67.242397 69.804432 70.354351 66.198008  C 73.466305 62.591585 75.909864 58.458598 77.569908 53.993757  C 79.229953 49.528917 80.079998 44.803456 80.079998 40.039996  L 40.039998 40.039996  L 73.361196 17.838659  z " style="fill: #a1dab4; stroke: #444443; stroke-width: 0.5; stroke-linejoin: miter" />
   </g>
   <g id="text_1">
    
    <g style="fill: #444443" transform="translate(27.402029 89.725227)scale(0.09 -0.09)">
     <defs>
      <path id="ArialMT-6e" d="M 422 0  L 422 3319  L 928 3319  L 928 2847  Q 1294 3394 1984 3394  Q 2284 3394 2536 3286  Q 2788 3178 2913 3003  Q 3038 2828 3088 2588  Q 3119 2431 3119 2041  L 3119 0  L 2556 0  L 2556 2019  Q 2556 2363 2490 2533  Q 2425 2703 2258 2804  Q 2091 2906 1866 2906  Q 1506 2906 1245 2678  Q 984 2450 984 1813  L 984 0  L 422 0  z " transform="scale(0.015625)" />
      <path id="ArialMT-3d" d="M 3381 2694  L 356 2694  L 356 3219  L 3381 3219  L 3381 2694  z M 3381 1303  L 356 1303  L 356 1828  L 3381 1828  L 3381 1303  z " transform="scale(0.015625)" />
      <path id="ArialMT-37" d="M 303 3981  L 303 4522  L 3269 4522  L 3269 4084  Q 2831 3619 2401 2847  Q 1972 2075 1738 1259  Q 1569 684 1522 0  L 944 0  Q 953 541 1156 1306  Q 1359 2072 1739 2783  Q 2119 3494 2547 3981  L 303 3981  z " transform="scale(0.015625)" />
      <path id="ArialMT-38" d="M 1131 2484  Q 781 2613 612 2850  Q 444 3088 444 3419  Q 444 3919 803 4259  Q 1163 4600 1759 4600  Q 2359 4600 2725 4251  Q 3091 3903 3091 3403  Q 3091 3084 2923 2848  Q 2756 2613 2416 2484  Q 2838 2347 3058 2040  Q 3278 1734 3278 1309  Q 3278 722 2862 322  Q 2447 -78 1769 -78  Q 1091 -78 675 323  Q 259 725 259 1325  Q 259 1772 486 2073  Q 713 2375 1131 2484  z M 1019 3438  Q 1019 3113 1228 2906  Q 1438 2700 1772 2700  Q 2097 2700 2305 2904  Q 2513 3109 2513 3406  Q 2513 3716 2298 3927  Q 2084 4138 1766 4138  Q 1444 4138 1231 3931  Q 1019 3725 1019 3438  z M 838 1322  Q 838 1081 952 856  Q 1066 631 1291 507  Q 1516 384 1775 384  Q 2178 384 2440 643  Q 2703 903 2703 1303  Q 2703 1709 2433 1975  Q 2163 2241 1756 2241  Q 1359 2241 1098 1978  Q 838 1716 838 1322  z " transform="scale(0.015625)" />
     </defs>
     <use xlink:href="#ArialMT-6e" />
     <use xlink:href="#ArialMT-3d" x="55.615234" />
     <use xlink:href="#ArialMT-37" x="114.013672" />
     <use xlink:href="#ArialMT-37" x="169.628906" />
     <use xlink:href="#ArialMT-38" x="225.244141" />
    </g>
    
    <g style="fill: #444443" transform="translate(22.030857 99.276477)scale(0.09 -0.09)">
     <defs>
      <path id="ArialMT-74" d="M 1650 503  L 1731 6  Q 1494 -44 1306 -44  Q 1000 -44 831 53  Q 663 150 594 308  Q 525 466 525 972  L 525 2881  L 113 2881  L 113 3319  L 525 3319  L 525 4141  L 1084 4478  L 1084 3319  L 1650 3319  L 1650 2881  L 1084 2881  L 1084 941  Q 1084 700 1114 631  Q 1144 563 1211 522  Q 1278 481 1403 481  Q 1497 481 1650 503  z " transform="scale(0.015625)" />
      <path id="ArialMT-6f" d="M 213 1659  Q 213 2581 725 3025  Q 1153 3394 1769 3394  Q 2453 3394 2887 2945  Q 3322 2497 3322 1706  Q 3322 1066 3130 698  Q 2938 331 2570 128  Q 2203 -75 1769 -75  Q 1072 -75 642 372  Q 213 819 213 1659  z M 791 1659  Q 791 1022 1069 705  Q 1347 388 1769 388  Q 2188 388 2466 706  Q 2744 1025 2744 1678  Q 2744 2294 2464 2611  Q 2184 2928 1769 2928  Q 1347 2928 1069 2612  Q 791 2297 791 1659  z " transform="scale(0.015625)" />
      <path id="ArialMT-72" d="M 416 0  L 416 3319  L 922 3319  L 922 2816  Q 1116 3169 1280 3281  Q 1444 3394 1641 3394  Q 1925 3394 2219 3213  L 2025 2691  Q 1819 2813 1613 2813  Q 1428 2813 1281 2702  Q 1134 2591 1072 2394  Q 978 2094 978 1738  L 978 0  L 416 0  z " transform="scale(0.015625)" />
      <path id="ArialMT-71" d="M 2538 -1272  L 2538 353  Q 2406 169 2170 47  Q 1934 -75 1669 -75  Q 1078 -75 651 397  Q 225 869 225 1691  Q 225 2191 398 2587  Q 572 2984 901 3189  Q 1231 3394 1625 3394  Q 2241 3394 2594 2875  L 2594 3319  L 3100 3319  L 3100 -1272  L 2538 -1272  z M 803 1669  Q 803 1028 1072 708  Q 1341 388 1716 388  Q 2075 388 2334 692  Q 2594 997 2594 1619  Q 2594 2281 2320 2615  Q 2047 2950 1678 2950  Q 1313 2950 1058 2639  Q 803 2328 803 1669  z " transform="scale(0.015625)" />
      <path id="ArialMT-75" d="M 2597 0  L 2597 488  Q 2209 -75 1544 -75  Q 1250 -75 995 37  Q 741 150 617 320  Q 494 491 444 738  Q 409 903 409 1263  L 409 3319  L 972 3319  L 972 1478  Q 972 1038 1006 884  Q 1059 663 1231 536  Q 1403 409 1656 409  Q 1909 409 2131 539  Q 2353 669 2445 892  Q 2538 1116 2538 1541  L 2538 3319  L 3100 3319  L 3100 0  L 2597 0  z " transform="scale(0.015625)" />
      <path id="ArialMT-65" d="M 2694 1069  L 3275 997  Q 3138 488 2766 206  Q 2394 -75 1816 -75  Q 1088 -75 661 373  Q 234 822 234 1631  Q 234 2469 665 2931  Q 1097 3394 1784 3394  Q 2450 3394 2872 2941  Q 3294 2488 3294 1666  Q 3294 1616 3291 1516  L 816 1516  Q 847 969 1125 678  Q 1403 388 1819 388  Q 2128 388 2347 550  Q 2566 713 2694 1069  z M 847 1978  L 2700 1978  Q 2663 2397 2488 2606  Q 2219 2931 1791 2931  Q 1403 2931 1139 2672  Q 875 2413 847 1978  z " transform="scale(0.015625)" />
      <path id="ArialMT-20" transform="scale(0.015625)" />
      <path id="ArialMT-2d" d="M 203 1375  L 203 1941  L 1931 1941  L 1931 1375  L 203 1375  z " transform="scale(0.015625)" />
      <path id="ArialMT-31" d="M 2384 0  L 1822 0  L 1822 3584  Q 1619 3391 1289 3197  Q 959 3003 697 2906  L 697 3450  Q 1169 3672 1522 3987  Q 1875 4303 2022 4600  L 2384 4600  L 2384 0  z " transform="scale(0.015625)" />
     </defs>
     <use xlink:href="#ArialMT-74" />
     <use xlink:href="#ArialMT-6f" x="27.783203" />
     <use xlink:href="#ArialMT-72" x="83.398438" />
     <use xlink:href="#ArialMT-71" x="116.699219" />
     <use xlink:href="#ArialMT-75" x="172.314453" />
     <use xlink:href="#ArialMT-65" x="227.929688" />
     <use xlink:href="#ArialMT-20" x="283.544922" />
     <use xlink:href="#ArialMT-2d" x="311.328125" />
     <use xlink:href="#ArialMT-31" x="344.628906" />
    </g>
   </g>
  </g>
 </g>
</svg></g>

<g id="edge1" class="edge">
<title>node1-&gt;leaf2</title>
<path fill="none" stroke="#444443" stroke-width="0.3" d="M70.7,-115.26C67.18,-106.65 63.14,-96.75 59.19,-87.08" />
<polygon fill="#444443" stroke="#444443" stroke-width="0.3" points="60.44,-86.41 57.63,-83.24 57.84,-87.47 60.44,-86.41" />
</g>

<g id="node4" class="node">
<title>leaf3</title>
<polygon fill="none" stroke="#444443" stroke-width="0" points="157,-83 89,-83 89,0 157,0 157,-83" />
<svg width="60px" height="75px" viewBox="0 0 80.07998 101.06519" version="1.1" preserveAspectRatio="xMinYMin meet" x="93" y="-78.5">
 <metadata>
  <rdf:RDF>
   <ns2:Work>
    <dc:type rdf:resource="http://purl.org/dc/dcmitype/StillImage" />
    <dc:date>2022-01-18T17:06:55.523285</dc:date>
    <dc:format>image/svg+xml</dc:format>
    <dc:creator>
     <ns2:Agent>
      <dc:title>Matplotlib v3.5.1, https://matplotlib.org/</dc:title>
     </ns2:Agent>
    </dc:creator>
   </ns2:Work>
  </rdf:RDF>
 </metadata>
 <defs>
  <style type="text/css">*{stroke-linejoin: round; stroke-linecap: butt}</style>
 </defs>
 <g id="figure_1">
  <g id="patch_1">
   <path d="M 0 101.06519  L 80.07998 101.06519  L 80.07998 0  L 0 0  z " style="fill: #ffffff" />
  </g>
  <g id="axes_1">
   <g id="patch_2">
    <path d="M 80.07998 40.039959  C 80.07998 33.805418 78.62383 27.656195 75.827906 22.083736  C 73.031982 16.511276 68.972806 11.668095 63.974788 7.941258  C 58.97677 4.214422 53.176702 1.705931 47.038125 0.616266  C 40.899548 -0.4734 34.590472 -0.114418 28.615117 1.664522  C 22.639762 3.443463 17.16167 6.593673 12.61865 10.863388  C 8.075631 15.133103 4.592022 20.405464 2.446235 26.259103  C 0.300449 32.112743 -0.448788 38.387451 0.258405 44.581753  C 0.965598 50.776054 3.109865 56.720416 6.519835 61.939764  L 40.03998 40.039959  L 80.07998 40.039959  z " style="fill: #fefebb; stroke: #444443; stroke-width: 0.5; stroke-linejoin: miter" />
   </g>
   <g id="patch_3">
    <path d="M 6.519835 61.939764  C 7.626801 63.634102 8.860641 65.242074 10.210742 66.749848  C 11.560843 68.257622 13.023323 69.660863 14.585602 70.947502  L 40.03998 40.039959  L 6.519835 61.939764  z " style="fill: #d9e6f5; stroke: #444443; stroke-width: 0.5; stroke-linejoin: miter" />
   </g>
   <g id="patch_4">
    <path d="M 14.585602 70.947502  C 20.444276 75.772502 27.555838 78.833676 35.087328 79.772475  C 42.618818 80.711274 50.264242 79.489556 57.128109 76.250419  C 63.991977 73.011282 69.795418 67.886326 73.85869 61.475827  C 77.921963 55.065327 80.07998 47.629733 80.07998 40.039958  L 40.03998 40.039959  L 14.585602 70.947502  z " style="fill: #a1dab4; stroke: #444443; stroke-width: 0.5; stroke-linejoin: miter" />
   </g>
   <g id="text_1">
    
    <g style="fill: #444443" transform="translate(27.402011 89.72519)scale(0.09 -0.09)">
     <defs>
      <path id="ArialMT-6e" d="M 422 0  L 422 3319  L 928 3319  L 928 2847  Q 1294 3394 1984 3394  Q 2284 3394 2536 3286  Q 2788 3178 2913 3003  Q 3038 2828 3088 2588  Q 3119 2431 3119 2041  L 3119 0  L 2556 0  L 2556 2019  Q 2556 2363 2490 2533  Q 2425 2703 2258 2804  Q 2091 2906 1866 2906  Q 1506 2906 1245 2678  Q 984 2450 984 1813  L 984 0  L 422 0  z " transform="scale(0.015625)" />
      <path id="ArialMT-3d" d="M 3381 2694  L 356 2694  L 356 3219  L 3381 3219  L 3381 2694  z M 3381 1303  L 356 1303  L 356 1828  L 3381 1828  L 3381 1303  z " transform="scale(0.015625)" />
      <path id="ArialMT-33" d="M 269 1209  L 831 1284  Q 928 806 1161 595  Q 1394 384 1728 384  Q 2125 384 2398 659  Q 2672 934 2672 1341  Q 2672 1728 2419 1979  Q 2166 2231 1775 2231  Q 1616 2231 1378 2169  L 1441 2663  Q 1497 2656 1531 2656  Q 1891 2656 2178 2843  Q 2466 3031 2466 3422  Q 2466 3731 2256 3934  Q 2047 4138 1716 4138  Q 1388 4138 1169 3931  Q 950 3725 888 3313  L 325 3413  Q 428 3978 793 4289  Q 1159 4600 1703 4600  Q 2078 4600 2393 4439  Q 2709 4278 2876 4000  Q 3044 3722 3044 3409  Q 3044 3113 2884 2869  Q 2725 2625 2413 2481  Q 2819 2388 3044 2092  Q 3269 1797 3269 1353  Q 3269 753 2831 336  Q 2394 -81 1725 -81  Q 1122 -81 723 278  Q 325 638 269 1209  z " transform="scale(0.015625)" />
      <path id="ArialMT-34" d="M 2069 0  L 2069 1097  L 81 1097  L 81 1613  L 2172 4581  L 2631 4581  L 2631 1613  L 3250 1613  L 3250 1097  L 2631 1097  L 2631 0  L 2069 0  z M 2069 1613  L 2069 3678  L 634 1613  L 2069 1613  z " transform="scale(0.015625)" />
      <path id="ArialMT-37" d="M 303 3981  L 303 4522  L 3269 4522  L 3269 4084  Q 2831 3619 2401 2847  Q 1972 2075 1738 1259  Q 1569 684 1522 0  L 944 0  Q 953 541 1156 1306  Q 1359 2072 1739 2783  Q 2119 3494 2547 3981  L 303 3981  z " transform="scale(0.015625)" />
     </defs>
     <use xlink:href="#ArialMT-6e" />
     <use xlink:href="#ArialMT-3d" x="55.615234" />
     <use xlink:href="#ArialMT-33" x="114.013672" />
     <use xlink:href="#ArialMT-34" x="169.628906" />
     <use xlink:href="#ArialMT-37" x="225.244141" />
    </g>
    
    <g style="fill: #444443" transform="translate(20.900918 99.27644)scale(0.09 -0.09)">
     <defs>
      <path id="ArialMT-74" d="M 1650 503  L 1731 6  Q 1494 -44 1306 -44  Q 1000 -44 831 53  Q 663 150 594 308  Q 525 466 525 972  L 525 2881  L 113 2881  L 113 3319  L 525 3319  L 525 4141  L 1084 4478  L 1084 3319  L 1650 3319  L 1650 2881  L 1084 2881  L 1084 941  Q 1084 700 1114 631  Q 1144 563 1211 522  Q 1278 481 1403 481  Q 1497 481 1650 503  z " transform="scale(0.015625)" />
      <path id="ArialMT-6f" d="M 213 1659  Q 213 2581 725 3025  Q 1153 3394 1769 3394  Q 2453 3394 2887 2945  Q 3322 2497 3322 1706  Q 3322 1066 3130 698  Q 2938 331 2570 128  Q 2203 -75 1769 -75  Q 1072 -75 642 372  Q 213 819 213 1659  z M 791 1659  Q 791 1022 1069 705  Q 1347 388 1769 388  Q 2188 388 2466 706  Q 2744 1025 2744 1678  Q 2744 2294 2464 2611  Q 2184 2928 1769 2928  Q 1347 2928 1069 2612  Q 791 2297 791 1659  z " transform="scale(0.015625)" />
      <path id="ArialMT-72" d="M 416 0  L 416 3319  L 922 3319  L 922 2816  Q 1116 3169 1280 3281  Q 1444 3394 1641 3394  Q 1925 3394 2219 3213  L 2025 2691  Q 1819 2813 1613 2813  Q 1428 2813 1281 2702  Q 1134 2591 1072 2394  Q 978 2094 978 1738  L 978 0  L 416 0  z " transform="scale(0.015625)" />
      <path id="ArialMT-71" d="M 2538 -1272  L 2538 353  Q 2406 169 2170 47  Q 1934 -75 1669 -75  Q 1078 -75 651 397  Q 225 869 225 1691  Q 225 2191 398 2587  Q 572 2984 901 3189  Q 1231 3394 1625 3394  Q 2241 3394 2594 2875  L 2594 3319  L 3100 3319  L 3100 -1272  L 2538 -1272  z M 803 1669  Q 803 1028 1072 708  Q 1341 388 1716 388  Q 2075 388 2334 692  Q 2594 997 2594 1619  Q 2594 2281 2320 2615  Q 2047 2950 1678 2950  Q 1313 2950 1058 2639  Q 803 2328 803 1669  z " transform="scale(0.015625)" />
      <path id="ArialMT-75" d="M 2597 0  L 2597 488  Q 2209 -75 1544 -75  Q 1250 -75 995 37  Q 741 150 617 320  Q 494 491 444 738  Q 409 903 409 1263  L 409 3319  L 972 3319  L 972 1478  Q 972 1038 1006 884  Q 1059 663 1231 536  Q 1403 409 1656 409  Q 1909 409 2131 539  Q 2353 669 2445 892  Q 2538 1116 2538 1541  L 2538 3319  L 3100 3319  L 3100 0  L 2597 0  z " transform="scale(0.015625)" />
      <path id="ArialMT-65" d="M 2694 1069  L 3275 997  Q 3138 488 2766 206  Q 2394 -75 1816 -75  Q 1088 -75 661 373  Q 234 822 234 1631  Q 234 2469 665 2931  Q 1097 3394 1784 3394  Q 2450 3394 2872 2941  Q 3294 2488 3294 1666  Q 3294 1616 3291 1516  L 816 1516  Q 847 969 1125 678  Q 1403 388 1819 388  Q 2128 388 2347 550  Q 2566 713 2694 1069  z M 847 1978  L 2700 1978  Q 2663 2397 2488 2606  Q 2219 2931 1791 2931  Q 1403 2931 1139 2672  Q 875 2413 847 1978  z " transform="scale(0.015625)" />
      <path id="ArialMT-20" transform="scale(0.015625)" />
      <path id="ArialMT-2b" d="M 1603 741  L 1603 1997  L 356 1997  L 356 2522  L 1603 2522  L 1603 3769  L 2134 3769  L 2134 2522  L 3381 2522  L 3381 1997  L 2134 1997  L 2134 741  L 1603 741  z " transform="scale(0.015625)" />
      <path id="ArialMT-31" d="M 2384 0  L 1822 0  L 1822 3584  Q 1619 3391 1289 3197  Q 959 3003 697 2906  L 697 3450  Q 1169 3672 1522 3987  Q 1875 4303 2022 4600  L 2384 4600  L 2384 0  z " transform="scale(0.015625)" />
     </defs>
     <use xlink:href="#ArialMT-74" />
     <use xlink:href="#ArialMT-6f" x="27.783203" />
     <use xlink:href="#ArialMT-72" x="83.398438" />
     <use xlink:href="#ArialMT-71" x="116.699219" />
     <use xlink:href="#ArialMT-75" x="172.314453" />
     <use xlink:href="#ArialMT-65" x="227.929688" />
     <use xlink:href="#ArialMT-20" x="283.544922" />
     <use xlink:href="#ArialMT-2b" x="311.328125" />
     <use xlink:href="#ArialMT-31" x="369.726562" />
    </g>
   </g>
  </g>
 </g>
</svg></g>

<g id="edge2" class="edge">
<title>node1-&gt;leaf3</title>
<path fill="none" stroke="#444443" stroke-width="0.3" d="M91.82,-115.26C95.51,-106.65 99.75,-96.75 103.9,-87.08" />
<polygon fill="#444443" stroke="#444443" stroke-width="0.3" points="105.25,-87.47 105.54,-83.24 102.68,-86.37 105.25,-87.47" />
</g>

<g id="node5" class="node">
<title>leaf4</title>
<polygon fill="none" stroke="#444443" stroke-width="0" points="244,-183 176,-183 176,-100 244,-100 244,-183" />
<svg width="60px" height="75px" viewBox="0 0 80.079995 101.06523" version="1.1" preserveAspectRatio="xMinYMin meet" x="180" y="-178.5">
 <metadata>
  <rdf:RDF>
   <ns2:Work>
    <dc:type rdf:resource="http://purl.org/dc/dcmitype/StillImage" />
    <dc:date>2022-01-18T17:06:55.620027</dc:date>
    <dc:format>image/svg+xml</dc:format>
    <dc:creator>
     <ns2:Agent>
      <dc:title>Matplotlib v3.5.1, https://matplotlib.org/</dc:title>
     </ns2:Agent>
    </dc:creator>
   </ns2:Work>
  </rdf:RDF>
 </metadata>
 <defs>
  <style type="text/css">*{stroke-linejoin: round; stroke-linecap: butt}</style>
 </defs>
 <g id="figure_1">
  <g id="patch_1">
   <path d="M -0 101.06523  L 80.079995 101.06523  L 80.079995 0  L -0 0  z " style="fill: #ffffff" />
  </g>
  <g id="axes_1">
   <g id="patch_2">
    <path d="M 80.079995 40.039998  C 80.079995 35.661284 79.36172 31.312075 77.953825 27.165875  C 76.54593 23.019675 74.467389 19.132362 71.801121 15.659013  C 69.134853 12.185664 65.916791 9.173088 62.275313 6.741467  C 58.633835 4.309846 54.618018 2.49195 50.388064 1.3603  C 46.15811 0.228651 41.771026 -0.201501 37.401826 0.087005  C 33.032627 0.375511 28.740195 1.378787 24.695768 3.056809  C 20.651342 4.73483 16.909428 7.064983 13.619302 9.954311  C 10.329176 12.843638 7.535179 16.253201 5.348773 20.046981  C 3.162366 23.840761 1.613016 27.967631 0.76253 32.262955  C -0.087955 36.55828 -0.228115 40.964173 0.347644 45.304869  C 0.923402 49.645565 2.207319 53.862566 4.148174 57.787642  C 6.08903 61.712718 8.660668 65.292971 11.760498 68.385574  C 14.860328 71.478178 18.446573 74.041453 22.376168 75.973142  C 26.305763 77.904832 30.525749 79.178903 34.867777 79.744529  C 39.209805 80.310155 43.615359 80.159713 47.908687 79.299205  C 52.202015 78.438696 56.325257 76.879718 60.113924 74.684463  L 40.039995 40.039998  L 80.079995 40.039998  z " style="fill: #fefebb; stroke: #444443; stroke-width: 0.5; stroke-linejoin: miter" />
   </g>
   <g id="patch_3">
    <path d="M 60.113924 74.684463  C 60.545195 74.434574 60.971762 74.176653 61.393402 73.910835  C 61.815042 73.645018 62.231682 73.371351 62.643104 73.089976  L 40.039995 40.039998  L 60.113924 74.684463  z " style="fill: #d9e6f5; stroke: #444443; stroke-width: 0.5; stroke-linejoin: miter" />
   </g>
   <g id="patch_4">
    <path d="M 62.643104 73.089976  C 68.017554 69.414353 72.415189 64.482652 75.453481 58.723858  C 78.491772 52.965064 80.079994 46.551141 80.079995 40.040002  L 40.039995 40.039998  L 62.643104 73.089976  z " style="fill: #a1dab4; stroke: #444443; stroke-width: 0.5; stroke-linejoin: miter" />
   </g>
   <g id="text_1">
    
    <g style="fill: #444443" transform="translate(24.899604 89.72523)scale(0.09 -0.09)">
     <defs>
      <path id="ArialMT-6e" d="M 422 0  L 422 3319  L 928 3319  L 928 2847  Q 1294 3394 1984 3394  Q 2284 3394 2536 3286  Q 2788 3178 2913 3003  Q 3038 2828 3088 2588  Q 3119 2431 3119 2041  L 3119 0  L 2556 0  L 2556 2019  Q 2556 2363 2490 2533  Q 2425 2703 2258 2804  Q 2091 2906 1866 2906  Q 1506 2906 1245 2678  Q 984 2450 984 1813  L 984 0  L 422 0  z " transform="scale(0.015625)" />
      <path id="ArialMT-3d" d="M 3381 2694  L 356 2694  L 356 3219  L 3381 3219  L 3381 2694  z M 3381 1303  L 356 1303  L 356 1828  L 3381 1828  L 3381 1303  z " transform="scale(0.015625)" />
      <path id="ArialMT-31" d="M 2384 0  L 1822 0  L 1822 3584  Q 1619 3391 1289 3197  Q 959 3003 697 2906  L 697 3450  Q 1169 3672 1522 3987  Q 1875 4303 2022 4600  L 2384 4600  L 2384 0  z " transform="scale(0.015625)" />
      <path id="ArialMT-30" d="M 266 2259  Q 266 3072 433 3567  Q 600 4063 929 4331  Q 1259 4600 1759 4600  Q 2128 4600 2406 4451  Q 2684 4303 2865 4023  Q 3047 3744 3150 3342  Q 3253 2941 3253 2259  Q 3253 1453 3087 958  Q 2922 463 2592 192  Q 2263 -78 1759 -78  Q 1097 -78 719 397  Q 266 969 266 2259  z M 844 2259  Q 844 1131 1108 757  Q 1372 384 1759 384  Q 2147 384 2411 759  Q 2675 1134 2675 2259  Q 2675 3391 2411 3762  Q 2147 4134 1753 4134  Q 1366 4134 1134 3806  Q 844 3388 844 2259  z " transform="scale(0.015625)" />
      <path id="ArialMT-32" d="M 3222 541  L 3222 0  L 194 0  Q 188 203 259 391  Q 375 700 629 1000  Q 884 1300 1366 1694  Q 2113 2306 2375 2664  Q 2638 3022 2638 3341  Q 2638 3675 2398 3904  Q 2159 4134 1775 4134  Q 1369 4134 1125 3890  Q 881 3647 878 3216  L 300 3275  Q 359 3922 746 4261  Q 1134 4600 1788 4600  Q 2447 4600 2831 4234  Q 3216 3869 3216 3328  Q 3216 3053 3103 2787  Q 2991 2522 2730 2228  Q 2469 1934 1863 1422  Q 1356 997 1212 845  Q 1069 694 975 541  L 3222 541  z " transform="scale(0.015625)" />
      <path id="ArialMT-35" d="M 266 1200  L 856 1250  Q 922 819 1161 601  Q 1400 384 1738 384  Q 2144 384 2425 690  Q 2706 997 2706 1503  Q 2706 1984 2436 2262  Q 2166 2541 1728 2541  Q 1456 2541 1237 2417  Q 1019 2294 894 2097  L 366 2166  L 809 4519  L 3088 4519  L 3088 3981  L 1259 3981  L 1013 2750  Q 1425 3038 1878 3038  Q 2478 3038 2890 2622  Q 3303 2206 3303 1553  Q 3303 931 2941 478  Q 2500 -78 1738 -78  Q 1113 -78 717 272  Q 322 622 266 1200  z " transform="scale(0.015625)" />
     </defs>
     <use xlink:href="#ArialMT-6e" />
     <use xlink:href="#ArialMT-3d" x="55.615234" />
     <use xlink:href="#ArialMT-31" x="114.013672" />
     <use xlink:href="#ArialMT-30" x="169.628906" />
     <use xlink:href="#ArialMT-32" x="225.244141" />
     <use xlink:href="#ArialMT-35" x="280.859375" />
    </g>
    
    <g style="fill: #444443" transform="translate(20.900932 99.27648)scale(0.09 -0.09)">
     <defs>
      <path id="ArialMT-74" d="M 1650 503  L 1731 6  Q 1494 -44 1306 -44  Q 1000 -44 831 53  Q 663 150 594 308  Q 525 466 525 972  L 525 2881  L 113 2881  L 113 3319  L 525 3319  L 525 4141  L 1084 4478  L 1084 3319  L 1650 3319  L 1650 2881  L 1084 2881  L 1084 941  Q 1084 700 1114 631  Q 1144 563 1211 522  Q 1278 481 1403 481  Q 1497 481 1650 503  z " transform="scale(0.015625)" />
      <path id="ArialMT-6f" d="M 213 1659  Q 213 2581 725 3025  Q 1153 3394 1769 3394  Q 2453 3394 2887 2945  Q 3322 2497 3322 1706  Q 3322 1066 3130 698  Q 2938 331 2570 128  Q 2203 -75 1769 -75  Q 1072 -75 642 372  Q 213 819 213 1659  z M 791 1659  Q 791 1022 1069 705  Q 1347 388 1769 388  Q 2188 388 2466 706  Q 2744 1025 2744 1678  Q 2744 2294 2464 2611  Q 2184 2928 1769 2928  Q 1347 2928 1069 2612  Q 791 2297 791 1659  z " transform="scale(0.015625)" />
      <path id="ArialMT-72" d="M 416 0  L 416 3319  L 922 3319  L 922 2816  Q 1116 3169 1280 3281  Q 1444 3394 1641 3394  Q 1925 3394 2219 3213  L 2025 2691  Q 1819 2813 1613 2813  Q 1428 2813 1281 2702  Q 1134 2591 1072 2394  Q 978 2094 978 1738  L 978 0  L 416 0  z " transform="scale(0.015625)" />
      <path id="ArialMT-71" d="M 2538 -1272  L 2538 353  Q 2406 169 2170 47  Q 1934 -75 1669 -75  Q 1078 -75 651 397  Q 225 869 225 1691  Q 225 2191 398 2587  Q 572 2984 901 3189  Q 1231 3394 1625 3394  Q 2241 3394 2594 2875  L 2594 3319  L 3100 3319  L 3100 -1272  L 2538 -1272  z M 803 1669  Q 803 1028 1072 708  Q 1341 388 1716 388  Q 2075 388 2334 692  Q 2594 997 2594 1619  Q 2594 2281 2320 2615  Q 2047 2950 1678 2950  Q 1313 2950 1058 2639  Q 803 2328 803 1669  z " transform="scale(0.015625)" />
      <path id="ArialMT-75" d="M 2597 0  L 2597 488  Q 2209 -75 1544 -75  Q 1250 -75 995 37  Q 741 150 617 320  Q 494 491 444 738  Q 409 903 409 1263  L 409 3319  L 972 3319  L 972 1478  Q 972 1038 1006 884  Q 1059 663 1231 536  Q 1403 409 1656 409  Q 1909 409 2131 539  Q 2353 669 2445 892  Q 2538 1116 2538 1541  L 2538 3319  L 3100 3319  L 3100 0  L 2597 0  z " transform="scale(0.015625)" />
      <path id="ArialMT-65" d="M 2694 1069  L 3275 997  Q 3138 488 2766 206  Q 2394 -75 1816 -75  Q 1088 -75 661 373  Q 234 822 234 1631  Q 234 2469 665 2931  Q 1097 3394 1784 3394  Q 2450 3394 2872 2941  Q 3294 2488 3294 1666  Q 3294 1616 3291 1516  L 816 1516  Q 847 969 1125 678  Q 1403 388 1819 388  Q 2128 388 2347 550  Q 2566 713 2694 1069  z M 847 1978  L 2700 1978  Q 2663 2397 2488 2606  Q 2219 2931 1791 2931  Q 1403 2931 1139 2672  Q 875 2413 847 1978  z " transform="scale(0.015625)" />
      <path id="ArialMT-20" transform="scale(0.015625)" />
      <path id="ArialMT-2b" d="M 1603 741  L 1603 1997  L 356 1997  L 356 2522  L 1603 2522  L 1603 3769  L 2134 3769  L 2134 2522  L 3381 2522  L 3381 1997  L 2134 1997  L 2134 741  L 1603 741  z " transform="scale(0.015625)" />
     </defs>
     <use xlink:href="#ArialMT-74" />
     <use xlink:href="#ArialMT-6f" x="27.783203" />
     <use xlink:href="#ArialMT-72" x="83.398438" />
     <use xlink:href="#ArialMT-71" x="116.699219" />
     <use xlink:href="#ArialMT-75" x="172.314453" />
     <use xlink:href="#ArialMT-65" x="227.929688" />
     <use xlink:href="#ArialMT-20" x="283.544922" />
     <use xlink:href="#ArialMT-2b" x="311.328125" />
     <use xlink:href="#ArialMT-31" x="369.726562" />
    </g>
   </g>
  </g>
 </g>
</svg></g>


<g id="node2" class="node">
<title>node0</title>
<svg width="157px" height="84px" viewBox="0 0 209.889585 112.876875" version="1.1" preserveAspectRatio="xMinYMin meet" x="67" y="-302">
 <metadata>
  <rdf:RDF>
   <ns2:Work>
    <dc:type rdf:resource="http://purl.org/dc/dcmitype/StillImage" />
    <dc:date>2022-01-18T17:06:55.259987</dc:date>
    <dc:format>image/svg+xml</dc:format>
    <dc:creator>
     <ns2:Agent>
      <dc:title>Matplotlib v3.5.1, https://matplotlib.org/</dc:title>
     </ns2:Agent>
    </dc:creator>
   </ns2:Work>
  </rdf:RDF>
 </metadata>
 <defs>
  <style type="text/css">*{stroke-linejoin: round; stroke-linecap: butt}</style>
 </defs>
 <g id="figure_1">
  <g id="patch_1">
   <path d="M 0 112.876875  L 209.889585 112.876875  L 209.889585 0  L 0 0  z " style="fill: #ffffff" />
  </g>
  <g id="axes_1">
   <g id="patch_2">
    <path d="M 22.27 83.16  L 206.41 83.16  L 206.41 0  L 22.27 0  z " style="fill: #ffffff" />
   </g>
   <g id="patch_3">
    <path d="M 22.27 83.16  L 32.782549 83.16  L 32.782549 82.738723  L 22.27 82.738723  z " clip-path="url(#peb948c9976)" style="fill: #fefebb; stroke: #444443; stroke-width: 0.5; stroke-linejoin: miter" />
   </g>
   <g id="patch_4">
    <path d="M 32.782549 83.16  L 43.295098 83.16  L 43.295098 83.16  L 32.782549 83.16  z " clip-path="url(#peb948c9976)" style="fill: #fefebb; stroke: #444443; stroke-width: 0.5; stroke-linejoin: miter" />
   </g>
   <g id="patch_5">
    <path d="M 43.295098 83.16  L 53.807647 83.16  L 53.807647 82.528085  L 43.295098 82.528085  z " clip-path="url(#peb948c9976)" style="fill: #fefebb; stroke: #444443; stroke-width: 0.5; stroke-linejoin: miter" />
   </g>
   <g id="patch_6">
    <path d="M 53.807647 83.16  L 64.320196 83.16  L 64.320196 82.106809  L 53.807647 82.106809  z " clip-path="url(#peb948c9976)" style="fill: #fefebb; stroke: #444443; stroke-width: 0.5; stroke-linejoin: miter" />
   </g>
   <g id="patch_7">
    <path d="M 64.320196 83.16  L 74.832745 83.16  L 74.832745 81.474894  L 64.320196 81.474894  z " clip-path="url(#peb948c9976)" style="fill: #fefebb; stroke: #444443; stroke-width: 0.5; stroke-linejoin: miter" />
   </g>
   <g id="patch_8">
    <path d="M 74.832745 83.16  L 85.345295 83.16  L 85.345295 68.625957  L 74.832745 68.625957  z " clip-path="url(#peb948c9976)" style="fill: #fefebb; stroke: #444443; stroke-width: 0.5; stroke-linejoin: miter" />
   </g>
   <g id="patch_9">
    <path d="M 85.345295 83.16  L 95.857844 83.16  L 95.857844 54.091915  L 85.345295 54.091915  z " clip-path="url(#peb948c9976)" style="fill: #fefebb; stroke: #444443; stroke-width: 0.5; stroke-linejoin: miter" />
   </g>
   <g id="patch_10">
    <path d="M 95.857844 83.16  L 106.370393 83.16  L 106.370393 42.085532  L 95.857844 42.085532  z " clip-path="url(#peb948c9976)" style="fill: #fefebb; stroke: #444443; stroke-width: 0.5; stroke-linejoin: miter" />
   </g>
   <g id="patch_11">
    <path d="M 106.370393 83.16  L 116.882942 83.16  L 116.882942 43.981277  L 106.370393 43.981277  z " clip-path="url(#peb948c9976)" style="fill: #fefebb; stroke: #444443; stroke-width: 0.5; stroke-linejoin: miter" />
   </g>
   <g id="patch_12">
    <path d="M 116.882942 83.16  L 127.395491 83.16  L 127.395491 48.615319  L 116.882942 48.615319  z " clip-path="url(#peb948c9976)" style="fill: #fefebb; stroke: #444443; stroke-width: 0.5; stroke-linejoin: miter" />
   </g>
   <g id="patch_13">
    <path d="M 127.395491 83.16  L 137.90804 83.16  L 137.90804 49.879149  L 127.395491 49.879149  z " clip-path="url(#peb948c9976)" style="fill: #fefebb; stroke: #444443; stroke-width: 0.5; stroke-linejoin: miter" />
   </g>
   <g id="patch_14">
    <path d="M 137.90804 83.16  L 148.420589 83.16  L 148.420589 65.045106  L 137.90804 65.045106  z " clip-path="url(#peb948c9976)" style="fill: #fefebb; stroke: #444443; stroke-width: 0.5; stroke-linejoin: miter" />
   </g>
   <g id="patch_15">
    <path d="M 148.420589 83.16  L 158.933138 83.16  L 158.933138 78.947234  L 148.420589 78.947234  z " clip-path="url(#peb948c9976)" style="fill: #fefebb; stroke: #444443; stroke-width: 0.5; stroke-linejoin: miter" />
   </g>
   <g id="patch_16">
    <path d="M 158.933138 83.16  L 169.445687 83.16  L 169.445687 81.89617  L 158.933138 81.89617  z " clip-path="url(#peb948c9976)" style="fill: #fefebb; stroke: #444443; stroke-width: 0.5; stroke-linejoin: miter" />
   </g>
   <g id="patch_17">
    <path d="M 169.445687 83.16  L 179.958236 83.16  L 179.958236 81.474894  L 169.445687 81.474894  z " clip-path="url(#peb948c9976)" style="fill: #fefebb; stroke: #444443; stroke-width: 0.5; stroke-linejoin: miter" />
   </g>
   <g id="patch_18">
    <path d="M 179.958236 83.16  L 190.470785 83.16  L 190.470785 82.317447  L 179.958236 82.317447  z " clip-path="url(#peb948c9976)" style="fill: #fefebb; stroke: #444443; stroke-width: 0.5; stroke-linejoin: miter" />
   </g>
   <g id="patch_19">
    <path d="M 190.470785 83.16  L 200.983335 83.16  L 200.983335 82.317447  L 190.470785 82.317447  z " clip-path="url(#peb948c9976)" style="fill: #fefebb; stroke: #444443; stroke-width: 0.5; stroke-linejoin: miter" />
   </g>
   <g id="patch_20">
    <path d="M 22.27 82.738723  L 32.782549 82.738723  L 32.782549 82.738723  L 22.27 82.738723  z " clip-path="url(#peb948c9976)" style="fill: #d9e6f5; stroke: #444443; stroke-width: 0.5; stroke-linejoin: miter" />
   </g>
   <g id="patch_21">
    <path d="M 32.782549 83.16  L 43.295098 83.16  L 43.295098 80.211064  L 32.782549 80.211064  z " clip-path="url(#peb948c9976)" style="fill: #d9e6f5; stroke: #444443; stroke-width: 0.5; stroke-linejoin: miter" />
   </g>
   <g id="patch_22">
    <path d="M 43.295098 82.528085  L 53.807647 82.528085  L 53.807647 78.525957  L 43.295098 78.525957  z " clip-path="url(#peb948c9976)" style="fill: #d9e6f5; stroke: #444443; stroke-width: 0.5; stroke-linejoin: miter" />
   </g>
   <g id="patch_23">
    <path d="M 53.807647 82.106809  L 64.320196 82.106809  L 64.320196 77.894043  L 53.807647 77.894043  z " clip-path="url(#peb948c9976)" style="fill: #d9e6f5; stroke: #444443; stroke-width: 0.5; stroke-linejoin: miter" />
   </g>
   <g id="patch_24">
    <path d="M 64.320196 81.474894  L 74.832745 81.474894  L 74.832745 78.104681  L 64.320196 78.104681  z " clip-path="url(#peb948c9976)" style="fill: #d9e6f5; stroke: #444443; stroke-width: 0.5; stroke-linejoin: miter" />
   </g>
   <g id="patch_25">
    <path d="M 74.832745 68.625957  L 85.345295 68.625957  L 85.345295 65.045106  L 74.832745 65.045106  z " clip-path="url(#peb948c9976)" style="fill: #d9e6f5; stroke: #444443; stroke-width: 0.5; stroke-linejoin: miter" />
   </g>
   <g id="patch_26">
    <path d="M 85.345295 54.091915  L 95.857844 54.091915  L 95.857844 51.142979  L 85.345295 51.142979  z " clip-path="url(#peb948c9976)" style="fill: #d9e6f5; stroke: #444443; stroke-width: 0.5; stroke-linejoin: miter" />
   </g>
   <g id="patch_27">
    <path d="M 95.857844 42.085532  L 106.370393 42.085532  L 106.370393 41.03234  L 95.857844 41.03234  z " clip-path="url(#peb948c9976)" style="fill: #d9e6f5; stroke: #444443; stroke-width: 0.5; stroke-linejoin: miter" />
   </g>
   <g id="patch_28">
    <path d="M 106.370393 43.981277  L 116.882942 43.981277  L 116.882942 43.770638  L 106.370393 43.770638  z " clip-path="url(#peb948c9976)" style="fill: #d9e6f5; stroke: #444443; stroke-width: 0.5; stroke-linejoin: miter" />
   </g>
   <g id="patch_29">
    <path d="M 116.882942 48.615319  L 127.395491 48.615319  L 127.395491 48.194043  L 116.882942 48.194043  z " clip-path="url(#peb948c9976)" style="fill: #d9e6f5; stroke: #444443; stroke-width: 0.5; stroke-linejoin: miter" />
   </g>
   <g id="patch_30">
    <path d="M 127.395491 49.879149  L 137.90804 49.879149  L 137.90804 49.668511  L 127.395491 49.668511  z " clip-path="url(#peb948c9976)" style="fill: #d9e6f5; stroke: #444443; stroke-width: 0.5; stroke-linejoin: miter" />
   </g>
   <g id="patch_31">
    <path d="M 137.90804 65.045106  L 148.420589 65.045106  L 148.420589 64.413191  L 137.90804 64.413191  z " clip-path="url(#peb948c9976)" style="fill: #d9e6f5; stroke: #444443; stroke-width: 0.5; stroke-linejoin: miter" />
   </g>
   <g id="patch_32">
    <path d="M 148.420589 78.947234  L 158.933138 78.947234  L 158.933138 78.736596  L 148.420589 78.736596  z " clip-path="url(#peb948c9976)" style="fill: #d9e6f5; stroke: #444443; stroke-width: 0.5; stroke-linejoin: miter" />
   </g>
   <g id="patch_33">
    <path d="M 158.933138 81.89617  L 169.445687 81.89617  L 169.445687 81.685532  L 158.933138 81.685532  z " clip-path="url(#peb948c9976)" style="fill: #d9e6f5; stroke: #444443; stroke-width: 0.5; stroke-linejoin: miter" />
   </g>
   <g id="patch_34">
    <path d="M 169.445687 81.474894  L 179.958236 81.474894  L 179.958236 81.474894  L 169.445687 81.474894  z " clip-path="url(#peb948c9976)" style="fill: #d9e6f5; stroke: #444443; stroke-width: 0.5; stroke-linejoin: miter" />
   </g>
   <g id="patch_35">
    <path d="M 179.958236 82.317447  L 190.470785 82.317447  L 190.470785 82.106809  L 179.958236 82.106809  z " clip-path="url(#peb948c9976)" style="fill: #d9e6f5; stroke: #444443; stroke-width: 0.5; stroke-linejoin: miter" />
   </g>
   <g id="patch_36">
    <path d="M 190.470785 82.317447  L 200.983335 82.317447  L 200.983335 82.317447  L 190.470785 82.317447  z " clip-path="url(#peb948c9976)" style="fill: #d9e6f5; stroke: #444443; stroke-width: 0.5; stroke-linejoin: miter" />
   </g>
   <g id="patch_37">
    <path d="M 22.27 82.738723  L 32.782549 82.738723  L 32.782549 81.053617  L 22.27 81.053617  z " clip-path="url(#peb948c9976)" style="fill: #a1dab4; stroke: #444443; stroke-width: 0.5; stroke-linejoin: miter" />
   </g>
   <g id="patch_38">
    <path d="M 32.782549 80.211064  L 43.295098 80.211064  L 43.295098 75.78766  L 32.782549 75.78766  z " clip-path="url(#peb948c9976)" style="fill: #a1dab4; stroke: #444443; stroke-width: 0.5; stroke-linejoin: miter" />
   </g>
   <g id="patch_39">
    <path d="M 43.295098 78.525957  L 53.807647 78.525957  L 53.807647 57.462128  L 43.295098 57.462128  z " clip-path="url(#peb948c9976)" style="fill: #a1dab4; stroke: #444443; stroke-width: 0.5; stroke-linejoin: miter" />
   </g>
   <g id="patch_40">
    <path d="M 53.807647 77.894043  L 64.320196 77.894043  L 64.320196 47.772766  L 53.807647 47.772766  z " clip-path="url(#peb948c9976)" style="fill: #a1dab4; stroke: #444443; stroke-width: 0.5; stroke-linejoin: miter" />
   </g>
   <g id="patch_41">
    <path d="M 64.320196 78.104681  L 74.832745 78.104681  L 74.832745 43.349362  L 64.320196 43.349362  z " clip-path="url(#peb948c9976)" style="fill: #a1dab4; stroke: #444443; stroke-width: 0.5; stroke-linejoin: miter" />
   </g>
   <g id="patch_42">
    <path d="M 74.832745 65.045106  L 85.345295 65.045106  L 85.345295 33.870638  L 74.832745 33.870638  z " clip-path="url(#peb948c9976)" style="fill: #a1dab4; stroke: #444443; stroke-width: 0.5; stroke-linejoin: miter" />
   </g>
   <g id="patch_43">
    <path d="M 85.345295 51.142979  L 95.857844 51.142979  L 95.857844 3.96  L 85.345295 3.96  z " clip-path="url(#peb948c9976)" style="fill: #a1dab4; stroke: #444443; stroke-width: 0.5; stroke-linejoin: miter" />
   </g>
   <g id="patch_44">
    <path d="M 95.857844 41.03234  L 106.370393 41.03234  L 106.370393 21.653617  L 95.857844 21.653617  z " clip-path="url(#peb948c9976)" style="fill: #a1dab4; stroke: #444443; stroke-width: 0.5; stroke-linejoin: miter" />
   </g>
   <g id="patch_45">
    <path d="M 106.370393 43.770638  L 116.882942 43.770638  L 116.882942 36.608936  L 106.370393 36.608936  z " clip-path="url(#peb948c9976)" style="fill: #a1dab4; stroke: #444443; stroke-width: 0.5; stroke-linejoin: miter" />
   </g>
   <g id="patch_46">
    <path d="M 116.882942 48.194043  L 127.395491 48.194043  L 127.395491 47.140851  L 116.882942 47.140851  z " clip-path="url(#peb948c9976)" style="fill: #a1dab4; stroke: #444443; stroke-width: 0.5; stroke-linejoin: miter" />
   </g>
   <g id="patch_47">
    <path d="M 127.395491 49.668511  L 137.90804 49.668511  L 137.90804 48.825957  L 127.395491 48.825957  z " clip-path="url(#peb948c9976)" style="fill: #a1dab4; stroke: #444443; stroke-width: 0.5; stroke-linejoin: miter" />
   </g>
   <g id="patch_48">
    <path d="M 137.90804 64.413191  L 148.420589 64.413191  L 148.420589 62.938723  L 137.90804 62.938723  z " clip-path="url(#peb948c9976)" style="fill: #a1dab4; stroke: #444443; stroke-width: 0.5; stroke-linejoin: miter" />
   </g>
   <g id="patch_49">
    <path d="M 148.420589 78.736596  L 158.933138 78.736596  L 158.933138 77.051489  L 148.420589 77.051489  z " clip-path="url(#peb948c9976)" style="fill: #a1dab4; stroke: #444443; stroke-width: 0.5; stroke-linejoin: miter" />
   </g>
   <g id="patch_50">
    <path d="M 158.933138 81.685532  L 169.445687 81.685532  L 169.445687 80.211064  L 158.933138 80.211064  z " clip-path="url(#peb948c9976)" style="fill: #a1dab4; stroke: #444443; stroke-width: 0.5; stroke-linejoin: miter" />
   </g>
   <g id="patch_51">
    <path d="M 169.445687 81.474894  L 179.958236 81.474894  L 179.958236 80.211064  L 169.445687 80.211064  z " clip-path="url(#peb948c9976)" style="fill: #a1dab4; stroke: #444443; stroke-width: 0.5; stroke-linejoin: miter" />
   </g>
   <g id="patch_52">
    <path d="M 179.958236 82.106809  L 190.470785 82.106809  L 190.470785 81.053617  L 179.958236 81.053617  z " clip-path="url(#peb948c9976)" style="fill: #a1dab4; stroke: #444443; stroke-width: 0.5; stroke-linejoin: miter" />
   </g>
   <g id="patch_53">
    <path d="M 190.470785 82.317447  L 200.983335 82.317447  L 200.983335 81.89617  L 190.470785 81.89617  z " clip-path="url(#peb948c9976)" style="fill: #a1dab4; stroke: #444443; stroke-width: 0.5; stroke-linejoin: miter" />
   </g>
   <g id="patch_54">
    <path d="M 95.657165 83.9916  L 92.342645 91.476  L 98.971685 91.476  z " style="fill: #444443" />
   </g>
   <g id="matplotlib.axis_1">
    <g id="xtick_1">
     <g id="line2d_1">
      <defs>
       <path id="m466bf12074" d="M 0 0  L 0 3.5  " style="stroke: #000000; stroke-width: 0.3" />
      </defs>
      <g>
       <use xlink:href="#m466bf12074" x="22.27" y="83.16" style="stroke: #000000; stroke-width: 0.3" />
      </g>
     </g>
     <g id="text_1">
      
      <g style="fill: #444443" transform="translate(10.011875 96.23875)scale(0.08 -0.08)">
       <defs>
        <path id="DejaVuSans-2212" d="M 678 2272  L 4684 2272  L 4684 1741  L 678 1741  L 678 2272  z " transform="scale(0.015625)" />
        <path id="DejaVuSans-36" d="M 2113 2584  Q 1688 2584 1439 2293  Q 1191 2003 1191 1497  Q 1191 994 1439 701  Q 1688 409 2113 409  Q 2538 409 2786 701  Q 3034 994 3034 1497  Q 3034 2003 2786 2293  Q 2538 2584 2113 2584  z M 3366 4563  L 3366 3988  Q 3128 4100 2886 4159  Q 2644 4219 2406 4219  Q 1781 4219 1451 3797  Q 1122 3375 1075 2522  Q 1259 2794 1537 2939  Q 1816 3084 2150 3084  Q 2853 3084 3261 2657  Q 3669 2231 3669 1497  Q 3669 778 3244 343  Q 2819 -91 2113 -91  Q 1303 -91 875 529  Q 447 1150 447 2328  Q 447 3434 972 4092  Q 1497 4750 2381 4750  Q 2619 4750 2861 4703  Q 3103 4656 3366 4563  z " transform="scale(0.015625)" />
        <path id="DejaVuSans-2e" d="M 684 794  L 1344 794  L 1344 0  L 684 0  L 684 794  z " transform="scale(0.015625)" />
        <path id="DejaVuSans-31" d="M 794 531  L 1825 531  L 1825 4091  L 703 3866  L 703 4441  L 1819 4666  L 2450 4666  L 2450 531  L 3481 531  L 3481 0  L 794 0  L 794 531  z " transform="scale(0.015625)" />
       </defs>
       <use xlink:href="#DejaVuSans-2212" />
       <use xlink:href="#DejaVuSans-36" x="83.789062" />
       <use xlink:href="#DejaVuSans-2e" x="147.412109" />
       <use xlink:href="#DejaVuSans-31" x="179.199219" />
       <use xlink:href="#DejaVuSans-36" x="242.822266" />
      </g>
     </g>
    </g>
    <g id="xtick_2">
     <g id="line2d_2">
      <g>
       <use xlink:href="#m466bf12074" x="200.983335" y="83.16" style="stroke: #000000; stroke-width: 0.3" />
      </g>
     </g>
     <g id="text_2">
      
      <g style="fill: #444443" transform="translate(192.077085 96.23875)scale(0.08 -0.08)">
       <defs>
        <path id="DejaVuSans-39" d="M 703 97  L 703 672  Q 941 559 1184 500  Q 1428 441 1663 441  Q 2288 441 2617 861  Q 2947 1281 2994 2138  Q 2813 1869 2534 1725  Q 2256 1581 1919 1581  Q 1219 1581 811 2004  Q 403 2428 403 3163  Q 403 3881 828 4315  Q 1253 4750 1959 4750  Q 2769 4750 3195 4129  Q 3622 3509 3622 2328  Q 3622 1225 3098 567  Q 2575 -91 1691 -91  Q 1453 -91 1209 -44  Q 966 3 703 97  z M 1959 2075  Q 2384 2075 2632 2365  Q 2881 2656 2881 3163  Q 2881 3666 2632 3958  Q 2384 4250 1959 4250  Q 1534 4250 1286 3958  Q 1038 3666 1038 3163  Q 1038 2656 1286 2365  Q 1534 2075 1959 2075  z " transform="scale(0.015625)" />
        <path id="DejaVuSans-35" d="M 691 4666  L 3169 4666  L 3169 4134  L 1269 4134  L 1269 2991  Q 1406 3038 1543 3061  Q 1681 3084 1819 3084  Q 2600 3084 3056 2656  Q 3513 2228 3513 1497  Q 3513 744 3044 326  Q 2575 -91 1722 -91  Q 1428 -91 1123 -41  Q 819 9 494 109  L 494 744  Q 775 591 1075 516  Q 1375 441 1709 441  Q 2250 441 2565 725  Q 2881 1009 2881 1497  Q 2881 1984 2565 2268  Q 2250 2553 1709 2553  Q 1456 2553 1204 2497  Q 953 2441 691 2322  L 691 4666  z " transform="scale(0.015625)" />
        <path id="DejaVuSans-33" d="M 2597 2516  Q 3050 2419 3304 2112  Q 3559 1806 3559 1356  Q 3559 666 3084 287  Q 2609 -91 1734 -91  Q 1441 -91 1130 -33  Q 819 25 488 141  L 488 750  Q 750 597 1062 519  Q 1375 441 1716 441  Q 2309 441 2620 675  Q 2931 909 2931 1356  Q 2931 1769 2642 2001  Q 2353 2234 1838 2234  L 1294 2234  L 1294 2753  L 1863 2753  Q 2328 2753 2575 2939  Q 2822 3125 2822 3475  Q 2822 3834 2567 4026  Q 2313 4219 1838 4219  Q 1578 4219 1281 4162  Q 984 4106 628 3988  L 628 4550  Q 988 4650 1302 4700  Q 1616 4750 1894 4750  Q 2613 4750 3031 4423  Q 3450 4097 3450 3541  Q 3450 3153 3228 2886  Q 3006 2619 2597 2516  z " transform="scale(0.015625)" />
       </defs>
       <use xlink:href="#DejaVuSans-39" />
       <use xlink:href="#DejaVuSans-2e" x="63.623047" />
       <use xlink:href="#DejaVuSans-35" x="95.410156" />
       <use xlink:href="#DejaVuSans-33" x="159.033203" />
      </g>
     </g>
    </g>
    <g id="text_3">
     
     <g style="fill: #444443" transform="translate(84.995312 110.491875)scale(0.12 -0.12)">
      <defs>
       <path id="ArialMT-74" d="M 1650 503  L 1731 6  Q 1494 -44 1306 -44  Q 1000 -44 831 53  Q 663 150 594 308  Q 525 466 525 972  L 525 2881  L 113 2881  L 113 3319  L 525 3319  L 525 4141  L 1084 4478  L 1084 3319  L 1650 3319  L 1650 2881  L 1084 2881  L 1084 941  Q 1084 700 1114 631  Q 1144 563 1211 522  Q 1278 481 1403 481  Q 1497 481 1650 503  z " transform="scale(0.015625)" />
       <path id="ArialMT-68" d="M 422 0  L 422 4581  L 984 4581  L 984 2938  Q 1378 3394 1978 3394  Q 2347 3394 2619 3248  Q 2891 3103 3008 2847  Q 3125 2591 3125 2103  L 3125 0  L 2563 0  L 2563 2103  Q 2563 2525 2380 2717  Q 2197 2909 1863 2909  Q 1613 2909 1392 2779  Q 1172 2650 1078 2428  Q 984 2206 984 1816  L 984 0  L 422 0  z " transform="scale(0.015625)" />
       <path id="ArialMT-65" d="M 2694 1069  L 3275 997  Q 3138 488 2766 206  Q 2394 -75 1816 -75  Q 1088 -75 661 373  Q 234 822 234 1631  Q 234 2469 665 2931  Q 1097 3394 1784 3394  Q 2450 3394 2872 2941  Q 3294 2488 3294 1666  Q 3294 1616 3291 1516  L 816 1516  Q 847 969 1125 678  Q 1403 388 1819 388  Q 2128 388 2347 550  Q 2566 713 2694 1069  z M 847 1978  L 2700 1978  Q 2663 2397 2488 2606  Q 2219 2931 1791 2931  Q 1403 2931 1139 2672  Q 875 2413 847 1978  z " transform="scale(0.015625)" />
       <path id="ArialMT-61" d="M 2588 409  Q 2275 144 1986 34  Q 1697 -75 1366 -75  Q 819 -75 525 192  Q 231 459 231 875  Q 231 1119 342 1320  Q 453 1522 633 1644  Q 813 1766 1038 1828  Q 1203 1872 1538 1913  Q 2219 1994 2541 2106  Q 2544 2222 2544 2253  Q 2544 2597 2384 2738  Q 2169 2928 1744 2928  Q 1347 2928 1158 2789  Q 969 2650 878 2297  L 328 2372  Q 403 2725 575 2942  Q 747 3159 1072 3276  Q 1397 3394 1825 3394  Q 2250 3394 2515 3294  Q 2781 3194 2906 3042  Q 3031 2891 3081 2659  Q 3109 2516 3109 2141  L 3109 1391  Q 3109 606 3145 398  Q 3181 191 3288 0  L 2700 0  Q 2613 175 2588 409  z M 2541 1666  Q 2234 1541 1622 1453  Q 1275 1403 1131 1340  Q 988 1278 909 1158  Q 831 1038 831 891  Q 831 666 1001 516  Q 1172 366 1500 366  Q 1825 366 2078 508  Q 2331 650 2450 897  Q 2541 1088 2541 1459  L 2541 1666  z " transform="scale(0.015625)" />
       <path id="ArialMT-44" d="M 494 0  L 494 4581  L 2072 4581  Q 2606 4581 2888 4516  Q 3281 4425 3559 4188  Q 3922 3881 4101 3404  Q 4281 2928 4281 2316  Q 4281 1794 4159 1391  Q 4038 988 3847 723  Q 3656 459 3429 307  Q 3203 156 2883 78  Q 2563 0 2147 0  L 494 0  z M 1100 541  L 2078 541  Q 2531 541 2789 625  Q 3047 709 3200 863  Q 3416 1078 3536 1442  Q 3656 1806 3656 2325  Q 3656 3044 3420 3430  Q 3184 3816 2847 3947  Q 2603 4041 2063 4041  L 1100 4041  L 1100 541  z " transform="scale(0.015625)" />
       <path id="ArialMT-4f" d="M 309 2231  Q 309 3372 921 4017  Q 1534 4663 2503 4663  Q 3138 4663 3647 4359  Q 4156 4056 4423 3514  Q 4691 2972 4691 2284  Q 4691 1588 4409 1038  Q 4128 488 3612 205  Q 3097 -78 2500 -78  Q 1853 -78 1343 234  Q 834 547 571 1087  Q 309 1628 309 2231  z M 934 2222  Q 934 1394 1379 917  Q 1825 441 2497 441  Q 3181 441 3623 922  Q 4066 1403 4066 2288  Q 4066 2847 3877 3264  Q 3688 3681 3323 3911  Q 2959 4141 2506 4141  Q 1863 4141 1398 3698  Q 934 3256 934 2222  z " transform="scale(0.015625)" />
       <path id="ArialMT-54" d="M 1659 0  L 1659 4041  L 150 4041  L 150 4581  L 3781 4581  L 3781 4041  L 2266 4041  L 2266 0  L 1659 0  z " transform="scale(0.015625)" />
       <path id="ArialMT-31" d="M 2384 0  L 1822 0  L 1822 3584  Q 1619 3391 1289 3197  Q 959 3003 697 2906  L 697 3450  Q 1169 3672 1522 3987  Q 1875 4303 2022 4600  L 2384 4600  L 2384 0  z " transform="scale(0.015625)" />
      </defs>
      <use xlink:href="#ArialMT-74" />
      <use xlink:href="#ArialMT-68" x="27.783203" />
      <use xlink:href="#ArialMT-65" x="83.398438" />
      <use xlink:href="#ArialMT-74" x="139.013672" />
      <use xlink:href="#ArialMT-61" x="166.796875" />
      <use xlink:href="#ArialMT-44" x="222.412109" />
      <use xlink:href="#ArialMT-4f" x="294.628906" />
      <use xlink:href="#ArialMT-54" x="372.412109" />
      <use xlink:href="#ArialMT-31" x="433.496094" />
     </g>
    </g>
   </g>
   <g id="matplotlib.axis_2">
    <g id="ytick_1">
     <g id="line2d_3">
      <defs>
       <path id="m882358ddd5" d="M 0 0  L -3.5 0  " style="stroke: #000000; stroke-width: 0.3" />
      </defs>
      <g>
       <use xlink:href="#m882358ddd5" x="22.27" y="83.16" style="stroke: #000000; stroke-width: 0.3" />
      </g>
     </g>
     <g id="text_4">
      
      <g style="fill: #444443" transform="translate(10.18 86.199375)scale(0.08 -0.08)">
       <defs>
        <path id="DejaVuSans-30" d="M 2034 4250  Q 1547 4250 1301 3770  Q 1056 3291 1056 2328  Q 1056 1369 1301 889  Q 1547 409 2034 409  Q 2525 409 2770 889  Q 3016 1369 3016 2328  Q 3016 3291 2770 3770  Q 2525 4250 2034 4250  z M 2034 4750  Q 2819 4750 3233 4129  Q 3647 3509 3647 2328  Q 3647 1150 3233 529  Q 2819 -91 2034 -91  Q 1250 -91 836 529  Q 422 1150 422 2328  Q 422 3509 836 4129  Q 1250 4750 2034 4750  z " transform="scale(0.015625)" />
       </defs>
       <use xlink:href="#DejaVuSans-30" />
      </g>
     </g>
    </g>
    <g id="ytick_2">
     <g id="line2d_4">
      <g>
       <use xlink:href="#m882358ddd5" x="22.27" y="3.96" style="stroke: #000000; stroke-width: 0.3" />
      </g>
     </g>
     <g id="text_5">
      
      <g style="fill: #444443" transform="translate(0 6.999375)scale(0.08 -0.08)">
       <defs>
        <path id="DejaVuSans-37" d="M 525 4666  L 3525 4666  L 3525 4397  L 1831 0  L 1172 0  L 2766 4134  L 525 4134  L 525 4666  z " transform="scale(0.015625)" />
       </defs>
       <use xlink:href="#DejaVuSans-33" />
       <use xlink:href="#DejaVuSans-37" x="63.623047" />
       <use xlink:href="#DejaVuSans-36" x="127.246094" />
      </g>
     </g>
    </g>
   </g>
   <g id="patch_55">
    <path d="M 22.27 83.16  L 22.27 0  " style="fill: none; stroke: #000000; stroke-width: 0.3; stroke-linejoin: miter; stroke-linecap: square" />
   </g>
   <g id="patch_56">
    <path d="M 22.27 83.16  L 206.41 83.16  " style="fill: none; stroke: #000000; stroke-width: 0.3; stroke-linejoin: miter; stroke-linecap: square" />
   </g>
   <g id="text_6">
    
    <g style="fill: #444443" transform="translate(87.87279 99.792)scale(0.08 -0.08)">
     <defs>
      <path id="ArialMT-30" d="M 266 2259  Q 266 3072 433 3567  Q 600 4063 929 4331  Q 1259 4600 1759 4600  Q 2128 4600 2406 4451  Q 2684 4303 2865 4023  Q 3047 3744 3150 3342  Q 3253 2941 3253 2259  Q 3253 1453 3087 958  Q 2922 463 2592 192  Q 2263 -78 1759 -78  Q 1097 -78 719 397  Q 266 969 266 2259  z M 844 2259  Q 844 1131 1108 757  Q 1372 384 1759 384  Q 2147 384 2411 759  Q 2675 1134 2675 2259  Q 2675 3391 2411 3762  Q 2147 4134 1753 4134  Q 1366 4134 1134 3806  Q 844 3388 844 2259  z " transform="scale(0.015625)" />
      <path id="ArialMT-2e" d="M 581 0  L 581 641  L 1222 641  L 1222 0  L 581 0  z " transform="scale(0.015625)" />
      <path id="ArialMT-32" d="M 3222 541  L 3222 0  L 194 0  Q 188 203 259 391  Q 375 700 629 1000  Q 884 1300 1366 1694  Q 2113 2306 2375 2664  Q 2638 3022 2638 3341  Q 2638 3675 2398 3904  Q 2159 4134 1775 4134  Q 1369 4134 1125 3890  Q 881 3647 878 3216  L 300 3275  Q 359 3922 746 4261  Q 1134 4600 1788 4600  Q 2447 4600 2831 4234  Q 3216 3869 3216 3328  Q 3216 3053 3103 2787  Q 2991 2522 2730 2228  Q 2469 1934 1863 1422  Q 1356 997 1212 845  Q 1069 694 975 541  L 3222 541  z " transform="scale(0.015625)" />
      <path id="ArialMT-38" d="M 1131 2484  Q 781 2613 612 2850  Q 444 3088 444 3419  Q 444 3919 803 4259  Q 1163 4600 1759 4600  Q 2359 4600 2725 4251  Q 3091 3903 3091 3403  Q 3091 3084 2923 2848  Q 2756 2613 2416 2484  Q 2838 2347 3058 2040  Q 3278 1734 3278 1309  Q 3278 722 2862 322  Q 2447 -78 1769 -78  Q 1091 -78 675 323  Q 259 725 259 1325  Q 259 1772 486 2073  Q 713 2375 1131 2484  z M 1019 3438  Q 1019 3113 1228 2906  Q 1438 2700 1772 2700  Q 2097 2700 2305 2904  Q 2513 3109 2513 3406  Q 2513 3716 2298 3927  Q 2084 4138 1766 4138  Q 1444 4138 1231 3931  Q 1019 3725 1019 3438  z M 838 1322  Q 838 1081 952 856  Q 1066 631 1291 507  Q 1516 384 1775 384  Q 2178 384 2440 643  Q 2703 903 2703 1303  Q 2703 1709 2433 1975  Q 2163 2241 1756 2241  Q 1359 2241 1098 1978  Q 838 1716 838 1322  z " transform="scale(0.015625)" />
     </defs>
     <use xlink:href="#ArialMT-30" />
     <use xlink:href="#ArialMT-2e" x="55.615234" />
     <use xlink:href="#ArialMT-32" x="83.398438" />
     <use xlink:href="#ArialMT-38" x="139.013672" />
    </g>
   </g>
  </g>
 </g>
 <defs>
  <clipPath id="peb948c9976">
   <rect x="22.27" y="0" width="184.14" height="83.16" />
  </clipPath>
 </defs>
</svg></g>

<g id="edge4" class="edge">
<title>node0-&gt;node1</title>
<path fill="none" stroke="#444443" stroke-width="0.3" d="M120.26,-213.96C112.35,-199.56 103.81,-184.03 96.73,-171.13" />
<polygon fill="#444443" stroke="#444443" stroke-width="0.3" points="97.92,-170.4 94.77,-167.57 95.47,-171.75 97.92,-170.4" />
<text text-anchor="start" x="115" y="-194.8" font-family="Times New Roman,serif" font-size="14.00">&#8804;</text>
</g>

<g id="edge5" class="edge">
<title>node0-&gt;leaf4</title>
<path fill="none" stroke="#444443" stroke-width="0.3" d="M170.13,-213.96C175.07,-205.11 180.25,-195.82 185.18,-186.99" />
<polygon fill="#444443" stroke="#444443" stroke-width="0.3" points="186.55,-187.41 187.27,-183.23 184.1,-186.05 186.55,-187.41" />
<text text-anchor="start" x="182" y="-194.8" font-family="Times New Roman,serif" font-size="14.00">&gt;</text>
</g>


<g id="node6" class="node">
<title>legend</title>
<polygon fill="none" stroke="black" stroke-width="0" points="369.5,-287.5 234.5,-287.5 234.5,-232.5 369.5,-232.5 369.5,-287.5" />
<svg width="131px" height="51px" viewBox="0 0 175.432813 68.203125" version="1.1" preserveAspectRatio="xMinYMin meet" x="237" y="-285">
 <metadata>
  <rdf:RDF>
   <ns2:Work>
    <dc:type rdf:resource="http://purl.org/dc/dcmitype/StillImage" />
    <dc:date>2022-01-18T17:06:54.450157</dc:date>
    <dc:format>image/svg+xml</dc:format>
    <dc:creator>
     <ns2:Agent>
      <dc:title>Matplotlib v3.5.1, https://matplotlib.org/</dc:title>
     </ns2:Agent>
    </dc:creator>
   </ns2:Work>
  </rdf:RDF>
 </metadata>
 <defs>
  <style type="text/css">*{stroke-linejoin: round; stroke-linecap: butt}</style>
 </defs>
 <g id="figure_1">
  <g id="patch_1">
   <path d="M 0 68.203125  L 175.432813 68.203125  L 175.432813 0  L 0 0  z " style="fill: #ffffff" />
  </g>
  <g id="axes_1">
   <g id="legend_1">
    <g id="patch_2">
     <path d="M 2 68.203125  L 173.432813 68.203125  Q 175.432813 68.203125 175.432813 66.203125  L 175.432813 2  Q 175.432813 -0 173.432813 -0  L 2 -0  Q 0 -0 0 2  L 0 66.203125  Q 0 68.203125 2 68.203125  z " style="fill: #ffffff; opacity: 0.8; stroke: #444443; stroke-width: 0.5; stroke-linejoin: miter" />
    </g>
    <g id="text_1">
     
     <g style="fill: #444443" transform="translate(8 15.598437)scale(0.1 -0.1)">
      <defs>
       <path id="DejaVuSans-Bold-41" d="M 3419 850  L 1538 850  L 1241 0  L 31 0  L 1759 4666  L 3194 4666  L 4922 0  L 3713 0  L 3419 850  z M 1838 1716  L 3116 1716  L 2478 3572  L 1838 1716  z " transform="scale(0.015625)" />
       <path id="DejaVuSans-Bold-63" d="M 3366 3391  L 3366 2478  Q 3138 2634 2908 2709  Q 2678 2784 2431 2784  Q 1963 2784 1702 2511  Q 1441 2238 1441 1747  Q 1441 1256 1702 982  Q 1963 709 2431 709  Q 2694 709 2930 787  Q 3166 866 3366 1019  L 3366 103  Q 3103 6 2833 -42  Q 2563 -91 2291 -91  Q 1344 -91 809 395  Q 275 881 275 1747  Q 275 2613 809 3098  Q 1344 3584 2291 3584  Q 2566 3584 2833 3536  Q 3100 3488 3366 3391  z " transform="scale(0.015625)" />
       <path id="DejaVuSans-Bold-72" d="M 3138 2547  Q 2991 2616 2845 2648  Q 2700 2681 2553 2681  Q 2122 2681 1889 2404  Q 1656 2128 1656 1613  L 1656 0  L 538 0  L 538 3500  L 1656 3500  L 1656 2925  Q 1872 3269 2151 3426  Q 2431 3584 2822 3584  Q 2878 3584 2943 3579  Q 3009 3575 3134 3559  L 3138 2547  z " transform="scale(0.015625)" />
       <path id="DejaVuSans-Bold-6f" d="M 2203 2784  Q 1831 2784 1636 2517  Q 1441 2250 1441 1747  Q 1441 1244 1636 976  Q 1831 709 2203 709  Q 2569 709 2762 976  Q 2956 1244 2956 1747  Q 2956 2250 2762 2517  Q 2569 2784 2203 2784  z M 2203 3584  Q 3106 3584 3614 3096  Q 4122 2609 4122 1747  Q 4122 884 3614 396  Q 3106 -91 2203 -91  Q 1297 -91 786 396  Q 275 884 275 1747  Q 275 2609 786 3096  Q 1297 3584 2203 3584  z " transform="scale(0.015625)" />
       <path id="DejaVuSans-Bold-62" d="M 2400 722  Q 2759 722 2948 984  Q 3138 1247 3138 1747  Q 3138 2247 2948 2509  Q 2759 2772 2400 2772  Q 2041 2772 1848 2508  Q 1656 2244 1656 1747  Q 1656 1250 1848 986  Q 2041 722 2400 722  z M 1656 2988  Q 1888 3294 2169 3439  Q 2450 3584 2816 3584  Q 3463 3584 3878 3070  Q 4294 2556 4294 1747  Q 4294 938 3878 423  Q 3463 -91 2816 -91  Q 2450 -91 2169 54  Q 1888 200 1656 506  L 1656 0  L 538 0  L 538 4863  L 1656 4863  L 1656 2988  z " transform="scale(0.015625)" />
       <path id="DejaVuSans-Bold-74" d="M 1759 4494  L 1759 3500  L 2913 3500  L 2913 2700  L 1759 2700  L 1759 1216  Q 1759 972 1856 886  Q 1953 800 2241 800  L 2816 800  L 2816 0  L 1856 0  Q 1194 0 917 276  Q 641 553 641 1216  L 641 2700  L 84 2700  L 84 3500  L 641 3500  L 641 4494  L 1759 4494  z " transform="scale(0.015625)" />
       <path id="DejaVuSans-Bold-2d" d="M 347 2297  L 2309 2297  L 2309 1388  L 347 1388  L 347 2297  z " transform="scale(0.015625)" />
       <path id="DejaVuSans-Bold-76" d="M 97 3500  L 1216 3500  L 2088 1081  L 2956 3500  L 4078 3500  L 2700 0  L 1472 0  L 97 3500  z " transform="scale(0.015625)" />
       <path id="DejaVuSans-Bold-31" d="M 750 831  L 1813 831  L 1813 3847  L 722 3622  L 722 4441  L 1806 4666  L 2950 4666  L 2950 831  L 4013 831  L 4013 0  L 750 0  L 750 831  z " transform="scale(0.015625)" />
       <path id="DejaVuSans-Bold-3a" d="M 716 3500  L 1844 3500  L 1844 2291  L 716 2291  L 716 3500  z M 716 1209  L 1844 1209  L 1844 0  L 716 0  L 716 1209  z " transform="scale(0.015625)" />
       <path id="DejaVuSans-Bold-20" transform="scale(0.015625)" />
       <path id="DejaVuSans-Bold-30" d="M 2944 2338  Q 2944 3213 2780 3570  Q 2616 3928 2228 3928  Q 1841 3928 1675 3570  Q 1509 3213 1509 2338  Q 1509 1453 1675 1090  Q 1841 728 2228 728  Q 2613 728 2778 1090  Q 2944 1453 2944 2338  z M 4147 2328  Q 4147 1169 3647 539  Q 3147 -91 2228 -91  Q 1306 -91 806 539  Q 306 1169 306 2328  Q 306 3491 806 4120  Q 1306 4750 2228 4750  Q 3147 4750 3647 4120  Q 4147 3491 4147 2328  z " transform="scale(0.015625)" />
       <path id="DejaVuSans-Bold-34" d="M 2356 3675  L 1038 1722  L 2356 1722  L 2356 3675  z M 2156 4666  L 3494 4666  L 3494 1722  L 4159 1722  L 4159 850  L 3494 850  L 3494 0  L 2356 0  L 2356 850  L 288 850  L 288 1881  L 2156 4666  z " transform="scale(0.015625)" />
       <path id="DejaVuSans-Bold-2e" d="M 653 1209  L 1778 1209  L 1778 0  L 653 0  L 653 1209  z " transform="scale(0.015625)" />
       <path id="DejaVuSans-Bold-38" d="M 2228 2088  Q 1891 2088 1709 1903  Q 1528 1719 1528 1375  Q 1528 1031 1709 848  Q 1891 666 2228 666  Q 2563 666 2741 848  Q 2919 1031 2919 1375  Q 2919 1722 2741 1905  Q 2563 2088 2228 2088  z M 1350 2484  Q 925 2613 709 2878  Q 494 3144 494 3541  Q 494 4131 934 4440  Q 1375 4750 2228 4750  Q 3075 4750 3515 4442  Q 3956 4134 3956 3541  Q 3956 3144 3739 2878  Q 3522 2613 3097 2484  Q 3572 2353 3814 2058  Q 4056 1763 4056 1313  Q 4056 619 3595 264  Q 3134 -91 2228 -91  Q 1319 -91 855 264  Q 391 619 391 1313  Q 391 1763 633 2058  Q 875 2353 1350 2484  z M 1631 3419  Q 1631 3141 1786 2991  Q 1941 2841 2228 2841  Q 2509 2841 2662 2991  Q 2816 3141 2816 3419  Q 2816 3697 2662 3845  Q 2509 3994 2228 3994  Q 1941 3994 1786 3844  Q 1631 3694 1631 3419  z " transform="scale(0.015625)" />
       <path id="DejaVuSans-Bold-26" d="M 2497 3097  L 3775 1691  Q 3941 1909 4027 2181  Q 4113 2453 4128 2797  L 5100 2797  Q 5053 2228 4879 1784  Q 4706 1341 4397 1006  L 5313 0  L 3988 0  L 3681 341  Q 3353 122 2990 15  Q 2628 -91 2222 -91  Q 1400 -91 892 342  Q 384 775 384 1459  Q 384 1916 607 2267  Q 831 2619 1338 2950  Q 1206 3116 1143 3281  Q 1081 3447 1081 3628  Q 1081 4138 1478 4444  Q 1875 4750 2534 4750  Q 2819 4750 3126 4704  Q 3434 4659 3769 4569  L 3769 3700  Q 3475 3850 3212 3922  Q 2950 3994 2700 3994  Q 2459 3994 2326 3901  Q 2194 3809 2194 3641  Q 2194 3534 2270 3398  Q 2347 3263 2497 3097  z M 1875 2322  Q 1672 2175 1569 1989  Q 1466 1803 1466 1581  Q 1466 1222 1731 969  Q 1997 716 2369 716  Q 2578 716 2759 780  Q 2941 844 3097 972  L 1875 2322  z " transform="scale(0.015625)" />
       <path id="DejaVuSans-Bold-39" d="M 641 103  L 641 966  Q 928 831 1190 764  Q 1453 697 1709 697  Q 2247 697 2547 995  Q 2847 1294 2900 1881  Q 2688 1725 2447 1647  Q 2206 1569 1925 1569  Q 1209 1569 770 1986  Q 331 2403 331 3084  Q 331 3838 820 4291  Q 1309 4744 2131 4744  Q 3044 4744 3544 4128  Q 4044 3513 4044 2388  Q 4044 1231 3459 570  Q 2875 -91 1856 -91  Q 1528 -91 1228 -42  Q 928 6 641 103  z M 2125 2350  Q 2441 2350 2600 2554  Q 2759 2759 2759 3169  Q 2759 3575 2600 3781  Q 2441 3988 2125 3988  Q 1809 3988 1650 3781  Q 1491 3575 1491 3169  Q 1491 2759 1650 2554  Q 1809 2350 2125 2350  z " transform="scale(0.015625)" />
       <path id="DejaVuSans-Bold-33" d="M 2981 2516  Q 3453 2394 3698 2092  Q 3944 1791 3944 1325  Q 3944 631 3412 270  Q 2881 -91 1863 -91  Q 1503 -91 1142 -33  Q 781 25 428 141  L 428 1069  Q 766 900 1098 814  Q 1431 728 1753 728  Q 2231 728 2486 893  Q 2741 1059 2741 1369  Q 2741 1688 2480 1852  Q 2219 2016 1709 2016  L 1228 2016  L 1228 2791  L 1734 2791  Q 2188 2791 2409 2933  Q 2631 3075 2631 3366  Q 2631 3634 2415 3781  Q 2200 3928 1806 3928  Q 1516 3928 1219 3862  Q 922 3797 628 3669  L 628 4550  Q 984 4650 1334 4700  Q 1684 4750 2022 4750  Q 2931 4750 3382 4451  Q 3834 4153 3834 3553  Q 3834 3144 3618 2883  Q 3403 2622 2981 2516  z " transform="scale(0.015625)" />
      </defs>
      <use xlink:href="#DejaVuSans-Bold-41" />
      <use xlink:href="#DejaVuSans-Bold-63" x="77.392578" />
      <use xlink:href="#DejaVuSans-Bold-72" x="136.669922" />
      <use xlink:href="#DejaVuSans-Bold-6f" x="185.986328" />
      <use xlink:href="#DejaVuSans-Bold-62" x="254.6875" />
      <use xlink:href="#DejaVuSans-Bold-6f" x="326.269531" />
      <use xlink:href="#DejaVuSans-Bold-74" x="394.970703" />
      <use xlink:href="#DejaVuSans-Bold-2d" x="442.773438" />
      <use xlink:href="#DejaVuSans-Bold-76" x="484.277344" />
      <use xlink:href="#DejaVuSans-Bold-31" x="549.462891" />
      <use xlink:href="#DejaVuSans-Bold-3a" x="619.042969" />
      <use xlink:href="#DejaVuSans-Bold-20" x="659.033203" />
      <use xlink:href="#DejaVuSans-Bold-2d" x="693.847656" />
      <use xlink:href="#DejaVuSans-Bold-31" x="735.351562" />
      <use xlink:href="#DejaVuSans-Bold-30" x="804.931641" />
      <use xlink:href="#DejaVuSans-Bold-34" x="874.511719" />
      <use xlink:href="#DejaVuSans-Bold-2e" x="944.091797" />
      <use xlink:href="#DejaVuSans-Bold-30" x="982.080078" />
      <use xlink:href="#DejaVuSans-Bold-38" x="1051.660156" />
      <use xlink:href="#DejaVuSans-Bold-20" x="1121.240234" />
      <use xlink:href="#DejaVuSans-Bold-26" x="1156.054688" />
      <use xlink:href="#DejaVuSans-Bold-20" x="1243.261719" />
      <use xlink:href="#DejaVuSans-Bold-31" x="1278.076172" />
      <use xlink:href="#DejaVuSans-Bold-38" x="1347.65625" />
      <use xlink:href="#DejaVuSans-Bold-2e" x="1417.236328" />
      <use xlink:href="#DejaVuSans-Bold-39" x="1455.224609" />
      <use xlink:href="#DejaVuSans-Bold-33" x="1524.804688" />
     </g>
    </g>
    <g id="patch_3">
     <path d="M 54.700781 29.865625  L 74.700781 29.865625  L 74.700781 22.865625  L 54.700781 22.865625  z " style="fill: #fefebb; stroke: #444443; stroke-width: 0.4; stroke-linejoin: miter" />
    </g>
    <g id="text_2">
     
     <g style="fill: #444443" transform="translate(78.200781 29.865625)scale(0.1 -0.1)">
      <defs>
       <path id="ArialMT-74" d="M 1650 503  L 1731 6  Q 1494 -44 1306 -44  Q 1000 -44 831 53  Q 663 150 594 308  Q 525 466 525 972  L 525 2881  L 113 2881  L 113 3319  L 525 3319  L 525 4141  L 1084 4478  L 1084 3319  L 1650 3319  L 1650 2881  L 1084 2881  L 1084 941  Q 1084 700 1114 631  Q 1144 563 1211 522  Q 1278 481 1403 481  Q 1497 481 1650 503  z " transform="scale(0.015625)" />
       <path id="ArialMT-6f" d="M 213 1659  Q 213 2581 725 3025  Q 1153 3394 1769 3394  Q 2453 3394 2887 2945  Q 3322 2497 3322 1706  Q 3322 1066 3130 698  Q 2938 331 2570 128  Q 2203 -75 1769 -75  Q 1072 -75 642 372  Q 213 819 213 1659  z M 791 1659  Q 791 1022 1069 705  Q 1347 388 1769 388  Q 2188 388 2466 706  Q 2744 1025 2744 1678  Q 2744 2294 2464 2611  Q 2184 2928 1769 2928  Q 1347 2928 1069 2612  Q 791 2297 791 1659  z " transform="scale(0.015625)" />
       <path id="ArialMT-72" d="M 416 0  L 416 3319  L 922 3319  L 922 2816  Q 1116 3169 1280 3281  Q 1444 3394 1641 3394  Q 1925 3394 2219 3213  L 2025 2691  Q 1819 2813 1613 2813  Q 1428 2813 1281 2702  Q 1134 2591 1072 2394  Q 978 2094 978 1738  L 978 0  L 416 0  z " transform="scale(0.015625)" />
       <path id="ArialMT-71" d="M 2538 -1272  L 2538 353  Q 2406 169 2170 47  Q 1934 -75 1669 -75  Q 1078 -75 651 397  Q 225 869 225 1691  Q 225 2191 398 2587  Q 572 2984 901 3189  Q 1231 3394 1625 3394  Q 2241 3394 2594 2875  L 2594 3319  L 3100 3319  L 3100 -1272  L 2538 -1272  z M 803 1669  Q 803 1028 1072 708  Q 1341 388 1716 388  Q 2075 388 2334 692  Q 2594 997 2594 1619  Q 2594 2281 2320 2615  Q 2047 2950 1678 2950  Q 1313 2950 1058 2639  Q 803 2328 803 1669  z " transform="scale(0.015625)" />
       <path id="ArialMT-75" d="M 2597 0  L 2597 488  Q 2209 -75 1544 -75  Q 1250 -75 995 37  Q 741 150 617 320  Q 494 491 444 738  Q 409 903 409 1263  L 409 3319  L 972 3319  L 972 1478  Q 972 1038 1006 884  Q 1059 663 1231 536  Q 1403 409 1656 409  Q 1909 409 2131 539  Q 2353 669 2445 892  Q 2538 1116 2538 1541  L 2538 3319  L 3100 3319  L 3100 0  L 2597 0  z " transform="scale(0.015625)" />
       <path id="ArialMT-65" d="M 2694 1069  L 3275 997  Q 3138 488 2766 206  Q 2394 -75 1816 -75  Q 1088 -75 661 373  Q 234 822 234 1631  Q 234 2469 665 2931  Q 1097 3394 1784 3394  Q 2450 3394 2872 2941  Q 3294 2488 3294 1666  Q 3294 1616 3291 1516  L 816 1516  Q 847 969 1125 678  Q 1403 388 1819 388  Q 2128 388 2347 550  Q 2566 713 2694 1069  z M 847 1978  L 2700 1978  Q 2663 2397 2488 2606  Q 2219 2931 1791 2931  Q 1403 2931 1139 2672  Q 875 2413 847 1978  z " transform="scale(0.015625)" />
       <path id="ArialMT-20" transform="scale(0.015625)" />
       <path id="ArialMT-2b" d="M 1603 741  L 1603 1997  L 356 1997  L 356 2522  L 1603 2522  L 1603 3769  L 2134 3769  L 2134 2522  L 3381 2522  L 3381 1997  L 2134 1997  L 2134 741  L 1603 741  z " transform="scale(0.015625)" />
       <path id="ArialMT-31" d="M 2384 0  L 1822 0  L 1822 3584  Q 1619 3391 1289 3197  Q 959 3003 697 2906  L 697 3450  Q 1169 3672 1522 3987  Q 1875 4303 2022 4600  L 2384 4600  L 2384 0  z " transform="scale(0.015625)" />
      </defs>
      <use xlink:href="#ArialMT-74" />
      <use xlink:href="#ArialMT-6f" x="27.783203" />
      <use xlink:href="#ArialMT-72" x="83.398438" />
      <use xlink:href="#ArialMT-71" x="116.699219" />
      <use xlink:href="#ArialMT-75" x="172.314453" />
      <use xlink:href="#ArialMT-65" x="227.929688" />
      <use xlink:href="#ArialMT-20" x="283.544922" />
      <use xlink:href="#ArialMT-2b" x="311.328125" />
      <use xlink:href="#ArialMT-31" x="369.726562" />
     </g>
    </g>
    <g id="patch_4">
     <path d="M 54.700781 44.040625  L 74.700781 44.040625  L 74.700781 37.040625  L 54.700781 37.040625  z " style="fill: #d9e6f5; stroke: #444443; stroke-width: 0.4; stroke-linejoin: miter" />
    </g>
    <g id="text_3">
     
     <g style="fill: #444443" transform="translate(78.200781 44.040625)scale(0.1 -0.1)">
      <defs>
       <path id="ArialMT-30" d="M 266 2259  Q 266 3072 433 3567  Q 600 4063 929 4331  Q 1259 4600 1759 4600  Q 2128 4600 2406 4451  Q 2684 4303 2865 4023  Q 3047 3744 3150 3342  Q 3253 2941 3253 2259  Q 3253 1453 3087 958  Q 2922 463 2592 192  Q 2263 -78 1759 -78  Q 1097 -78 719 397  Q 266 969 266 2259  z M 844 2259  Q 844 1131 1108 757  Q 1372 384 1759 384  Q 2147 384 2411 759  Q 2675 1134 2675 2259  Q 2675 3391 2411 3762  Q 2147 4134 1753 4134  Q 1366 4134 1134 3806  Q 844 3388 844 2259  z " transform="scale(0.015625)" />
      </defs>
      <use xlink:href="#ArialMT-74" />
      <use xlink:href="#ArialMT-6f" x="27.783203" />
      <use xlink:href="#ArialMT-72" x="83.398438" />
      <use xlink:href="#ArialMT-71" x="116.699219" />
      <use xlink:href="#ArialMT-75" x="172.314453" />
      <use xlink:href="#ArialMT-65" x="227.929688" />
      <use xlink:href="#ArialMT-20" x="283.544922" />
      <use xlink:href="#ArialMT-30" x="311.328125" />
     </g>
    </g>
    <g id="patch_5">
     <path d="M 54.700781 58.215625  L 74.700781 58.215625  L 74.700781 51.215625  L 54.700781 51.215625  z " style="fill: #a1dab4; stroke: #444443; stroke-width: 0.4; stroke-linejoin: miter" />
    </g>
    <g id="text_4">
     
     <g style="fill: #444443" transform="translate(78.200781 58.215625)scale(0.1 -0.1)">
      <defs>
       <path id="ArialMT-2d" d="M 203 1375  L 203 1941  L 1931 1941  L 1931 1375  L 203 1375  z " transform="scale(0.015625)" />
      </defs>
      <use xlink:href="#ArialMT-74" />
      <use xlink:href="#ArialMT-6f" x="27.783203" />
      <use xlink:href="#ArialMT-72" x="83.398438" />
      <use xlink:href="#ArialMT-71" x="116.699219" />
      <use xlink:href="#ArialMT-75" x="172.314453" />
      <use xlink:href="#ArialMT-65" x="227.929688" />
      <use xlink:href="#ArialMT-20" x="283.544922" />
      <use xlink:href="#ArialMT-2d" x="311.328125" />
      <use xlink:href="#ArialMT-31" x="344.628906" />
     </g>
    </g>
   </g>
  </g>
 </g>
</svg></g>
</g>
</svg>