<svg xmlns="http://www.w3.org/2000/svg" xmlns:dc="http://purl.org/dc/elements/1.1/" xmlns:ns2="http://creativecommons.org/ns#" xmlns:rdf="http://www.w3.org/1999/02/22-rdf-syntax-ns#" xmlns:xlink="http://www.w3.org/1999/xlink" width="312.0" height="185.0" viewBox="0.0 0.0 311.5 185.0">
<g id="graph0" class="graph" transform="scale(1.0 1.0) rotate(0) translate(4 181)">
<title>G</title>
<polygon fill="white" stroke="transparent" points="-4,4 -4,-181 307.5,-181 307.5,4 -4,4" />
<g id="clust2" class="cluster">
<title>cluster_legend</title>
</g>

<g id="node1" class="node">
<title>node0</title>
<svg width="155px" height="44px" viewBox="0 0 206.749951 59.15625" version="1.1" preserveAspectRatio="xMinYMin meet" x="4.5" y="-163.5">
 <metadata>
  <rdf:RDF>
   <ns2:Work>
    <dc:type rdf:resource="http://purl.org/dc/dcmitype/StillImage" />
    <dc:date>2022-01-16T16:21:29.326638</dc:date>
    <dc:format>image/svg+xml</dc:format>
    <dc:creator>
     <ns2:Agent>
      <dc:title>Matplotlib v3.5.1, https://matplotlib.org/</dc:title>
     </ns2:Agent>
    </dc:creator>
   </ns2:Work>
  </rdf:RDF>
 </metadata>
 <defs>
  <style type="text/css">*{stroke-linejoin: round; stroke-linecap: butt}</style>
 </defs>
 <g id="figure_1">
  <g id="patch_1">
   <path d="M 0 59.15625  L 206.749951 59.15625  L 206.749951 0  L 0 0  z " style="fill: #ffffff" />
  </g>
  <g id="axes_1">
   <g id="patch_2">
    <path d="M 17.18 29.439375  L 201.32 29.439375  L 201.32 1.719375  L 17.18 1.719375  z " style="fill: #ffffff" />
   </g>
   <g id="patch_3">
    <path d="M 17.18 29.439375  L 27.807277 29.439375  L 27.807277 23.782232  L 17.18 23.782232  z " clip-path="url(#pbedcae303e)" style="fill: #fefebb; stroke: #444443; stroke-width: 0.5; stroke-linejoin: miter" />
   </g>
   <g id="patch_4">
    <path d="M 27.807277 29.439375  L 38.434553 29.439375  L 38.434553 25.667946  L 27.807277 25.667946  z " clip-path="url(#pbedcae303e)" style="fill: #fefebb; stroke: #444443; stroke-width: 0.5; stroke-linejoin: miter" />
   </g>
   <g id="patch_5">
    <path d="M 38.434553 29.439375  L 49.06183 29.439375  L 49.06183 27.553661  L 38.434553 27.553661  z " clip-path="url(#pbedcae303e)" style="fill: #fefebb; stroke: #444443; stroke-width: 0.5; stroke-linejoin: miter" />
   </g>
   <g id="patch_6">
    <path d="M 49.06183 29.439375  L 59.689106 29.439375  L 59.689106 25.667946  L 49.06183 25.667946  z " clip-path="url(#pbedcae303e)" style="fill: #fefebb; stroke: #444443; stroke-width: 0.5; stroke-linejoin: miter" />
   </g>
   <g id="patch_7">
    <path d="M 59.689106 29.439375  L 70.316383 29.439375  L 70.316383 27.553661  L 59.689106 27.553661  z " clip-path="url(#pbedcae303e)" style="fill: #fefebb; stroke: #444443; stroke-width: 0.5; stroke-linejoin: miter" />
   </g>
   <g id="patch_8">
    <path d="M 70.316383 29.439375  L 80.943659 29.439375  L 80.943659 21.896518  L 70.316383 21.896518  z " clip-path="url(#pbedcae303e)" style="fill: #fefebb; stroke: #444443; stroke-width: 0.5; stroke-linejoin: miter" />
   </g>
   <g id="patch_9">
    <path d="M 80.943659 29.439375  L 91.570936 29.439375  L 91.570936 14.353661  L 80.943659 14.353661  z " clip-path="url(#pbedcae303e)" style="fill: #fefebb; stroke: #444443; stroke-width: 0.5; stroke-linejoin: miter" />
   </g>
   <g id="patch_10">
    <path d="M 91.570936 29.439375  L 102.198212 29.439375  L 102.198212 25.667946  L 91.570936 25.667946  z " clip-path="url(#pbedcae303e)" style="fill: #fefebb; stroke: #444443; stroke-width: 0.5; stroke-linejoin: miter" />
   </g>
   <g id="patch_11">
    <path d="M 102.198212 29.439375  L 112.825489 29.439375  L 112.825489 23.782232  L 102.198212 23.782232  z " clip-path="url(#pbedcae303e)" style="fill: #fefebb; stroke: #444443; stroke-width: 0.5; stroke-linejoin: miter" />
   </g>
   <g id="patch_12">
    <path d="M 112.825489 29.439375  L 123.452765 29.439375  L 123.452765 20.010804  L 112.825489 20.010804  z " clip-path="url(#pbedcae303e)" style="fill: #fefebb; stroke: #444443; stroke-width: 0.5; stroke-linejoin: miter" />
   </g>
   <g id="patch_13">
    <path d="M 123.452765 29.439375  L 134.080042 29.439375  L 134.080042 21.896518  L 123.452765 21.896518  z " clip-path="url(#pbedcae303e)" style="fill: #fefebb; stroke: #444443; stroke-width: 0.5; stroke-linejoin: miter" />
   </g>
   <g id="patch_14">
    <path d="M 134.080042 29.439375  L 144.707318 29.439375  L 144.707318 29.439375  L 134.080042 29.439375  z " clip-path="url(#pbedcae303e)" style="fill: #fefebb; stroke: #444443; stroke-width: 0.5; stroke-linejoin: miter" />
   </g>
   <g id="patch_15">
    <path d="M 144.707318 29.439375  L 155.334595 29.439375  L 155.334595 29.439375  L 144.707318 29.439375  z " clip-path="url(#pbedcae303e)" style="fill: #fefebb; stroke: #444443; stroke-width: 0.5; stroke-linejoin: miter" />
   </g>
   <g id="patch_16">
    <path d="M 155.334595 29.439375  L 165.961871 29.439375  L 165.961871 29.439375  L 155.334595 29.439375  z " clip-path="url(#pbedcae303e)" style="fill: #fefebb; stroke: #444443; stroke-width: 0.5; stroke-linejoin: miter" />
   </g>
   <g id="patch_17">
    <path d="M 165.961871 29.439375  L 176.589148 29.439375  L 176.589148 29.439375  L 165.961871 29.439375  z " clip-path="url(#pbedcae303e)" style="fill: #fefebb; stroke: #444443; stroke-width: 0.5; stroke-linejoin: miter" />
   </g>
   <g id="patch_18">
    <path d="M 176.589148 29.439375  L 187.216424 29.439375  L 187.216424 29.439375  L 176.589148 29.439375  z " clip-path="url(#pbedcae303e)" style="fill: #fefebb; stroke: #444443; stroke-width: 0.5; stroke-linejoin: miter" />
   </g>
   <g id="patch_19">
    <path d="M 187.216424 29.439375  L 197.843701 29.439375  L 197.843701 29.439375  L 187.216424 29.439375  z " clip-path="url(#pbedcae303e)" style="fill: #fefebb; stroke: #444443; stroke-width: 0.5; stroke-linejoin: miter" />
   </g>
   <g id="patch_20">
    <path d="M 17.18 23.782232  L 27.807277 23.782232  L 27.807277 23.782232  L 17.18 23.782232  z " clip-path="url(#pbedcae303e)" style="fill: #d9e6f5; stroke: #444443; stroke-width: 0.5; stroke-linejoin: miter" />
   </g>
   <g id="patch_21">
    <path d="M 27.807277 25.667946  L 38.434553 25.667946  L 38.434553 25.667946  L 27.807277 25.667946  z " clip-path="url(#pbedcae303e)" style="fill: #d9e6f5; stroke: #444443; stroke-width: 0.5; stroke-linejoin: miter" />
   </g>
   <g id="patch_22">
    <path d="M 38.434553 27.553661  L 49.06183 27.553661  L 49.06183 25.667946  L 38.434553 25.667946  z " clip-path="url(#pbedcae303e)" style="fill: #d9e6f5; stroke: #444443; stroke-width: 0.5; stroke-linejoin: miter" />
   </g>
   <g id="patch_23">
    <path d="M 49.06183 25.667946  L 59.689106 25.667946  L 59.689106 25.667946  L 49.06183 25.667946  z " clip-path="url(#pbedcae303e)" style="fill: #d9e6f5; stroke: #444443; stroke-width: 0.5; stroke-linejoin: miter" />
   </g>
   <g id="patch_24">
    <path d="M 59.689106 27.553661  L 70.316383 27.553661  L 70.316383 25.667946  L 59.689106 25.667946  z " clip-path="url(#pbedcae303e)" style="fill: #d9e6f5; stroke: #444443; stroke-width: 0.5; stroke-linejoin: miter" />
   </g>
   <g id="patch_25">
    <path d="M 70.316383 21.896518  L 80.943659 21.896518  L 80.943659 18.125089  L 70.316383 18.125089  z " clip-path="url(#pbedcae303e)" style="fill: #d9e6f5; stroke: #444443; stroke-width: 0.5; stroke-linejoin: miter" />
   </g>
   <g id="patch_26">
    <path d="M 80.943659 14.353661  L 91.570936 14.353661  L 91.570936 12.467946  L 80.943659 12.467946  z " clip-path="url(#pbedcae303e)" style="fill: #d9e6f5; stroke: #444443; stroke-width: 0.5; stroke-linejoin: miter" />
   </g>
   <g id="patch_27">
    <path d="M 91.570936 25.667946  L 102.198212 25.667946  L 102.198212 21.896518  L 91.570936 21.896518  z " clip-path="url(#pbedcae303e)" style="fill: #d9e6f5; stroke: #444443; stroke-width: 0.5; stroke-linejoin: miter" />
   </g>
   <g id="patch_28">
    <path d="M 102.198212 23.782232  L 112.825489 23.782232  L 112.825489 8.696518  L 102.198212 8.696518  z " clip-path="url(#pbedcae303e)" style="fill: #d9e6f5; stroke: #444443; stroke-width: 0.5; stroke-linejoin: miter" />
   </g>
   <g id="patch_29">
    <path d="M 112.825489 20.010804  L 123.452765 20.010804  L 123.452765 12.467946  L 112.825489 12.467946  z " clip-path="url(#pbedcae303e)" style="fill: #d9e6f5; stroke: #444443; stroke-width: 0.5; stroke-linejoin: miter" />
   </g>
   <g id="patch_30">
    <path d="M 123.452765 21.896518  L 134.080042 21.896518  L 134.080042 12.467946  L 123.452765 12.467946  z " clip-path="url(#pbedcae303e)" style="fill: #d9e6f5; stroke: #444443; stroke-width: 0.5; stroke-linejoin: miter" />
   </g>
   <g id="patch_31">
    <path d="M 134.080042 29.439375  L 144.707318 29.439375  L 144.707318 21.896518  L 134.080042 21.896518  z " clip-path="url(#pbedcae303e)" style="fill: #d9e6f5; stroke: #444443; stroke-width: 0.5; stroke-linejoin: miter" />
   </g>
   <g id="patch_32">
    <path d="M 144.707318 29.439375  L 155.334595 29.439375  L 155.334595 25.667946  L 144.707318 25.667946  z " clip-path="url(#pbedcae303e)" style="fill: #d9e6f5; stroke: #444443; stroke-width: 0.5; stroke-linejoin: miter" />
   </g>
   <g id="patch_33">
    <path d="M 155.334595 29.439375  L 165.961871 29.439375  L 165.961871 29.439375  L 155.334595 29.439375  z " clip-path="url(#pbedcae303e)" style="fill: #d9e6f5; stroke: #444443; stroke-width: 0.5; stroke-linejoin: miter" />
   </g>
   <g id="patch_34">
    <path d="M 165.961871 29.439375  L 176.589148 29.439375  L 176.589148 29.439375  L 165.961871 29.439375  z " clip-path="url(#pbedcae303e)" style="fill: #d9e6f5; stroke: #444443; stroke-width: 0.5; stroke-linejoin: miter" />
   </g>
   <g id="patch_35">
    <path d="M 176.589148 29.439375  L 187.216424 29.439375  L 187.216424 29.439375  L 176.589148 29.439375  z " clip-path="url(#pbedcae303e)" style="fill: #d9e6f5; stroke: #444443; stroke-width: 0.5; stroke-linejoin: miter" />
   </g>
   <g id="patch_36">
    <path d="M 187.216424 29.439375  L 197.843701 29.439375  L 197.843701 29.439375  L 187.216424 29.439375  z " clip-path="url(#pbedcae303e)" style="fill: #d9e6f5; stroke: #444443; stroke-width: 0.5; stroke-linejoin: miter" />
   </g>
   <g id="patch_37">
    <path d="M 17.18 23.782232  L 27.807277 23.782232  L 27.807277 23.782232  L 17.18 23.782232  z " clip-path="url(#pbedcae303e)" style="fill: #a1dab4; stroke: #444443; stroke-width: 0.5; stroke-linejoin: miter" />
   </g>
   <g id="patch_38">
    <path d="M 27.807277 25.667946  L 38.434553 25.667946  L 38.434553 25.667946  L 27.807277 25.667946  z " clip-path="url(#pbedcae303e)" style="fill: #a1dab4; stroke: #444443; stroke-width: 0.5; stroke-linejoin: miter" />
   </g>
   <g id="patch_39">
    <path d="M 38.434553 25.667946  L 49.06183 25.667946  L 49.06183 25.667946  L 38.434553 25.667946  z " clip-path="url(#pbedcae303e)" style="fill: #a1dab4; stroke: #444443; stroke-width: 0.5; stroke-linejoin: miter" />
   </g>
   <g id="patch_40">
    <path d="M 49.06183 25.667946  L 59.689106 25.667946  L 59.689106 25.667946  L 49.06183 25.667946  z " clip-path="url(#pbedcae303e)" style="fill: #a1dab4; stroke: #444443; stroke-width: 0.5; stroke-linejoin: miter" />
   </g>
   <g id="patch_41">
    <path d="M 59.689106 25.667946  L 70.316383 25.667946  L 70.316383 25.667946  L 59.689106 25.667946  z " clip-path="url(#pbedcae303e)" style="fill: #a1dab4; stroke: #444443; stroke-width: 0.5; stroke-linejoin: miter" />
   </g>
   <g id="patch_42">
    <path d="M 70.316383 18.125089  L 80.943659 18.125089  L 80.943659 18.125089  L 70.316383 18.125089  z " clip-path="url(#pbedcae303e)" style="fill: #a1dab4; stroke: #444443; stroke-width: 0.5; stroke-linejoin: miter" />
   </g>
   <g id="patch_43">
    <path d="M 80.943659 12.467946  L 91.570936 12.467946  L 91.570936 12.467946  L 80.943659 12.467946  z " clip-path="url(#pbedcae303e)" style="fill: #a1dab4; stroke: #444443; stroke-width: 0.5; stroke-linejoin: miter" />
   </g>
   <g id="patch_44">
    <path d="M 91.570936 21.896518  L 102.198212 21.896518  L 102.198212 21.896518  L 91.570936 21.896518  z " clip-path="url(#pbedcae303e)" style="fill: #a1dab4; stroke: #444443; stroke-width: 0.5; stroke-linejoin: miter" />
   </g>
   <g id="patch_45">
    <path d="M 102.198212 8.696518  L 112.825489 8.696518  L 112.825489 8.696518  L 102.198212 8.696518  z " clip-path="url(#pbedcae303e)" style="fill: #a1dab4; stroke: #444443; stroke-width: 0.5; stroke-linejoin: miter" />
   </g>
   <g id="patch_46">
    <path d="M 112.825489 12.467946  L 123.452765 12.467946  L 123.452765 3.039375  L 112.825489 3.039375  z " clip-path="url(#pbedcae303e)" style="fill: #a1dab4; stroke: #444443; stroke-width: 0.5; stroke-linejoin: miter" />
   </g>
   <g id="patch_47">
    <path d="M 123.452765 12.467946  L 134.080042 12.467946  L 134.080042 3.039375  L 123.452765 3.039375  z " clip-path="url(#pbedcae303e)" style="fill: #a1dab4; stroke: #444443; stroke-width: 0.5; stroke-linejoin: miter" />
   </g>
   <g id="patch_48">
    <path d="M 134.080042 21.896518  L 144.707318 21.896518  L 144.707318 6.810804  L 134.080042 6.810804  z " clip-path="url(#pbedcae303e)" style="fill: #a1dab4; stroke: #444443; stroke-width: 0.5; stroke-linejoin: miter" />
   </g>
   <g id="patch_49">
    <path d="M 144.707318 25.667946  L 155.334595 25.667946  L 155.334595 10.582232  L 144.707318 10.582232  z " clip-path="url(#pbedcae303e)" style="fill: #a1dab4; stroke: #444443; stroke-width: 0.5; stroke-linejoin: miter" />
   </g>
   <g id="patch_50">
    <path d="M 155.334595 29.439375  L 165.961871 29.439375  L 165.961871 16.239375  L 155.334595 16.239375  z " clip-path="url(#pbedcae303e)" style="fill: #a1dab4; stroke: #444443; stroke-width: 0.5; stroke-linejoin: miter" />
   </g>
   <g id="patch_51">
    <path d="M 165.961871 29.439375  L 176.589148 29.439375  L 176.589148 12.467946  L 165.961871 12.467946  z " clip-path="url(#pbedcae303e)" style="fill: #a1dab4; stroke: #444443; stroke-width: 0.5; stroke-linejoin: miter" />
   </g>
   <g id="patch_52">
    <path d="M 176.589148 29.439375  L 187.216424 29.439375  L 187.216424 14.353661  L 176.589148 14.353661  z " clip-path="url(#pbedcae303e)" style="fill: #a1dab4; stroke: #444443; stroke-width: 0.5; stroke-linejoin: miter" />
   </g>
   <g id="patch_53">
    <path d="M 187.216424 29.439375  L 197.843701 29.439375  L 197.843701 27.553661  L 187.216424 27.553661  z " clip-path="url(#pbedcae303e)" style="fill: #a1dab4; stroke: #444443; stroke-width: 0.5; stroke-linejoin: miter" />
   </g>
   <g id="patch_54">
    <path d="M 127.620836 30.270975  L 124.306316 37.755375  L 130.935356 37.755375  z " style="fill: #444443" />
   </g>
   <g id="matplotlib.axis_1">
    <g id="xtick_1">
     <g id="line2d_1">
      <defs>
       <path id="m6f70c14ce3" d="M 0 0  L 0 3.5  " style="stroke: #000000; stroke-width: 0.3" />
      </defs>
      <g>
       <use xlink:href="#m6f70c14ce3" x="17.18" y="29.439375" style="stroke: #000000; stroke-width: 0.3" />
      </g>
     </g>
     <g id="text_1">
      
      <g style="fill: #444443" transform="translate(2.376875 42.518125)scale(0.08 -0.08)">
       <defs>
        <path id="DejaVuSans-2212" d="M 678 2272  L 4684 2272  L 4684 1741  L 678 1741  L 678 2272  z " transform="scale(0.015625)" />
        <path id="DejaVuSans-31" d="M 794 531  L 1825 531  L 1825 4091  L 703 3866  L 703 4441  L 1819 4666  L 2450 4666  L 2450 531  L 3481 531  L 3481 0  L 794 0  L 794 531  z " transform="scale(0.015625)" />
        <path id="DejaVuSans-2e" d="M 684 794  L 1344 794  L 1344 0  L 684 0  L 684 794  z " transform="scale(0.015625)" />
        <path id="DejaVuSans-33" d="M 2597 2516  Q 3050 2419 3304 2112  Q 3559 1806 3559 1356  Q 3559 666 3084 287  Q 2609 -91 1734 -91  Q 1441 -91 1130 -33  Q 819 25 488 141  L 488 750  Q 750 597 1062 519  Q 1375 441 1716 441  Q 2309 441 2620 675  Q 2931 909 2931 1356  Q 2931 1769 2642 2001  Q 2353 2234 1838 2234  L 1294 2234  L 1294 2753  L 1863 2753  Q 2328 2753 2575 2939  Q 2822 3125 2822 3475  Q 2822 3834 2567 4026  Q 2313 4219 1838 4219  Q 1578 4219 1281 4162  Q 984 4106 628 3988  L 628 4550  Q 988 4650 1302 4700  Q 1616 4750 1894 4750  Q 2613 4750 3031 4423  Q 3450 4097 3450 3541  Q 3450 3153 3228 2886  Q 3006 2619 2597 2516  z " transform="scale(0.015625)" />
        <path id="DejaVuSans-38" d="M 2034 2216  Q 1584 2216 1326 1975  Q 1069 1734 1069 1313  Q 1069 891 1326 650  Q 1584 409 2034 409  Q 2484 409 2743 651  Q 3003 894 3003 1313  Q 3003 1734 2745 1975  Q 2488 2216 2034 2216  z M 1403 2484  Q 997 2584 770 2862  Q 544 3141 544 3541  Q 544 4100 942 4425  Q 1341 4750 2034 4750  Q 2731 4750 3128 4425  Q 3525 4100 3525 3541  Q 3525 3141 3298 2862  Q 3072 2584 2669 2484  Q 3125 2378 3379 2068  Q 3634 1759 3634 1313  Q 3634 634 3220 271  Q 2806 -91 2034 -91  Q 1263 -91 848 271  Q 434 634 434 1313  Q 434 1759 690 2068  Q 947 2378 1403 2484  z M 1172 3481  Q 1172 3119 1398 2916  Q 1625 2713 2034 2713  Q 2441 2713 2670 2916  Q 2900 3119 2900 3481  Q 2900 3844 2670 4047  Q 2441 4250 2034 4250  Q 1625 4250 1398 4047  Q 1172 3844 1172 3481  z " transform="scale(0.015625)" />
       </defs>
       <use xlink:href="#DejaVuSans-2212" />
       <use xlink:href="#DejaVuSans-31" x="83.789062" />
       <use xlink:href="#DejaVuSans-31" x="147.412109" />
       <use xlink:href="#DejaVuSans-2e" x="211.035156" />
       <use xlink:href="#DejaVuSans-33" x="242.822266" />
       <use xlink:href="#DejaVuSans-38" x="306.445312" />
      </g>
     </g>
    </g>
    <g id="xtick_2">
     <g id="line2d_2">
      <g>
       <use xlink:href="#m6f70c14ce3" x="197.843701" y="29.439375" style="stroke: #000000; stroke-width: 0.3" />
      </g>
     </g>
     <g id="text_2">
      
      <g style="fill: #444443" transform="translate(188.937451 42.518125)scale(0.08 -0.08)">
       <defs>
        <path id="DejaVuSans-37" d="M 525 4666  L 3525 4666  L 3525 4397  L 1831 0  L 1172 0  L 2766 4134  L 525 4134  L 525 4666  z " transform="scale(0.015625)" />
        <path id="DejaVuSans-32" d="M 1228 531  L 3431 531  L 3431 0  L 469 0  L 469 531  Q 828 903 1448 1529  Q 2069 2156 2228 2338  Q 2531 2678 2651 2914  Q 2772 3150 2772 3378  Q 2772 3750 2511 3984  Q 2250 4219 1831 4219  Q 1534 4219 1204 4116  Q 875 4013 500 3803  L 500 4441  Q 881 4594 1212 4672  Q 1544 4750 1819 4750  Q 2544 4750 2975 4387  Q 3406 4025 3406 3419  Q 3406 3131 3298 2873  Q 3191 2616 2906 2266  Q 2828 2175 2409 1742  Q 1991 1309 1228 531  z " transform="scale(0.015625)" />
       </defs>
       <use xlink:href="#DejaVuSans-37" />
       <use xlink:href="#DejaVuSans-2e" x="63.623047" />
       <use xlink:href="#DejaVuSans-31" x="95.410156" />
       <use xlink:href="#DejaVuSans-32" x="159.033203" />
      </g>
     </g>
    </g>
    <g id="text_3">
     
     <g style="fill: #444443" transform="translate(79.905313 56.77125)scale(0.12 -0.12)">
      <defs>
       <path id="ArialMT-74" d="M 1650 503  L 1731 6  Q 1494 -44 1306 -44  Q 1000 -44 831 53  Q 663 150 594 308  Q 525 466 525 972  L 525 2881  L 113 2881  L 113 3319  L 525 3319  L 525 4141  L 1084 4478  L 1084 3319  L 1650 3319  L 1650 2881  L 1084 2881  L 1084 941  Q 1084 700 1114 631  Q 1144 563 1211 522  Q 1278 481 1403 481  Q 1497 481 1650 503  z " transform="scale(0.015625)" />
       <path id="ArialMT-68" d="M 422 0  L 422 4581  L 984 4581  L 984 2938  Q 1378 3394 1978 3394  Q 2347 3394 2619 3248  Q 2891 3103 3008 2847  Q 3125 2591 3125 2103  L 3125 0  L 2563 0  L 2563 2103  Q 2563 2525 2380 2717  Q 2197 2909 1863 2909  Q 1613 2909 1392 2779  Q 1172 2650 1078 2428  Q 984 2206 984 1816  L 984 0  L 422 0  z " transform="scale(0.015625)" />
       <path id="ArialMT-65" d="M 2694 1069  L 3275 997  Q 3138 488 2766 206  Q 2394 -75 1816 -75  Q 1088 -75 661 373  Q 234 822 234 1631  Q 234 2469 665 2931  Q 1097 3394 1784 3394  Q 2450 3394 2872 2941  Q 3294 2488 3294 1666  Q 3294 1616 3291 1516  L 816 1516  Q 847 969 1125 678  Q 1403 388 1819 388  Q 2128 388 2347 550  Q 2566 713 2694 1069  z M 847 1978  L 2700 1978  Q 2663 2397 2488 2606  Q 2219 2931 1791 2931  Q 1403 2931 1139 2672  Q 875 2413 847 1978  z " transform="scale(0.015625)" />
       <path id="ArialMT-61" d="M 2588 409  Q 2275 144 1986 34  Q 1697 -75 1366 -75  Q 819 -75 525 192  Q 231 459 231 875  Q 231 1119 342 1320  Q 453 1522 633 1644  Q 813 1766 1038 1828  Q 1203 1872 1538 1913  Q 2219 1994 2541 2106  Q 2544 2222 2544 2253  Q 2544 2597 2384 2738  Q 2169 2928 1744 2928  Q 1347 2928 1158 2789  Q 969 2650 878 2297  L 328 2372  Q 403 2725 575 2942  Q 747 3159 1072 3276  Q 1397 3394 1825 3394  Q 2250 3394 2515 3294  Q 2781 3194 2906 3042  Q 3031 2891 3081 2659  Q 3109 2516 3109 2141  L 3109 1391  Q 3109 606 3145 398  Q 3181 191 3288 0  L 2700 0  Q 2613 175 2588 409  z M 2541 1666  Q 2234 1541 1622 1453  Q 1275 1403 1131 1340  Q 988 1278 909 1158  Q 831 1038 831 891  Q 831 666 1001 516  Q 1172 366 1500 366  Q 1825 366 2078 508  Q 2331 650 2450 897  Q 2541 1088 2541 1459  L 2541 1666  z " transform="scale(0.015625)" />
       <path id="ArialMT-44" d="M 494 0  L 494 4581  L 2072 4581  Q 2606 4581 2888 4516  Q 3281 4425 3559 4188  Q 3922 3881 4101 3404  Q 4281 2928 4281 2316  Q 4281 1794 4159 1391  Q 4038 988 3847 723  Q 3656 459 3429 307  Q 3203 156 2883 78  Q 2563 0 2147 0  L 494 0  z M 1100 541  L 2078 541  Q 2531 541 2789 625  Q 3047 709 3200 863  Q 3416 1078 3536 1442  Q 3656 1806 3656 2325  Q 3656 3044 3420 3430  Q 3184 3816 2847 3947  Q 2603 4041 2063 4041  L 1100 4041  L 1100 541  z " transform="scale(0.015625)" />
       <path id="ArialMT-4f" d="M 309 2231  Q 309 3372 921 4017  Q 1534 4663 2503 4663  Q 3138 4663 3647 4359  Q 4156 4056 4423 3514  Q 4691 2972 4691 2284  Q 4691 1588 4409 1038  Q 4128 488 3612 205  Q 3097 -78 2500 -78  Q 1853 -78 1343 234  Q 834 547 571 1087  Q 309 1628 309 2231  z M 934 2222  Q 934 1394 1379 917  Q 1825 441 2497 441  Q 3181 441 3623 922  Q 4066 1403 4066 2288  Q 4066 2847 3877 3264  Q 3688 3681 3323 3911  Q 2959 4141 2506 4141  Q 1863 4141 1398 3698  Q 934 3256 934 2222  z " transform="scale(0.015625)" />
       <path id="ArialMT-54" d="M 1659 0  L 1659 4041  L 150 4041  L 150 4581  L 3781 4581  L 3781 4041  L 2266 4041  L 2266 0  L 1659 0  z " transform="scale(0.015625)" />
       <path id="ArialMT-32" d="M 3222 541  L 3222 0  L 194 0  Q 188 203 259 391  Q 375 700 629 1000  Q 884 1300 1366 1694  Q 2113 2306 2375 2664  Q 2638 3022 2638 3341  Q 2638 3675 2398 3904  Q 2159 4134 1775 4134  Q 1369 4134 1125 3890  Q 881 3647 878 3216  L 300 3275  Q 359 3922 746 4261  Q 1134 4600 1788 4600  Q 2447 4600 2831 4234  Q 3216 3869 3216 3328  Q 3216 3053 3103 2787  Q 2991 2522 2730 2228  Q 2469 1934 1863 1422  Q 1356 997 1212 845  Q 1069 694 975 541  L 3222 541  z " transform="scale(0.015625)" />
      </defs>
      <use xlink:href="#ArialMT-74" />
      <use xlink:href="#ArialMT-68" x="27.783203" />
      <use xlink:href="#ArialMT-65" x="83.398438" />
      <use xlink:href="#ArialMT-74" x="139.013672" />
      <use xlink:href="#ArialMT-61" x="166.796875" />
      <use xlink:href="#ArialMT-44" x="222.412109" />
      <use xlink:href="#ArialMT-4f" x="294.628906" />
      <use xlink:href="#ArialMT-54" x="372.412109" />
      <use xlink:href="#ArialMT-32" x="433.496094" />
     </g>
    </g>
   </g>
   <g id="matplotlib.axis_2">
    <g id="ytick_1">
     <g id="line2d_3">
      <defs>
       <path id="m26bec8c368" d="M 0 0  L -3.5 0  " style="stroke: #000000; stroke-width: 0.3" />
      </defs>
      <g>
       <use xlink:href="#m26bec8c368" x="17.18" y="29.439375" style="stroke: #000000; stroke-width: 0.3" />
      </g>
     </g>
     <g id="text_4">
      
      <g style="fill: #444443" transform="translate(5.09 32.47875)scale(0.08 -0.08)">
       <defs>
        <path id="DejaVuSans-30" d="M 2034 4250  Q 1547 4250 1301 3770  Q 1056 3291 1056 2328  Q 1056 1369 1301 889  Q 1547 409 2034 409  Q 2525 409 2770 889  Q 3016 1369 3016 2328  Q 3016 3291 2770 3770  Q 2525 4250 2034 4250  z M 2034 4750  Q 2819 4750 3233 4129  Q 3647 3509 3647 2328  Q 3647 1150 3233 529  Q 2819 -91 2034 -91  Q 1250 -91 836 529  Q 422 1150 422 2328  Q 422 3509 836 4129  Q 1250 4750 2034 4750  z " transform="scale(0.015625)" />
       </defs>
       <use xlink:href="#DejaVuSans-30" />
      </g>
     </g>
    </g>
    <g id="ytick_2">
     <g id="line2d_4">
      <g>
       <use xlink:href="#m26bec8c368" x="17.18" y="3.039375" style="stroke: #000000; stroke-width: 0.3" />
      </g>
     </g>
     <g id="text_5">
      
      <g style="fill: #444443" transform="translate(0 6.07875)scale(0.08 -0.08)">
       <defs>
        <path id="DejaVuSans-34" d="M 2419 4116  L 825 1625  L 2419 1625  L 2419 4116  z M 2253 4666  L 3047 4666  L 3047 1625  L 3713 1625  L 3713 1100  L 3047 1100  L 3047 0  L 2419 0  L 2419 1100  L 313 1100  L 313 1709  L 2253 4666  z " transform="scale(0.015625)" />
       </defs>
       <use xlink:href="#DejaVuSans-31" />
       <use xlink:href="#DejaVuSans-34" x="63.623047" />
      </g>
     </g>
    </g>
   </g>
   <g id="patch_55">
    <path d="M 17.18 29.439375  L 17.18 1.719375  " style="fill: none; stroke: #000000; stroke-width: 0.3; stroke-linejoin: miter; stroke-linecap: square" />
   </g>
   <g id="patch_56">
    <path d="M 17.18 29.439375  L 201.32 29.439375  " style="fill: none; stroke: #000000; stroke-width: 0.3; stroke-linejoin: miter; stroke-linecap: square" />
   </g>
   <g id="text_6">
    
    <g style="fill: #444443" transform="translate(118.504586 46.071375)scale(0.08 -0.08)">
     <defs>
      <path id="ArialMT-2d" d="M 203 1375  L 203 1941  L 1931 1941  L 1931 1375  L 203 1375  z " transform="scale(0.015625)" />
      <path id="ArialMT-30" d="M 266 2259  Q 266 3072 433 3567  Q 600 4063 929 4331  Q 1259 4600 1759 4600  Q 2128 4600 2406 4451  Q 2684 4303 2865 4023  Q 3047 3744 3150 3342  Q 3253 2941 3253 2259  Q 3253 1453 3087 958  Q 2922 463 2592 192  Q 2263 -78 1759 -78  Q 1097 -78 719 397  Q 266 969 266 2259  z M 844 2259  Q 844 1131 1108 757  Q 1372 384 1759 384  Q 2147 384 2411 759  Q 2675 1134 2675 2259  Q 2675 3391 2411 3762  Q 2147 4134 1753 4134  Q 1366 4134 1134 3806  Q 844 3388 844 2259  z " transform="scale(0.015625)" />
      <path id="ArialMT-2e" d="M 581 0  L 581 641  L 1222 641  L 1222 0  L 581 0  z " transform="scale(0.015625)" />
      <path id="ArialMT-37" d="M 303 3981  L 303 4522  L 3269 4522  L 3269 4084  Q 2831 3619 2401 2847  Q 1972 2075 1738 1259  Q 1569 684 1522 0  L 944 0  Q 953 541 1156 1306  Q 1359 2072 1739 2783  Q 2119 3494 2547 3981  L 303 3981  z " transform="scale(0.015625)" />
     </defs>
     <use xlink:href="#ArialMT-2d" />
     <use xlink:href="#ArialMT-30" x="33.300781" />
     <use xlink:href="#ArialMT-2e" x="88.916016" />
     <use xlink:href="#ArialMT-30" x="116.699219" />
     <use xlink:href="#ArialMT-37" x="172.314453" />
    </g>
   </g>
  </g>
 </g>
 <defs>
  <clipPath id="pbedcae303e">
   <rect x="17.18" y="1.719375" width="184.14" height="27.72" />
  </clipPath>
 </defs>
</svg></g>

<g id="node2" class="node">
<title>leaf1</title>
<polygon fill="none" stroke="#444443" stroke-width="0" points="75.5,-83 7.5,-83 7.5,0 75.5,0 75.5,-83" />
<svg width="60px" height="75px" viewBox="0 0 80.079973 101.06522" version="1.1" preserveAspectRatio="xMinYMin meet" x="11.5" y="-78.5">
 <metadata>
  <rdf:RDF>
   <ns2:Work>
    <dc:type rdf:resource="http://purl.org/dc/dcmitype/StillImage" />
    <dc:date>2022-01-16T16:21:29.468739</dc:date>
    <dc:format>image/svg+xml</dc:format>
    <dc:creator>
     <ns2:Agent>
      <dc:title>Matplotlib v3.5.1, https://matplotlib.org/</dc:title>
     </ns2:Agent>
    </dc:creator>
   </ns2:Work>
  </rdf:RDF>
 </metadata>
 <defs>
  <style type="text/css">*{stroke-linejoin: round; stroke-linecap: butt}</style>
 </defs>
 <g id="figure_1">
  <g id="patch_1">
   <path d="M 0 101.06522  L 80.079973 101.06522  L 80.079973 0  L 0 0  z " style="fill: #ffffff" />
  </g>
  <g id="axes_1">
   <g id="patch_2">
    <path d="M 80.079973 40.039989  C 80.079973 34.428994 78.900531 28.880152 76.618333 23.754253  C 74.336136 18.628354 71.001744 14.038957 66.831962 10.284469  C 62.66218 6.529981 57.749385 3.693578 52.413011 1.959685  C 47.076638 0.225793 41.434907 -0.367177 35.85465 0.219333  C 30.274393 0.805842 24.879233 2.558836 20.01997 5.364334  C 15.160706 8.169832 10.944989 11.965681 7.64693 16.505072  C 4.34887 21.044462 2.041533 26.226829 0.874942 31.715211  C -0.291648 37.203592 -0.291647 42.876399 0.874945 48.36478  L 40.039973 40.039989  L 80.079973 40.039989  z " style="fill: #fefebb; stroke: #444443; stroke-width: 0.5; stroke-linejoin: miter" />
   </g>
   <g id="patch_3">
    <path d="M 0.874945 48.36478  C 2.484152 55.935497 6.25452 62.879649 11.727423 68.35255  C 17.200326 73.825451 24.144479 77.595816 31.715197 79.20502  C 39.285915 80.814225 47.16326 80.194263 54.389034 77.420546  C 61.614808 74.64683 67.88365 69.836576 72.433019 63.574903  L 40.039973 40.039989  L 0.874945 48.36478  z " style="fill: #d9e6f5; stroke: #444443; stroke-width: 0.5; stroke-linejoin: miter" />
   </g>
   <g id="patch_4">
    <path d="M 72.433019 63.574903  C 74.902646 60.175752 76.82192 56.408962 78.120279 52.413021  C 79.418638 48.417079 80.079974 44.241561 80.079973 40.039979  L 40.039973 40.039989  L 72.433019 63.574903  z " style="fill: #a1dab4; stroke: #444443; stroke-width: 0.5; stroke-linejoin: miter" />
   </g>
   <g id="text_1">
    
    <g style="fill: #444443" transform="translate(29.904427 89.72522)scale(0.09 -0.09)">
     <defs>
      <path id="ArialMT-6e" d="M 422 0  L 422 3319  L 928 3319  L 928 2847  Q 1294 3394 1984 3394  Q 2284 3394 2536 3286  Q 2788 3178 2913 3003  Q 3038 2828 3088 2588  Q 3119 2431 3119 2041  L 3119 0  L 2556 0  L 2556 2019  Q 2556 2363 2490 2533  Q 2425 2703 2258 2804  Q 2091 2906 1866 2906  Q 1506 2906 1245 2678  Q 984 2450 984 1813  L 984 0  L 422 0  z " transform="scale(0.015625)" />
      <path id="ArialMT-3d" d="M 3381 2694  L 356 2694  L 356 3219  L 3381 3219  L 3381 2694  z M 3381 1303  L 356 1303  L 356 1828  L 3381 1828  L 3381 1303  z " transform="scale(0.015625)" />
      <path id="ArialMT-36" d="M 3184 3459  L 2625 3416  Q 2550 3747 2413 3897  Q 2184 4138 1850 4138  Q 1581 4138 1378 3988  Q 1113 3794 959 3422  Q 806 3050 800 2363  Q 1003 2672 1297 2822  Q 1591 2972 1913 2972  Q 2475 2972 2870 2558  Q 3266 2144 3266 1488  Q 3266 1056 3080 686  Q 2894 316 2569 119  Q 2244 -78 1831 -78  Q 1128 -78 684 439  Q 241 956 241 2144  Q 241 3472 731 4075  Q 1159 4600 1884 4600  Q 2425 4600 2770 4297  Q 3116 3994 3184 3459  z M 888 1484  Q 888 1194 1011 928  Q 1134 663 1356 523  Q 1578 384 1822 384  Q 2178 384 2434 671  Q 2691 959 2691 1453  Q 2691 1928 2437 2201  Q 2184 2475 1800 2475  Q 1419 2475 1153 2201  Q 888 1928 888 1484  z " transform="scale(0.015625)" />
      <path id="ArialMT-32" d="M 3222 541  L 3222 0  L 194 0  Q 188 203 259 391  Q 375 700 629 1000  Q 884 1300 1366 1694  Q 2113 2306 2375 2664  Q 2638 3022 2638 3341  Q 2638 3675 2398 3904  Q 2159 4134 1775 4134  Q 1369 4134 1125 3890  Q 881 3647 878 3216  L 300 3275  Q 359 3922 746 4261  Q 1134 4600 1788 4600  Q 2447 4600 2831 4234  Q 3216 3869 3216 3328  Q 3216 3053 3103 2787  Q 2991 2522 2730 2228  Q 2469 1934 1863 1422  Q 1356 997 1212 845  Q 1069 694 975 541  L 3222 541  z " transform="scale(0.015625)" />
     </defs>
     <use xlink:href="#ArialMT-6e" />
     <use xlink:href="#ArialMT-3d" x="55.615234" />
     <use xlink:href="#ArialMT-36" x="114.013672" />
     <use xlink:href="#ArialMT-32" x="169.628906" />
    </g>
    
    <g style="fill: #444443" transform="translate(20.900911 99.27647)scale(0.09 -0.09)">
     <defs>
      <path id="ArialMT-74" d="M 1650 503  L 1731 6  Q 1494 -44 1306 -44  Q 1000 -44 831 53  Q 663 150 594 308  Q 525 466 525 972  L 525 2881  L 113 2881  L 113 3319  L 525 3319  L 525 4141  L 1084 4478  L 1084 3319  L 1650 3319  L 1650 2881  L 1084 2881  L 1084 941  Q 1084 700 1114 631  Q 1144 563 1211 522  Q 1278 481 1403 481  Q 1497 481 1650 503  z " transform="scale(0.015625)" />
      <path id="ArialMT-6f" d="M 213 1659  Q 213 2581 725 3025  Q 1153 3394 1769 3394  Q 2453 3394 2887 2945  Q 3322 2497 3322 1706  Q 3322 1066 3130 698  Q 2938 331 2570 128  Q 2203 -75 1769 -75  Q 1072 -75 642 372  Q 213 819 213 1659  z M 791 1659  Q 791 1022 1069 705  Q 1347 388 1769 388  Q 2188 388 2466 706  Q 2744 1025 2744 1678  Q 2744 2294 2464 2611  Q 2184 2928 1769 2928  Q 1347 2928 1069 2612  Q 791 2297 791 1659  z " transform="scale(0.015625)" />
      <path id="ArialMT-72" d="M 416 0  L 416 3319  L 922 3319  L 922 2816  Q 1116 3169 1280 3281  Q 1444 3394 1641 3394  Q 1925 3394 2219 3213  L 2025 2691  Q 1819 2813 1613 2813  Q 1428 2813 1281 2702  Q 1134 2591 1072 2394  Q 978 2094 978 1738  L 978 0  L 416 0  z " transform="scale(0.015625)" />
      <path id="ArialMT-71" d="M 2538 -1272  L 2538 353  Q 2406 169 2170 47  Q 1934 -75 1669 -75  Q 1078 -75 651 397  Q 225 869 225 1691  Q 225 2191 398 2587  Q 572 2984 901 3189  Q 1231 3394 1625 3394  Q 2241 3394 2594 2875  L 2594 3319  L 3100 3319  L 3100 -1272  L 2538 -1272  z M 803 1669  Q 803 1028 1072 708  Q 1341 388 1716 388  Q 2075 388 2334 692  Q 2594 997 2594 1619  Q 2594 2281 2320 2615  Q 2047 2950 1678 2950  Q 1313 2950 1058 2639  Q 803 2328 803 1669  z " transform="scale(0.015625)" />
      <path id="ArialMT-75" d="M 2597 0  L 2597 488  Q 2209 -75 1544 -75  Q 1250 -75 995 37  Q 741 150 617 320  Q 494 491 444 738  Q 409 903 409 1263  L 409 3319  L 972 3319  L 972 1478  Q 972 1038 1006 884  Q 1059 663 1231 536  Q 1403 409 1656 409  Q 1909 409 2131 539  Q 2353 669 2445 892  Q 2538 1116 2538 1541  L 2538 3319  L 3100 3319  L 3100 0  L 2597 0  z " transform="scale(0.015625)" />
      <path id="ArialMT-65" d="M 2694 1069  L 3275 997  Q 3138 488 2766 206  Q 2394 -75 1816 -75  Q 1088 -75 661 373  Q 234 822 234 1631  Q 234 2469 665 2931  Q 1097 3394 1784 3394  Q 2450 3394 2872 2941  Q 3294 2488 3294 1666  Q 3294 1616 3291 1516  L 816 1516  Q 847 969 1125 678  Q 1403 388 1819 388  Q 2128 388 2347 550  Q 2566 713 2694 1069  z M 847 1978  L 2700 1978  Q 2663 2397 2488 2606  Q 2219 2931 1791 2931  Q 1403 2931 1139 2672  Q 875 2413 847 1978  z " transform="scale(0.015625)" />
      <path id="ArialMT-20" transform="scale(0.015625)" />
      <path id="ArialMT-2b" d="M 1603 741  L 1603 1997  L 356 1997  L 356 2522  L 1603 2522  L 1603 3769  L 2134 3769  L 2134 2522  L 3381 2522  L 3381 1997  L 2134 1997  L 2134 741  L 1603 741  z " transform="scale(0.015625)" />
      <path id="ArialMT-31" d="M 2384 0  L 1822 0  L 1822 3584  Q 1619 3391 1289 3197  Q 959 3003 697 2906  L 697 3450  Q 1169 3672 1522 3987  Q 1875 4303 2022 4600  L 2384 4600  L 2384 0  z " transform="scale(0.015625)" />
     </defs>
     <use xlink:href="#ArialMT-74" />
     <use xlink:href="#ArialMT-6f" x="27.783203" />
     <use xlink:href="#ArialMT-72" x="83.398438" />
     <use xlink:href="#ArialMT-71" x="116.699219" />
     <use xlink:href="#ArialMT-75" x="172.314453" />
     <use xlink:href="#ArialMT-65" x="227.929688" />
     <use xlink:href="#ArialMT-20" x="283.544922" />
     <use xlink:href="#ArialMT-2b" x="311.328125" />
     <use xlink:href="#ArialMT-31" x="369.726562" />
    </g>
   </g>
  </g>
 </g>
</svg></g>

<g id="edge1" class="edge">
<title>node0-&gt;leaf1</title>
<path fill="none" stroke="#444443" stroke-width="0.3" d="M71.2,-115.26C67.68,-106.65 63.64,-96.75 59.69,-87.08" />
<polygon fill="#444443" stroke="#444443" stroke-width="0.3" points="60.94,-86.41 58.13,-83.24 58.34,-87.47 60.94,-86.41" />
<text text-anchor="start" x="66.5" y="-94.8" font-family="Times New Roman,serif" font-size="14.00">&#8804;</text>
</g>

<g id="node3" class="node">
<title>leaf2</title>
<polygon fill="none" stroke="#444443" stroke-width="0" points="154,-81.5 89,-81.5 89,-1.5 154,-1.5 154,-81.5" />
<svg width="57px" height="72px" viewBox="0 0 75.767994 96.580747" version="1.1" preserveAspectRatio="xMinYMin meet" x="93.5" y="-77.5">
 <metadata>
  <rdf:RDF>
   <ns2:Work>
    <dc:type rdf:resource="http://purl.org/dc/dcmitype/StillImage" />
    <dc:date>2022-01-16T16:21:29.534665</dc:date>
    <dc:format>image/svg+xml</dc:format>
    <dc:creator>
     <ns2:Agent>
      <dc:title>Matplotlib v3.5.1, https://matplotlib.org/</dc:title>
     </ns2:Agent>
    </dc:creator>
   </ns2:Work>
  </rdf:RDF>
 </metadata>
 <defs>
  <style type="text/css">*{stroke-linejoin: round; stroke-linecap: butt}</style>
 </defs>
 <g id="figure_1">
  <g id="patch_1">
   <path d="M 0 96.580747  L 75.767994 96.580747  L 75.767994 0  L 0 0  z " style="fill: #ffffff" />
  </g>
  <g id="axes_1">
   <g id="patch_2">
    <path d="M 75.767994 37.883996  C 75.767994 37.162637 75.747391 36.441425 75.70621 35.721243  C 75.665028 35.001061 75.603285 34.282202 75.521057 33.565545  L 37.883994 37.883996  L 75.767994 37.883996  z " style="fill: #fefebb; stroke: #444443; stroke-width: 0.5; stroke-linejoin: miter" />
   </g>
   <g id="patch_3">
    <path d="M 75.521057 33.565545  C 74.860424 27.807859 72.887307 22.277813 69.754044 17.402359  C 66.62078 12.526906 62.410135 8.434832 57.447197 5.44207  L 37.883994 37.883996  L 75.521057 33.565545  z " style="fill: #d9e6f5; stroke: #444443; stroke-width: 0.5; stroke-linejoin: miter" />
   </g>
   <g id="patch_4">
    <path d="M 57.447197 5.44207  C 53.8875 3.295494 49.998652 1.749362 45.936819 0.865764  C 41.874987 -0.017834 37.69528 -0.226909 33.565546 0.246933  C 29.435812 0.720776 25.412082 1.871108 21.655941 3.651734  C 17.899799 5.43236 14.462208 7.819122 11.481213 10.716173  C 8.500219 13.613223 6.016266 16.981255 4.129105 20.685017  C 2.241943 24.388779 0.977178 28.378019 0.385599 32.492537  C -0.205979 36.607056 -0.116346 40.791029 0.650901 44.876437  C 1.418148 48.961845 2.852599 52.893259 4.896648 56.512802  C 6.940698 60.132345 9.566613 63.390908 12.668943 66.157635  C 15.771274 68.924361 19.307928 71.161713 23.136882 72.779842  C 26.965835 74.397972 31.035138 75.374926 35.181376 75.671471  C 39.327614 75.968017 43.494532 75.58013 47.514797 74.523388  C 51.535061 73.466647 55.354126 71.755388 58.818626 69.458331  C 62.283126 67.161275 65.346056 64.309587 67.884416 61.017785  C 70.422775 57.725983 72.402124 54.038729 73.742977 50.104095  C 75.08383 46.169461 75.767994 42.040831 75.767994 37.884002  L 37.883994 37.883996  L 57.447197 5.44207  z " style="fill: #a1dab4; stroke: #444443; stroke-width: 0.5; stroke-linejoin: miter" />
   </g>
   <g id="text_1">
    
    <g style="fill: #444443" transform="translate(27.748448 85.240747)scale(0.09 -0.09)">
     <defs>
      <path id="ArialMT-6e" d="M 422 0  L 422 3319  L 928 3319  L 928 2847  Q 1294 3394 1984 3394  Q 2284 3394 2536 3286  Q 2788 3178 2913 3003  Q 3038 2828 3088 2588  Q 3119 2431 3119 2041  L 3119 0  L 2556 0  L 2556 2019  Q 2556 2363 2490 2533  Q 2425 2703 2258 2804  Q 2091 2906 1866 2906  Q 1506 2906 1245 2678  Q 984 2450 984 1813  L 984 0  L 422 0  z " transform="scale(0.015625)" />
      <path id="ArialMT-3d" d="M 3381 2694  L 356 2694  L 356 3219  L 3381 3219  L 3381 2694  z M 3381 1303  L 356 1303  L 356 1828  L 3381 1828  L 3381 1303  z " transform="scale(0.015625)" />
      <path id="ArialMT-35" d="M 266 1200  L 856 1250  Q 922 819 1161 601  Q 1400 384 1738 384  Q 2144 384 2425 690  Q 2706 997 2706 1503  Q 2706 1984 2436 2262  Q 2166 2541 1728 2541  Q 1456 2541 1237 2417  Q 1019 2294 894 2097  L 366 2166  L 809 4519  L 3088 4519  L 3088 3981  L 1259 3981  L 1013 2750  Q 1425 3038 1878 3038  Q 2478 3038 2890 2622  Q 3303 2206 3303 1553  Q 3303 931 2941 478  Q 2500 -78 1738 -78  Q 1113 -78 717 272  Q 322 622 266 1200  z " transform="scale(0.015625)" />
      <path id="ArialMT-34" d="M 2069 0  L 2069 1097  L 81 1097  L 81 1613  L 2172 4581  L 2631 4581  L 2631 1613  L 3250 1613  L 3250 1097  L 2631 1097  L 2631 0  L 2069 0  z M 2069 1613  L 2069 3678  L 634 1613  L 2069 1613  z " transform="scale(0.015625)" />
     </defs>
     <use xlink:href="#ArialMT-6e" />
     <use xlink:href="#ArialMT-3d" x="55.615234" />
     <use xlink:href="#ArialMT-35" x="114.013672" />
     <use xlink:href="#ArialMT-34" x="169.628906" />
    </g>
    
    <g style="fill: #444443" transform="translate(19.874854 94.791997)scale(0.09 -0.09)">
     <defs>
      <path id="ArialMT-74" d="M 1650 503  L 1731 6  Q 1494 -44 1306 -44  Q 1000 -44 831 53  Q 663 150 594 308  Q 525 466 525 972  L 525 2881  L 113 2881  L 113 3319  L 525 3319  L 525 4141  L 1084 4478  L 1084 3319  L 1650 3319  L 1650 2881  L 1084 2881  L 1084 941  Q 1084 700 1114 631  Q 1144 563 1211 522  Q 1278 481 1403 481  Q 1497 481 1650 503  z " transform="scale(0.015625)" />
      <path id="ArialMT-6f" d="M 213 1659  Q 213 2581 725 3025  Q 1153 3394 1769 3394  Q 2453 3394 2887 2945  Q 3322 2497 3322 1706  Q 3322 1066 3130 698  Q 2938 331 2570 128  Q 2203 -75 1769 -75  Q 1072 -75 642 372  Q 213 819 213 1659  z M 791 1659  Q 791 1022 1069 705  Q 1347 388 1769 388  Q 2188 388 2466 706  Q 2744 1025 2744 1678  Q 2744 2294 2464 2611  Q 2184 2928 1769 2928  Q 1347 2928 1069 2612  Q 791 2297 791 1659  z " transform="scale(0.015625)" />
      <path id="ArialMT-72" d="M 416 0  L 416 3319  L 922 3319  L 922 2816  Q 1116 3169 1280 3281  Q 1444 3394 1641 3394  Q 1925 3394 2219 3213  L 2025 2691  Q 1819 2813 1613 2813  Q 1428 2813 1281 2702  Q 1134 2591 1072 2394  Q 978 2094 978 1738  L 978 0  L 416 0  z " transform="scale(0.015625)" />
      <path id="ArialMT-71" d="M 2538 -1272  L 2538 353  Q 2406 169 2170 47  Q 1934 -75 1669 -75  Q 1078 -75 651 397  Q 225 869 225 1691  Q 225 2191 398 2587  Q 572 2984 901 3189  Q 1231 3394 1625 3394  Q 2241 3394 2594 2875  L 2594 3319  L 3100 3319  L 3100 -1272  L 2538 -1272  z M 803 1669  Q 803 1028 1072 708  Q 1341 388 1716 388  Q 2075 388 2334 692  Q 2594 997 2594 1619  Q 2594 2281 2320 2615  Q 2047 2950 1678 2950  Q 1313 2950 1058 2639  Q 803 2328 803 1669  z " transform="scale(0.015625)" />
      <path id="ArialMT-75" d="M 2597 0  L 2597 488  Q 2209 -75 1544 -75  Q 1250 -75 995 37  Q 741 150 617 320  Q 494 491 444 738  Q 409 903 409 1263  L 409 3319  L 972 3319  L 972 1478  Q 972 1038 1006 884  Q 1059 663 1231 536  Q 1403 409 1656 409  Q 1909 409 2131 539  Q 2353 669 2445 892  Q 2538 1116 2538 1541  L 2538 3319  L 3100 3319  L 3100 0  L 2597 0  z " transform="scale(0.015625)" />
      <path id="ArialMT-65" d="M 2694 1069  L 3275 997  Q 3138 488 2766 206  Q 2394 -75 1816 -75  Q 1088 -75 661 373  Q 234 822 234 1631  Q 234 2469 665 2931  Q 1097 3394 1784 3394  Q 2450 3394 2872 2941  Q 3294 2488 3294 1666  Q 3294 1616 3291 1516  L 816 1516  Q 847 969 1125 678  Q 1403 388 1819 388  Q 2128 388 2347 550  Q 2566 713 2694 1069  z M 847 1978  L 2700 1978  Q 2663 2397 2488 2606  Q 2219 2931 1791 2931  Q 1403 2931 1139 2672  Q 875 2413 847 1978  z " transform="scale(0.015625)" />
      <path id="ArialMT-20" transform="scale(0.015625)" />
      <path id="ArialMT-2d" d="M 203 1375  L 203 1941  L 1931 1941  L 1931 1375  L 203 1375  z " transform="scale(0.015625)" />
      <path id="ArialMT-31" d="M 2384 0  L 1822 0  L 1822 3584  Q 1619 3391 1289 3197  Q 959 3003 697 2906  L 697 3450  Q 1169 3672 1522 3987  Q 1875 4303 2022 4600  L 2384 4600  L 2384 0  z " transform="scale(0.015625)" />
     </defs>
     <use xlink:href="#ArialMT-74" />
     <use xlink:href="#ArialMT-6f" x="27.783203" />
     <use xlink:href="#ArialMT-72" x="83.398438" />
     <use xlink:href="#ArialMT-71" x="116.699219" />
     <use xlink:href="#ArialMT-75" x="172.314453" />
     <use xlink:href="#ArialMT-65" x="227.929688" />
     <use xlink:href="#ArialMT-20" x="283.544922" />
     <use xlink:href="#ArialMT-2d" x="311.328125" />
     <use xlink:href="#ArialMT-31" x="344.628906" />
    </g>
   </g>
  </g>
 </g>
</svg></g>

<g id="edge2" class="edge">
<title>node0-&gt;leaf2</title>
<path fill="none" stroke="#444443" stroke-width="0.3" d="M91.8,-115.26C95.51,-106.17 99.81,-95.64 103.97,-85.46" />
<polygon fill="#444443" stroke="#444443" stroke-width="0.3" points="105.27,-85.96 105.49,-81.73 102.68,-84.9 105.27,-85.96" />
<text text-anchor="start" x="101.5" y="-94.8" font-family="Times New Roman,serif" font-size="14.00">&gt;</text>
</g>


<g id="node4" class="node">
<title>legend</title>
<polygon fill="none" stroke="black" stroke-width="0" points="295,-169 170,-169 170,-114 295,-114 295,-169" />
<svg width="121px" height="51px" viewBox="0 0 161.517187 68.203125" version="1.1" preserveAspectRatio="xMinYMin meet" x="172.5" y="-166.5">
 <metadata>
  <rdf:RDF>
   <ns2:Work>
    <dc:type rdf:resource="http://purl.org/dc/dcmitype/StillImage" />
    <dc:date>2022-01-16T16:21:29.081465</dc:date>
    <dc:format>image/svg+xml</dc:format>
    <dc:creator>
     <ns2:Agent>
      <dc:title>Matplotlib v3.5.1, https://matplotlib.org/</dc:title>
     </ns2:Agent>
    </dc:creator>
   </ns2:Work>
  </rdf:RDF>
 </metadata>
 <defs>
  <style type="text/css">*{stroke-linejoin: round; stroke-linecap: butt}</style>
 </defs>
 <g id="figure_1">
  <g id="patch_1">
   <path d="M 0 68.203125  L 161.517187 68.203125  L 161.517187 0  L 0 0  z " style="fill: #ffffff" />
  </g>
  <g id="axes_1">
   <g id="legend_1">
    <g id="patch_2">
     <path d="M 2 68.203125  L 159.517188 68.203125  Q 161.517188 68.203125 161.517188 66.203125  L 161.517188 2  Q 161.517188 -0 159.517188 -0  L 2 -0  Q -0 -0 -0 2  L -0 66.203125  Q -0 68.203125 2 68.203125  z " style="fill: #ffffff; opacity: 0.8; stroke: #444443; stroke-width: 0.5; stroke-linejoin: miter" />
    </g>
    <g id="text_1">
     
     <g style="fill: #444443" transform="translate(8 15.598437)scale(0.1 -0.1)">
      <defs>
       <path id="DejaVuSans-Bold-41" d="M 3419 850  L 1538 850  L 1241 0  L 31 0  L 1759 4666  L 3194 4666  L 4922 0  L 3713 0  L 3419 850  z M 1838 1716  L 3116 1716  L 2478 3572  L 1838 1716  z " transform="scale(0.015625)" />
       <path id="DejaVuSans-Bold-63" d="M 3366 3391  L 3366 2478  Q 3138 2634 2908 2709  Q 2678 2784 2431 2784  Q 1963 2784 1702 2511  Q 1441 2238 1441 1747  Q 1441 1256 1702 982  Q 1963 709 2431 709  Q 2694 709 2930 787  Q 3166 866 3366 1019  L 3366 103  Q 3103 6 2833 -42  Q 2563 -91 2291 -91  Q 1344 -91 809 395  Q 275 881 275 1747  Q 275 2613 809 3098  Q 1344 3584 2291 3584  Q 2566 3584 2833 3536  Q 3100 3488 3366 3391  z " transform="scale(0.015625)" />
       <path id="DejaVuSans-Bold-72" d="M 3138 2547  Q 2991 2616 2845 2648  Q 2700 2681 2553 2681  Q 2122 2681 1889 2404  Q 1656 2128 1656 1613  L 1656 0  L 538 0  L 538 3500  L 1656 3500  L 1656 2925  Q 1872 3269 2151 3426  Q 2431 3584 2822 3584  Q 2878 3584 2943 3579  Q 3009 3575 3134 3559  L 3138 2547  z " transform="scale(0.015625)" />
       <path id="DejaVuSans-Bold-6f" d="M 2203 2784  Q 1831 2784 1636 2517  Q 1441 2250 1441 1747  Q 1441 1244 1636 976  Q 1831 709 2203 709  Q 2569 709 2762 976  Q 2956 1244 2956 1747  Q 2956 2250 2762 2517  Q 2569 2784 2203 2784  z M 2203 3584  Q 3106 3584 3614 3096  Q 4122 2609 4122 1747  Q 4122 884 3614 396  Q 3106 -91 2203 -91  Q 1297 -91 786 396  Q 275 884 275 1747  Q 275 2609 786 3096  Q 1297 3584 2203 3584  z " transform="scale(0.015625)" />
       <path id="DejaVuSans-Bold-62" d="M 2400 722  Q 2759 722 2948 984  Q 3138 1247 3138 1747  Q 3138 2247 2948 2509  Q 2759 2772 2400 2772  Q 2041 2772 1848 2508  Q 1656 2244 1656 1747  Q 1656 1250 1848 986  Q 2041 722 2400 722  z M 1656 2988  Q 1888 3294 2169 3439  Q 2450 3584 2816 3584  Q 3463 3584 3878 3070  Q 4294 2556 4294 1747  Q 4294 938 3878 423  Q 3463 -91 2816 -91  Q 2450 -91 2169 54  Q 1888 200 1656 506  L 1656 0  L 538 0  L 538 4863  L 1656 4863  L 1656 2988  z " transform="scale(0.015625)" />
       <path id="DejaVuSans-Bold-74" d="M 1759 4494  L 1759 3500  L 2913 3500  L 2913 2700  L 1759 2700  L 1759 1216  Q 1759 972 1856 886  Q 1953 800 2241 800  L 2816 800  L 2816 0  L 1856 0  Q 1194 0 917 276  Q 641 553 641 1216  L 641 2700  L 84 2700  L 84 3500  L 641 3500  L 641 4494  L 1759 4494  z " transform="scale(0.015625)" />
       <path id="DejaVuSans-Bold-2d" d="M 347 2297  L 2309 2297  L 2309 1388  L 347 1388  L 347 2297  z " transform="scale(0.015625)" />
       <path id="DejaVuSans-Bold-76" d="M 97 3500  L 1216 3500  L 2088 1081  L 2956 3500  L 4078 3500  L 2700 0  L 1472 0  L 97 3500  z " transform="scale(0.015625)" />
       <path id="DejaVuSans-Bold-31" d="M 750 831  L 1813 831  L 1813 3847  L 722 3622  L 722 4441  L 1806 4666  L 2950 4666  L 2950 831  L 4013 831  L 4013 0  L 750 0  L 750 831  z " transform="scale(0.015625)" />
       <path id="DejaVuSans-Bold-3a" d="M 716 3500  L 1844 3500  L 1844 2291  L 716 2291  L 716 3500  z M 716 1209  L 1844 1209  L 1844 0  L 716 0  L 716 1209  z " transform="scale(0.015625)" />
       <path id="DejaVuSans-Bold-20" transform="scale(0.015625)" />
       <path id="DejaVuSans-Bold-38" d="M 2228 2088  Q 1891 2088 1709 1903  Q 1528 1719 1528 1375  Q 1528 1031 1709 848  Q 1891 666 2228 666  Q 2563 666 2741 848  Q 2919 1031 2919 1375  Q 2919 1722 2741 1905  Q 2563 2088 2228 2088  z M 1350 2484  Q 925 2613 709 2878  Q 494 3144 494 3541  Q 494 4131 934 4440  Q 1375 4750 2228 4750  Q 3075 4750 3515 4442  Q 3956 4134 3956 3541  Q 3956 3144 3739 2878  Q 3522 2613 3097 2484  Q 3572 2353 3814 2058  Q 4056 1763 4056 1313  Q 4056 619 3595 264  Q 3134 -91 2228 -91  Q 1319 -91 855 264  Q 391 619 391 1313  Q 391 1763 633 2058  Q 875 2353 1350 2484  z M 1631 3419  Q 1631 3141 1786 2991  Q 1941 2841 2228 2841  Q 2509 2841 2662 2991  Q 2816 3141 2816 3419  Q 2816 3697 2662 3845  Q 2509 3994 2228 3994  Q 1941 3994 1786 3844  Q 1631 3694 1631 3419  z " transform="scale(0.015625)" />
       <path id="DejaVuSans-Bold-2e" d="M 653 1209  L 1778 1209  L 1778 0  L 653 0  L 653 1209  z " transform="scale(0.015625)" />
       <path id="DejaVuSans-Bold-34" d="M 2356 3675  L 1038 1722  L 2356 1722  L 2356 3675  z M 2156 4666  L 3494 4666  L 3494 1722  L 4159 1722  L 4159 850  L 3494 850  L 3494 0  L 2356 0  L 2356 850  L 288 850  L 288 1881  L 2156 4666  z " transform="scale(0.015625)" />
       <path id="DejaVuSans-Bold-26" d="M 2497 3097  L 3775 1691  Q 3941 1909 4027 2181  Q 4113 2453 4128 2797  L 5100 2797  Q 5053 2228 4879 1784  Q 4706 1341 4397 1006  L 5313 0  L 3988 0  L 3681 341  Q 3353 122 2990 15  Q 2628 -91 2222 -91  Q 1400 -91 892 342  Q 384 775 384 1459  Q 384 1916 607 2267  Q 831 2619 1338 2950  Q 1206 3116 1143 3281  Q 1081 3447 1081 3628  Q 1081 4138 1478 4444  Q 1875 4750 2534 4750  Q 2819 4750 3126 4704  Q 3434 4659 3769 4569  L 3769 3700  Q 3475 3850 3212 3922  Q 2950 3994 2700 3994  Q 2459 3994 2326 3901  Q 2194 3809 2194 3641  Q 2194 3534 2270 3398  Q 2347 3263 2497 3097  z M 1875 2322  Q 1672 2175 1569 1989  Q 1466 1803 1466 1581  Q 1466 1222 1731 969  Q 1997 716 2369 716  Q 2578 716 2759 780  Q 2941 844 3097 972  L 1875 2322  z " transform="scale(0.015625)" />
       <path id="DejaVuSans-Bold-33" d="M 2981 2516  Q 3453 2394 3698 2092  Q 3944 1791 3944 1325  Q 3944 631 3412 270  Q 2881 -91 1863 -91  Q 1503 -91 1142 -33  Q 781 25 428 141  L 428 1069  Q 766 900 1098 814  Q 1431 728 1753 728  Q 2231 728 2486 893  Q 2741 1059 2741 1369  Q 2741 1688 2480 1852  Q 2219 2016 1709 2016  L 1228 2016  L 1228 2791  L 1734 2791  Q 2188 2791 2409 2933  Q 2631 3075 2631 3366  Q 2631 3634 2415 3781  Q 2200 3928 1806 3928  Q 1516 3928 1219 3862  Q 922 3797 628 3669  L 628 4550  Q 984 4650 1334 4700  Q 1684 4750 2022 4750  Q 2931 4750 3382 4451  Q 3834 4153 3834 3553  Q 3834 3144 3618 2883  Q 3403 2622 2981 2516  z " transform="scale(0.015625)" />
       <path id="DejaVuSans-Bold-32" d="M 1844 884  L 3897 884  L 3897 0  L 506 0  L 506 884  L 2209 2388  Q 2438 2594 2547 2791  Q 2656 2988 2656 3200  Q 2656 3528 2436 3728  Q 2216 3928 1850 3928  Q 1569 3928 1234 3808  Q 900 3688 519 3450  L 519 4475  Q 925 4609 1322 4679  Q 1719 4750 2100 4750  Q 2938 4750 3402 4381  Q 3866 4013 3866 3353  Q 3866 2972 3669 2642  Q 3472 2313 2841 1759  L 1844 884  z " transform="scale(0.015625)" />
       <path id="DejaVuSans-Bold-35" d="M 678 4666  L 3669 4666  L 3669 3781  L 1638 3781  L 1638 3059  Q 1775 3097 1914 3117  Q 2053 3138 2203 3138  Q 3056 3138 3531 2711  Q 4006 2284 4006 1522  Q 4006 766 3489 337  Q 2972 -91 2053 -91  Q 1656 -91 1267 -14  Q 878 63 494 219  L 494 1166  Q 875 947 1217 837  Q 1559 728 1863 728  Q 2300 728 2551 942  Q 2803 1156 2803 1522  Q 2803 1891 2551 2103  Q 2300 2316 1863 2316  Q 1603 2316 1309 2248  Q 1016 2181 678 2041  L 678 4666  z " transform="scale(0.015625)" />
      </defs>
      <use xlink:href="#DejaVuSans-Bold-41" />
      <use xlink:href="#DejaVuSans-Bold-63" x="77.392578" />
      <use xlink:href="#DejaVuSans-Bold-72" x="136.669922" />
      <use xlink:href="#DejaVuSans-Bold-6f" x="185.986328" />
      <use xlink:href="#DejaVuSans-Bold-62" x="254.6875" />
      <use xlink:href="#DejaVuSans-Bold-6f" x="326.269531" />
      <use xlink:href="#DejaVuSans-Bold-74" x="394.970703" />
      <use xlink:href="#DejaVuSans-Bold-2d" x="442.773438" />
      <use xlink:href="#DejaVuSans-Bold-76" x="484.277344" />
      <use xlink:href="#DejaVuSans-Bold-31" x="549.462891" />
      <use xlink:href="#DejaVuSans-Bold-3a" x="619.042969" />
      <use xlink:href="#DejaVuSans-Bold-20" x="659.033203" />
      <use xlink:href="#DejaVuSans-Bold-2d" x="693.847656" />
      <use xlink:href="#DejaVuSans-Bold-38" x="735.351562" />
      <use xlink:href="#DejaVuSans-Bold-38" x="804.931641" />
      <use xlink:href="#DejaVuSans-Bold-2e" x="874.511719" />
      <use xlink:href="#DejaVuSans-Bold-34" x="912.5" />
      <use xlink:href="#DejaVuSans-Bold-20" x="982.080078" />
      <use xlink:href="#DejaVuSans-Bold-26" x="1016.894531" />
      <use xlink:href="#DejaVuSans-Bold-20" x="1104.101562" />
      <use xlink:href="#DejaVuSans-Bold-33" x="1138.916016" />
      <use xlink:href="#DejaVuSans-Bold-38" x="1208.496094" />
      <use xlink:href="#DejaVuSans-Bold-2e" x="1278.076172" />
      <use xlink:href="#DejaVuSans-Bold-32" x="1316.064453" />
      <use xlink:href="#DejaVuSans-Bold-35" x="1385.644531" />
     </g>
    </g>
    <g id="patch_3">
     <path d="M 47.742969 29.865625  L 67.742969 29.865625  L 67.742969 22.865625  L 47.742969 22.865625  z " style="fill: #fefebb; stroke: #444443; stroke-width: 0.4; stroke-linejoin: miter" />
    </g>
    <g id="text_2">
     
     <g style="fill: #444443" transform="translate(71.242969 29.865625)scale(0.1 -0.1)">
      <defs>
       <path id="ArialMT-74" d="M 1650 503  L 1731 6  Q 1494 -44 1306 -44  Q 1000 -44 831 53  Q 663 150 594 308  Q 525 466 525 972  L 525 2881  L 113 2881  L 113 3319  L 525 3319  L 525 4141  L 1084 4478  L 1084 3319  L 1650 3319  L 1650 2881  L 1084 2881  L 1084 941  Q 1084 700 1114 631  Q 1144 563 1211 522  Q 1278 481 1403 481  Q 1497 481 1650 503  z " transform="scale(0.015625)" />
       <path id="ArialMT-6f" d="M 213 1659  Q 213 2581 725 3025  Q 1153 3394 1769 3394  Q 2453 3394 2887 2945  Q 3322 2497 3322 1706  Q 3322 1066 3130 698  Q 2938 331 2570 128  Q 2203 -75 1769 -75  Q 1072 -75 642 372  Q 213 819 213 1659  z M 791 1659  Q 791 1022 1069 705  Q 1347 388 1769 388  Q 2188 388 2466 706  Q 2744 1025 2744 1678  Q 2744 2294 2464 2611  Q 2184 2928 1769 2928  Q 1347 2928 1069 2612  Q 791 2297 791 1659  z " transform="scale(0.015625)" />
       <path id="ArialMT-72" d="M 416 0  L 416 3319  L 922 3319  L 922 2816  Q 1116 3169 1280 3281  Q 1444 3394 1641 3394  Q 1925 3394 2219 3213  L 2025 2691  Q 1819 2813 1613 2813  Q 1428 2813 1281 2702  Q 1134 2591 1072 2394  Q 978 2094 978 1738  L 978 0  L 416 0  z " transform="scale(0.015625)" />
       <path id="ArialMT-71" d="M 2538 -1272  L 2538 353  Q 2406 169 2170 47  Q 1934 -75 1669 -75  Q 1078 -75 651 397  Q 225 869 225 1691  Q 225 2191 398 2587  Q 572 2984 901 3189  Q 1231 3394 1625 3394  Q 2241 3394 2594 2875  L 2594 3319  L 3100 3319  L 3100 -1272  L 2538 -1272  z M 803 1669  Q 803 1028 1072 708  Q 1341 388 1716 388  Q 2075 388 2334 692  Q 2594 997 2594 1619  Q 2594 2281 2320 2615  Q 2047 2950 1678 2950  Q 1313 2950 1058 2639  Q 803 2328 803 1669  z " transform="scale(0.015625)" />
       <path id="ArialMT-75" d="M 2597 0  L 2597 488  Q 2209 -75 1544 -75  Q 1250 -75 995 37  Q 741 150 617 320  Q 494 491 444 738  Q 409 903 409 1263  L 409 3319  L 972 3319  L 972 1478  Q 972 1038 1006 884  Q 1059 663 1231 536  Q 1403 409 1656 409  Q 1909 409 2131 539  Q 2353 669 2445 892  Q 2538 1116 2538 1541  L 2538 3319  L 3100 3319  L 3100 0  L 2597 0  z " transform="scale(0.015625)" />
       <path id="ArialMT-65" d="M 2694 1069  L 3275 997  Q 3138 488 2766 206  Q 2394 -75 1816 -75  Q 1088 -75 661 373  Q 234 822 234 1631  Q 234 2469 665 2931  Q 1097 3394 1784 3394  Q 2450 3394 2872 2941  Q 3294 2488 3294 1666  Q 3294 1616 3291 1516  L 816 1516  Q 847 969 1125 678  Q 1403 388 1819 388  Q 2128 388 2347 550  Q 2566 713 2694 1069  z M 847 1978  L 2700 1978  Q 2663 2397 2488 2606  Q 2219 2931 1791 2931  Q 1403 2931 1139 2672  Q 875 2413 847 1978  z " transform="scale(0.015625)" />
       <path id="ArialMT-20" transform="scale(0.015625)" />
       <path id="ArialMT-2b" d="M 1603 741  L 1603 1997  L 356 1997  L 356 2522  L 1603 2522  L 1603 3769  L 2134 3769  L 2134 2522  L 3381 2522  L 3381 1997  L 2134 1997  L 2134 741  L 1603 741  z " transform="scale(0.015625)" />
       <path id="ArialMT-31" d="M 2384 0  L 1822 0  L 1822 3584  Q 1619 3391 1289 3197  Q 959 3003 697 2906  L 697 3450  Q 1169 3672 1522 3987  Q 1875 4303 2022 4600  L 2384 4600  L 2384 0  z " transform="scale(0.015625)" />
      </defs>
      <use xlink:href="#ArialMT-74" />
      <use xlink:href="#ArialMT-6f" x="27.783203" />
      <use xlink:href="#ArialMT-72" x="83.398438" />
      <use xlink:href="#ArialMT-71" x="116.699219" />
      <use xlink:href="#ArialMT-75" x="172.314453" />
      <use xlink:href="#ArialMT-65" x="227.929688" />
      <use xlink:href="#ArialMT-20" x="283.544922" />
      <use xlink:href="#ArialMT-2b" x="311.328125" />
      <use xlink:href="#ArialMT-31" x="369.726562" />
     </g>
    </g>
    <g id="patch_4">
     <path d="M 47.742969 44.040625  L 67.742969 44.040625  L 67.742969 37.040625  L 47.742969 37.040625  z " style="fill: #d9e6f5; stroke: #444443; stroke-width: 0.4; stroke-linejoin: miter" />
    </g>
    <g id="text_3">
     
     <g style="fill: #444443" transform="translate(71.242969 44.040625)scale(0.1 -0.1)">
      <defs>
       <path id="ArialMT-30" d="M 266 2259  Q 266 3072 433 3567  Q 600 4063 929 4331  Q 1259 4600 1759 4600  Q 2128 4600 2406 4451  Q 2684 4303 2865 4023  Q 3047 3744 3150 3342  Q 3253 2941 3253 2259  Q 3253 1453 3087 958  Q 2922 463 2592 192  Q 2263 -78 1759 -78  Q 1097 -78 719 397  Q 266 969 266 2259  z M 844 2259  Q 844 1131 1108 757  Q 1372 384 1759 384  Q 2147 384 2411 759  Q 2675 1134 2675 2259  Q 2675 3391 2411 3762  Q 2147 4134 1753 4134  Q 1366 4134 1134 3806  Q 844 3388 844 2259  z " transform="scale(0.015625)" />
      </defs>
      <use xlink:href="#ArialMT-74" />
      <use xlink:href="#ArialMT-6f" x="27.783203" />
      <use xlink:href="#ArialMT-72" x="83.398438" />
      <use xlink:href="#ArialMT-71" x="116.699219" />
      <use xlink:href="#ArialMT-75" x="172.314453" />
      <use xlink:href="#ArialMT-65" x="227.929688" />
      <use xlink:href="#ArialMT-20" x="283.544922" />
      <use xlink:href="#ArialMT-30" x="311.328125" />
     </g>
    </g>
    <g id="patch_5">
     <path d="M 47.742969 58.215625  L 67.742969 58.215625  L 67.742969 51.215625  L 47.742969 51.215625  z " style="fill: #a1dab4; stroke: #444443; stroke-width: 0.4; stroke-linejoin: miter" />
    </g>
    <g id="text_4">
     
     <g style="fill: #444443" transform="translate(71.242969 58.215625)scale(0.1 -0.1)">
      <defs>
       <path id="ArialMT-2d" d="M 203 1375  L 203 1941  L 1931 1941  L 1931 1375  L 203 1375  z " transform="scale(0.015625)" />
      </defs>
      <use xlink:href="#ArialMT-74" />
      <use xlink:href="#ArialMT-6f" x="27.783203" />
      <use xlink:href="#ArialMT-72" x="83.398438" />
      <use xlink:href="#ArialMT-71" x="116.699219" />
      <use xlink:href="#ArialMT-75" x="172.314453" />
      <use xlink:href="#ArialMT-65" x="227.929688" />
      <use xlink:href="#ArialMT-20" x="283.544922" />
      <use xlink:href="#ArialMT-2d" x="311.328125" />
      <use xlink:href="#ArialMT-31" x="344.628906" />
     </g>
    </g>
   </g>
  </g>
 </g>
</svg></g>
</g>
</svg>